<svg width="50" height="52" viewBox="0 0 50 52" fill="none" xmlns="http://www.w3.org/2000/svg">
<path fill-rule="evenodd" clip-rule="evenodd" d="M15.6629 8.99236C22.4448 4.86025 29.9373 10.8123 36.1033 15.8171C41.4527 20.1592 46.7308 25.9245 44.5927 32.4741C42.3523 39.3375 34.7454 42.1395 27.5258 42.0932C19.8392 42.0439 11.7311 39.483 9.13772 32.2469C6.1348 23.8679 8.06181 13.6236 15.6629 8.99236Z" fill="#EEF4FF"/>
<g clip-path="url(#clip0_3659_225)">
<path d="M23.5924 21.7206C21.9852 20.3637 20.9288 17.5535 22.6874 15.1009C23.8344 13.4996 25.4297 12.826 27.3887 12.9977C27.8334 13.0358 28.0147 12.9202 28.0576 12.5327C28.364 9.77844 30.4601 7.70741 33.2286 7.42364C35.8624 7.15418 38.3329 8.78644 39.1711 11.3511C39.3189 11.803 39.5526 11.8817 39.989 11.7088C40.3801 11.5526 40.7902 11.3845 41.2028 11.3511C43.362 11.1794 45.0408 12.8331 44.8858 15.0246C44.8262 15.8783 45.005 15.8437 45.6596 15.9272C47.584 16.1656 48.9599 18.0614 48.6237 19.9727C48.3113 21.7444 46.8901 22.9534 45.0754 22.9534C42.9924 22.963 40.9094 22.9534 38.8253 22.9534C38.7383 22.9534 38.6512 22.9451 38.5654 22.9403V23.8703H42.593V27.2255H42.2651C41.0044 27.2255 39.7442 27.2255 38.4843 27.2255C38.0443 27.2255 37.9132 27.3518 37.9108 27.7894C37.9108 28.6133 37.9036 29.4372 37.9108 30.2599C37.9225 30.3403 37.9048 30.4223 37.861 30.4909C37.8173 30.5594 37.7503 30.6099 37.6723 30.6331C37.2931 30.7902 36.9794 31.073 36.784 31.4341C36.5886 31.7951 36.5234 32.2124 36.5993 32.6159C36.6721 33.0248 36.885 33.3956 37.2014 33.6647C37.5178 33.9338 37.918 34.0843 38.3333 34.0905C38.7486 34.0967 39.1531 33.9582 39.4774 33.6987C39.8017 33.4392 40.0256 33.0749 40.1106 32.6683C40.207 32.2589 40.1541 31.8286 39.9616 31.4546C39.769 31.0807 39.4494 30.7877 39.0602 30.6283C38.848 30.5448 38.805 30.4363 38.8074 30.236C38.817 29.5433 38.8074 28.8506 38.8074 28.1388H42.6168C42.6168 28.407 42.6168 28.6705 42.6168 28.934C42.6276 29.3203 42.7575 29.4515 43.1438 29.4539C43.9475 29.4539 44.7523 29.4646 45.5547 29.4539C45.8122 29.4539 45.9481 29.5099 46.0638 29.7663C46.2306 30.1416 46.5236 30.4466 46.8919 30.6283C47.2603 30.81 47.6807 30.8568 48.08 30.7606C48.4759 30.6722 48.8301 30.4517 49.0842 30.1354C49.3383 29.8191 49.4774 29.4258 49.4785 29.0201C49.4796 28.6144 49.3427 28.2203 49.0903 27.9027C48.8379 27.585 48.485 27.3626 48.0895 27.272C47.6808 27.1721 47.25 27.2206 46.8737 27.4088C46.4975 27.5971 46.2003 27.9128 46.0352 28.2997C45.9469 28.5167 45.8396 28.5704 45.6214 28.5656C44.9573 28.5501 44.292 28.5585 43.6279 28.5561C43.5996 28.5521 43.5717 28.5457 43.5445 28.537V23.8512C44.1048 23.8512 44.6581 23.8512 45.2137 23.8512C46.1965 23.854 47.1484 23.508 47.8999 22.8747C49.3033 21.7015 49.8541 20.1885 49.4416 18.4072C49.0291 16.6259 47.8725 15.5194 46.09 15.0806L45.8182 15.0139C45.9851 11.6754 42.7492 9.52925 39.9258 10.6476C39.6375 9.88581 39.2015 9.18846 38.6429 8.59567C36.8055 6.71063 34.5819 6.01671 32.0446 6.71302C29.5074 7.40933 27.9336 9.15129 27.3482 11.7374C27.2933 11.9759 27.1967 12.0236 26.9726 12.0247C23.9918 12.0486 21.5953 13.9682 21.0778 16.8572C20.6617 19.1798 21.42 21.1185 23.2764 22.5993L23.5924 21.7206ZM38.3102 31.3973C38.4266 31.3961 38.5421 31.4179 38.6501 31.4615C38.758 31.5052 38.8562 31.5698 38.939 31.6516C39.0218 31.7334 39.0876 31.8308 39.1326 31.9382C39.1775 32.0456 39.2007 32.1608 39.2009 32.2773C39.2025 32.5126 39.112 32.7392 38.9486 32.9085C38.7853 33.0779 38.5621 33.1766 38.3269 33.1834C38.0869 33.1816 37.8571 33.0861 37.6865 32.9172C37.5159 32.7484 37.418 32.5196 37.4136 32.2796C37.4177 32.0444 37.5139 31.8202 37.6816 31.6552C37.8492 31.4902 38.075 31.3976 38.3102 31.3973ZM48.4842 29.039C48.4884 29.216 48.4399 29.3904 48.3448 29.5398C48.2497 29.6892 48.1124 29.807 47.9502 29.8782C47.788 29.9493 47.6083 29.9706 47.4339 29.9394C47.2596 29.9082 47.0985 29.8258 46.9711 29.7028C46.8436 29.5797 46.7557 29.4216 46.7184 29.2484C46.6811 29.0753 46.6961 28.895 46.7616 28.7304C46.827 28.5658 46.9399 28.4244 47.0859 28.3241C47.2319 28.2239 47.4045 28.1693 47.5816 28.1674C47.8169 28.1639 48.0441 28.2535 48.2136 28.4168C48.3831 28.58 48.4812 28.8037 48.4866 29.039H48.4842Z" fill="#31343D"/>
<path d="M33.9046 8.66113C33.9404 8.66113 33.8915 8.66113 33.8414 8.66113C33.5374 8.67306 33.3514 8.83759 33.3431 9.09871C33.3347 9.38725 33.5016 9.54463 33.8402 9.55536C34.843 9.58994 35.6943 9.95955 36.3441 10.7322C36.5604 11.0142 36.7497 11.316 36.9092 11.6336C37.0678 11.9197 37.2669 12.0282 37.5304 11.9221C37.7939 11.816 37.8643 11.5787 37.7498 11.2771C37.1727 9.77475 35.6275 8.69929 33.9046 8.66113Z" fill="#31343D"/>
<path d="M44.7275 19.7677C44.7208 19.6484 44.6683 19.5364 44.581 19.4549C44.4937 19.3734 44.3784 19.3287 44.259 19.3301C44.1996 19.3305 44.141 19.3432 44.0869 19.3675C44.0327 19.3919 43.9842 19.4272 43.9445 19.4713C43.9048 19.5154 43.8747 19.5673 43.8562 19.6236C43.8377 19.68 43.8311 19.7396 43.8369 19.7987C43.8403 19.913 43.8887 20.0213 43.9715 20.1001C44.0544 20.1789 44.1649 20.2218 44.2792 20.2196C44.3384 20.2194 44.3969 20.2076 44.4514 20.1848C44.506 20.162 44.5555 20.1286 44.5972 20.0867C44.6388 20.0447 44.6718 19.9949 44.6941 19.9402C44.7165 19.8854 44.7278 19.8268 44.7275 19.7677Z" fill="#31343D"/>
<path d="M42.0399 19.3293C41.9806 19.3274 41.9216 19.3375 41.8663 19.3589C41.811 19.3804 41.7607 19.4128 41.7182 19.4543C41.6758 19.4957 41.6422 19.5453 41.6194 19.6C41.5966 19.6548 41.5851 19.7136 41.5856 19.7729C41.5864 19.8874 41.6306 19.9973 41.7095 20.0804C41.7883 20.1634 41.8958 20.2133 42.0101 20.22C42.0692 20.2246 42.1286 20.217 42.1846 20.1976C42.2406 20.1783 42.2921 20.1477 42.3358 20.1077C42.3795 20.0677 42.4145 20.0191 42.4387 19.965C42.4628 19.9109 42.4756 19.8524 42.4763 19.7931C42.4784 19.734 42.4687 19.675 42.4478 19.6196C42.427 19.5641 42.3953 19.5134 42.3548 19.4703C42.3142 19.4272 42.2655 19.3925 42.2114 19.3683C42.1574 19.3441 42.0991 19.3309 42.0399 19.3293Z" fill="#31343D"/>
<path d="M46.5286 20.2188C46.5878 20.2185 46.6463 20.206 46.7004 20.1822C46.7546 20.1584 46.8034 20.1238 46.8437 20.0805C46.884 20.0371 46.915 19.986 46.9349 19.9302C46.9547 19.8745 46.9629 19.8153 46.959 19.7562C46.9533 19.642 46.9042 19.5343 46.8218 19.4549C46.7394 19.3756 46.6298 19.3307 46.5155 19.3294C46.4562 19.3273 46.3971 19.3376 46.3419 19.3595C46.2868 19.3815 46.2368 19.4146 46.1951 19.4569C46.1535 19.4991 46.121 19.5495 46.0998 19.6049C46.0786 19.6604 46.0691 19.7196 46.0719 19.7789C46.0716 19.8382 46.0832 19.8969 46.1063 19.9516C46.1293 20.0062 46.1632 20.0556 46.2059 20.0968C46.2486 20.1379 46.2992 20.17 46.3547 20.1909C46.4102 20.2119 46.4693 20.2214 46.5286 20.2188Z" fill="#31343D"/>
<mask id="path-7-outside-1_3659_225" maskUnits="userSpaceOnUse" x="20.6934" y="14.1816" width="19" height="19" fill="black">
<rect fill="white" x="20.6934" y="14.1816" width="19" height="19"/>
<path d="M30.6512 16.9842V21.9335C30.4696 21.9798 30.3033 22.0728 30.1687 22.2033C30.0342 22.3339 29.9363 22.4973 29.8846 22.6775C29.8203 22.8724 29.8165 23.0822 29.8737 23.2793C29.931 23.4764 30.0466 23.6515 30.2053 23.7816C30.3553 23.9209 30.5434 24.0124 30.7456 24.0442C30.9478 24.0761 31.1549 24.0469 31.3404 23.9604C31.4143 23.9306 31.468 23.8925 31.5467 23.9712C32.6754 25.1062 33.8069 26.2385 34.9412 27.368C34.2258 28.4101 31.5753 29.2328 30.0277 28.8942C30.0157 28.6045 30.0777 28.5234 30.3448 28.4829C30.4831 28.4614 30.625 28.4471 30.7609 28.4137C30.8717 28.3909 30.9715 28.3314 31.0442 28.2449C31.1169 28.1583 31.1582 28.0498 31.1615 27.9368C31.1711 27.7293 31.1699 27.5195 31.1615 27.3108C31.1603 27.194 31.1186 27.0813 31.0436 26.9917C30.9686 26.9022 30.865 26.8413 30.7502 26.8196C30.5749 26.779 30.3925 26.7659 30.2184 26.7242C30.188 26.7148 30.1598 26.6994 30.1354 26.6789C30.1111 26.6585 30.091 26.6333 30.0765 26.605C29.9382 26.2914 29.8059 25.9754 29.6819 25.6511C29.6717 25.6203 29.6678 25.5878 29.6702 25.5555C29.6727 25.5232 29.6815 25.4916 29.6962 25.4627C29.7773 25.328 29.8822 25.2076 29.9728 25.0788C30.0582 24.9747 30.1008 24.8419 30.0919 24.7075C30.0831 24.5731 30.0234 24.4471 29.9251 24.3551C29.7975 24.2204 29.6664 24.088 29.5305 23.9616C29.4412 23.8693 29.3211 23.8129 29.1931 23.803C29.065 23.7931 28.9378 23.8305 28.8354 23.908C28.6959 24.0034 28.5659 24.1142 28.4228 24.2037C28.3959 24.2175 28.3665 24.2256 28.3363 24.2274C28.3061 24.2293 28.2759 24.2248 28.2476 24.2144C27.9244 24.088 27.6025 23.9545 27.2842 23.8138C27.2575 23.8004 27.2338 23.7818 27.2146 23.7591C27.1953 23.7363 27.1809 23.7099 27.1721 23.6814C27.1375 23.5395 27.1232 23.3941 27.1017 23.2486C27.0505 22.9064 26.8526 22.7324 26.5056 22.7288H26.0287C25.9565 22.7234 25.884 22.7325 25.8154 22.7555C25.7468 22.7785 25.6834 22.8149 25.6291 22.8626C25.5747 22.9104 25.5303 22.9684 25.4986 23.0335C25.4669 23.0985 25.4485 23.1692 25.4444 23.2415C25.4186 23.3686 25.4003 23.4972 25.3896 23.6266C25.3921 23.6542 25.3888 23.6821 25.3798 23.7084C25.3708 23.7347 25.3564 23.7588 25.3376 23.7791C25.3187 23.7995 25.2957 23.8157 25.2701 23.8265C25.2446 23.8374 25.217 23.8428 25.1893 23.8424C25.12 23.8563 25.0516 23.8738 24.9842 23.8949C24.9675 23.7518 24.9472 23.6218 24.9365 23.4895C24.823 22.1642 25.1554 20.839 25.8808 19.7242C26.0001 19.5477 25.9738 19.3975 25.8343 19.3116C25.6948 19.2258 25.5649 19.2747 25.454 19.4464C24.7145 20.5769 24.3514 21.9124 24.4167 23.2617C24.4274 23.5002 24.4679 23.7387 24.4834 23.9843C24.4851 24.0142 24.4798 24.044 24.468 24.0715C24.4562 24.099 24.4382 24.1234 24.4155 24.1429C24.3272 24.1882 24.2462 24.3229 24.121 24.2072C24.1175 24.2027 24.113 24.199 24.1079 24.1965C23.6417 23.8686 23.6417 23.8686 23.619 23.2987C23.5411 21.6211 24.0472 19.9685 25.0512 18.6223C26.0552 17.2761 27.495 16.3196 29.1251 15.9159C31.4394 15.3448 33.5581 15.8277 35.4443 17.2823C35.4944 17.3193 35.5397 17.3622 35.5898 17.4016C35.6153 17.424 35.645 17.4412 35.6772 17.4521C35.7094 17.463 35.7435 17.4674 35.7774 17.465C35.8113 17.4627 35.8444 17.4537 35.8749 17.4385C35.9053 17.4233 35.9324 17.4022 35.9546 17.3765C35.9794 17.3506 35.998 17.3195 36.0091 17.2854C36.0202 17.2513 36.0234 17.2152 36.0186 17.1796C36.0138 17.1441 36.0011 17.1102 35.9813 17.0803C35.9615 17.0503 35.9353 17.0253 35.9045 17.0069C35.5489 16.7308 35.1792 16.4733 34.7969 16.2355C33.51 15.4802 32.0306 15.1172 30.5404 15.191C26.9873 15.3329 23.9016 17.9906 23.2446 21.4733C23.1004 22.1988 23.0634 22.9416 23.1349 23.6779C23.1453 23.7288 23.1408 23.7816 23.122 23.83C23.1032 23.8784 23.0708 23.9204 23.0288 23.9509C22.8737 24.0822 22.7286 24.2248 22.5948 24.3777C22.5096 24.4659 22.4582 24.5812 22.4494 24.7035C22.4407 24.8258 22.4753 24.9473 22.5471 25.0466C22.6413 25.1873 22.7415 25.3244 22.8476 25.4556C22.8729 25.4841 22.8878 25.5205 22.8898 25.5586C22.8917 25.5968 22.8806 25.6344 22.8583 25.6654C22.7212 25.973 22.6008 26.2878 22.4649 26.5966C22.4506 26.6247 22.431 26.6497 22.407 26.6702C22.3831 26.6907 22.3553 26.7062 22.3254 26.7159C22.1787 26.7528 22.0261 26.7647 21.8759 26.7898C21.733 26.8005 21.6002 26.8673 21.5066 26.9757C21.413 27.0841 21.3661 27.2252 21.3763 27.368C21.3763 27.5433 21.3763 27.7174 21.3763 27.8927C21.3725 28.0181 21.4142 28.1407 21.4938 28.2378C21.5734 28.3349 21.6853 28.3999 21.8091 28.4209C21.9784 28.459 22.1549 28.4697 22.3242 28.5103C22.3541 28.5199 22.3819 28.5355 22.4058 28.5559C22.4298 28.5764 22.4494 28.6014 22.4637 28.6295C22.5996 28.9383 22.72 29.2531 22.8571 29.5595C22.8793 29.5908 22.8903 29.6286 22.8884 29.6669C22.8865 29.7052 22.8717 29.7417 22.8464 29.7705C22.7462 29.8898 22.6544 30.0209 22.5638 30.1509C22.4799 30.2558 22.4387 30.3885 22.4484 30.5224C22.4581 30.6564 22.5181 30.7818 22.6163 30.8734C22.7403 31.0046 22.8679 31.1322 22.999 31.2562C23.091 31.3543 23.2168 31.4141 23.351 31.4233C23.4853 31.4326 23.6181 31.3908 23.7227 31.3062C23.8789 31.1977 24.0244 31.0117 24.1913 30.9927C24.3582 30.9736 24.518 31.1369 24.6885 31.2061C24.859 31.2752 25.0724 31.3372 25.2596 31.4123C25.2846 31.4238 25.307 31.4403 25.3252 31.4608C25.3435 31.4813 25.3573 31.5054 25.3657 31.5316C25.3991 31.6735 25.4158 31.8201 25.4361 31.9656C25.4862 32.3233 25.6829 32.4938 26.0323 32.4962C26.2016 32.4962 26.3709 32.4962 26.5402 32.4962C26.6656 32.4996 26.788 32.4576 26.8849 32.3778C26.9818 32.298 27.0465 32.1859 27.0672 32.0622C27.1041 31.8917 27.1172 31.7164 27.1566 31.5471C27.1648 31.5185 27.1788 31.492 27.1976 31.469C27.2165 31.446 27.2399 31.4272 27.2663 31.4135C27.5858 31.2729 27.9066 31.1393 28.2309 31.0129C28.2592 31.0026 28.2893 30.9981 28.3195 30.9997C28.3496 31.0014 28.3791 31.0091 28.4061 31.0225C28.5444 31.1095 28.6696 31.2156 28.8032 31.3086C28.908 31.3929 29.0409 31.4343 29.175 31.4243C29.3092 31.4144 29.4345 31.3538 29.5257 31.255C29.6807 31.1059 29.8202 30.9438 29.9776 30.7983C30.033 30.7594 30.0995 30.7394 30.1672 30.7411C30.7359 30.7268 31.3082 30.7602 31.871 30.7005C33.23 30.5578 34.5213 30.0351 35.5969 29.1923C37.141 28.0071 38.152 26.4679 38.5264 24.553C39.0236 22.0146 38.4072 19.754 36.7177 17.7879C36.5889 17.6376 36.4411 17.6174 36.3218 17.7235C36.2026 17.8296 36.2026 17.9739 36.3385 18.1265C37.2343 19.114 37.8306 20.336 38.0579 21.6497C38.4811 24.1703 37.7979 26.3594 35.994 28.1752C34.9147 29.2684 33.5072 29.9782 31.9866 30.1962C31.3781 30.2897 30.7598 30.3018 30.1481 30.232C30.0739 30.2178 30.0065 30.1797 29.9561 30.1235C29.8619 30.0197 29.7928 29.8945 29.701 29.7872C29.633 29.7085 29.6509 29.6501 29.6879 29.5631C29.7546 29.4081 29.844 29.395 30.0038 29.414C32.2775 29.6859 34.2162 28.9979 35.7567 27.3001C37.0086 25.9182 37.5309 24.2633 37.3854 22.4116C37.1779 19.7814 35.2893 17.4564 32.7235 16.7577C30.2316 16.0781 28.0484 16.6862 26.2099 18.508C26.0668 18.6499 26.0525 18.7942 26.1622 18.9074C26.2719 19.0207 26.4293 19.0112 26.5724 18.8621C27.4351 17.9499 28.5653 17.3354 29.7999 17.1071C30.073 17.0462 30.3532 17.0236 30.6512 16.9842ZM35.3251 27.0294C34.1769 25.8812 33.0454 24.7486 31.9115 23.6194C31.8839 23.5968 31.8659 23.5645 31.8611 23.5292C31.8562 23.4938 31.8649 23.4579 31.8853 23.4287C31.9871 23.2189 32.0156 22.981 31.966 22.7531C31.9165 22.5252 31.7919 22.3206 31.6122 22.172C31.4759 22.0743 31.3324 21.987 31.183 21.9109V16.9962C32.5909 17.0609 33.9309 17.6199 34.9674 18.5748C34.7528 18.7882 34.5549 18.9814 34.3605 19.1769C34.221 19.3164 34.2067 19.4654 34.3164 19.5763C34.4261 19.6872 34.5763 19.6765 34.7158 19.5394C34.9149 19.3402 35.1117 19.1399 35.3215 18.9277C36.279 19.9676 36.8374 21.3129 36.8977 22.7252H36.7117C36.4733 22.7252 36.2277 22.7252 35.9844 22.7252C35.9209 22.7248 35.8596 22.7482 35.8126 22.791C35.7656 22.8337 35.7364 22.8926 35.7308 22.9558C35.7253 23.0191 35.7437 23.0822 35.7826 23.1324C35.8214 23.1827 35.8777 23.2165 35.9403 23.2272C35.9966 23.2325 36.0533 23.2325 36.1096 23.2272H36.8989C36.8388 24.6404 36.2814 25.9871 35.3251 27.0294ZM22.974 30.4871C23.1171 30.2928 23.2554 30.0948 23.4044 29.9053C23.4538 29.8479 23.4825 29.7756 23.486 29.6999C23.4894 29.6243 23.4674 29.5496 23.4235 29.488C23.2527 29.1912 23.1102 28.879 22.9978 28.5556C22.8428 28.0369 22.9275 28.0787 22.3564 27.9964C21.8794 27.9225 21.8794 27.9189 21.8985 27.4217C21.8985 27.3394 21.9236 27.3025 22.0106 27.2917C22.2109 27.2667 22.41 27.2202 22.6067 27.2023C22.689 27.2035 22.7687 27.1734 22.8295 27.118C22.8904 27.0627 22.928 26.9862 22.9346 26.9042C23.0133 26.4933 23.1756 26.1028 23.4115 25.7572C23.4636 25.6937 23.4901 25.6131 23.4859 25.5311C23.4817 25.4491 23.4471 25.3716 23.3889 25.3137C23.2422 25.1313 23.1099 24.9357 22.9942 24.7784L23.4294 24.3265C23.6178 24.4648 23.8181 24.6102 24.0161 24.7593C24.0643 24.8033 24.1264 24.8292 24.1917 24.8325C24.257 24.8357 24.3213 24.8162 24.3737 24.7772C24.7484 24.525 25.1695 24.3499 25.6126 24.2621C25.6799 24.2522 25.7416 24.2187 25.7865 24.1676C25.8315 24.1166 25.8569 24.0512 25.8582 23.9831C25.8904 23.7387 25.9321 23.4954 25.9774 23.2379C26.1515 23.2379 26.3136 23.2379 26.4758 23.2379C26.5712 23.2379 26.595 23.2725 26.6105 23.3571C26.6344 23.5574 26.6809 23.7566 26.6999 23.9533C26.7012 24.0327 26.7321 24.1088 26.7866 24.1666C26.8411 24.2244 26.9152 24.2597 26.9944 24.2657C27.4101 24.3468 27.8051 24.511 28.1557 24.7485C28.2152 24.7969 28.2903 24.8219 28.367 24.8189C28.4436 24.8158 28.5164 24.7848 28.5719 24.7319C28.7614 24.5828 28.9582 24.4445 29.1275 24.3193L29.577 24.7581C29.4387 24.9465 29.2932 25.1456 29.1442 25.3435C29.1 25.3916 29.0738 25.4535 29.0701 25.5187C29.0664 25.5839 29.0854 25.6484 29.1239 25.7012C29.3763 26.0758 29.5514 26.4969 29.639 26.94C29.6483 27.0074 29.6812 27.0693 29.7318 27.1147C29.7825 27.1601 29.8476 27.1861 29.9156 27.188C30.1278 27.2154 30.34 27.2476 30.5499 27.287C30.5916 27.2953 30.656 27.343 30.6584 27.3752C30.6691 27.5529 30.6584 27.7329 30.6584 27.9141C30.3985 27.9535 30.16 27.9964 29.9204 28.0262C29.8466 28.0282 29.7761 28.057 29.7221 28.1073C29.6681 28.1575 29.6343 28.2258 29.627 28.2992C29.5437 28.7258 29.3755 29.1313 29.1322 29.4915C29.0882 29.5471 29.0652 29.6164 29.0671 29.6872C29.0691 29.7581 29.0959 29.826 29.143 29.879C29.2932 30.0758 29.4375 30.2761 29.571 30.4561L29.1346 30.9044C28.9391 30.7613 28.7352 30.6123 28.5385 30.4609C28.4918 30.4191 28.4321 30.3948 28.3695 30.392C28.307 30.3892 28.2453 30.408 28.1951 30.4454C27.815 30.7001 27.3883 30.8772 26.9396 30.9664C26.8778 30.9754 26.821 31.0055 26.7788 31.0516C26.7367 31.0976 26.7118 31.1568 26.7083 31.2192C26.6844 31.3814 26.6654 31.5435 26.6356 31.7045C26.5712 32.0502 26.6546 31.9787 26.3184 31.9882C26.2516 31.9882 26.1837 31.9882 26.1157 31.9882C26.0132 31.9978 25.9655 31.9692 25.9547 31.8547C25.9357 31.6592 25.8868 31.466 25.8689 31.2705C25.8685 31.1882 25.8371 31.1091 25.781 31.049C25.7248 30.9889 25.6481 30.9522 25.5661 30.9462C25.155 30.8676 24.7646 30.7053 24.4191 30.4692C24.3579 30.4188 24.2802 30.3928 24.201 30.3961C24.1218 30.3994 24.0466 30.4318 23.9898 30.4871C23.8014 30.6362 23.6035 30.7721 23.4187 30.908L22.974 30.4871ZM30.9135 23.5407C30.8031 23.5414 30.695 23.5095 30.6027 23.4489C30.5103 23.3883 30.438 23.3018 30.3947 23.2002C30.3513 23.0986 30.339 22.9865 30.3592 22.878C30.3794 22.7694 30.4311 22.6692 30.5081 22.59C30.585 22.5108 30.6836 22.4561 30.7915 22.4327C30.8994 22.4093 31.0118 22.4183 31.1146 22.4586C31.2174 22.4989 31.3061 22.5687 31.3693 22.6592C31.4326 22.7497 31.4678 22.8569 31.4704 22.9672C31.4729 23.0418 31.4604 23.1162 31.4335 23.1858C31.4067 23.2555 31.366 23.319 31.314 23.3725C31.262 23.4261 31.1998 23.4686 31.1309 23.4975C31.0621 23.5264 30.9882 23.5411 30.9135 23.5407Z"/>
</mask>
<path d="M30.6512 16.9842V21.9335C30.4696 21.9798 30.3033 22.0728 30.1687 22.2033C30.0342 22.3339 29.9363 22.4973 29.8846 22.6775C29.8203 22.8724 29.8165 23.0822 29.8737 23.2793C29.931 23.4764 30.0466 23.6515 30.2053 23.7816C30.3553 23.9209 30.5434 24.0124 30.7456 24.0442C30.9478 24.0761 31.1549 24.0469 31.3404 23.9604C31.4143 23.9306 31.468 23.8925 31.5467 23.9712C32.6754 25.1062 33.8069 26.2385 34.9412 27.368C34.2258 28.4101 31.5753 29.2328 30.0277 28.8942C30.0157 28.6045 30.0777 28.5234 30.3448 28.4829C30.4831 28.4614 30.625 28.4471 30.7609 28.4137C30.8717 28.3909 30.9715 28.3314 31.0442 28.2449C31.1169 28.1583 31.1582 28.0498 31.1615 27.9368C31.1711 27.7293 31.1699 27.5195 31.1615 27.3108C31.1603 27.194 31.1186 27.0813 31.0436 26.9917C30.9686 26.9022 30.865 26.8413 30.7502 26.8196C30.5749 26.779 30.3925 26.7659 30.2184 26.7242C30.188 26.7148 30.1598 26.6994 30.1354 26.6789C30.1111 26.6585 30.091 26.6333 30.0765 26.605C29.9382 26.2914 29.8059 25.9754 29.6819 25.6511C29.6717 25.6203 29.6678 25.5878 29.6702 25.5555C29.6727 25.5232 29.6815 25.4916 29.6962 25.4627C29.7773 25.328 29.8822 25.2076 29.9728 25.0788C30.0582 24.9747 30.1008 24.8419 30.0919 24.7075C30.0831 24.5731 30.0234 24.4471 29.9251 24.3551C29.7975 24.2204 29.6664 24.088 29.5305 23.9616C29.4412 23.8693 29.3211 23.8129 29.1931 23.803C29.065 23.7931 28.9378 23.8305 28.8354 23.908C28.6959 24.0034 28.5659 24.1142 28.4228 24.2037C28.3959 24.2175 28.3665 24.2256 28.3363 24.2274C28.3061 24.2293 28.2759 24.2248 28.2476 24.2144C27.9244 24.088 27.6025 23.9545 27.2842 23.8138C27.2575 23.8004 27.2338 23.7818 27.2146 23.7591C27.1953 23.7363 27.1809 23.7099 27.1721 23.6814C27.1375 23.5395 27.1232 23.3941 27.1017 23.2486C27.0505 22.9064 26.8526 22.7324 26.5056 22.7288H26.0287C25.9565 22.7234 25.884 22.7325 25.8154 22.7555C25.7468 22.7785 25.6834 22.8149 25.6291 22.8626C25.5747 22.9104 25.5303 22.9684 25.4986 23.0335C25.4669 23.0985 25.4485 23.1692 25.4444 23.2415C25.4186 23.3686 25.4003 23.4972 25.3896 23.6266C25.3921 23.6542 25.3888 23.6821 25.3798 23.7084C25.3708 23.7347 25.3564 23.7588 25.3376 23.7791C25.3187 23.7995 25.2957 23.8157 25.2701 23.8265C25.2446 23.8374 25.217 23.8428 25.1893 23.8424C25.12 23.8563 25.0516 23.8738 24.9842 23.8949C24.9675 23.7518 24.9472 23.6218 24.9365 23.4895C24.823 22.1642 25.1554 20.839 25.8808 19.7242C26.0001 19.5477 25.9738 19.3975 25.8343 19.3116C25.6948 19.2258 25.5649 19.2747 25.454 19.4464C24.7145 20.5769 24.3514 21.9124 24.4167 23.2617C24.4274 23.5002 24.4679 23.7387 24.4834 23.9843C24.4851 24.0142 24.4798 24.044 24.468 24.0715C24.4562 24.099 24.4382 24.1234 24.4155 24.1429C24.3272 24.1882 24.2462 24.3229 24.121 24.2072C24.1175 24.2027 24.113 24.199 24.1079 24.1965C23.6417 23.8686 23.6417 23.8686 23.619 23.2987C23.5411 21.6211 24.0472 19.9685 25.0512 18.6223C26.0552 17.2761 27.495 16.3196 29.1251 15.9159C31.4394 15.3448 33.5581 15.8277 35.4443 17.2823C35.4944 17.3193 35.5397 17.3622 35.5898 17.4016C35.6153 17.424 35.645 17.4412 35.6772 17.4521C35.7094 17.463 35.7435 17.4674 35.7774 17.465C35.8113 17.4627 35.8444 17.4537 35.8749 17.4385C35.9053 17.4233 35.9324 17.4022 35.9546 17.3765C35.9794 17.3506 35.998 17.3195 36.0091 17.2854C36.0202 17.2513 36.0234 17.2152 36.0186 17.1796C36.0138 17.1441 36.0011 17.1102 35.9813 17.0803C35.9615 17.0503 35.9353 17.0253 35.9045 17.0069C35.5489 16.7308 35.1792 16.4733 34.7969 16.2355C33.51 15.4802 32.0306 15.1172 30.5404 15.191C26.9873 15.3329 23.9016 17.9906 23.2446 21.4733C23.1004 22.1988 23.0634 22.9416 23.1349 23.6779C23.1453 23.7288 23.1408 23.7816 23.122 23.83C23.1032 23.8784 23.0708 23.9204 23.0288 23.9509C22.8737 24.0822 22.7286 24.2248 22.5948 24.3777C22.5096 24.4659 22.4582 24.5812 22.4494 24.7035C22.4407 24.8258 22.4753 24.9473 22.5471 25.0466C22.6413 25.1873 22.7415 25.3244 22.8476 25.4556C22.8729 25.4841 22.8878 25.5205 22.8898 25.5586C22.8917 25.5968 22.8806 25.6344 22.8583 25.6654C22.7212 25.973 22.6008 26.2878 22.4649 26.5966C22.4506 26.6247 22.431 26.6497 22.407 26.6702C22.3831 26.6907 22.3553 26.7062 22.3254 26.7159C22.1787 26.7528 22.0261 26.7647 21.8759 26.7898C21.733 26.8005 21.6002 26.8673 21.5066 26.9757C21.413 27.0841 21.3661 27.2252 21.3763 27.368C21.3763 27.5433 21.3763 27.7174 21.3763 27.8927C21.3725 28.0181 21.4142 28.1407 21.4938 28.2378C21.5734 28.3349 21.6853 28.3999 21.8091 28.4209C21.9784 28.459 22.1549 28.4697 22.3242 28.5103C22.3541 28.5199 22.3819 28.5355 22.4058 28.5559C22.4298 28.5764 22.4494 28.6014 22.4637 28.6295C22.5996 28.9383 22.72 29.2531 22.8571 29.5595C22.8793 29.5908 22.8903 29.6286 22.8884 29.6669C22.8865 29.7052 22.8717 29.7417 22.8464 29.7705C22.7462 29.8898 22.6544 30.0209 22.5638 30.1509C22.4799 30.2558 22.4387 30.3885 22.4484 30.5224C22.4581 30.6564 22.5181 30.7818 22.6163 30.8734C22.7403 31.0046 22.8679 31.1322 22.999 31.2562C23.091 31.3543 23.2168 31.4141 23.351 31.4233C23.4853 31.4326 23.6181 31.3908 23.7227 31.3062C23.8789 31.1977 24.0244 31.0117 24.1913 30.9927C24.3582 30.9736 24.518 31.1369 24.6885 31.2061C24.859 31.2752 25.0724 31.3372 25.2596 31.4123C25.2846 31.4238 25.307 31.4403 25.3252 31.4608C25.3435 31.4813 25.3573 31.5054 25.3657 31.5316C25.3991 31.6735 25.4158 31.8201 25.4361 31.9656C25.4862 32.3233 25.6829 32.4938 26.0323 32.4962C26.2016 32.4962 26.3709 32.4962 26.5402 32.4962C26.6656 32.4996 26.788 32.4576 26.8849 32.3778C26.9818 32.298 27.0465 32.1859 27.0672 32.0622C27.1041 31.8917 27.1172 31.7164 27.1566 31.5471C27.1648 31.5185 27.1788 31.492 27.1976 31.469C27.2165 31.446 27.2399 31.4272 27.2663 31.4135C27.5858 31.2729 27.9066 31.1393 28.2309 31.0129C28.2592 31.0026 28.2893 30.9981 28.3195 30.9997C28.3496 31.0014 28.3791 31.0091 28.4061 31.0225C28.5444 31.1095 28.6696 31.2156 28.8032 31.3086C28.908 31.3929 29.0409 31.4343 29.175 31.4243C29.3092 31.4144 29.4345 31.3538 29.5257 31.255C29.6807 31.1059 29.8202 30.9438 29.9776 30.7983C30.033 30.7594 30.0995 30.7394 30.1672 30.7411C30.7359 30.7268 31.3082 30.7602 31.871 30.7005C33.23 30.5578 34.5213 30.0351 35.5969 29.1923C37.141 28.0071 38.152 26.4679 38.5264 24.553C39.0236 22.0146 38.4072 19.754 36.7177 17.7879C36.5889 17.6376 36.4411 17.6174 36.3218 17.7235C36.2026 17.8296 36.2026 17.9739 36.3385 18.1265C37.2343 19.114 37.8306 20.336 38.0579 21.6497C38.4811 24.1703 37.7979 26.3594 35.994 28.1752C34.9147 29.2684 33.5072 29.9782 31.9866 30.1962C31.3781 30.2897 30.7598 30.3018 30.1481 30.232C30.0739 30.2178 30.0065 30.1797 29.9561 30.1235C29.8619 30.0197 29.7928 29.8945 29.701 29.7872C29.633 29.7085 29.6509 29.6501 29.6879 29.5631C29.7546 29.4081 29.844 29.395 30.0038 29.414C32.2775 29.6859 34.2162 28.9979 35.7567 27.3001C37.0086 25.9182 37.5309 24.2633 37.3854 22.4116C37.1779 19.7814 35.2893 17.4564 32.7235 16.7577C30.2316 16.0781 28.0484 16.6862 26.2099 18.508C26.0668 18.6499 26.0525 18.7942 26.1622 18.9074C26.2719 19.0207 26.4293 19.0112 26.5724 18.8621C27.4351 17.9499 28.5653 17.3354 29.7999 17.1071C30.073 17.0462 30.3532 17.0236 30.6512 16.9842ZM35.3251 27.0294C34.1769 25.8812 33.0454 24.7486 31.9115 23.6194C31.8839 23.5968 31.8659 23.5645 31.8611 23.5292C31.8562 23.4938 31.8649 23.4579 31.8853 23.4287C31.9871 23.2189 32.0156 22.981 31.966 22.7531C31.9165 22.5252 31.7919 22.3206 31.6122 22.172C31.4759 22.0743 31.3324 21.987 31.183 21.9109V16.9962C32.5909 17.0609 33.9309 17.6199 34.9674 18.5748C34.7528 18.7882 34.5549 18.9814 34.3605 19.1769C34.221 19.3164 34.2067 19.4654 34.3164 19.5763C34.4261 19.6872 34.5763 19.6765 34.7158 19.5394C34.9149 19.3402 35.1117 19.1399 35.3215 18.9277C36.279 19.9676 36.8374 21.3129 36.8977 22.7252H36.7117C36.4733 22.7252 36.2277 22.7252 35.9844 22.7252C35.9209 22.7248 35.8596 22.7482 35.8126 22.791C35.7656 22.8337 35.7364 22.8926 35.7308 22.9558C35.7253 23.0191 35.7437 23.0822 35.7826 23.1324C35.8214 23.1827 35.8777 23.2165 35.9403 23.2272C35.9966 23.2325 36.0533 23.2325 36.1096 23.2272H36.8989C36.8388 24.6404 36.2814 25.9871 35.3251 27.0294ZM22.974 30.4871C23.1171 30.2928 23.2554 30.0948 23.4044 29.9053C23.4538 29.8479 23.4825 29.7756 23.486 29.6999C23.4894 29.6243 23.4674 29.5496 23.4235 29.488C23.2527 29.1912 23.1102 28.879 22.9978 28.5556C22.8428 28.0369 22.9275 28.0787 22.3564 27.9964C21.8794 27.9225 21.8794 27.9189 21.8985 27.4217C21.8985 27.3394 21.9236 27.3025 22.0106 27.2917C22.2109 27.2667 22.41 27.2202 22.6067 27.2023C22.689 27.2035 22.7687 27.1734 22.8295 27.118C22.8904 27.0627 22.928 26.9862 22.9346 26.9042C23.0133 26.4933 23.1756 26.1028 23.4115 25.7572C23.4636 25.6937 23.4901 25.6131 23.4859 25.5311C23.4817 25.4491 23.4471 25.3716 23.3889 25.3137C23.2422 25.1313 23.1099 24.9357 22.9942 24.7784L23.4294 24.3265C23.6178 24.4648 23.8181 24.6102 24.0161 24.7593C24.0643 24.8033 24.1264 24.8292 24.1917 24.8325C24.257 24.8357 24.3213 24.8162 24.3737 24.7772C24.7484 24.525 25.1695 24.3499 25.6126 24.2621C25.6799 24.2522 25.7416 24.2187 25.7865 24.1676C25.8315 24.1166 25.8569 24.0512 25.8582 23.9831C25.8904 23.7387 25.9321 23.4954 25.9774 23.2379C26.1515 23.2379 26.3136 23.2379 26.4758 23.2379C26.5712 23.2379 26.595 23.2725 26.6105 23.3571C26.6344 23.5574 26.6809 23.7566 26.6999 23.9533C26.7012 24.0327 26.7321 24.1088 26.7866 24.1666C26.8411 24.2244 26.9152 24.2597 26.9944 24.2657C27.4101 24.3468 27.8051 24.511 28.1557 24.7485C28.2152 24.7969 28.2903 24.8219 28.367 24.8189C28.4436 24.8158 28.5164 24.7848 28.5719 24.7319C28.7614 24.5828 28.9582 24.4445 29.1275 24.3193L29.577 24.7581C29.4387 24.9465 29.2932 25.1456 29.1442 25.3435C29.1 25.3916 29.0738 25.4535 29.0701 25.5187C29.0664 25.5839 29.0854 25.6484 29.1239 25.7012C29.3763 26.0758 29.5514 26.4969 29.639 26.94C29.6483 27.0074 29.6812 27.0693 29.7318 27.1147C29.7825 27.1601 29.8476 27.1861 29.9156 27.188C30.1278 27.2154 30.34 27.2476 30.5499 27.287C30.5916 27.2953 30.656 27.343 30.6584 27.3752C30.6691 27.5529 30.6584 27.7329 30.6584 27.9141C30.3985 27.9535 30.16 27.9964 29.9204 28.0262C29.8466 28.0282 29.7761 28.057 29.7221 28.1073C29.6681 28.1575 29.6343 28.2258 29.627 28.2992C29.5437 28.7258 29.3755 29.1313 29.1322 29.4915C29.0882 29.5471 29.0652 29.6164 29.0671 29.6872C29.0691 29.7581 29.0959 29.826 29.143 29.879C29.2932 30.0758 29.4375 30.2761 29.571 30.4561L29.1346 30.9044C28.9391 30.7613 28.7352 30.6123 28.5385 30.4609C28.4918 30.4191 28.4321 30.3948 28.3695 30.392C28.307 30.3892 28.2453 30.408 28.1951 30.4454C27.815 30.7001 27.3883 30.8772 26.9396 30.9664C26.8778 30.9754 26.821 31.0055 26.7788 31.0516C26.7367 31.0976 26.7118 31.1568 26.7083 31.2192C26.6844 31.3814 26.6654 31.5435 26.6356 31.7045C26.5712 32.0502 26.6546 31.9787 26.3184 31.9882C26.2516 31.9882 26.1837 31.9882 26.1157 31.9882C26.0132 31.9978 25.9655 31.9692 25.9547 31.8547C25.9357 31.6592 25.8868 31.466 25.8689 31.2705C25.8685 31.1882 25.8371 31.1091 25.781 31.049C25.7248 30.9889 25.6481 30.9522 25.5661 30.9462C25.155 30.8676 24.7646 30.7053 24.4191 30.4692C24.3579 30.4188 24.2802 30.3928 24.201 30.3961C24.1218 30.3994 24.0466 30.4318 23.9898 30.4871C23.8014 30.6362 23.6035 30.7721 23.4187 30.908L22.974 30.4871ZM30.9135 23.5407C30.8031 23.5414 30.695 23.5095 30.6027 23.4489C30.5103 23.3883 30.438 23.3018 30.3947 23.2002C30.3513 23.0986 30.339 22.9865 30.3592 22.878C30.3794 22.7694 30.4311 22.6692 30.5081 22.59C30.585 22.5108 30.6836 22.4561 30.7915 22.4327C30.8994 22.4093 31.0118 22.4183 31.1146 22.4586C31.2174 22.4989 31.3061 22.5687 31.3693 22.6592C31.4326 22.7497 31.4678 22.8569 31.4704 22.9672C31.4729 23.0418 31.4604 23.1162 31.4335 23.1858C31.4067 23.2555 31.366 23.319 31.314 23.3725C31.262 23.4261 31.1998 23.4686 31.1309 23.4975C31.0621 23.5264 30.9882 23.5411 30.9135 23.5407Z" fill="#31343D"/>
<path d="M30.6512 16.9842V21.9335C30.4696 21.9798 30.3033 22.0728 30.1687 22.2033C30.0342 22.3339 29.9363 22.4973 29.8846 22.6775C29.8203 22.8724 29.8165 23.0822 29.8737 23.2793C29.931 23.4764 30.0466 23.6515 30.2053 23.7816C30.3553 23.9209 30.5434 24.0124 30.7456 24.0442C30.9478 24.0761 31.1549 24.0469 31.3404 23.9604C31.4143 23.9306 31.468 23.8925 31.5467 23.9712C32.6754 25.1062 33.8069 26.2385 34.9412 27.368C34.2258 28.4101 31.5753 29.2328 30.0277 28.8942C30.0157 28.6045 30.0777 28.5234 30.3448 28.4829C30.4831 28.4614 30.625 28.4471 30.7609 28.4137C30.8717 28.3909 30.9715 28.3314 31.0442 28.2449C31.1169 28.1583 31.1582 28.0498 31.1615 27.9368C31.1711 27.7293 31.1699 27.5195 31.1615 27.3108C31.1603 27.194 31.1186 27.0813 31.0436 26.9917C30.9686 26.9022 30.865 26.8413 30.7502 26.8196C30.5749 26.779 30.3925 26.7659 30.2184 26.7242C30.188 26.7148 30.1598 26.6994 30.1354 26.6789C30.1111 26.6585 30.091 26.6333 30.0765 26.605C29.9382 26.2914 29.8059 25.9754 29.6819 25.6511C29.6717 25.6203 29.6678 25.5878 29.6702 25.5555C29.6727 25.5232 29.6815 25.4916 29.6962 25.4627C29.7773 25.328 29.8822 25.2076 29.9728 25.0788C30.0582 24.9747 30.1008 24.8419 30.0919 24.7075C30.0831 24.5731 30.0234 24.4471 29.9251 24.3551C29.7975 24.2204 29.6664 24.088 29.5305 23.9616C29.4412 23.8693 29.3211 23.8129 29.1931 23.803C29.065 23.7931 28.9378 23.8305 28.8354 23.908C28.6959 24.0034 28.5659 24.1142 28.4228 24.2037C28.3959 24.2175 28.3665 24.2256 28.3363 24.2274C28.3061 24.2293 28.2759 24.2248 28.2476 24.2144C27.9244 24.088 27.6025 23.9545 27.2842 23.8138C27.2575 23.8004 27.2338 23.7818 27.2146 23.7591C27.1953 23.7363 27.1809 23.7099 27.1721 23.6814C27.1375 23.5395 27.1232 23.3941 27.1017 23.2486C27.0505 22.9064 26.8526 22.7324 26.5056 22.7288H26.0287C25.9565 22.7234 25.884 22.7325 25.8154 22.7555C25.7468 22.7785 25.6834 22.8149 25.6291 22.8626C25.5747 22.9104 25.5303 22.9684 25.4986 23.0335C25.4669 23.0985 25.4485 23.1692 25.4444 23.2415C25.4186 23.3686 25.4003 23.4972 25.3896 23.6266C25.3921 23.6542 25.3888 23.6821 25.3798 23.7084C25.3708 23.7347 25.3564 23.7588 25.3376 23.7791C25.3187 23.7995 25.2957 23.8157 25.2701 23.8265C25.2446 23.8374 25.217 23.8428 25.1893 23.8424C25.12 23.8563 25.0516 23.8738 24.9842 23.8949C24.9675 23.7518 24.9472 23.6218 24.9365 23.4895C24.823 22.1642 25.1554 20.839 25.8808 19.7242C26.0001 19.5477 25.9738 19.3975 25.8343 19.3116C25.6948 19.2258 25.5649 19.2747 25.454 19.4464C24.7145 20.5769 24.3514 21.9124 24.4167 23.2617C24.4274 23.5002 24.4679 23.7387 24.4834 23.9843C24.4851 24.0142 24.4798 24.044 24.468 24.0715C24.4562 24.099 24.4382 24.1234 24.4155 24.1429C24.3272 24.1882 24.2462 24.3229 24.121 24.2072C24.1175 24.2027 24.113 24.199 24.1079 24.1965C23.6417 23.8686 23.6417 23.8686 23.619 23.2987C23.5411 21.6211 24.0472 19.9685 25.0512 18.6223C26.0552 17.2761 27.495 16.3196 29.1251 15.9159C31.4394 15.3448 33.5581 15.8277 35.4443 17.2823C35.4944 17.3193 35.5397 17.3622 35.5898 17.4016C35.6153 17.424 35.645 17.4412 35.6772 17.4521C35.7094 17.463 35.7435 17.4674 35.7774 17.465C35.8113 17.4627 35.8444 17.4537 35.8749 17.4385C35.9053 17.4233 35.9324 17.4022 35.9546 17.3765C35.9794 17.3506 35.998 17.3195 36.0091 17.2854C36.0202 17.2513 36.0234 17.2152 36.0186 17.1796C36.0138 17.1441 36.0011 17.1102 35.9813 17.0803C35.9615 17.0503 35.9353 17.0253 35.9045 17.0069C35.5489 16.7308 35.1792 16.4733 34.7969 16.2355C33.51 15.4802 32.0306 15.1172 30.5404 15.191C26.9873 15.3329 23.9016 17.9906 23.2446 21.4733C23.1004 22.1988 23.0634 22.9416 23.1349 23.6779C23.1453 23.7288 23.1408 23.7816 23.122 23.83C23.1032 23.8784 23.0708 23.9204 23.0288 23.9509C22.8737 24.0822 22.7286 24.2248 22.5948 24.3777C22.5096 24.4659 22.4582 24.5812 22.4494 24.7035C22.4407 24.8258 22.4753 24.9473 22.5471 25.0466C22.6413 25.1873 22.7415 25.3244 22.8476 25.4556C22.8729 25.4841 22.8878 25.5205 22.8898 25.5586C22.8917 25.5968 22.8806 25.6344 22.8583 25.6654C22.7212 25.973 22.6008 26.2878 22.4649 26.5966C22.4506 26.6247 22.431 26.6497 22.407 26.6702C22.3831 26.6907 22.3553 26.7062 22.3254 26.7159C22.1787 26.7528 22.0261 26.7647 21.8759 26.7898C21.733 26.8005 21.6002 26.8673 21.5066 26.9757C21.413 27.0841 21.3661 27.2252 21.3763 27.368C21.3763 27.5433 21.3763 27.7174 21.3763 27.8927C21.3725 28.0181 21.4142 28.1407 21.4938 28.2378C21.5734 28.3349 21.6853 28.3999 21.8091 28.4209C21.9784 28.459 22.1549 28.4697 22.3242 28.5103C22.3541 28.5199 22.3819 28.5355 22.4058 28.5559C22.4298 28.5764 22.4494 28.6014 22.4637 28.6295C22.5996 28.9383 22.72 29.2531 22.8571 29.5595C22.8793 29.5908 22.8903 29.6286 22.8884 29.6669C22.8865 29.7052 22.8717 29.7417 22.8464 29.7705C22.7462 29.8898 22.6544 30.0209 22.5638 30.1509C22.4799 30.2558 22.4387 30.3885 22.4484 30.5224C22.4581 30.6564 22.5181 30.7818 22.6163 30.8734C22.7403 31.0046 22.8679 31.1322 22.999 31.2562C23.091 31.3543 23.2168 31.4141 23.351 31.4233C23.4853 31.4326 23.6181 31.3908 23.7227 31.3062C23.8789 31.1977 24.0244 31.0117 24.1913 30.9927C24.3582 30.9736 24.518 31.1369 24.6885 31.2061C24.859 31.2752 25.0724 31.3372 25.2596 31.4123C25.2846 31.4238 25.307 31.4403 25.3252 31.4608C25.3435 31.4813 25.3573 31.5054 25.3657 31.5316C25.3991 31.6735 25.4158 31.8201 25.4361 31.9656C25.4862 32.3233 25.6829 32.4938 26.0323 32.4962C26.2016 32.4962 26.3709 32.4962 26.5402 32.4962C26.6656 32.4996 26.788 32.4576 26.8849 32.3778C26.9818 32.298 27.0465 32.1859 27.0672 32.0622C27.1041 31.8917 27.1172 31.7164 27.1566 31.5471C27.1648 31.5185 27.1788 31.492 27.1976 31.469C27.2165 31.446 27.2399 31.4272 27.2663 31.4135C27.5858 31.2729 27.9066 31.1393 28.2309 31.0129C28.2592 31.0026 28.2893 30.9981 28.3195 30.9997C28.3496 31.0014 28.3791 31.0091 28.4061 31.0225C28.5444 31.1095 28.6696 31.2156 28.8032 31.3086C28.908 31.3929 29.0409 31.4343 29.175 31.4243C29.3092 31.4144 29.4345 31.3538 29.5257 31.255C29.6807 31.1059 29.8202 30.9438 29.9776 30.7983C30.033 30.7594 30.0995 30.7394 30.1672 30.7411C30.7359 30.7268 31.3082 30.7602 31.871 30.7005C33.23 30.5578 34.5213 30.0351 35.5969 29.1923C37.141 28.0071 38.152 26.4679 38.5264 24.553C39.0236 22.0146 38.4072 19.754 36.7177 17.7879C36.5889 17.6376 36.4411 17.6174 36.3218 17.7235C36.2026 17.8296 36.2026 17.9739 36.3385 18.1265C37.2343 19.114 37.8306 20.336 38.0579 21.6497C38.4811 24.1703 37.7979 26.3594 35.994 28.1752C34.9147 29.2684 33.5072 29.9782 31.9866 30.1962C31.3781 30.2897 30.7598 30.3018 30.1481 30.232C30.0739 30.2178 30.0065 30.1797 29.9561 30.1235C29.8619 30.0197 29.7928 29.8945 29.701 29.7872C29.633 29.7085 29.6509 29.6501 29.6879 29.5631C29.7546 29.4081 29.844 29.395 30.0038 29.414C32.2775 29.6859 34.2162 28.9979 35.7567 27.3001C37.0086 25.9182 37.5309 24.2633 37.3854 22.4116C37.1779 19.7814 35.2893 17.4564 32.7235 16.7577C30.2316 16.0781 28.0484 16.6862 26.2099 18.508C26.0668 18.6499 26.0525 18.7942 26.1622 18.9074C26.2719 19.0207 26.4293 19.0112 26.5724 18.8621C27.4351 17.9499 28.5653 17.3354 29.7999 17.1071C30.073 17.0462 30.3532 17.0236 30.6512 16.9842ZM35.3251 27.0294C34.1769 25.8812 33.0454 24.7486 31.9115 23.6194C31.8839 23.5968 31.8659 23.5645 31.8611 23.5292C31.8562 23.4938 31.8649 23.4579 31.8853 23.4287C31.9871 23.2189 32.0156 22.981 31.966 22.7531C31.9165 22.5252 31.7919 22.3206 31.6122 22.172C31.4759 22.0743 31.3324 21.987 31.183 21.9109V16.9962C32.5909 17.0609 33.9309 17.6199 34.9674 18.5748C34.7528 18.7882 34.5549 18.9814 34.3605 19.1769C34.221 19.3164 34.2067 19.4654 34.3164 19.5763C34.4261 19.6872 34.5763 19.6765 34.7158 19.5394C34.9149 19.3402 35.1117 19.1399 35.3215 18.9277C36.279 19.9676 36.8374 21.3129 36.8977 22.7252H36.7117C36.4733 22.7252 36.2277 22.7252 35.9844 22.7252C35.9209 22.7248 35.8596 22.7482 35.8126 22.791C35.7656 22.8337 35.7364 22.8926 35.7308 22.9558C35.7253 23.0191 35.7437 23.0822 35.7826 23.1324C35.8214 23.1827 35.8777 23.2165 35.9403 23.2272C35.9966 23.2325 36.0533 23.2325 36.1096 23.2272H36.8989C36.8388 24.6404 36.2814 25.9871 35.3251 27.0294ZM22.974 30.4871C23.1171 30.2928 23.2554 30.0948 23.4044 29.9053C23.4538 29.8479 23.4825 29.7756 23.486 29.6999C23.4894 29.6243 23.4674 29.5496 23.4235 29.488C23.2527 29.1912 23.1102 28.879 22.9978 28.5556C22.8428 28.0369 22.9275 28.0787 22.3564 27.9964C21.8794 27.9225 21.8794 27.9189 21.8985 27.4217C21.8985 27.3394 21.9236 27.3025 22.0106 27.2917C22.2109 27.2667 22.41 27.2202 22.6067 27.2023C22.689 27.2035 22.7687 27.1734 22.8295 27.118C22.8904 27.0627 22.928 26.9862 22.9346 26.9042C23.0133 26.4933 23.1756 26.1028 23.4115 25.7572C23.4636 25.6937 23.4901 25.6131 23.4859 25.5311C23.4817 25.4491 23.4471 25.3716 23.3889 25.3137C23.2422 25.1313 23.1099 24.9357 22.9942 24.7784L23.4294 24.3265C23.6178 24.4648 23.8181 24.6102 24.0161 24.7593C24.0643 24.8033 24.1264 24.8292 24.1917 24.8325C24.257 24.8357 24.3213 24.8162 24.3737 24.7772C24.7484 24.525 25.1695 24.3499 25.6126 24.2621C25.6799 24.2522 25.7416 24.2187 25.7865 24.1676C25.8315 24.1166 25.8569 24.0512 25.8582 23.9831C25.8904 23.7387 25.9321 23.4954 25.9774 23.2379C26.1515 23.2379 26.3136 23.2379 26.4758 23.2379C26.5712 23.2379 26.595 23.2725 26.6105 23.3571C26.6344 23.5574 26.6809 23.7566 26.6999 23.9533C26.7012 24.0327 26.7321 24.1088 26.7866 24.1666C26.8411 24.2244 26.9152 24.2597 26.9944 24.2657C27.4101 24.3468 27.8051 24.511 28.1557 24.7485C28.2152 24.7969 28.2903 24.8219 28.367 24.8189C28.4436 24.8158 28.5164 24.7848 28.5719 24.7319C28.7614 24.5828 28.9582 24.4445 29.1275 24.3193L29.577 24.7581C29.4387 24.9465 29.2932 25.1456 29.1442 25.3435C29.1 25.3916 29.0738 25.4535 29.0701 25.5187C29.0664 25.5839 29.0854 25.6484 29.1239 25.7012C29.3763 26.0758 29.5514 26.4969 29.639 26.94C29.6483 27.0074 29.6812 27.0693 29.7318 27.1147C29.7825 27.1601 29.8476 27.1861 29.9156 27.188C30.1278 27.2154 30.34 27.2476 30.5499 27.287C30.5916 27.2953 30.656 27.343 30.6584 27.3752C30.6691 27.5529 30.6584 27.7329 30.6584 27.9141C30.3985 27.9535 30.16 27.9964 29.9204 28.0262C29.8466 28.0282 29.7761 28.057 29.7221 28.1073C29.6681 28.1575 29.6343 28.2258 29.627 28.2992C29.5437 28.7258 29.3755 29.1313 29.1322 29.4915C29.0882 29.5471 29.0652 29.6164 29.0671 29.6872C29.0691 29.7581 29.0959 29.826 29.143 29.879C29.2932 30.0758 29.4375 30.2761 29.571 30.4561L29.1346 30.9044C28.9391 30.7613 28.7352 30.6123 28.5385 30.4609C28.4918 30.4191 28.4321 30.3948 28.3695 30.392C28.307 30.3892 28.2453 30.408 28.1951 30.4454C27.815 30.7001 27.3883 30.8772 26.9396 30.9664C26.8778 30.9754 26.821 31.0055 26.7788 31.0516C26.7367 31.0976 26.7118 31.1568 26.7083 31.2192C26.6844 31.3814 26.6654 31.5435 26.6356 31.7045C26.5712 32.0502 26.6546 31.9787 26.3184 31.9882C26.2516 31.9882 26.1837 31.9882 26.1157 31.9882C26.0132 31.9978 25.9655 31.9692 25.9547 31.8547C25.9357 31.6592 25.8868 31.466 25.8689 31.2705C25.8685 31.1882 25.8371 31.1091 25.781 31.049C25.7248 30.9889 25.6481 30.9522 25.5661 30.9462C25.155 30.8676 24.7646 30.7053 24.4191 30.4692C24.3579 30.4188 24.2802 30.3928 24.201 30.3961C24.1218 30.3994 24.0466 30.4318 23.9898 30.4871C23.8014 30.6362 23.6035 30.7721 23.4187 30.908L22.974 30.4871ZM30.9135 23.5407C30.8031 23.5414 30.695 23.5095 30.6027 23.4489C30.5103 23.3883 30.438 23.3018 30.3947 23.2002C30.3513 23.0986 30.339 22.9865 30.3592 22.878C30.3794 22.7694 30.4311 22.6692 30.5081 22.59C30.585 22.5108 30.6836 22.4561 30.7915 22.4327C30.8994 22.4093 31.0118 22.4183 31.1146 22.4586C31.2174 22.4989 31.3061 22.5687 31.3693 22.6592C31.4326 22.7497 31.4678 22.8569 31.4704 22.9672C31.4729 23.0418 31.4604 23.1162 31.4335 23.1858C31.4067 23.2555 31.366 23.319 31.314 23.3725C31.262 23.4261 31.1998 23.4686 31.1309 23.4975C31.0621 23.5264 30.9882 23.5411 30.9135 23.5407Z" stroke="#31343D" stroke-width="0.170637" mask="url(#path-7-outside-1_3659_225)"/>
<path d="M25.6142 29.5488L25.6142 29.5489C25.6 29.5447 25.586 29.5397 25.5705 29.5342L25.5685 29.5335C25.5532 29.528 25.5366 29.5222 25.5191 29.5171C25.4452 29.4888 25.3631 29.4907 25.2905 29.5225C25.2176 29.5544 25.1603 29.6138 25.1311 29.6877C25.1141 29.7262 25.1059 29.768 25.1072 29.81C25.1085 29.8524 25.1193 29.8939 25.1389 29.9315C25.1585 29.9691 25.1864 30.0017 25.2204 30.027C25.2539 30.052 25.2925 30.0691 25.3335 30.0772M25.6142 29.5488L25.3433 30.0357M25.6142 29.5488L25.6156 29.5493C26.0685 29.701 26.5603 29.6893 27.0055 29.5164C27.4507 29.3435 27.8214 29.0201 28.0532 28.6025C28.285 28.1848 28.3632 27.6992 28.2744 27.2299C28.1856 26.7606 27.9354 26.3371 27.567 26.033C27.1987 25.7289 26.7355 25.5634 26.2579 25.565C25.7802 25.5667 25.3182 25.7355 24.952 26.0422C24.5858 26.3489 24.3385 26.774 24.253 27.244C24.1676 27.7135 24.249 28.1981 24.4833 28.6139C24.576 28.759 24.6766 28.8988 24.7846 29.0329L25.6142 29.5488ZM25.3335 30.0772C25.3341 30.0773 25.3347 30.0775 25.3353 30.0776L25.3433 30.0357M25.3335 30.0772C25.3329 30.0771 25.3324 30.0769 25.3318 30.0768L25.3433 30.0357M25.3335 30.0772C25.5455 30.1367 25.7612 30.184 25.9755 30.231C26.0668 30.2511 26.1578 30.271 26.2482 30.2919L26.2818 30.2996L26.2964 30.2684L26.3029 30.2547M25.3433 30.0357C25.5547 30.095 25.769 30.142 25.9833 30.1891C26.0749 30.2091 26.1665 30.2292 26.2578 30.2503L26.2757 30.2121M26.3029 30.2547C26.2938 30.2548 26.2848 30.2548 26.2757 30.2548V30.2121M26.3029 30.2547L26.3143 30.2303L26.2757 30.2121M26.3029 30.2547C27.659 30.2404 28.8125 29.1623 28.9127 27.8502C28.9519 27.418 28.8843 26.9829 28.7158 26.583C28.5472 26.183 28.2829 25.8307 27.9461 25.5569C27.6093 25.2832 27.2103 25.0965 26.7843 25.0133C26.3584 24.9301 25.9185 24.9529 25.5034 25.0797C25.0883 25.2066 24.7108 25.4335 24.4041 25.7406C24.0974 26.0478 23.871 26.4256 23.7447 26.8408C23.6184 27.2561 23.5962 27.696 23.68 28.1219C23.7638 28.5475 23.9508 28.946 24.2248 29.2823M26.2757 30.2121L24.2252 29.2829C24.2251 29.2827 24.2249 29.2825 24.2248 29.2823M24.2248 29.2823C24.2624 29.3316 24.3029 29.3787 24.3461 29.4231M24.2248 29.2823C24.2247 29.2821 24.2245 29.2819 24.2244 29.2817L24.3461 29.4231M24.3461 29.4231C24.3717 29.4524 24.4028 29.4762 24.4378 29.4932C24.4731 29.5104 24.5116 29.5202 24.5508 29.522C24.5901 29.5239 24.6293 29.5177 24.6661 29.5039C24.7028 29.4901 24.7363 29.469 24.7646 29.4419C24.7646 29.4418 24.7647 29.4418 24.7648 29.4417L24.3461 29.4231Z" fill="#31343D" stroke="#31343D" stroke-width="0.0853183"/>
<path d="M26.613 27.8107L25.7593 27.0155C25.7152 26.9737 25.6747 26.926 25.6294 26.8831C25.4982 26.7639 25.3504 26.7472 25.2419 26.8557C25.1334 26.9642 25.1453 27.1108 25.2693 27.2444C25.3659 27.3469 25.4648 27.4459 25.5638 27.5472L26.3066 28.3067C26.4878 28.4903 26.5987 28.4927 26.7835 28.3187C26.9683 28.1446 27.1245 27.9908 27.2915 27.8238C27.3208 27.8019 27.3452 27.774 27.3631 27.742C27.381 27.71 27.392 27.6745 27.3954 27.638C27.3987 27.6015 27.3944 27.5647 27.3827 27.53C27.3709 27.4952 27.3521 27.4633 27.3272 27.4363C27.2211 27.3255 27.0721 27.3278 26.9409 27.4578C26.8098 27.5878 26.7013 27.7165 26.613 27.8107Z" fill="#31343D"/>
</g>
<defs>
<clipPath id="clip0_3659_225">
<rect width="28.6082" height="27.6329" fill="white" transform="matrix(-1 0 0 1 49.5713 6.44824)"/>
</clipPath>
</defs>
</svg>
