<svg width="48" height="50" viewBox="0 0 48 50" fill="none" xmlns="http://www.w3.org/2000/svg">
<path fill-rule="evenodd" clip-rule="evenodd" d="M15.4946 8.61589C21.983 4.66266 29.1511 10.357 35.0502 15.1452C40.168 19.2993 45.2176 24.8151 43.1721 31.0812C41.0287 37.6474 33.7511 40.3281 26.8441 40.2839C19.4901 40.2367 11.733 37.7867 9.25193 30.8637C6.379 22.8475 8.22259 13.0466 15.4946 8.61589Z" fill="#F4FFE2"/>
<g clip-path="url(#clip0_3659_226)">
<path d="M35.9414 23.1575C36.0648 23.8701 36.1768 24.5423 36.3034 25.2103C36.3192 25.2479 36.3439 25.2811 36.3753 25.3071C36.4067 25.3331 36.444 25.3512 36.4839 25.3597C36.7069 25.3825 36.933 25.3597 37.156 25.3846C37.4449 25.4129 37.7127 25.5488 37.9061 25.7653C38.0995 25.9818 38.2046 26.263 38.2004 26.5533C38.1962 26.8436 38.0831 27.1217 37.8835 27.3325C37.684 27.5433 37.4124 27.6714 37.1228 27.6915C37.0544 27.6977 36.9849 27.6987 36.9154 27.6987H27.5943C26.9035 27.6987 26.4409 27.3336 26.333 26.7164C26.3082 26.5672 26.3132 26.4146 26.3476 26.2674C26.382 26.1201 26.4452 25.9811 26.5335 25.8583C26.6218 25.7355 26.7334 25.6313 26.8621 25.5518C26.9907 25.4723 27.1338 25.419 27.2831 25.3949C27.5207 25.3628 27.7665 25.3866 28.0092 25.3597C28.0536 25.353 28.0956 25.3356 28.1318 25.309C28.1679 25.2824 28.197 25.2475 28.2167 25.2072C28.3443 24.5392 28.4553 23.8681 28.5787 23.1575H26.2967C25.9367 23.1575 25.7407 23.0102 25.75 22.753C25.7594 22.4957 25.943 22.3796 26.2956 22.3796H43.722C44.4388 22.3796 44.7489 22.0684 44.7469 21.3578V21.1078H19.7908C19.768 21.4346 19.7286 21.7582 19.9506 22.0414C20.1477 22.2966 20.4142 22.3796 20.7244 22.3785C21.855 22.3785 22.9857 22.3785 24.1163 22.3785C24.2025 22.3761 24.2887 22.3789 24.3746 22.3868C24.467 22.3901 24.5543 22.4295 24.6178 22.4967C24.6813 22.5639 24.7158 22.6533 24.7138 22.7457C24.724 22.8375 24.6984 22.9297 24.6424 23.0031C24.5864 23.0765 24.5042 23.1255 24.413 23.1399C24.3282 23.1553 24.2418 23.1609 24.1557 23.1565C23.0168 23.1565 21.8758 23.1565 20.7327 23.1565C19.6778 23.1565 18.9942 22.4771 18.9932 21.4294C18.9932 16.1738 18.9932 10.9183 18.9932 5.66268C18.9932 4.60673 19.6653 3.93561 20.7275 3.93561C26.1214 3.93561 31.5153 3.93561 36.9091 3.93561C36.9868 3.93315 37.0645 3.93696 37.1415 3.94702C37.2337 3.95445 37.3193 3.99748 37.3803 4.067C37.4413 4.13651 37.4728 4.22704 37.4682 4.31941C37.475 4.4072 37.4482 4.49429 37.3934 4.56318C37.3386 4.63207 37.2597 4.67764 37.1726 4.69075C37.0533 4.7098 36.9324 4.71745 36.8116 4.71357C31.4696 4.71357 26.1269 4.71357 20.7835 4.71357C20.4588 4.71357 20.1487 4.75091 19.9537 5.04135C19.8474 5.19455 19.785 5.37389 19.7732 5.55999C19.7642 10.4352 19.7618 15.3105 19.7659 20.1857C19.7659 20.2106 19.7732 20.2365 19.7794 20.2832H44.7375V5.69381C44.7375 5.02787 44.4263 4.71461 43.7531 4.71357H39.1186C38.6943 4.71357 38.5149 4.59324 38.519 4.31525C38.5231 4.03726 38.6891 3.93457 39.1051 3.93457C40.6499 3.93457 42.1948 3.93457 43.7397 3.93457C44.8641 3.93457 45.5155 4.59325 45.5155 5.72492V21.363C45.5155 22.504 44.8558 23.1575 43.7137 23.1575H35.9414ZM28.9801 25.3669H29.3058C30.3583 25.3669 31.4115 25.3669 32.4654 25.3669C32.5699 25.3619 32.6746 25.371 32.7766 25.3939C32.8626 25.4124 32.9383 25.4629 32.9886 25.5351C33.0388 25.6073 33.0598 25.6958 33.0473 25.7829C33.0485 25.8661 33.0193 25.9469 32.9653 26.0103C32.9113 26.0736 32.8361 26.1152 32.7538 26.1273C32.6508 26.1428 32.5466 26.1484 32.4426 26.1439H27.7281C27.6333 26.1414 27.5383 26.1453 27.4439 26.1553C27.3484 26.1632 27.2594 26.207 27.1948 26.2779C27.1302 26.3487 27.0948 26.4414 27.0957 26.5373C27.0967 26.6331 27.1338 26.7251 27.1997 26.7947C27.2657 26.8643 27.3555 26.9064 27.4512 26.9125C27.5203 26.9161 27.5895 26.9161 27.6586 26.9125H36.849C36.9353 26.9153 37.0217 26.9108 37.1073 26.899C37.1918 26.8825 37.2681 26.8376 37.3236 26.7717C37.3791 26.7059 37.4104 26.623 37.4124 26.5369C37.4143 26.4508 37.3867 26.3667 37.3343 26.2984C37.2818 26.2301 37.2075 26.1818 37.1239 26.1615C37.0212 26.1433 36.9169 26.1357 36.8127 26.1387C36.0451 26.1387 35.2765 26.1387 34.5089 26.1387C34.2589 26.1387 34.0939 25.9852 34.0877 25.7736C34.0815 25.5619 34.2412 25.3866 34.5026 25.3669C34.6136 25.3586 34.7267 25.3669 34.8387 25.3669H35.5337C35.402 24.6108 35.2785 23.893 35.153 23.1741H29.3598C29.2301 23.9002 29.1108 24.6128 28.9801 25.3669Z" fill="#31343D"/>
<path d="M40.0061 15.0148L38.3028 18.3673C38.2818 18.4327 38.2487 18.4935 38.2053 18.5468C38.0871 18.6505 37.9543 18.7988 37.8288 18.7978C37.7521 18.7847 37.6793 18.7548 37.6156 18.7101C37.5519 18.6654 37.499 18.6072 37.4606 18.5395C37.027 17.7273 36.6162 16.9016 36.1982 16.0801C36.1204 15.9276 36.0416 15.7762 35.9399 15.577C35.7584 15.9297 35.58 16.2399 35.4358 16.5656C35.3072 16.8581 35.1153 16.9805 34.7927 16.9639C34.3622 16.9421 33.9307 16.9639 33.4992 16.9577C33.1973 16.9577 33.0262 16.8073 33.0314 16.5614C33.0366 16.3156 33.2036 16.1849 33.4898 16.1818C33.8436 16.1818 34.1973 16.1735 34.551 16.1818C34.6137 16.1905 34.6774 16.1775 34.7316 16.1448C34.7858 16.1121 34.8272 16.0618 34.8487 16.0023C35.0655 15.5521 35.2999 15.1103 35.5229 14.6632C35.6121 14.4868 35.7127 14.324 35.9378 14.323C36.1629 14.3219 36.2635 14.4806 36.3527 14.658C36.834 15.6102 37.3195 16.5614 37.8267 17.5572C37.8859 17.4535 37.9305 17.3757 37.9699 17.2979C38.5106 16.2399 39.05 15.1808 39.588 14.1207C39.6814 13.9371 39.7779 13.7597 40.0133 13.7607C40.2488 13.7618 40.3463 13.9392 40.4386 14.1228C40.7498 14.7451 41.0734 15.3675 41.3825 15.9899C41.4054 16.0532 41.4493 16.1068 41.5068 16.1417C41.5644 16.1766 41.6322 16.1908 41.6989 16.1818C42.0516 16.1683 42.4063 16.1745 42.7601 16.1818C43.0391 16.1818 43.2071 16.3394 43.204 16.5759C43.2009 16.8124 43.0349 16.9556 42.7497 16.9577C42.2839 16.9577 41.8161 16.9514 41.3525 16.9577C41.2464 16.9664 41.1402 16.941 41.0496 16.8852C40.9589 16.8294 40.8884 16.7461 40.8483 16.6475C40.6212 16.1838 40.3805 15.7264 40.1451 15.2658C40.1025 15.1891 40.061 15.1165 40.0061 15.0148Z" fill="#31343D"/>
<path d="M26.0714 11.8858H21.8787C21.8013 11.8905 21.7237 11.8905 21.6464 11.8858C21.5541 11.8824 21.4668 11.8437 21.4023 11.7776C21.3378 11.7116 21.3012 11.6234 21.2999 11.5311C21.2884 11.4438 21.3099 11.3553 21.3601 11.283C21.4104 11.2106 21.4858 11.1597 21.5717 11.14C21.6719 11.1169 21.7749 11.1078 21.8777 11.1131H30.2901C30.3676 11.1094 30.4452 11.1115 30.5224 11.1193C30.5724 11.1234 30.6211 11.1375 30.6656 11.1607C30.71 11.184 30.7494 11.2158 30.7814 11.2545C30.8134 11.2931 30.8373 11.3378 30.8518 11.3858C30.8663 11.4339 30.871 11.4843 30.8657 11.5342C30.8653 11.582 30.8555 11.6292 30.8367 11.6731C30.8179 11.717 30.7906 11.7567 30.7564 11.79C30.7221 11.8233 30.6816 11.8495 30.6372 11.867C30.5927 11.8845 30.5453 11.893 30.4975 11.8921C30.428 11.8983 30.3596 11.8921 30.2901 11.8921L26.0714 11.8858Z" fill="#31343D"/>
<path d="M26.0909 7.49456H21.8982C21.8037 7.49857 21.709 7.49475 21.615 7.48315C21.4179 7.45099 21.2831 7.31303 21.3101 7.12943C21.3534 6.98214 21.4411 6.85176 21.5611 6.75601C21.6161 6.70415 21.7416 6.71867 21.8349 6.71867C24.6646 6.71867 27.494 6.71867 30.323 6.71867C30.426 6.71482 30.529 6.72742 30.628 6.75601C30.7045 6.78561 30.7694 6.83923 30.8129 6.90881C30.8565 6.97839 30.8763 7.0602 30.8694 7.14198C30.8625 7.22376 30.8293 7.3011 30.7747 7.36242C30.7202 7.42374 30.6472 7.46573 30.5668 7.48211C30.4731 7.49598 30.3782 7.5005 30.2836 7.49559L26.0909 7.49456Z" fill="#31343D"/>
<path d="M26.0648 15.9865H21.898C21.8036 15.9865 21.6843 16.0155 21.619 15.9709C21.4966 15.8859 21.3348 15.7635 21.3213 15.6432C21.3078 15.5228 21.4354 15.361 21.5391 15.2573C21.5972 15.1992 21.7352 15.2096 21.8368 15.2096C24.6665 15.2096 27.4959 15.2096 30.3249 15.2096C30.4196 15.2063 30.5143 15.2168 30.606 15.2407C30.6877 15.2675 30.7578 15.3212 30.8051 15.3929C30.8523 15.4647 30.8739 15.5503 30.8664 15.6359C30.8588 15.7215 30.8225 15.802 30.7633 15.8643C30.7042 15.9267 30.6257 15.9672 30.5407 15.9792C30.4548 15.9874 30.3686 15.9898 30.2824 15.9865H26.0648Z" fill="#31343D"/>
<path d="M24.4088 9.55622C23.5382 9.55622 22.6675 9.55622 21.7969 9.55622C21.4722 9.55622 21.2928 9.41411 21.2969 9.1662C21.3011 8.91829 21.4868 8.78033 21.8083 8.7793H27.0072C27.3453 8.7793 27.5383 8.92762 27.5341 9.17761C27.53 9.4276 27.3464 9.55622 26.9958 9.55726L24.4088 9.55622Z" fill="#31343D"/>
<path d="M27.7594 13.9507H25.2761C25.2159 13.9507 25.1558 13.9507 25.0946 13.9507C24.8207 13.9414 24.6433 13.7826 24.6496 13.5524C24.6558 13.3221 24.8259 13.179 25.0873 13.1748C25.4058 13.1748 25.7252 13.1748 26.0447 13.1748H30.3909C30.7021 13.1748 30.8681 13.3148 30.8702 13.5586C30.8722 13.8024 30.7011 13.9507 30.3992 13.9507C29.5196 13.9507 28.64 13.9507 27.7594 13.9507Z" fill="#31343D"/>
<path d="M23.7407 18.0445H21.8C21.4794 18.0445 21.2958 17.8982 21.2969 17.6524C21.2979 17.4066 21.4794 17.2676 21.8041 17.2676H25.7105C26.0362 17.2676 26.2105 17.4055 26.2095 17.6566C26.2084 17.9076 26.0331 18.0435 25.7064 18.0445H23.7407Z" fill="#31343D"/>
<path d="M22.4721 13.1767C22.7221 13.1767 22.9721 13.1767 23.221 13.1767C23.47 13.1767 23.6505 13.3427 23.6505 13.5636C23.6505 13.7846 23.4793 13.9474 23.2221 13.9505C22.7228 13.9567 22.2235 13.9567 21.7242 13.9505C21.466 13.9505 21.2969 13.7866 21.2969 13.5636C21.2969 13.3406 21.466 13.1829 21.7232 13.1767C21.9804 13.1705 22.2221 13.1767 22.4721 13.1767Z" fill="#31343D"/>
<path d="M29.7064 9.55523C29.4574 9.55523 29.2074 9.55523 28.9574 9.55523C28.7074 9.55523 28.5311 9.38823 28.5342 9.16625C28.5357 9.11421 28.5475 9.06297 28.5688 9.01551C28.5902 8.96804 28.6208 8.92528 28.6588 8.88969C28.6968 8.8541 28.7415 8.8264 28.7902 8.80817C28.839 8.78994 28.8909 8.78155 28.9429 8.78349C29.4501 8.77416 29.9594 8.77416 30.4667 8.78349C30.5209 8.77974 30.5752 8.78772 30.626 8.80688C30.6768 8.82605 30.7229 8.85595 30.7611 8.89455C30.7993 8.93315 30.8287 8.97953 30.8474 9.03054C30.866 9.08154 30.8735 9.13597 30.8691 9.1901C30.8598 9.41208 30.7094 9.55004 30.4542 9.55523C30.1991 9.56042 29.9553 9.55523 29.7064 9.55523Z" fill="#31343D"/>
</g>
<defs>
<clipPath id="clip0_3659_226">
<rect width="26.5192" height="23.7652" fill="white" transform="translate(18.9932 3.93457)"/>
</clipPath>
</defs>
</svg>
