<svg width="40" height="40" viewBox="0 0 40 40" fill="none" xmlns="http://www.w3.org/2000/svg">
<path fill-rule="evenodd" clip-rule="evenodd" d="M12.4014 6.54109C17.7711 3.26941 23.7034 7.98206 28.5855 11.9448C32.821 15.3826 37 19.9474 35.3072 25.1333C33.5333 30.5674 27.5104 32.786 21.7941 32.7494C15.7081 32.7103 9.28831 30.6827 7.23497 24.9533C4.85735 18.3191 6.3831 10.208 12.4014 6.54109Z" fill="#E2FFF8"/>
<g clip-path="url(#clip0_1461_72153)">
<path d="M34.5185 7.97626C34.5185 9.27333 34.5185 10.5704 34.5185 11.8675C34.5185 12.4309 34.1743 12.8867 33.6418 13.0283C33.5309 13.0562 33.4169 13.0699 33.3025 13.0691C30.7084 13.0711 28.1144 13.0711 25.5206 13.0691C24.816 13.0691 24.3057 12.5583 24.3057 11.8527C24.3057 9.25923 24.3057 6.66526 24.3057 4.0708C24.3057 3.36621 24.8165 2.85583 25.5216 2.85583C28.1157 2.85583 30.7097 2.85583 33.3035 2.85583C34.0086 2.85583 34.5175 3.36571 34.5185 4.07177C34.5201 5.37343 34.5201 6.67493 34.5185 7.97626ZM33.7318 7.96298C33.7318 6.67444 33.7318 5.38556 33.7318 4.09636C33.7318 3.79545 33.5794 3.64253 33.2799 3.64253H25.5477C25.2389 3.64253 25.0909 3.79004 25.0909 4.10275C25.0909 6.67689 25.0909 9.25005 25.0909 11.8222C25.0909 12.1315 25.2413 12.2829 25.5482 12.2829H33.2676C33.5843 12.2829 33.7308 12.1354 33.7308 11.8158C33.7324 10.5309 33.7329 9.24661 33.7323 7.96298H33.7318Z" fill="#31343D"/>
<path d="M22.6279 7.97626C22.6279 9.27333 22.6279 10.5704 22.6279 11.8675C22.6279 12.4309 22.2837 12.8867 21.7512 13.0283C21.6403 13.0562 21.5263 13.0699 21.4119 13.0691C18.8184 13.0711 16.2245 13.0711 13.63 13.0691C12.9254 13.0691 12.4155 12.5583 12.415 11.8527C12.415 9.25923 12.415 6.66526 12.415 4.0708C12.415 3.36621 12.9259 2.85583 13.6315 2.85583C16.2253 2.85583 18.8193 2.85583 21.4134 2.85583C22.1185 2.85583 22.6274 3.36571 22.6283 4.07177C22.6293 5.37343 22.6292 6.67493 22.6279 7.97626ZM21.8412 7.96298V4.09636C21.8412 3.79545 21.6882 3.64253 21.3893 3.64253H13.6565C13.3478 3.64253 13.1998 3.79004 13.1998 4.10275V11.8222C13.1998 12.1315 13.3502 12.2829 13.6575 12.2829H21.377C21.6937 12.2829 21.8407 12.1354 21.8407 11.8158L21.8412 7.96298Z" fill="#31343D"/>
<path d="M22.6279 18.8784C22.6279 20.1754 22.6279 21.4725 22.6279 22.7696C22.6279 23.333 22.2837 23.7893 21.7512 23.9304C21.6403 23.9585 21.5263 23.9723 21.4119 23.9713C18.8184 23.9732 16.2245 23.9732 13.63 23.9713C12.9254 23.9713 12.4155 23.4604 12.415 22.7553C12.415 20.1612 12.415 17.567 12.415 14.9729C12.415 14.2683 12.9259 13.7579 13.6315 13.7579C16.2253 13.7579 18.8193 13.7579 21.4134 13.7579C22.1185 13.7579 22.6274 14.2678 22.6283 14.9739C22.6293 16.2755 22.6292 17.577 22.6279 18.8784ZM21.8412 18.8651V14.9985C21.8412 14.6976 21.6882 14.5446 21.3893 14.5446H13.6565C13.3478 14.5446 13.1998 14.6921 13.1998 15.0049V22.7243C13.1998 23.0336 13.3502 23.185 13.6575 23.185H21.377C21.6937 23.185 21.8407 23.0375 21.8407 22.7179L21.8412 18.8651Z" fill="#31343D"/>
<path d="M34.5185 18.8784C34.5185 20.1754 34.5185 21.4725 34.5185 22.7696C34.5185 23.333 34.1743 23.7893 33.6418 23.9304C33.5309 23.9585 33.4169 23.9722 33.3025 23.9713C30.7084 23.9732 28.1144 23.9732 25.5206 23.9713C24.816 23.9713 24.3057 23.4604 24.3057 22.7553C24.3057 20.1612 24.3057 17.567 24.3057 14.9729C24.3057 14.2683 24.8165 13.7579 25.5216 13.7579C28.1157 13.7579 30.7097 13.7579 33.3035 13.7579C34.0086 13.7579 34.5175 14.2678 34.5185 14.9739C34.5201 16.2755 34.5201 17.577 34.5185 18.8784ZM33.7318 18.8651C33.7318 17.5762 33.7318 16.2873 33.7318 14.9985C33.7318 14.6976 33.5794 14.5446 33.2799 14.5446H25.5477C25.2389 14.5446 25.0909 14.6921 25.0909 15.0049C25.0909 17.579 25.0909 20.1522 25.0909 22.7243C25.0909 23.0336 25.2413 23.185 25.5482 23.185H33.2676C33.5843 23.185 33.7308 23.0375 33.7308 22.7179C33.7324 21.4343 33.7329 20.15 33.7323 18.8651H33.7318Z" fill="#31343D"/>
<path d="M29.9307 8.86397C30.3491 8.44899 30.7548 8.05121 31.1555 7.64852C32.7905 6.00661 34.425 4.36405 36.0591 2.72084C36.4573 2.32061 37.0557 2.44157 37.2091 2.95243C37.2932 3.2322 37.2003 3.46427 36.9967 3.66832C35.9435 4.72446 34.892 5.78241 33.8421 6.84216C32.7318 7.95927 31.6211 9.07589 30.5099 10.192C30.121 10.5829 29.7768 10.5824 29.379 10.192C28.5235 9.35025 27.6688 8.50766 26.8149 7.66426C26.5494 7.4017 26.5292 7.01228 26.7559 6.74234C26.8621 6.6216 27.0078 6.54266 27.1669 6.51968C27.3261 6.4967 27.4882 6.53119 27.6242 6.61696C27.6916 6.66553 27.7542 6.72053 27.811 6.78119C28.5156 7.47152 29.2177 8.16234 29.9307 8.86397Z" fill="#31343D"/>
</g>
<defs>
<clipPath id="clip0_1461_72153">
<rect width="24.8267" height="21.4906" fill="white" transform="translate(12.4133 2.4823)"/>
</clipPath>
</defs>
</svg>
