<svg width="36" height="37" viewBox="0 0 36 37" fill="none" xmlns="http://www.w3.org/2000/svg">
<path fill-rule="evenodd" clip-rule="evenodd" d="M11.4323 6.02996C16.3824 3.01394 21.8511 7.35832 26.3517 11.0114C30.2562 14.1806 34.1087 18.3887 32.5481 23.1693C30.9128 28.1788 25.3606 30.224 20.091 30.1902C14.4806 30.1542 8.56248 28.285 6.6696 23.0034C4.47777 16.8876 5.8843 9.41028 11.4323 6.02996Z" fill="#F4FFE2"/>
<g clip-path="url(#clip0_1461_72152)">
<path d="M25.089 4.74764C25.8097 4.21714 26.2286 4.20375 27.019 4.66369C27.0502 4.67586 27.0837 4.6809 27.1171 4.67842C27.1505 4.67595 27.1829 4.66603 27.2119 4.6494C28.2539 4.00637 29.2928 3.35769 30.3288 2.70334C30.3605 2.67443 30.385 2.63859 30.4005 2.59862C30.416 2.55864 30.422 2.51562 30.4181 2.47293C30.2752 1.62449 30.8459 0.853744 31.6836 0.776045C31.879 0.757468 32.0762 0.779347 32.2628 0.84032C32.4493 0.901293 32.6213 1.00005 32.7681 1.13044C32.9148 1.26082 33.0331 1.42003 33.1156 1.59815C33.198 1.77627 33.2429 1.96947 33.2474 2.1657C33.2644 3.00342 32.5723 3.69289 31.739 3.61609C31.4711 3.59197 31.2201 3.42675 30.9567 3.33834C30.8784 3.30399 30.7902 3.30017 30.7093 3.32762C29.6715 3.9644 28.6409 4.61278 27.6049 5.25313C27.4923 5.32279 27.4861 5.39603 27.5075 5.51035C27.5674 5.77379 27.5462 6.04918 27.4468 6.30037C27.3473 6.55156 27.1742 6.7668 26.9502 6.91786C26.7413 7.08322 26.4878 7.18251 26.2221 7.20304C25.9564 7.22356 25.6906 7.16438 25.4588 7.03307C24.9381 6.76514 24.6451 6.30877 24.7023 5.72737C24.7345 5.40585 24.613 5.29511 24.379 5.15936C23.3243 4.55205 22.2793 3.92778 21.2264 3.31511C21.1603 3.27671 21.0308 3.25349 20.9826 3.291C20.3833 3.74469 19.7813 3.73755 19.1544 3.32137L17.9121 4.25287C17.2173 4.77443 16.5233 5.29779 15.824 5.8131C15.7704 5.84158 15.7294 5.88908 15.7091 5.94627C15.6888 6.00347 15.6906 6.06619 15.7142 6.12211C15.7657 6.30891 15.7783 6.50429 15.7511 6.69615C15.724 6.888 15.6577 7.07222 15.5563 7.23737C15.455 7.40253 15.3208 7.54509 15.162 7.6562C15.0033 7.76732 14.8234 7.84462 14.6335 7.8833C14.448 7.92409 14.2562 7.92714 14.0694 7.89228C13.8827 7.85741 13.7049 7.78534 13.5466 7.68035C13.3883 7.57537 13.2527 7.43961 13.1479 7.28115C13.0431 7.1227 12.9713 6.94478 12.9367 6.758C12.8762 6.49776 12.8948 6.22536 12.9903 5.97582C13.0858 5.72628 13.2537 5.51099 13.4725 5.35762C13.9459 4.99592 14.4639 4.95662 15.0006 5.22455C15.0792 5.26385 15.1524 5.31386 15.2382 5.36477L17.4397 3.70629C17.7969 3.43836 18.147 3.16329 18.5114 2.90786C18.6659 2.7998 18.7096 2.70513 18.6623 2.51043C18.5239 1.93707 18.7061 1.44765 19.1642 1.08148C19.3727 0.903236 19.6308 0.79327 19.9038 0.766437C20.1767 0.739605 20.4514 0.7972 20.6905 0.931442C21.213 1.19937 21.5077 1.65217 21.4532 2.23268C21.4229 2.56313 21.5515 2.67923 21.7908 2.81498C22.8268 3.41068 23.8539 4.02245 24.8836 4.62797C24.9542 4.67173 25.0247 4.71102 25.089 4.74764ZM20.7575 2.19785C20.7563 2.01021 20.6814 1.83057 20.5489 1.69772C20.4164 1.56487 20.2369 1.48948 20.0493 1.48784C19.9546 1.48783 19.8609 1.50663 19.7736 1.54315C19.6862 1.57967 19.607 1.63318 19.5406 1.70057C19.4741 1.76796 19.4217 1.84788 19.3863 1.93571C19.351 2.02353 19.3335 2.11749 19.3348 2.21214C19.3388 2.39992 19.4166 2.57858 19.5513 2.70945C19.686 2.84033 19.8668 2.91289 20.0546 2.91144C20.242 2.90839 20.4206 2.8319 20.552 2.69843C20.6835 2.56496 20.7573 2.38519 20.7575 2.19785ZM31.814 2.91233C32.0012 2.91236 32.1809 2.83893 32.3146 2.70782C32.4482 2.57672 32.525 2.39841 32.5285 2.21125C32.5296 2.11675 32.5119 2.02298 32.4764 1.93536C32.441 1.84775 32.3886 1.76803 32.3221 1.70083C32.2557 1.63363 32.1765 1.58029 32.0893 1.54388C32.0021 1.50747 31.9085 1.48873 31.814 1.48874C31.6261 1.49109 31.4466 1.5674 31.3146 1.70113C31.1825 1.83487 31.1085 2.01526 31.1085 2.20321C31.1104 2.39069 31.1858 2.56992 31.3187 2.70225C31.4515 2.83457 31.631 2.90938 31.8185 2.91054L31.814 2.91233ZM26.1072 6.48471C26.2946 6.48474 26.4746 6.41106 26.6083 6.27957C26.742 6.14808 26.8186 5.96932 26.8216 5.78184C26.8233 5.59418 26.7511 5.41338 26.6206 5.27852C26.4901 5.14366 26.3117 5.06557 26.1241 5.06112C26.0293 5.05958 25.9352 5.07692 25.8471 5.11213C25.7591 5.14735 25.679 5.19973 25.6114 5.26623C25.5438 5.33273 25.4901 5.41202 25.4535 5.49947C25.4169 5.58692 25.398 5.68078 25.398 5.7756C25.4011 5.96214 25.4769 6.14011 25.6094 6.27145C25.742 6.40279 25.9206 6.47709 26.1072 6.47846V6.48471ZM15.0488 6.49632C15.0508 6.30865 14.9788 6.12776 14.8484 5.99273C14.7181 5.8577 14.5398 5.77938 14.3522 5.7747C14.2573 5.77292 14.1629 5.79009 14.0747 5.82519C13.9865 5.8603 13.9061 5.91265 13.8383 5.97917C13.7706 6.04569 13.7167 6.12506 13.68 6.21263C13.6433 6.3002 13.6243 6.39421 13.6244 6.48918C13.6243 6.67759 13.6988 6.85838 13.8314 6.99219C13.964 7.126 14.1442 7.20201 14.3326 7.20365C14.4265 7.20389 14.5195 7.18561 14.6063 7.14987C14.6932 7.11412 14.7721 7.06161 14.8386 6.99534C14.9051 6.92906 14.958 6.85033 14.994 6.76363C15.0301 6.67693 15.0487 6.58397 15.0488 6.49007V6.49632Z" fill="#31343D"/>
<path d="M27.5398 18.956L27.9685 18.3987L28.5382 18.8238C28.1658 19.3177 27.8077 19.8062 27.429 20.2823C27.2861 20.4609 27.0387 20.4323 26.8932 20.2376C26.5359 19.7786 26.1965 19.3124 25.8304 18.8238L26.3984 18.3969L26.7851 18.9024C26.9735 17.8307 26.3653 16.0195 24.5997 15.3059C23.8069 14.9857 22.9254 14.9604 22.1155 15.2347C21.3056 15.5091 20.621 16.0648 20.186 16.801C19.7522 17.5383 19.5979 18.407 19.7514 19.2486C19.9049 20.0902 20.3558 20.8485 21.022 21.3852C22.3839 22.4927 24.4934 22.4962 25.925 20.9985C26.0938 21.1459 26.2626 21.295 26.4323 21.4451C25.5294 22.6007 23.4503 23.4018 21.4765 22.5025C20.5583 22.0771 19.8192 21.3418 19.3892 20.4257C18.9591 19.5096 18.8656 18.4713 19.125 17.4931C19.6609 15.4988 21.6257 14.1458 23.6352 14.3405C25.8402 14.5513 27.6702 16.4482 27.5398 18.956Z" fill="#31343D"/>
<path d="M33.5968 17.527H32.8957V6.49726H30.7523V17.527H30.0378V6.27399C30.0378 5.86406 30.1405 5.76135 30.5496 5.76135C31.4195 5.76135 32.289 5.76135 33.1583 5.76135C33.4798 5.76135 33.6049 5.88639 33.6049 6.2079C33.6049 9.93151 33.6049 13.6548 33.6049 17.3778C33.6049 17.4243 33.5995 17.4681 33.5968 17.527Z" fill="#31343D"/>
<path d="M19.3375 6.49432V15.3833H18.6177V6.27372C18.6177 5.87451 18.7231 5.76733 19.1142 5.76733C19.9913 5.76733 20.8683 5.76733 21.7453 5.76733C22.0534 5.76733 22.1856 5.89416 22.1856 6.19602C22.1856 8.61869 22.1856 11.0414 22.1856 13.464C22.1856 13.5078 22.1856 13.5533 22.1793 13.6042H21.4818V6.49521L19.3375 6.49432Z" fill="#31343D"/>
<path d="M16.4671 17.5269H15.7705V10.0624H13.6271V17.5269H12.9126V9.84629C12.9126 9.43547 13.0153 9.33276 13.4243 9.33276C14.3014 9.33276 15.1784 9.33276 16.0554 9.33276C16.3483 9.33276 16.4805 9.46315 16.4805 9.75341C16.4805 12.31 16.4805 14.8667 16.4805 17.4233C16.4769 17.4537 16.4716 17.4823 16.4671 17.5269Z" fill="#31343D"/>
<path d="M27.8889 15.3887H27.1887V10.0649H25.0453V13.6043H24.3379C24.3379 13.5337 24.3281 13.4632 24.3281 13.3917V9.8247C24.3281 9.44424 24.4389 9.3335 24.8175 9.3335C25.7026 9.3335 26.5868 9.3335 27.4709 9.3335C27.763 9.3335 27.8951 9.46389 27.896 9.75414C27.896 11.5903 27.896 13.426 27.896 15.261C27.8943 15.2985 27.8889 15.3342 27.8889 15.3887Z" fill="#31343D"/>
<path d="M12.2063 18.956V18.2683H18.2436V18.956H12.2063Z" fill="#31343D"/>
<path d="M34.3076 18.2683V18.956H29.3394V18.2692L34.3076 18.2683Z" fill="#31343D"/>
<path d="M22.8993 16.1168H23.6138V16.3338C23.6138 17.1725 23.6084 18.0111 23.6138 18.8497C23.6236 18.9529 23.5996 19.0565 23.5452 19.1448C23.4909 19.2331 23.4093 19.3013 23.3128 19.3391C22.8716 19.5472 22.4385 19.7732 21.9874 19.9991L21.665 19.3597C21.9142 19.2364 22.1464 19.0917 22.4001 19.0024C22.8019 18.8649 22.9359 18.6282 22.9073 18.1986C22.8627 17.586 22.8957 16.967 22.8957 16.3517L22.8993 16.1168Z" fill="#31343D"/>
</g>
<defs>
<clipPath id="clip0_1461_72152">
<rect width="22.1014" height="22.1238" fill="white" transform="translate(12.2063 0.762573)"/>
</clipPath>
</defs>
</svg>
