<svg width="37" height="38" viewBox="0 0 37 38" fill="none" xmlns="http://www.w3.org/2000/svg">
<path fill-rule="evenodd" clip-rule="evenodd" d="M11.6898 6.16583C16.7514 3.08187 22.3434 7.52412 26.9453 11.2594C30.9378 14.5 34.877 18.8029 33.2813 23.6912C31.6092 28.8136 25.9319 30.9048 20.5436 30.8703C14.8067 30.8335 8.75535 28.9222 6.81984 23.5216C4.57864 17.268 6.01684 9.62229 11.6898 6.16583Z" fill="#EEF4FF"/>
<g clip-path="url(#clip0_1461_72150)">
<path d="M25.161 19.3763C25.2704 20.0079 25.3697 20.6036 25.4818 21.1956C25.4958 21.2289 25.5177 21.2584 25.5456 21.2814C25.5734 21.3045 25.6064 21.3205 25.6418 21.328C25.8394 21.3482 26.0398 21.328 26.2375 21.3501C26.4935 21.3752 26.7308 21.4956 26.9022 21.6875C27.0737 21.8793 27.1668 22.1286 27.1631 22.3859C27.1594 22.6431 27.0591 22.8896 26.8823 23.0764C26.7054 23.2633 26.4647 23.3768 26.2081 23.3946C26.1474 23.4001 26.0858 23.401 26.0242 23.401H17.7634C17.1512 23.401 16.7412 23.0774 16.6456 22.5304C16.6236 22.3982 16.628 22.263 16.6585 22.1324C16.689 22.0019 16.745 21.8787 16.8233 21.7699C16.9015 21.6611 17.0005 21.5688 17.1145 21.4983C17.2285 21.4278 17.3553 21.3806 17.4876 21.3593C17.6981 21.3308 17.916 21.3519 18.1311 21.328C18.1704 21.3221 18.2077 21.3066 18.2397 21.2831C18.2718 21.2596 18.2976 21.2286 18.315 21.1929C18.4281 20.6008 18.5264 20.0061 18.6358 19.3763H16.6134C16.2944 19.3763 16.1206 19.2458 16.1289 19.0178C16.1372 18.7898 16.2999 18.6869 16.6125 18.6869H32.0566C32.6919 18.6869 32.9667 18.4111 32.9649 17.7814V17.5598H10.8476C10.8273 17.8494 10.7924 18.1362 10.9891 18.3872C11.1638 18.6133 11.4001 18.6869 11.6749 18.686C12.677 18.686 13.679 18.686 14.681 18.686C14.7574 18.6838 14.8338 18.6863 14.9099 18.6933C14.9918 18.6962 15.0692 18.7312 15.1255 18.7907C15.1817 18.8502 15.2123 18.9295 15.2105 19.0114C15.2196 19.0927 15.1969 19.1744 15.1473 19.2395C15.0976 19.3046 15.0248 19.348 14.9439 19.3607C14.8688 19.3744 14.7923 19.3794 14.716 19.3754C13.7066 19.3754 12.6953 19.3754 11.6823 19.3754C10.7474 19.3754 10.1415 18.7733 10.1406 17.8448C10.1406 13.187 10.1406 8.52927 10.1406 3.87151C10.1406 2.93567 10.7363 2.34089 11.6777 2.34089C16.458 2.34089 21.2384 2.34089 26.0187 2.34089C26.0875 2.3387 26.1564 2.34209 26.2246 2.351C26.3063 2.35759 26.3822 2.39572 26.4363 2.45733C26.4903 2.51894 26.5183 2.59917 26.5142 2.68103C26.5202 2.75883 26.4965 2.83602 26.4479 2.89707C26.3993 2.95812 26.3294 2.99851 26.2522 3.01013C26.1464 3.02702 26.0393 3.03379 25.9323 3.03036C21.1979 3.03036 16.4629 3.03036 11.7273 3.03036C11.4396 3.03036 11.1647 3.06345 10.9919 3.32085C10.8977 3.45662 10.8424 3.61557 10.8319 3.7805C10.824 8.10119 10.8218 12.4219 10.8255 16.7426C10.8255 16.7646 10.8319 16.7876 10.8375 16.829H32.9566V3.89909C32.9566 3.3089 32.6808 3.03128 32.0842 3.03036H27.9768C27.6008 3.03036 27.4418 2.92372 27.4454 2.67735C27.4491 2.43097 27.5962 2.33997 27.9648 2.33997C29.334 2.33997 30.7031 2.33997 32.0722 2.33997C33.0688 2.33997 33.6461 2.92372 33.6461 3.92667V17.786C33.6461 18.7972 33.0614 19.3763 32.0493 19.3763H25.161ZM18.9916 21.3344H19.2803C20.213 21.3344 21.1464 21.3344 22.0804 21.3344C22.173 21.33 22.2658 21.338 22.3562 21.3583C22.4324 21.3748 22.4995 21.4195 22.5441 21.4835C22.5886 21.5474 22.6072 21.6259 22.5962 21.7031C22.5972 21.7768 22.5713 21.8485 22.5235 21.9046C22.4756 21.9608 22.409 21.9976 22.336 22.0083C22.2448 22.0221 22.1524 22.027 22.0602 22.023H17.882C17.7979 22.0209 17.7138 22.0242 17.6301 22.0331C17.5454 22.0401 17.4666 22.079 17.4093 22.1418C17.3521 22.2045 17.3207 22.2867 17.3215 22.3716C17.3224 22.4566 17.3553 22.5381 17.4137 22.5998C17.4722 22.6615 17.5518 22.6988 17.6366 22.7042C17.6978 22.7074 17.7592 22.7074 17.8204 22.7042H25.9654C26.0419 22.7067 26.1184 22.7027 26.1943 22.6922C26.2692 22.6776 26.3368 22.6378 26.386 22.5794C26.4352 22.5211 26.463 22.4477 26.4647 22.3714C26.4664 22.295 26.442 22.2204 26.3955 22.1599C26.349 22.0994 26.2832 22.0566 26.209 22.0386C26.118 22.0225 26.0256 22.0157 25.9332 22.0184C25.2529 22.0184 24.5717 22.0184 23.8914 22.0184C23.6699 22.0184 23.5237 21.8823 23.5182 21.6948C23.5127 21.5073 23.6543 21.3519 23.8859 21.3344C23.9843 21.3271 24.0845 21.3344 24.1838 21.3344H24.7997C24.683 20.6643 24.5736 20.0281 24.4623 19.3911H19.3281C19.2131 20.0346 19.1074 20.6661 18.9916 21.3344Z" fill="#31343D"/>
<path d="M21.8857 3.08789V16.7966" stroke="#31343D" stroke-width="0.561067"/>
<path d="M15.1001 9.35242H14.8343L15.4315 7.69302H15.7207L16.3179 9.35242H16.0521L15.583 7.99443H15.57L15.1001 9.35242ZM15.1446 8.70259H16.0067V8.91326H15.1446V8.70259ZM17.0896 8.81441H17.336L17.5093 9.04047L17.5912 9.14094L17.8675 9.5015H17.6114L17.4267 9.26086L17.3635 9.17335L17.0896 8.81441ZM17.921 8.52272C17.921 8.69989 17.8885 8.85222 17.8237 8.9797C17.7589 9.10664 17.67 9.20441 17.5572 9.27301C17.4448 9.34107 17.317 9.3751 17.1739 9.3751C17.0302 9.3751 16.9019 9.34107 16.789 9.27301C16.6767 9.20441 16.5881 9.10637 16.5233 8.97889C16.4584 8.85141 16.426 8.69935 16.426 8.52272C16.426 8.34554 16.4584 8.19349 16.5233 8.06655C16.5881 7.93907 16.6767 7.8413 16.789 7.77324C16.9019 7.70463 17.0302 7.67033 17.1739 7.67033C17.317 7.67033 17.4448 7.70463 17.5572 7.77324C17.67 7.8413 17.7589 7.93907 17.8237 8.06655C17.8885 8.19349 17.921 8.34554 17.921 8.52272ZM17.673 8.52272C17.673 8.38768 17.6511 8.27397 17.6074 8.1816C17.5642 8.08869 17.5048 8.01847 17.4291 7.97094C17.354 7.92286 17.269 7.89882 17.1739 7.89882C17.0783 7.89882 16.9929 7.92286 16.9179 7.97094C16.8428 8.01847 16.7834 8.08869 16.7396 8.1816C16.6964 8.27397 16.6748 8.38768 16.6748 8.52272C16.6748 8.65776 16.6964 8.77174 16.7396 8.86465C16.7834 8.95701 16.8428 9.02724 16.9179 9.07531C16.9929 9.12285 17.0783 9.14661 17.1739 9.14661C17.269 9.14661 17.354 9.12285 17.4291 9.07531C17.5048 9.02724 17.5642 8.95701 17.6074 8.86465C17.6511 8.77174 17.673 8.65776 17.673 8.52272ZM18.4835 7.69302V9.35242H18.2331V7.69302H18.4835ZM13.6383 10.693V12.3524H13.3879V10.693H13.6383ZM14.2257 11.6135V12.3524H13.9834V11.1079H14.216V11.3104H14.2314C14.26 11.2445 14.3048 11.1916 14.3659 11.1516C14.4275 11.1117 14.505 11.0917 14.5984 11.0917C14.6832 11.0917 14.7575 11.1095 14.8212 11.1451C14.885 11.1803 14.9344 11.2326 14.9695 11.3023C15.0046 11.372 15.0222 11.4582 15.0222 11.5608V12.3524H14.7799V11.59C14.7799 11.4998 14.7564 11.4293 14.7094 11.3785C14.6624 11.3272 14.5979 11.3015 14.5158 11.3015C14.4596 11.3015 14.4096 11.3137 14.3659 11.338C14.3227 11.3623 14.2884 11.3979 14.263 11.4449C14.2381 11.4914 14.2257 11.5476 14.2257 11.6135ZM15.813 12.3767C15.7125 12.3767 15.6228 12.3511 15.544 12.2998C15.4657 12.2479 15.4041 12.1742 15.3592 12.0786C15.3149 11.9824 15.2928 11.8671 15.2928 11.7326C15.2928 11.5981 15.3152 11.483 15.3601 11.3874C15.4054 11.2918 15.4675 11.2186 15.5464 11.1678C15.6253 11.1171 15.7147 11.0917 15.8146 11.0917C15.8918 11.0917 15.954 11.1046 16.001 11.1306C16.0485 11.1559 16.0852 11.1857 16.1112 11.2197C16.1376 11.2537 16.1581 11.2837 16.1727 11.3096H16.1873V10.693H16.4296V12.3524H16.193V12.1588H16.1727C16.1581 12.1852 16.1371 12.2155 16.1095 12.2495C16.0825 12.2835 16.0453 12.3133 15.9977 12.3386C15.9502 12.364 15.8886 12.3767 15.813 12.3767ZM15.8665 12.1701C15.9361 12.1701 15.995 12.1517 16.0431 12.115C16.0917 12.0777 16.1284 12.0262 16.1533 11.9603C16.1787 11.8944 16.1914 11.8177 16.1914 11.7301C16.1914 11.6437 16.1789 11.5681 16.1541 11.5033C16.1293 11.4385 16.0928 11.3879 16.0447 11.3518C15.9966 11.3156 15.9372 11.2975 15.8665 11.2975C15.7935 11.2975 15.7328 11.3164 15.6842 11.3542C15.6355 11.392 15.5988 11.4436 15.574 11.5089C15.5496 11.5743 15.5375 11.648 15.5375 11.7301C15.5375 11.8133 15.5499 11.8881 15.5748 11.9546C15.5996 12.021 15.6363 12.0737 15.685 12.1126C15.7341 12.1509 15.7946 12.1701 15.8665 12.1701ZM17.2996 12.3775C17.1829 12.3775 17.0811 12.3508 16.9941 12.2973C16.9072 12.2438 16.8396 12.169 16.7916 12.0729C16.7435 11.9767 16.7195 11.8644 16.7195 11.7358C16.7195 11.6067 16.7435 11.4938 16.7916 11.3971C16.8396 11.3004 16.9072 11.2254 16.9941 11.1719C17.0811 11.1184 17.1829 11.0917 17.2996 11.0917C17.4163 11.0917 17.5181 11.1184 17.6051 11.1719C17.692 11.2254 17.7595 11.3004 17.8076 11.3971C17.8557 11.4938 17.8797 11.6067 17.8797 11.7358C17.8797 11.8644 17.8557 11.9767 17.8076 12.0729C17.7595 12.169 17.692 12.2438 17.6051 12.2973C17.5181 12.3508 17.4163 12.3775 17.2996 12.3775ZM17.3004 12.1742C17.376 12.1742 17.4387 12.1542 17.4884 12.1142C17.5381 12.0742 17.5748 12.021 17.5986 11.9546C17.6229 11.8881 17.635 11.8149 17.635 11.735C17.635 11.6556 17.6229 11.5827 17.5986 11.5162C17.5748 11.4493 17.5381 11.3955 17.4884 11.355C17.4387 11.3145 17.376 11.2942 17.3004 11.2942C17.2242 11.2942 17.161 11.3145 17.1108 11.355C17.0611 11.3955 17.0241 11.4493 16.9998 11.5162C16.976 11.5827 16.9641 11.6556 16.9641 11.735C16.9641 11.8149 16.976 11.8881 16.9998 11.9546C17.0241 12.021 17.0611 12.0742 17.1108 12.1142C17.161 12.1542 17.2242 12.1742 17.3004 12.1742ZM18.6744 12.3775C18.5577 12.3775 18.4559 12.3508 18.3689 12.2973C18.282 12.2438 18.2144 12.169 18.1664 12.0729C18.1183 11.9767 18.0942 11.8644 18.0942 11.7358C18.0942 11.6067 18.1183 11.4938 18.1664 11.3971C18.2144 11.3004 18.282 11.2254 18.3689 11.1719C18.4559 11.1184 18.5577 11.0917 18.6744 11.0917C18.7911 11.0917 18.8929 11.1184 18.9799 11.1719C19.0668 11.2254 19.1343 11.3004 19.1824 11.3971C19.2305 11.4938 19.2545 11.6067 19.2545 11.7358C19.2545 11.8644 19.2305 11.9767 19.1824 12.0729C19.1343 12.169 19.0668 12.2438 18.9799 12.2973C18.8929 12.3508 18.7911 12.3775 18.6744 12.3775ZM18.6752 12.1742C18.7508 12.1742 18.8135 12.1542 18.8632 12.1142C18.9129 12.0742 18.9496 12.021 18.9734 11.9546C18.9977 11.8881 19.0098 11.8149 19.0098 11.735C19.0098 11.6556 18.9977 11.5827 18.9734 11.5162C18.9496 11.4493 18.9129 11.3955 18.8632 11.355C18.8135 11.3145 18.7508 11.2942 18.6752 11.2942C18.599 11.2942 18.5358 11.3145 18.4856 11.355C18.4359 11.3955 18.3989 11.4493 18.3746 11.5162C18.3508 11.5827 18.3389 11.6556 18.3389 11.735C18.3389 11.8149 18.3508 11.8881 18.3746 11.9546C18.3989 12.021 18.4359 12.0742 18.4856 12.1142C18.5358 12.1542 18.599 12.1742 18.6752 12.1742ZM19.5249 12.3524V11.1079H19.7591V11.3056H19.7721C19.7948 11.2386 19.8347 11.1859 19.892 11.1476C19.9498 11.1087 20.0152 11.0892 20.0881 11.0892C20.1032 11.0892 20.121 11.0898 20.1416 11.0909C20.1626 11.0919 20.1791 11.0933 20.191 11.0949V11.3266C20.1813 11.3239 20.164 11.321 20.1391 11.3177C20.1143 11.3139 20.0894 11.3121 20.0646 11.3121C20.0073 11.3121 19.9563 11.3242 19.9114 11.3485C19.8671 11.3723 19.832 11.4055 19.8061 11.4482C19.7802 11.4903 19.7672 11.5384 19.7672 11.5924V12.3524H19.5249Z" fill="#31343D"/>
<path d="M25.8864 9.35242H25.6207L26.2178 7.69302H26.5071L27.1042 9.35242H26.8385L26.3693 7.99443H26.3564L25.8864 9.35242ZM25.931 8.70259H26.7931V8.91326H25.931V8.70259ZM27.876 8.81441H28.1223L28.2957 9.04047L28.3776 9.14094L28.6539 9.5015H28.3978L28.2131 9.26086L28.1499 9.17335L27.876 8.81441ZM28.7073 8.52272C28.7073 8.69989 28.6749 8.85222 28.6101 8.9797C28.5453 9.10664 28.4564 9.20441 28.3435 9.27301C28.2312 9.34107 28.1034 9.3751 27.9603 9.3751C27.8166 9.3751 27.6883 9.34107 27.5754 9.27301C27.4631 9.20441 27.3745 9.10637 27.3096 8.97889C27.2448 8.85141 27.2124 8.69935 27.2124 8.52272C27.2124 8.34554 27.2448 8.19349 27.3096 8.06655C27.3745 7.93907 27.4631 7.8413 27.5754 7.77324C27.6883 7.70463 27.8166 7.67033 27.9603 7.67033C28.1034 7.67033 28.2312 7.70463 28.3435 7.77324C28.4564 7.8413 28.5453 7.93907 28.6101 8.06655C28.6749 8.19349 28.7073 8.34554 28.7073 8.52272ZM28.4594 8.52272C28.4594 8.38768 28.4375 8.27397 28.3938 8.1816C28.3506 8.08869 28.2911 8.01847 28.2155 7.97094C28.1404 7.92286 28.0553 7.89882 27.9603 7.89882C27.8647 7.89882 27.7793 7.92286 27.7042 7.97094C27.6292 8.01847 27.5697 8.08869 27.526 8.1816C27.4828 8.27397 27.4612 8.38768 27.4612 8.52272C27.4612 8.65776 27.4828 8.77174 27.526 8.86465C27.5697 8.95701 27.6292 9.02724 27.7042 9.07531C27.7793 9.12285 27.8647 9.14661 27.9603 9.14661C28.0553 9.14661 28.1404 9.12285 28.2155 9.07531C28.2911 9.02724 28.3506 8.95701 28.3938 8.86465C28.4375 8.77174 28.4594 8.65776 28.4594 8.52272ZM29.2698 7.69302V9.35242H29.0195V7.69302H29.2698ZM24.632 11.5227C24.632 11.6999 24.5996 11.8522 24.5347 11.9797C24.4699 12.1066 24.3811 12.2044 24.2682 12.273C24.1558 12.3411 24.0281 12.3751 23.8849 12.3751C23.7412 12.3751 23.6129 12.3411 23.5 12.273C23.3877 12.2044 23.2991 12.1064 23.2343 11.9789C23.1695 11.8514 23.137 11.6994 23.137 11.5227C23.137 11.3455 23.1695 11.1935 23.2343 11.0665C23.2991 10.9391 23.3877 10.8413 23.5 10.7732C23.6129 10.7046 23.7412 10.6703 23.8849 10.6703C24.0281 10.6703 24.1558 10.7046 24.2682 10.7732C24.3811 10.8413 24.4699 10.9391 24.5347 11.0665C24.5996 11.1935 24.632 11.3455 24.632 11.5227ZM24.384 11.5227C24.384 11.3877 24.3622 11.274 24.3184 11.1816C24.2752 11.0887 24.2158 11.0185 24.1401 10.9709C24.0651 10.9229 23.98 10.8988 23.8849 10.8988C23.7893 10.8988 23.704 10.9229 23.6289 10.9709C23.5538 11.0185 23.4944 11.0887 23.4506 11.1816C23.4074 11.274 23.3858 11.3877 23.3858 11.5227C23.3858 11.6578 23.4074 11.7717 23.4506 11.8646C23.4944 11.957 23.5538 12.0272 23.6289 12.0753C23.704 12.1228 23.7893 12.1466 23.8849 12.1466C23.98 12.1466 24.0651 12.1228 24.1401 12.0753C24.2158 12.0272 24.2752 11.957 24.3184 11.8646C24.3622 11.7717 24.384 11.6578 24.384 11.5227ZM25.713 11.8363V11.1079H25.9561V12.3524H25.7179V12.1369H25.7049C25.6763 12.2033 25.6304 12.2587 25.5672 12.303C25.5045 12.3467 25.4265 12.3686 25.333 12.3686C25.2531 12.3686 25.1823 12.3511 25.1207 12.316C25.0597 12.2803 25.0116 12.2276 24.9765 12.158C24.942 12.0883 24.9247 12.0021 24.9247 11.8995V11.1079H25.1669V11.8703C25.1669 11.9551 25.1904 12.0226 25.2374 12.0729C25.2844 12.1231 25.3455 12.1482 25.4205 12.1482C25.4659 12.1482 25.511 12.1369 25.5559 12.1142C25.6012 12.0915 25.6388 12.0572 25.6685 12.0113C25.6987 11.9654 25.7136 11.907 25.713 11.8363ZM26.8626 11.1079V11.3023H26.1828V11.1079H26.8626ZM26.3651 10.8097H26.6074V11.987C26.6074 12.034 26.6144 12.0694 26.6284 12.0931C26.6425 12.1164 26.6606 12.1323 26.6827 12.1409C26.7054 12.149 26.73 12.1531 26.7564 12.1531C26.7759 12.1531 26.7929 12.1517 26.8075 12.149C26.8221 12.1463 26.8334 12.1442 26.8415 12.1426L26.8853 12.3427C26.8712 12.3481 26.8512 12.3535 26.8253 12.3589C26.7994 12.3648 26.767 12.3681 26.7281 12.3686C26.6643 12.3697 26.6049 12.3584 26.5498 12.3346C26.4947 12.3108 26.4502 12.2741 26.4161 12.2244C26.3821 12.1747 26.3651 12.1123 26.3651 12.0372V10.8097ZM27.5831 12.3767C27.4826 12.3767 27.393 12.3511 27.3141 12.2998C27.2358 12.2479 27.1742 12.1742 27.1294 12.0786C27.0851 11.9824 27.0629 11.8671 27.0629 11.7326C27.0629 11.5981 27.0853 11.483 27.1302 11.3874C27.1755 11.2918 27.2377 11.2186 27.3165 11.1678C27.3954 11.1171 27.4848 11.0917 27.5847 11.0917C27.662 11.0917 27.7241 11.1046 27.7711 11.1306C27.8186 11.1559 27.8554 11.1857 27.8813 11.2197C27.9077 11.2537 27.9283 11.2837 27.9429 11.3096H27.9574V10.693H28.1997V12.3524H27.9631V12.1588H27.9429C27.9283 12.1852 27.9072 12.2155 27.8797 12.2495C27.8526 12.2835 27.8154 12.3133 27.7678 12.3386C27.7203 12.364 27.6587 12.3767 27.5831 12.3767ZM27.6366 12.1701C27.7063 12.1701 27.7651 12.1517 27.8132 12.115C27.8618 12.0777 27.8986 12.0262 27.9234 11.9603C27.9488 11.8944 27.9615 11.8177 27.9615 11.7301C27.9615 11.6437 27.9491 11.5681 27.9242 11.5033C27.8994 11.4385 27.8629 11.3879 27.8148 11.3518C27.7668 11.3156 27.7073 11.2975 27.6366 11.2975C27.5637 11.2975 27.5029 11.3164 27.4543 11.3542C27.4057 11.392 27.3689 11.4436 27.3441 11.5089C27.3198 11.5743 27.3076 11.648 27.3076 11.7301C27.3076 11.8133 27.32 11.8881 27.3449 11.9546C27.3697 12.021 27.4065 12.0737 27.4551 12.1126C27.5042 12.1509 27.5647 12.1701 27.6366 12.1701ZM29.0697 12.3775C28.953 12.3775 28.8512 12.3508 28.7643 12.2973C28.6773 12.2438 28.6098 12.169 28.5617 12.0729C28.5136 11.9767 28.4896 11.8644 28.4896 11.7358C28.4896 11.6067 28.5136 11.4938 28.5617 11.3971C28.6098 11.3004 28.6773 11.2254 28.7643 11.1719C28.8512 11.1184 28.953 11.0917 29.0697 11.0917C29.1864 11.0917 29.2882 11.1184 29.3752 11.1719C29.4621 11.2254 29.5297 11.3004 29.5777 11.3971C29.6258 11.4938 29.6499 11.6067 29.6499 11.7358C29.6499 11.8644 29.6258 11.9767 29.5777 12.0729C29.5297 12.169 29.4621 12.2438 29.3752 12.2973C29.2882 12.3508 29.1864 12.3775 29.0697 12.3775ZM29.0705 12.1742C29.1461 12.1742 29.2088 12.1542 29.2585 12.1142C29.3082 12.0742 29.3449 12.021 29.3687 11.9546C29.393 11.8881 29.4052 11.8149 29.4052 11.735C29.4052 11.6556 29.393 11.5827 29.3687 11.5162C29.3449 11.4493 29.3082 11.3955 29.2585 11.355C29.2088 11.3145 29.1461 11.2942 29.0705 11.2942C28.9944 11.2942 28.9312 11.3145 28.8809 11.355C28.8312 11.3955 28.7942 11.4493 28.7699 11.5162C28.7462 11.5827 28.7343 11.6556 28.7343 11.735C28.7343 11.8149 28.7462 11.8881 28.7699 11.9546C28.7942 12.021 28.8312 12.0742 28.8809 12.1142C28.9312 12.1542 28.9944 12.1742 29.0705 12.1742ZM30.4445 12.3775C30.3278 12.3775 30.226 12.3508 30.139 12.2973C30.0521 12.2438 29.9846 12.169 29.9365 12.0729C29.8884 11.9767 29.8644 11.8644 29.8644 11.7358C29.8644 11.6067 29.8884 11.4938 29.9365 11.3971C29.9846 11.3004 30.0521 11.2254 30.139 11.1719C30.226 11.1184 30.3278 11.0917 30.4445 11.0917C30.5612 11.0917 30.663 11.1184 30.75 11.1719C30.8369 11.2254 30.9045 11.3004 30.9525 11.3971C31.0006 11.4938 31.0247 11.6067 31.0247 11.7358C31.0247 11.8644 31.0006 11.9767 30.9525 12.0729C30.9045 12.169 30.8369 12.2438 30.75 12.2973C30.663 12.3508 30.5612 12.3775 30.4445 12.3775ZM30.4453 12.1742C30.5209 12.1742 30.5836 12.1542 30.6333 12.1142C30.683 12.0742 30.7197 12.021 30.7435 11.9546C30.7678 11.8881 30.78 11.8149 30.78 11.735C30.78 11.6556 30.7678 11.5827 30.7435 11.5162C30.7197 11.4493 30.683 11.3955 30.6333 11.355C30.5836 11.3145 30.5209 11.2942 30.4453 11.2942C30.3692 11.2942 30.306 11.3145 30.2557 11.355C30.206 11.3955 30.169 11.4493 30.1447 11.5162C30.121 11.5827 30.1091 11.6556 30.1091 11.735C30.1091 11.8149 30.121 11.8881 30.1447 11.9546C30.169 12.021 30.206 12.0742 30.2557 12.1142C30.306 12.1542 30.3692 12.1742 30.4453 12.1742ZM31.2951 12.3524V11.1079H31.5292V11.3056H31.5422C31.5649 11.2386 31.6049 11.1859 31.6621 11.1476C31.7199 11.1087 31.7853 11.0892 31.8582 11.0892C31.8733 11.0892 31.8911 11.0898 31.9117 11.0909C31.9327 11.0919 31.9492 11.0933 31.9611 11.0949V11.3266C31.9514 11.3239 31.9341 11.321 31.9092 11.3177C31.8844 11.3139 31.8596 11.3121 31.8347 11.3121C31.7774 11.3121 31.7264 11.3242 31.6816 11.3485C31.6373 11.3723 31.6022 11.4055 31.5762 11.4482C31.5503 11.4903 31.5373 11.5384 31.5373 11.5924V12.3524H31.2951Z" fill="#31343D"/>
</g>
<defs>
<clipPath id="clip0_1461_72150">
<rect width="23.5027" height="21.062" fill="white" transform="translate(10.1409 2.33997)"/>
</clipPath>
</defs>
</svg>
