<svg width="37" height="37" viewBox="0 0 37 37" fill="none" xmlns="http://www.w3.org/2000/svg">
<path fill-rule="evenodd" clip-rule="evenodd" d="M11.4712 6.05081C16.4382 3.02452 21.9255 7.38369 26.4414 11.0492C30.3592 14.2292 34.2248 18.4516 32.6589 23.2485C31.0181 28.275 25.4469 30.3272 20.1594 30.2933C14.5299 30.2572 8.59163 28.3816 6.69231 23.082C4.49302 16.9454 5.90433 9.44264 11.4712 6.05081Z" fill="#FFF5E2"/>
<g clip-path="url(#clip0_1461_72151)">
<path d="M29.6678 17.1867C29.6347 17.3416 29.6168 17.4821 29.5783 17.6146C29.4877 17.9094 29.3036 18.1667 29.0537 18.3476C28.8039 18.5285 28.5019 18.6231 28.1936 18.6171C26.7393 18.6206 25.2851 18.6206 23.8309 18.6171H23.5704C23.6599 19.0691 23.7396 19.4996 23.839 19.9275C23.8506 19.9794 23.9598 20.0411 24.0251 20.0429C24.4422 20.0537 24.8603 20.0429 25.2783 20.0483C25.9764 20.0483 26.4222 20.4959 26.4258 21.1958C26.4258 21.3748 26.4258 21.5539 26.4258 21.7329C26.4258 22.0793 26.304 22.1956 25.9496 22.1974C25.6596 22.1974 25.3687 22.1974 25.0778 22.1974H16.2164C15.7778 22.1974 15.6838 22.1007 15.6838 21.6604C15.6838 21.4813 15.6838 21.3023 15.6838 21.1233C15.6852 20.8405 15.7981 20.5696 15.9981 20.3695C16.198 20.1694 16.4688 20.0562 16.7516 20.0546C17.1992 20.0474 17.6467 20.0501 18.0943 20.0546C18.2106 20.0546 18.2617 20.0277 18.2858 19.9015C18.4541 19.0315 18.6331 18.1633 18.8068 17.295C18.8096 17.2599 18.8096 17.2245 18.8068 17.1894H11.8698C10.7062 17.1894 9.95435 16.4357 9.95435 15.2712C9.95435 10.8191 9.95435 6.36659 9.95435 1.91382C9.95435 0.750206 10.708 0.00280762 11.8761 0.00280762H30.2254C31.4069 0.00280762 32.1552 0.749311 32.1552 1.92814C32.1552 6.37315 32.1552 10.8188 32.1552 15.265C32.1552 16.442 31.4051 17.1894 30.2245 17.1903L29.6678 17.1867ZM21.7668 13.5965V13.3065C21.7668 11.0545 21.7668 8.80242 21.7668 6.55038C21.7668 5.61143 22.3656 5.01351 23.3037 5.01262C24.8928 5.01262 26.4813 5.01262 28.0691 5.01262C29.0537 5.01262 29.6436 5.598 29.6436 6.58081C29.6436 8.83285 29.6436 11.0849 29.6436 13.3369V13.5938H31.4338V13.3647C31.4338 9.54564 31.4338 5.7266 31.4338 1.90756C31.4338 1.14763 31.0015 0.715297 30.2415 0.715297H11.877C11.101 0.715297 10.6731 1.14315 10.6731 1.9183C10.6731 5.72839 10.6731 9.53908 10.6731 13.3504V13.5947L21.7668 13.5965ZM28.9275 11.8386C28.9275 10.0627 28.9275 8.28745 28.9275 6.51278C28.9275 6.02138 28.6375 5.73316 28.1497 5.72958C27.9857 5.7381 27.8214 5.7381 27.6574 5.72958C27.4605 5.70721 27.3567 5.76897 27.3137 5.96947C27.2761 6.14311 27.1955 6.30691 27.1481 6.47877C27.0819 6.71776 26.9306 6.81264 26.6871 6.80906C26.0534 6.80279 25.4188 6.80906 24.7851 6.80906C24.427 6.80906 24.3572 6.75893 24.2382 6.41074C24.1648 6.19324 24.1487 5.8898 23.9929 5.78418C23.8372 5.67856 23.5364 5.73764 23.3001 5.73674C22.7693 5.73674 22.4847 6.01959 22.4847 6.54859C22.4847 10.0621 22.4847 13.575 22.4847 17.0874C22.4847 17.6334 22.7631 17.9073 23.3153 17.9082H28.0781C28.6563 17.9082 28.924 17.6396 28.924 17.0578C28.9275 15.3166 28.9287 13.5759 28.9275 11.8359V11.8386ZM21.7579 14.3421H10.6695C10.6695 14.6626 10.6695 14.9687 10.6695 15.2712C10.6695 16.0455 11.0983 16.4742 11.8734 16.4742H21.7579V14.3421ZM21.7579 17.1912C21.0517 17.1912 20.3597 17.1912 19.6678 17.1983C19.6204 17.1983 19.5461 17.2879 19.5318 17.346C19.4539 17.679 19.3895 18.0156 19.3223 18.3512C19.2105 18.9115 19.1013 19.4719 18.9894 20.0385H23.1175C23.028 19.5685 22.9385 19.1165 22.8391 18.6663C22.8285 18.637 22.812 18.6102 22.7906 18.5876C22.7692 18.5649 22.7434 18.547 22.7147 18.5347C22.124 18.2886 21.8125 17.8446 21.757 17.1867L21.7579 17.1912ZM25.6963 21.4787C25.7446 20.8584 25.6658 20.7715 25.076 20.7715H18.2133C17.7443 20.7715 17.2744 20.7715 16.8054 20.7715C16.5762 20.7715 16.4303 20.8852 16.4079 21.083C16.4008 21.2145 16.4008 21.3463 16.4079 21.4778L25.6963 21.4787ZM29.6561 16.4733C29.9166 16.4733 30.1538 16.4787 30.391 16.4733C30.6434 16.4717 30.8865 16.3785 31.0753 16.211C31.2642 16.0436 31.3858 15.8134 31.4177 15.563C31.4588 15.1611 31.4257 14.7521 31.4257 14.3421H29.6526L29.6561 16.4733ZM24.7967 5.73406C24.8603 6.08672 24.8603 6.08672 25.1825 6.08672H26.2521C26.5627 6.08672 26.5896 6.05898 26.5967 5.73406H24.7967Z" fill="#31343D"/>
<path d="M17.3172 5.01257C18.4128 5.01257 19.5075 5.01257 20.6031 5.01257C20.8108 5.01257 20.9719 5.07075 21.0381 5.2811C21.0513 5.33018 21.0539 5.3815 21.0457 5.43165C21.0375 5.48181 21.0187 5.52964 20.9906 5.57198C20.9625 5.61431 20.9257 5.65018 20.8826 5.67719C20.8396 5.7042 20.7913 5.72174 20.741 5.72864C20.6744 5.73612 20.6073 5.73822 20.5405 5.73491H13.9472C13.6886 5.72775 13.5283 5.58453 13.5346 5.36703C13.5409 5.14952 13.6948 5.02063 13.9428 5.01884C14.5317 5.01884 15.1198 5.01884 15.7088 5.01884L17.3172 5.01257Z" fill="#31343D"/>
<path d="M17.2911 7.16142H14.0688C14.0097 7.16142 13.9497 7.16142 13.8898 7.16142C13.7957 7.16143 13.7055 7.12444 13.6385 7.05846C13.5715 6.99247 13.5331 6.90277 13.5317 6.80875C13.5317 6.71517 13.5683 6.62531 13.6337 6.55839C13.6992 6.49147 13.7882 6.45282 13.8817 6.45072C13.9336 6.45072 13.9864 6.45072 14.0384 6.45072H20.5421C20.6017 6.44709 20.6615 6.44709 20.7211 6.45072C20.8109 6.45734 20.8948 6.49817 20.9554 6.56478C21.016 6.63139 21.0487 6.71871 21.0469 6.80875C21.0474 6.89588 21.0151 6.98001 20.9564 7.04438C20.8977 7.10875 20.8169 7.14862 20.73 7.15605C20.6635 7.16367 20.5964 7.16547 20.5295 7.16142H17.2911Z" fill="#31343D"/>
<path d="M17.2992 8.5936H14.0581C13.9913 8.59658 13.9243 8.59508 13.8576 8.58912C13.7675 8.58159 13.6837 8.53963 13.6237 8.47196C13.5637 8.40428 13.5321 8.3161 13.5354 8.22572C13.5351 8.13864 13.5679 8.05471 13.627 7.99078C13.6861 7.92685 13.7672 7.88767 13.854 7.88111C13.9211 7.87573 13.9884 7.87573 14.0554 7.88111H20.5368C20.6036 7.87707 20.6707 7.87887 20.7373 7.88648C20.8242 7.89379 20.9049 7.93436 20.9626 7.99973C21.0203 8.0651 21.0505 8.15023 21.047 8.23735C21.0522 8.3252 21.0231 8.41165 20.9659 8.47845C20.9086 8.54526 20.8276 8.58719 20.74 8.59539C20.6735 8.60377 20.6063 8.60587 20.5395 8.60165L17.2992 8.5936Z" fill="#31343D"/>
<path d="M17.2857 9.309H20.5483C20.6152 9.30463 20.6824 9.30703 20.7488 9.31616C20.8316 9.32589 20.9079 9.36594 20.9629 9.42858C21.018 9.49122 21.0479 9.57202 21.0469 9.6554C21.0535 9.74232 21.0264 9.82846 20.9713 9.89596C20.9161 9.96346 20.8371 10.0071 20.7506 10.0179C20.6842 10.0278 20.617 10.0305 20.5501 10.026H14.0249C13.9652 10.0296 13.9053 10.0278 13.8459 10.0206C13.7589 10.0128 13.6783 9.97187 13.6208 9.90618C13.5632 9.84049 13.5333 9.75516 13.5371 9.66793C13.5326 9.58082 13.5621 9.49537 13.6193 9.42958C13.6766 9.36379 13.7572 9.32281 13.8441 9.31527C13.9106 9.30688 13.9777 9.30479 14.0446 9.309H17.2857Z" fill="#31343D"/>
<path d="M17.2688 11.458H14.0725C14.0134 11.458 13.9534 11.458 13.8934 11.458C13.7994 11.458 13.7091 11.421 13.6421 11.3551C13.5752 11.2891 13.5368 11.1994 13.5354 11.1054C13.5354 11.0118 13.572 10.9219 13.6374 10.855C13.7028 10.7881 13.7918 10.7494 13.8854 10.7473C13.9373 10.7473 13.9901 10.7473 14.042 10.7473H20.5457C20.6126 10.7432 20.6797 10.7452 20.7462 10.7536C20.8329 10.7631 20.9126 10.8056 20.9687 10.8722C21.0249 10.9389 21.0532 11.0246 21.0479 11.1116C21.0502 11.1949 21.0215 11.2762 20.9675 11.3396C20.9134 11.4031 20.8378 11.4443 20.7552 11.4553C20.6814 11.4664 20.6067 11.4694 20.5323 11.4643L17.2688 11.458Z" fill="#31343D"/>
<path d="M14.9621 3.93934C14.6273 3.93934 14.2926 3.93934 13.9578 3.93934C13.6956 3.93934 13.5362 3.80149 13.5344 3.5813C13.5326 3.36111 13.6911 3.22327 13.9524 3.22327C14.6291 3.22327 15.3058 3.22327 15.9825 3.22327C16.2394 3.22327 16.4005 3.37185 16.3951 3.58846C16.3898 3.80507 16.2349 3.93576 15.9879 3.93844C15.646 3.94202 15.304 3.93934 14.9621 3.93934Z" fill="#31343D"/>
<path d="M25.6952 9.30982C26.3583 9.30861 26.995 9.5696 27.4665 10.0359C27.938 10.5022 28.2061 11.136 28.2122 11.7991C28.2134 12.1293 28.1495 12.4565 28.0241 12.762C27.8988 13.0675 27.7145 13.3453 27.4817 13.5796C27.249 13.8138 26.9724 13.9999 26.6677 14.1272C26.363 14.2545 26.0362 14.3205 25.706 14.3214C25.0429 14.3191 24.4076 14.055 23.9383 13.5867C23.4689 13.1183 23.2035 12.4836 23.1997 11.8205C23.2002 11.1574 23.4627 10.5214 23.9302 10.0511C24.3977 9.58075 25.0321 9.31431 25.6952 9.30982ZM27.4952 11.8277C27.4966 11.5924 27.4517 11.3591 27.3628 11.1412C27.274 10.9233 27.1431 10.725 26.9776 10.5578C26.812 10.3905 26.6152 10.2575 26.3982 10.1664C26.1812 10.0753 25.9484 10.0278 25.7131 10.0268C25.2416 10.0251 24.7884 10.2095 24.452 10.54C24.1156 10.8705 23.9233 11.3204 23.9167 11.7919C23.9121 12.2669 24.096 12.7243 24.428 13.064C24.76 13.4038 25.2131 13.5981 25.6881 13.6045C26.163 13.6076 26.6199 13.4223 26.9586 13.0893C27.2973 12.7563 27.4903 12.3027 27.4952 11.8277Z" fill="#31343D"/>
<path d="M25.704 17.5436C25.585 17.5436 25.4659 17.549 25.346 17.5436C25.2519 17.5437 25.1617 17.5067 25.0947 17.4407C25.0277 17.3747 24.9893 17.285 24.9879 17.191C24.9866 17.1444 24.9947 17.0979 25.0116 17.0545C25.0286 17.0111 25.0541 16.9715 25.0867 16.9381C25.1192 16.9047 25.1582 16.8782 25.2012 16.8601C25.2442 16.842 25.2904 16.8328 25.337 16.8329C25.5814 16.8231 25.8266 16.8231 26.071 16.8329C26.1173 16.8334 26.163 16.8431 26.2056 16.8614C26.2481 16.8797 26.2866 16.9063 26.3187 16.9396C26.3509 16.9729 26.3761 17.0123 26.3929 17.0555C26.4097 17.0986 26.4177 17.1447 26.4165 17.191C26.4142 17.2809 26.378 17.3667 26.3154 17.4312C26.2527 17.4957 26.168 17.5343 26.0781 17.5392C25.9528 17.549 25.8266 17.5392 25.7004 17.5392L25.704 17.5436Z" fill="#31343D"/>
<path d="M25.3211 12.0513L26.4104 10.9611C26.4559 10.9119 26.5047 10.8659 26.5563 10.8232C26.6219 10.7658 26.707 10.7357 26.7941 10.7392C26.8812 10.7427 26.9637 10.7795 27.0244 10.842C27.0593 10.8709 27.0879 10.9066 27.1083 10.9471C27.1288 10.9875 27.1406 11.0317 27.1431 11.0769C27.1456 11.1221 27.1388 11.1674 27.123 11.2098C27.1072 11.2523 27.0828 11.291 27.0513 11.3236C26.5643 11.8254 26.0694 12.3195 25.5663 12.8058C25.4168 12.9508 25.2316 12.915 25.0848 12.7727C24.8485 12.5454 24.6157 12.3153 24.3902 12.0781C24.3538 12.0457 24.3245 12.006 24.3043 11.9616C24.2841 11.9173 24.2733 11.8692 24.2727 11.8204C24.2721 11.7716 24.2817 11.7233 24.3009 11.6784C24.32 11.6336 24.3483 11.5932 24.3839 11.5599C24.5307 11.4176 24.7303 11.4238 24.9031 11.5805C24.981 11.6498 25.0548 11.7237 25.1242 11.8015C25.1886 11.8732 25.2441 11.9528 25.3211 12.0513Z" fill="#31343D"/>
</g>
<defs>
<clipPath id="clip0_1461_72151">
<rect width="22.1991" height="22.1991" fill="white" transform="translate(9.95142)"/>
</clipPath>
</defs>
</svg>
