<svg width="48" height="49" viewBox="0 0 48 49" fill="none" xmlns="http://www.w3.org/2000/svg">
<path fill-rule="evenodd" clip-rule="evenodd" d="M14.9856 7.90424C21.4742 3.95082 28.6426 9.64547 34.542 14.4339C39.6601 18.5881 44.7099 24.1041 42.6643 30.3706C40.5208 36.9371 33.2429 39.6179 26.3355 39.5737C18.9812 39.5265 11.2238 37.0763 8.74256 30.1531C5.8695 22.1365 7.71318 12.3352 14.9856 7.90424Z" fill="#FFF5E2"/>
<g clip-path="url(#clip0_1461_72245)">
<path d="M22.4269 12.2776L23.4509 12.1938C23.4603 12.1687 23.4917 12.0891 23.52 12.0127C23.7105 11.4714 23.8969 10.9279 24.0916 10.3877C24.1963 10.0987 24.3419 10.0045 24.6288 10.061C25.4687 10.2217 26.3275 10.2594 27.1782 10.1731C27.2325 10.1651 27.2878 10.1681 27.3409 10.1818C27.394 10.1956 27.4438 10.2198 27.4874 10.253C27.531 10.2863 27.5675 10.328 27.5948 10.3755C27.6221 10.4231 27.6396 10.4757 27.6463 10.5301C27.6533 10.5869 27.6481 10.6445 27.631 10.6991C27.6138 10.7536 27.5852 10.8039 27.547 10.8465C27.5088 10.8891 27.4619 10.9229 27.4095 10.9458C27.3571 10.9687 27.3004 10.9801 27.2432 10.9793C26.5396 10.9876 25.8339 10.9855 25.1313 10.9541C24.7523 10.9374 24.7513 10.906 24.6288 11.2682C24.4494 11.8057 24.2749 12.3432 24.1052 12.8806C24.0068 13.1811 23.7911 13.2806 23.4938 13.156C22.8415 12.8838 22.4855 13.0607 22.3358 13.7528C22.1975 14.3252 22.2486 14.9269 22.4813 15.4678C22.5557 15.6326 22.6625 15.7808 22.7954 15.9034C22.8915 15.9701 23.0098 15.9967 23.1252 15.9777C23.4247 15.9348 23.5828 16.0374 23.6927 16.3358C23.9545 17.0436 24.1743 17.7754 24.5136 18.4455C25.1722 19.7491 26.1543 20.7563 27.5217 21.3364C29.444 22.1509 31.5841 21.6442 33.0981 20.0297C33.8056 19.2588 34.3564 18.3577 34.7199 17.3765C34.75 17.2861 34.785 17.1973 34.8246 17.1106C34.8686 17.0185 34.946 16.9465 35.041 16.9092C35.136 16.8719 35.2417 16.872 35.3366 16.9096C35.4322 16.9443 35.5102 17.0154 35.5537 17.1073C35.5972 17.1993 35.6027 17.3047 35.569 17.4006C35.4333 17.7875 35.2775 18.1671 35.1021 18.5377C34.6079 19.5411 33.9126 20.4321 33.0593 21.1552C33.0036 21.1937 32.9617 21.2491 32.94 21.3132C32.9183 21.3774 32.9179 21.4468 32.9389 21.5112C33.0929 22.1398 33.3932 22.7231 33.8153 23.2137C33.8903 23.2947 33.9875 23.3519 34.0948 23.378C36.1259 23.7928 38.0961 24.4637 39.9581 25.3747C40.8508 25.8153 41.5929 26.5105 42.0908 27.3726C42.5887 28.2346 42.8201 29.2248 42.7558 30.2182C42.7558 30.2611 42.7505 30.3051 42.7432 30.348C42.7045 30.593 42.5443 30.7417 42.3244 30.7354C42.1045 30.7292 41.9443 30.5543 41.9286 30.2999C41.9046 29.8748 41.9171 29.4424 41.8428 29.0267C41.6334 27.8834 40.979 27.0311 40.0461 26.3725C39.1896 25.7673 38.2316 25.3726 37.2369 25.0774C36.1899 24.7633 35.123 24.4963 34.0624 24.2209C34.012 24.2123 33.9603 24.215 33.9111 24.2288C33.8618 24.2425 33.8163 24.267 33.7776 24.3005C32.4779 25.6623 31.1866 27.03 29.9036 28.4037C29.8362 28.489 29.7993 28.5945 29.7989 28.7032C29.7885 29.2173 29.7989 29.7324 29.7926 30.2465C29.7926 30.5355 29.6471 30.704 29.4105 30.7176C29.1487 30.7323 28.9791 30.5574 28.976 30.2465C28.976 29.7502 28.9854 29.2529 28.9665 28.7566C28.9604 28.6066 28.9052 28.4628 28.8095 28.3472C27.5887 27.0457 26.3647 25.7621 25.1502 24.4617C24.9858 24.2858 24.8413 24.2167 24.5921 24.2649C22.6572 24.6355 20.7914 25.2145 19.0628 26.1683C17.9592 26.7777 17.1614 27.6666 16.9154 28.9492C16.8533 29.3444 16.8232 29.7439 16.8253 30.1439C16.817 30.5145 16.7081 30.703 16.4421 30.7155C16.1762 30.7281 16.0097 30.5491 16.0024 30.1627C15.9573 28.054 16.84 26.4458 18.6911 25.4407C20.4815 24.4797 22.4173 23.8186 24.4214 23.4838C24.5239 23.4764 24.6226 23.4423 24.7078 23.385C24.793 23.3277 24.8617 23.2492 24.9073 23.1571C25.1868 22.597 25.4779 22.0431 25.7711 21.4903C25.8464 21.3489 25.8192 21.2662 25.6978 21.1605C24.434 20.0743 23.5124 18.645 23.0446 17.0457C23.0294 16.9964 23.0038 16.951 22.9694 16.9125C22.9351 16.874 22.8929 16.8434 22.8457 16.8227C22.6198 16.7685 22.4094 16.663 22.2307 16.5145C22.0521 16.366 21.91 16.1784 21.8154 15.9662C21.6043 15.5583 21.4792 15.1114 21.4481 14.6532C21.4169 14.195 21.4803 13.7353 21.6343 13.3026C21.6993 13.117 21.7123 12.9171 21.672 12.7246C21.3254 10.7835 21.5673 8.93862 22.6289 7.24873C23.6634 5.60386 25.1805 4.6427 27.0652 4.25007C27.3793 4.18411 27.5887 4.29405 27.6484 4.53381C27.708 4.77358 27.5541 4.97042 27.2222 5.04371C25.4999 5.42064 24.1126 6.28966 23.2017 7.82982C22.3829 9.21922 22.2007 10.7196 22.4269 12.2776ZM29.3801 27.764L33.1253 23.8021L32.117 21.8306C31.2776 22.3163 30.3238 22.5693 29.3539 22.5635C28.3685 22.5573 27.4025 22.2887 26.5553 21.7855C26.304 22.2713 26.0726 22.7383 25.8224 23.1948C25.547 23.6984 25.5376 23.6963 25.9396 24.1225C27.0756 25.3286 28.2169 26.5306 29.3801 27.764Z" fill="#2C2D38"/>
<path d="M30.6053 15.8531H29.1939C28.8149 15.8531 28.6704 15.716 28.6704 15.3296C28.6704 11.73 28.6704 8.13031 28.6704 4.53066C28.6704 4.1307 28.8055 3.99878 29.2086 3.99878H42.2063C42.6188 3.99878 42.7507 4.13489 42.7507 4.5537C42.7507 8.13659 42.7507 11.7188 42.7507 15.3003C42.7507 15.7191 42.6156 15.851 42.2042 15.851C39.8421 15.851 37.4804 15.851 35.119 15.851C34.9293 15.845 34.7431 15.9029 34.5903 16.0154C33.5212 16.7818 32.4449 17.5388 31.3728 18.3C31.2031 18.4215 31.0346 18.5251 30.822 18.4047C30.6095 18.2843 30.6043 18.1084 30.6043 17.9095C30.6063 17.2383 30.6053 16.5682 30.6053 15.8531ZM29.4986 4.83011V15.0396H30.4723C31.4146 15.0396 31.4146 15.0396 31.4146 15.9746V17.2561C31.5193 17.1849 31.5958 17.141 31.6649 17.0928C32.5329 16.4792 33.404 15.8699 34.2636 15.2469C34.4597 15.1026 34.6987 15.0288 34.942 15.0375C37.1554 15.0431 39.3688 15.0431 41.5822 15.0375H41.9141V4.83011H29.4986Z" fill="#2C2D38"/>
<path d="M35.7459 30.7418C34.9879 30.7418 34.2309 30.7418 33.4728 30.7418C33.0362 30.7418 32.9127 30.6182 32.9116 30.1816C32.9116 29.5984 32.9116 29.0152 32.9116 28.432C32.9116 28.03 33.0446 27.9001 33.4477 27.9001C34.9833 27.9001 36.5158 27.9001 38.0452 27.9001C38.4451 27.9001 38.5812 28.0384 38.5823 28.4331C38.5823 29.0243 38.5823 29.6176 38.5823 30.213C38.5823 30.6056 38.443 30.7439 38.0441 30.7449C37.2777 30.7439 36.5123 30.7418 35.7459 30.7418ZM33.7314 29.9041H37.7551V28.7315H33.7314V29.9041Z" fill="#2C2D38"/>
<path d="M34.3155 8.63397C34.3155 8.24343 34.3155 7.88012 34.3155 7.5168C34.3155 6.7441 34.6799 6.38288 35.4515 6.38184C35.6609 6.38184 35.8703 6.38184 36.0797 6.38184C36.6943 6.38707 37.0911 6.77237 37.1048 7.39116C37.1142 7.79112 37.1048 8.19213 37.1048 8.63188C37.4827 8.63188 37.846 8.65386 38.2073 8.63188C38.9768 8.57743 39.4113 9.12921 39.359 9.7836C39.3433 9.993 39.359 10.2024 39.359 10.4118C39.3433 11.0086 38.9402 11.4065 38.3476 11.4148C37.9476 11.4201 37.5476 11.4148 37.1048 11.4148C37.1048 11.7394 37.1048 12.0431 37.1048 12.3572C37.1092 12.5321 37.0997 12.7072 37.0765 12.8807C37.0401 13.0974 36.9292 13.2946 36.7629 13.4382C36.5966 13.5817 36.3853 13.6627 36.1656 13.667C35.8871 13.6743 35.6075 13.667 35.328 13.667C34.7385 13.667 34.3438 13.2869 34.3186 12.6954C34.304 12.3739 34.3186 12.0514 34.3186 11.729C34.3186 11.6347 34.3186 11.5415 34.3186 11.4148C33.9103 11.4148 33.5292 11.4148 33.1481 11.4148C32.4539 11.4148 32.0675 11.0243 32.0634 10.328C32.0634 10.1019 32.0581 9.87468 32.0634 9.64853C32.0801 9.03079 32.4748 8.6413 33.0894 8.63711C33.4842 8.63083 33.8831 8.63397 34.3155 8.63397ZM36.287 11.8368C36.287 11.6012 36.287 11.3667 36.287 11.1311C36.287 10.7353 36.4211 10.6076 36.8242 10.6076C37.2943 10.6076 37.7665 10.6013 38.2345 10.6076C38.4523 10.6076 38.5612 10.5416 38.5486 10.3061C38.5345 10.1151 38.5345 9.92329 38.5486 9.73229C38.5653 9.49776 38.4585 9.42761 38.2397 9.4318C37.779 9.44018 37.3173 9.4318 36.8556 9.4318C36.419 9.4318 36.2933 9.3072 36.2923 8.87688C36.2923 8.40676 36.2839 7.93456 36.2923 7.46655C36.2975 7.24667 36.2075 7.16815 35.9981 7.17862C35.8075 7.18699 35.6148 7.18699 35.4243 7.17862C35.2149 7.16919 35.1238 7.24667 35.129 7.46655C35.1395 7.94503 35.129 8.42456 35.129 8.90305C35.129 9.29987 34.9961 9.42657 34.593 9.4318C34.1228 9.4318 33.6506 9.43808 33.1826 9.4318C32.9648 9.4318 32.857 9.49776 32.8748 9.73229C32.8905 9.91484 32.8905 10.0984 32.8748 10.2809C32.8476 10.5448 32.9711 10.6139 33.2109 10.6076C33.681 10.5971 34.1532 10.6076 34.6212 10.6076C34.9887 10.6076 35.1269 10.7469 35.129 11.1102C35.129 11.6065 35.129 12.1027 35.129 12.599C35.129 12.7739 35.1929 12.8608 35.3698 12.8597C35.596 12.8597 35.8232 12.8597 36.0494 12.8597C36.2284 12.8597 36.2944 12.7718 36.2881 12.598C36.2787 12.3457 36.287 12.0933 36.287 11.8368Z" fill="#2C2D38"/>
</g>
<defs>
<clipPath id="clip0_1461_72245">
<rect width="26.767" height="26.7419" fill="white" transform="translate(16 3.99976)"/>
</clipPath>
</defs>
</svg>
