<svg width="48" height="49" viewBox="0 0 48 49" fill="none" xmlns="http://www.w3.org/2000/svg">
<path fill-rule="evenodd" clip-rule="evenodd" d="M14.9856 7.90424C21.4742 3.95082 28.6426 9.64547 34.542 14.4339C39.6601 18.5881 44.7099 24.1041 42.6643 30.3706C40.5208 36.9371 33.2429 39.6179 26.3355 39.5737C18.9812 39.5265 11.2238 37.0763 8.74256 30.1531C5.8695 22.1365 7.71318 12.3352 14.9856 7.90424Z" fill="#F4FFE2"/>
<g clip-path="url(#clip0_1461_72246)">
<path d="M29.1334 6.20143C29.117 6.04819 29.0984 5.89606 29.0678 5.74611C28.5698 3.28235 26.2516 1.64604 23.7867 2.06524C21.9151 2.38265 20.6684 3.49468 20.0654 5.29954C19.7228 6.33058 19.8257 7.36272 20.154 8.38172C20.2837 8.77578 20.4369 9.16173 20.6126 9.53753C20.6509 9.62181 20.6914 9.70499 20.7319 9.78817C20.8742 10.0804 21.0296 10.365 21.196 10.6452C21.2452 10.7295 21.2967 10.8126 21.3492 10.8958C21.4247 11.0195 21.5046 11.1421 21.5856 11.2636C22.435 12.5387 23.3183 13.7897 24.1895 15.0495C24.3613 15.2969 24.6711 15.2892 24.8462 15.0375C25.4799 14.1356 26.117 13.237 26.743 12.3307C26.8933 12.1118 27.0393 11.8929 27.1808 11.674C27.449 11.2691 27.7051 10.8564 27.9415 10.4328C28.1855 9.99713 28.4047 9.54803 28.5982 9.08768C28.6934 8.86002 28.781 8.62907 28.8565 8.39594C29.0458 7.83028 29.1541 7.2407 29.1783 6.64471C29.163 6.50242 29.1499 6.347 29.1334 6.20143ZM27.4337 9.7619C27.2826 10.0465 27.1181 10.3238 26.94 10.5937C26.8755 10.6911 26.812 10.7886 26.7463 10.886C26.0239 11.9805 25.2796 13.063 24.5277 14.1695C24.4183 14.0207 24.3449 13.9134 24.2694 13.8051C23.6379 12.8879 22.9943 11.9772 22.3748 11.0512L22.204 10.794C22.0508 10.5605 21.9049 10.3238 21.7662 10.0837C21.7137 9.99285 21.6633 9.90091 21.6141 9.80897C21.4784 9.55723 21.3529 9.30184 21.2376 9.0428C21.1139 8.76151 21.0023 8.47475 20.9092 8.18032C20.6268 7.32112 20.5382 6.45426 20.7921 5.5677C21.0101 4.82378 21.4456 4.16205 22.0426 3.66761C22.6396 3.17316 23.3709 2.86861 24.1424 2.7931C25.1435 2.69643 26.1429 2.99287 26.9293 3.61975C27.7157 4.24662 28.2274 5.15478 28.3563 6.15217C28.3959 6.45793 28.3988 6.76731 28.3651 7.07376C28.3095 7.52898 28.1992 7.97585 28.0367 8.4047C28.0347 8.41144 28.0321 8.41802 28.0291 8.4244C27.8627 8.88385 27.6638 9.33083 27.4337 9.7619Z" fill="black"/>
<path d="M24.5159 4.32544C23.8997 4.32485 23.3084 4.56849 22.8714 5.00298C22.4344 5.43748 22.1875 6.02743 22.1846 6.64363C22.1839 6.98333 22.2577 7.31905 22.4009 7.62711C22.544 7.93517 22.753 8.20809 23.0131 8.4266C23.315 8.68382 23.6786 8.85808 24.0682 8.93227C24.7029 8.37574 25.5161 8.06509 26.3602 8.05665C26.6017 7.74211 26.7575 7.37025 26.8122 6.97746C26.8276 6.87199 26.8353 6.76554 26.8352 6.65895C26.8364 6.04217 26.5928 5.45011 26.158 5.01265C25.7232 4.57519 25.1327 4.32805 24.5159 4.32544ZM24.5017 8.20004C24.175 8.1985 23.8572 8.09309 23.5943 7.89904C23.3985 7.7551 23.2391 7.56723 23.1291 7.35053C23.019 7.13383 22.9613 6.89434 22.9606 6.65129C22.9617 6.24032 23.1255 5.8465 23.4161 5.55589C23.7067 5.26529 24.1005 5.10151 24.5115 5.10036C24.9227 5.10238 25.3163 5.26714 25.6063 5.5586C25.8964 5.85006 26.0592 6.2445 26.0592 6.65567C26.0589 6.76013 26.0479 6.86429 26.0263 6.96651C25.9521 7.31572 25.7601 7.62883 25.4825 7.85338C25.205 8.07794 24.8587 8.20032 24.5017 8.20004Z" fill="black"/>
<path d="M39.8945 11.951C39.6614 11.8525 39.4195 11.7748 39.1984 11.6927C39.5925 8.59739 38.5724 6.16427 35.6434 4.9384C33.0779 3.86577 30.9031 4.4404 29.1332 6.20148C28.8573 6.47666 28.5992 6.76912 28.3605 7.07709C28.3049 7.53231 28.1946 7.97918 28.0321 8.40803C28.0301 8.41478 28.0275 8.42136 28.0245 8.42773L28.1011 8.46494C28.4349 8.6324 28.6626 8.61927 28.8552 8.40037C28.9172 8.32829 28.9701 8.24889 29.0128 8.16395C29.4776 7.26795 30.209 6.53828 31.1062 6.07561C32.0033 5.61294 33.0218 5.44009 34.0214 5.58089C35.0208 5.72324 35.9511 6.17302 36.6834 6.86787C37.4157 7.56272 37.9137 8.4682 38.1083 9.45877C38.2677 10.239 38.2278 11.0469 37.9923 11.8076C37.8281 12.3494 37.978 12.5891 38.5395 12.6898C40.4735 13.0389 41.8734 14.6391 41.9085 16.5381C41.9348 17.4804 41.6275 18.4017 41.0408 19.1394C40.454 19.8771 39.6255 20.3839 38.7015 20.5703C38.3798 20.6311 38.0526 20.6586 37.7252 20.6524C34.9524 20.659 32.1826 20.659 29.4156 20.6524C26.6279 20.6524 23.8401 20.6524 21.0524 20.6524C18.616 20.6448 16.6634 19.0249 16.1927 16.6366C15.6575 13.9244 17.6824 11.1947 20.4252 10.9145C20.7321 10.8826 21.0412 10.8775 21.349 10.8992C21.6311 10.9195 21.9112 10.9627 22.1863 11.0283C22.25 11.0439 22.3147 11.0545 22.38 11.0601L22.2093 10.8028C22.0561 10.5693 21.9101 10.3326 21.7715 10.0925C21.719 10.0016 21.6686 9.90971 21.6194 9.81777C21.325 9.78497 21.0285 9.77618 20.7328 9.7915C20.4624 9.80664 20.1931 9.83697 19.9261 9.88235C16.763 10.4099 14.5137 13.6092 15.0993 16.7559C15.6542 19.7308 18.0545 21.7437 21.0885 21.7469C26.664 21.7528 32.2398 21.7528 37.8161 21.7469C38.1346 21.7492 38.4527 21.7251 38.7672 21.6747C41.0547 21.2796 42.7315 19.4857 42.98 17.1029C43.0841 16.0271 42.8406 14.9463 42.2853 14.0191C41.73 13.0918 40.8921 12.367 39.8945 11.951ZM26.3597 8.0545C26.6013 7.73996 26.757 7.3681 26.8118 6.9753C26.5507 6.94678 26.2875 6.94385 26.0259 6.96655C25.9516 7.31576 25.7596 7.62886 25.4821 7.85342C25.2045 8.07798 24.8582 8.20035 24.5012 8.20007C24.1745 8.19853 23.8567 8.09312 23.5939 7.89908C23.3843 8.05671 23.1898 8.23331 23.0127 8.42664C23.3146 8.68385 23.6782 8.85811 24.0678 8.93231C24.7022 8.37498 25.5153 8.06354 26.3597 8.0545Z" fill="black"/>
<path d="M26.3603 8.0542C26.1429 8.34163 25.8616 8.57447 25.5387 8.73425C25.2157 8.89402 24.8599 8.97635 24.4996 8.97469C24.3526 8.9752 24.2059 8.9609 24.0618 8.93201C24.6979 8.37321 25.5136 8.06167 26.3603 8.0542Z" fill="black"/>
<path d="M26.8142 28.2921C26.7992 28.3665 26.7787 28.4397 26.7529 28.511C26.58 28.94 26.4048 29.3691 26.2231 29.7949C26.0765 30.1396 25.7853 30.2754 25.4822 30.1506C25.179 30.0258 25.0783 29.7281 25.2107 29.3943C25.3902 28.939 25.5752 28.4847 25.7733 28.036C25.8202 27.9208 25.9065 27.8261 26.0167 27.7686C26.1269 27.7111 26.254 27.6945 26.3753 27.7218C26.5025 27.7525 26.6155 27.8258 26.6953 27.9296C26.7751 28.0333 26.8171 28.1612 26.8142 28.2921Z" fill="black"/>
<path d="M21.4886 30.1928C21.0366 30.2037 20.7345 29.8644 20.8483 29.536C21.0333 29.0052 21.2533 28.4853 21.4853 27.9731C21.5466 27.8601 21.6486 27.7747 21.7705 27.734C21.8924 27.6934 22.0252 27.7006 22.142 27.7542C22.2685 27.798 22.3727 27.8898 22.4321 28.0098C22.4915 28.1298 22.5013 28.2684 22.4594 28.3956C22.2712 28.9056 22.072 29.4145 21.8367 29.9038C21.7633 30.0494 21.5598 30.1326 21.4886 30.1928Z" fill="black"/>
<path d="M27.9933 23.5307C28.0804 23.5295 28.1666 23.5498 28.244 23.5898C28.3215 23.6297 28.388 23.6881 28.4376 23.7598C28.4872 23.8314 28.5185 23.9142 28.5286 24.0008C28.5387 24.0874 28.5274 24.1751 28.4956 24.2563C28.3183 24.7423 28.1159 25.2195 27.9046 25.6923C27.8771 25.7577 27.8365 25.8168 27.7855 25.866C27.7344 25.9152 27.6739 25.9536 27.6076 25.9788C27.5413 26.0039 27.4706 26.0154 27.3997 26.0124C27.3289 26.0095 27.2593 25.9922 27.1954 25.9616C27.1297 25.9349 27.0701 25.8952 27.0202 25.845C26.9702 25.7947 26.931 25.7349 26.9047 25.669C26.8784 25.6032 26.8657 25.5328 26.8673 25.4619C26.8689 25.3911 26.8848 25.3213 26.9141 25.2567C27.0936 24.7905 27.2862 24.3297 27.481 23.8689C27.5193 23.7653 27.5896 23.6767 27.6818 23.6159C27.7739 23.5551 27.883 23.5252 27.9933 23.5307Z" fill="black"/>
<path d="M36.6104 23.5311C37.0099 23.5453 37.2781 23.866 37.1643 24.1878C36.9815 24.7099 36.7659 25.2221 36.5393 25.7278C36.4802 25.8485 36.3761 25.9411 36.2494 25.9857C36.1226 26.0304 35.9834 26.0234 35.8618 25.9664C35.7977 25.9421 35.739 25.9054 35.6891 25.8584C35.6392 25.8114 35.5991 25.755 35.5711 25.6925C35.543 25.63 35.5276 25.5625 35.5256 25.494C35.5237 25.4255 35.5352 25.3573 35.5597 25.2933C35.7458 24.8007 35.9493 24.3148 36.1584 23.831C36.1945 23.7411 36.2571 23.6643 36.3378 23.6107C36.4185 23.5572 36.5136 23.5294 36.6104 23.5311Z" fill="black"/>
<path d="M30.492 27.7058C30.9747 27.7168 31.2352 28.0801 31.1016 28.4402C30.9221 28.9251 30.7229 29.4034 30.5139 29.8762C30.4591 30.0036 30.3564 30.1044 30.2281 30.1568C30.0997 30.2092 29.9559 30.2091 29.8276 30.1564C29.697 30.1099 29.5901 30.0135 29.5303 29.8884C29.4704 29.7634 29.4624 29.6197 29.508 29.4888C29.6876 28.9847 29.8937 28.4903 30.1253 28.0079C30.1997 27.8547 30.4121 27.7693 30.492 27.7058Z" fill="black"/>
<path d="M24.1998 24.1174C24.1877 24.1829 24.1705 24.2473 24.1483 24.31C23.9721 24.7478 23.7959 25.1856 23.6098 25.6235C23.4664 25.9518 23.1808 26.0908 22.8896 25.9759C22.5985 25.861 22.4682 25.5523 22.605 25.2097C22.7824 24.7632 22.9629 24.3166 23.1523 23.8755C23.2002 23.7504 23.2935 23.6479 23.4136 23.5885C23.5337 23.5291 23.6717 23.5171 23.8003 23.5548C23.9204 23.5901 24.0251 23.6647 24.0976 23.7668C24.1701 23.8689 24.2061 23.9924 24.1998 24.1174Z" fill="black"/>
<path d="M32.8581 24.116C32.8385 24.1988 32.8141 24.2803 32.7848 24.3601C32.6195 24.7727 32.4564 25.1854 32.2791 25.5958C32.1325 25.945 31.8413 26.0905 31.5469 25.9745C31.2525 25.8585 31.1222 25.5367 31.2667 25.1788C31.4429 24.741 31.6191 24.3032 31.814 23.8654C31.8609 23.7389 31.9538 23.6349 32.0741 23.574C32.1945 23.5131 32.3333 23.4999 32.463 23.537C32.5849 23.5742 32.6904 23.6519 32.7623 23.7571C32.8341 23.8624 32.8679 23.989 32.8581 24.116Z" fill="black"/>
<path d="M35.4619 28.3073C35.4455 28.3865 35.4236 28.4644 35.3962 28.5404C35.2309 28.9531 35.0679 29.3657 34.8905 29.775C34.7395 30.1329 34.4363 30.2796 34.1331 30.1483C33.8299 30.0169 33.7369 29.7105 33.877 29.3624C34.0521 28.9246 34.2294 28.4868 34.4188 28.0545C34.4642 27.9343 34.5518 27.8348 34.6652 27.7744C34.7785 27.714 34.91 27.6968 35.035 27.7261C35.2933 27.7841 35.4608 27.991 35.4619 28.3073Z" fill="black"/>
</g>
<defs>
<clipPath id="clip0_1461_72246">
<rect width="28" height="28.1959" fill="white" transform="translate(15 1.99976)"/>
</clipPath>
</defs>
</svg>
