<svg width="48" height="49" viewBox="0 0 48 49" fill="none" xmlns="http://www.w3.org/2000/svg">
<path fill-rule="evenodd" clip-rule="evenodd" d="M14.9856 7.90424C21.4742 3.95082 28.6426 9.64547 34.542 14.4339C39.6601 18.5881 44.7099 24.1041 42.6643 30.3706C40.5208 36.9371 33.2429 39.6179 26.3355 39.5737C18.9812 39.5265 11.2238 37.0763 8.74256 30.1531C5.8695 22.1365 7.71318 12.3352 14.9856 7.90424Z" fill="#E2FFF8"/>
<path d="M33.2548 26.8392C33.3951 27.6488 33.5223 28.4125 33.6661 29.1714C33.6841 29.2141 33.7121 29.2519 33.7478 29.2814C33.7835 29.311 33.8258 29.3314 33.8712 29.3411C34.1245 29.367 34.3814 29.3411 34.6348 29.3694C34.9631 29.4016 35.2672 29.556 35.487 29.8019C35.7068 30.0479 35.8261 30.3674 35.8214 30.6972C35.8166 31.027 35.6881 31.343 35.4614 31.5825C35.2346 31.822 34.9262 31.9676 34.5971 31.9903C34.5193 31.9974 34.4404 31.9986 34.3614 31.9986H23.7717C22.9868 31.9986 22.4612 31.5838 22.3386 30.8826C22.3105 30.7131 22.3162 30.5397 22.3553 30.3723C22.3944 30.205 22.4661 30.0471 22.5664 29.9076C22.6667 29.7681 22.7936 29.6498 22.9398 29.5594C23.0859 29.4691 23.2485 29.4085 23.4181 29.3812C23.688 29.3447 23.9673 29.3718 24.243 29.3411C24.2934 29.3335 24.3412 29.3137 24.3822 29.2836C24.4233 29.2534 24.4564 29.2137 24.4787 29.1679C24.6237 28.4089 24.7498 27.6465 24.89 26.8392H22.2974C21.8885 26.8392 21.6657 26.6719 21.6763 26.3796C21.6869 26.0874 21.8955 25.9554 22.2962 25.9554H42.0946C42.9089 25.9554 43.2612 25.6018 43.2589 24.7946V24.5106H14.906C14.8801 24.8818 14.8353 25.2495 15.0875 25.5712C15.3114 25.8611 15.6143 25.9554 15.9666 25.9542C17.2512 25.9542 18.5357 25.9542 19.8202 25.9542C19.9182 25.9514 20.0161 25.9546 20.1137 25.9636C20.2186 25.9673 20.3179 26.0122 20.39 26.0885C20.4621 26.1648 20.5013 26.2664 20.499 26.3714C20.5106 26.4756 20.4816 26.5804 20.4179 26.6638C20.3543 26.7472 20.2609 26.8029 20.1573 26.8192C20.0609 26.8368 19.9628 26.8431 19.865 26.838C18.5711 26.838 17.2747 26.838 15.9761 26.838C14.7776 26.838 14.0009 26.0661 13.9998 24.8759C13.9998 18.905 13.9998 12.934 13.9998 6.96309C13.9998 5.7634 14.7634 5.00094 15.9702 5.00094C22.0982 5.00094 28.2263 5.00094 34.3543 5.00094C34.4425 4.99814 34.5308 5.00247 34.6183 5.0139C34.7231 5.02234 34.8204 5.07123 34.8897 5.15021C34.959 5.22918 34.9948 5.33204 34.9895 5.43697C34.9972 5.53672 34.9668 5.63566 34.9045 5.71392C34.8422 5.79219 34.7526 5.84397 34.6537 5.85886C34.5181 5.88051 34.3808 5.88919 34.2436 5.88479C28.1744 5.88479 22.1045 5.88479 16.0338 5.88479C15.6649 5.88479 15.3126 5.92721 15.091 6.25718C14.9702 6.43123 14.8993 6.63499 14.886 6.84642C14.8758 12.3852 14.873 17.9241 14.8777 23.4629C14.8777 23.4912 14.886 23.5206 14.893 23.5737H43.2483V6.99845C43.2483 6.24187 42.8947 5.88597 42.1299 5.88479H36.8645C36.3825 5.88479 36.1786 5.74808 36.1833 5.43225C36.188 5.11642 36.3766 4.99976 36.8492 4.99976C38.6043 4.99976 40.3595 4.99976 42.1146 4.99976C43.3921 4.99976 44.1321 5.74809 44.1321 7.0338V24.8005C44.1321 26.0968 43.3826 26.8392 42.0851 26.8392H33.2548ZM25.3461 29.3494H25.7161C26.9119 29.3494 28.1084 29.3494 29.3058 29.3494C29.4245 29.3436 29.5434 29.354 29.6593 29.38C29.757 29.4011 29.843 29.4584 29.9001 29.5404C29.9572 29.6224 29.9811 29.723 29.9669 29.8219C29.9682 29.9165 29.9351 30.0083 29.8737 30.0803C29.8124 30.1523 29.727 30.1995 29.6334 30.2132C29.5164 30.2308 29.398 30.2372 29.2798 30.232H23.9237C23.8159 30.2293 23.708 30.2336 23.6008 30.245C23.4922 30.254 23.3911 30.3038 23.3177 30.3843C23.2444 30.4648 23.2042 30.5701 23.2052 30.679C23.2062 30.7879 23.2485 30.8924 23.3234 30.9715C23.3983 31.0506 23.5003 31.0984 23.609 31.1053C23.6875 31.1094 23.7662 31.1094 23.8447 31.1053H34.286C34.3841 31.1085 34.4822 31.1034 34.5794 31.09C34.6755 31.0712 34.7622 31.0202 34.8252 30.9454C34.8883 30.8706 34.9239 30.7764 34.9261 30.6786C34.9283 30.5808 34.897 30.4852 34.8373 30.4076C34.7777 30.33 34.6934 30.2751 34.5983 30.2521C34.4816 30.2314 34.3632 30.2227 34.2447 30.2262C33.3727 30.2262 32.4994 30.2262 31.6274 30.2262C31.3433 30.2262 31.156 30.0517 31.1489 29.8113C31.1418 29.5709 31.3233 29.3718 31.6203 29.3494C31.7464 29.3399 31.8748 29.3494 32.0021 29.3494H32.7917C32.642 28.4903 32.5018 27.6748 32.3592 26.8581H25.7774C25.6301 27.683 25.4946 28.4926 25.3461 29.3494Z" fill="#2C2D38"/>
<path d="M29.0562 5.95874V23.5324" stroke="#2C2D38" stroke-width="0.719249"/>
<path d="M20.2298 14.4255H19.8891L20.6546 12.2983H21.0254L21.7909 14.4255H21.4502L20.8488 12.6847H20.8322L20.2298 14.4255ZM20.2869 13.5925H21.3921V13.8626H20.2869V13.5925ZM22.7803 13.7358H23.096L23.3183 14.0256L23.4232 14.1544L23.7774 14.6167H23.4492L23.2124 14.3082L23.1314 14.196L22.7803 13.7358ZM23.846 13.3619C23.846 13.589 23.8044 13.7843 23.7213 13.9477C23.6382 14.1105 23.5243 14.2358 23.3796 14.3237C23.2356 14.411 23.0718 14.4546 22.8883 14.4546C22.7041 14.4546 22.5397 14.411 22.3949 14.3237C22.2509 14.2358 22.1373 14.1101 22.0542 13.9467C21.9711 13.7833 21.9296 13.5884 21.9296 13.3619C21.9296 13.1348 21.9711 12.9399 22.0542 12.7771C22.1373 12.6137 22.2509 12.4884 22.3949 12.4011C22.5397 12.3132 22.7041 12.2692 22.8883 12.2692C23.0718 12.2692 23.2356 12.3132 23.3796 12.4011C23.5243 12.4884 23.6382 12.6137 23.7213 12.7771C23.8044 12.9399 23.846 13.1348 23.846 13.3619ZM23.5281 13.3619C23.5281 13.1888 23.5001 13.043 23.444 12.9246C23.3886 12.8055 23.3124 12.7155 23.2155 12.6546C23.1192 12.5929 23.0102 12.5621 22.8883 12.5621C22.7657 12.5621 22.6563 12.5929 22.5601 12.6546C22.4638 12.7155 22.3877 12.8055 22.3316 12.9246C22.2762 13.043 22.2485 13.1888 22.2485 13.3619C22.2485 13.535 22.2762 13.6811 22.3316 13.8002C22.3877 13.9187 22.4638 14.0087 22.5601 14.0703C22.6563 14.1312 22.7657 14.1617 22.8883 14.1617C23.0102 14.1617 23.1192 14.1312 23.2155 14.0703C23.3124 14.0087 23.3886 13.9187 23.444 13.8002C23.5001 13.6811 23.5281 13.535 23.5281 13.3619ZM24.5671 12.2983V14.4255H24.2461V12.2983H24.5671ZM18.3559 16.2983V18.4255H18.0349V16.2983H18.3559ZM19.1089 17.4783V18.4255H18.7983V16.8301H19.0965V17.0898H19.1162C19.1529 17.0053 19.2104 16.9374 19.2886 16.8862C19.3675 16.835 19.4669 16.8093 19.5867 16.8093C19.6954 16.8093 19.7906 16.8322 19.8724 16.8779C19.9541 16.9229 20.0174 16.9901 20.0624 17.0794C20.1074 17.1687 20.1299 17.2792 20.1299 17.4107V18.4255H19.8194V17.4481C19.8194 17.3325 19.7893 17.2421 19.729 17.177C19.6688 17.1113 19.586 17.0784 19.4808 17.0784C19.4088 17.0784 19.3447 17.0939 19.2886 17.1251C19.2332 17.1563 19.1892 17.202 19.1567 17.2622C19.1248 17.3218 19.1089 17.3938 19.1089 17.4783ZM21.1437 18.4567C21.0149 18.4567 20.9 18.4238 20.7989 18.358C20.6985 18.2915 20.6195 18.197 20.562 18.0745C20.5053 17.9512 20.4769 17.8034 20.4769 17.6309C20.4769 17.4585 20.5056 17.311 20.5631 17.1885C20.6212 17.0659 20.7009 16.9721 20.802 16.907C20.9031 16.8419 21.0177 16.8093 21.1458 16.8093C21.2448 16.8093 21.3244 16.826 21.3847 16.8592C21.4456 16.8917 21.4927 16.9298 21.5259 16.9735C21.5599 17.0171 21.5862 17.0555 21.6049 17.0887H21.6236V16.2983H21.9341V18.4255H21.6309V18.1773H21.6049C21.5862 18.2112 21.5592 18.25 21.5239 18.2936C21.4892 18.3372 21.4415 18.3753 21.3805 18.4079C21.3196 18.4404 21.2406 18.4567 21.1437 18.4567ZM21.2123 18.1918C21.3016 18.1918 21.3771 18.1683 21.4387 18.1212C21.501 18.0734 21.5481 18.0073 21.58 17.9228C21.6125 17.8383 21.6288 17.74 21.6288 17.6278C21.6288 17.517 21.6128 17.4201 21.581 17.337C21.5491 17.2539 21.5024 17.1892 21.4408 17.1428C21.3791 17.0964 21.303 17.0732 21.2123 17.0732C21.1188 17.0732 21.0409 17.0974 20.9786 17.1459C20.9162 17.1943 20.8691 17.2605 20.8373 17.3443C20.8061 17.4281 20.7906 17.5226 20.7906 17.6278C20.7906 17.7345 20.8065 17.8304 20.8383 17.9155C20.8702 18.0007 20.9173 18.0682 20.9796 18.1181C21.0426 18.1673 21.1202 18.1918 21.2123 18.1918ZM23.0494 18.4577C22.8999 18.4577 22.7693 18.4235 22.6579 18.3549C22.5464 18.2864 22.4598 18.1904 22.3982 18.0672C22.3366 17.9439 22.3057 17.7999 22.3057 17.6351C22.3057 17.4696 22.3366 17.3249 22.3982 17.2009C22.4598 17.077 22.5464 16.9807 22.6579 16.9122C22.7693 16.8436 22.8999 16.8093 23.0494 16.8093C23.199 16.8093 23.3295 16.8436 23.441 16.9122C23.5525 16.9807 23.6391 17.077 23.7007 17.2009C23.7623 17.3249 23.7931 17.4696 23.7931 17.6351C23.7931 17.7999 23.7623 17.9439 23.7007 18.0672C23.6391 18.1904 23.5525 18.2864 23.441 18.3549C23.3295 18.4235 23.199 18.4577 23.0494 18.4577ZM23.0505 18.197C23.1474 18.197 23.2277 18.1714 23.2915 18.1202C23.3552 18.0689 23.4022 18.0007 23.4327 17.9155C23.4639 17.8304 23.4795 17.7365 23.4795 17.6341C23.4795 17.5323 23.4639 17.4388 23.4327 17.3536C23.4022 17.2677 23.3552 17.1988 23.2915 17.1469C23.2277 17.095 23.1474 17.069 23.0505 17.069C22.9528 17.069 22.8718 17.095 22.8074 17.1469C22.7437 17.1988 22.6963 17.2677 22.6651 17.3536C22.6347 17.4388 22.6194 17.5323 22.6194 17.6341C22.6194 17.7365 22.6347 17.8304 22.6651 17.9155C22.6963 18.0007 22.7437 18.0689 22.8074 18.1202C22.8718 18.1714 22.9528 18.197 23.0505 18.197ZM24.8118 18.4577C24.6623 18.4577 24.5317 18.4235 24.4202 18.3549C24.3088 18.2864 24.2222 18.1904 24.1606 18.0672C24.0989 17.9439 24.0681 17.7999 24.0681 17.6351C24.0681 17.4696 24.0989 17.3249 24.1606 17.2009C24.2222 17.077 24.3088 16.9807 24.4202 16.9122C24.5317 16.8436 24.6623 16.8093 24.8118 16.8093C24.9614 16.8093 25.0919 16.8436 25.2034 16.9122C25.3149 16.9807 25.4015 17.077 25.4631 17.2009C25.5247 17.3249 25.5555 17.4696 25.5555 17.6351C25.5555 17.7999 25.5247 17.9439 25.4631 18.0672C25.4015 18.1904 25.3149 18.2864 25.2034 18.3549C25.0919 18.4235 24.9614 18.4577 24.8118 18.4577ZM24.8129 18.197C24.9098 18.197 24.9901 18.1714 25.0538 18.1202C25.1176 18.0689 25.1646 18.0007 25.1951 17.9155C25.2263 17.8304 25.2418 17.7365 25.2418 17.6341C25.2418 17.5323 25.2263 17.4388 25.1951 17.3536C25.1646 17.2677 25.1176 17.1988 25.0538 17.1469C24.9901 17.095 24.9098 17.069 24.8129 17.069C24.7152 17.069 24.6342 17.095 24.5698 17.1469C24.5061 17.1988 24.4587 17.2677 24.4275 17.3536C24.397 17.4388 24.3818 17.5323 24.3818 17.6341C24.3818 17.7365 24.397 17.8304 24.4275 17.9155C24.4587 18.0007 24.5061 18.0689 24.5698 18.1202C24.6342 18.1714 24.7152 18.197 24.8129 18.197ZM25.9022 18.4255V16.8301H26.2024V17.0836H26.219C26.2481 16.9977 26.2993 16.9302 26.3727 16.881C26.4468 16.8312 26.5306 16.8062 26.6241 16.8062C26.6435 16.8062 26.6663 16.8069 26.6926 16.8083C26.7196 16.8097 26.7408 16.8114 26.756 16.8135V17.1106C26.7435 17.1071 26.7214 17.1033 26.6895 17.0991C26.6577 17.0943 26.6258 17.0919 26.594 17.0919C26.5206 17.0919 26.4551 17.1074 26.3976 17.1386C26.3409 17.1691 26.2959 17.2117 26.2626 17.2664C26.2294 17.3204 26.2128 17.382 26.2128 17.4512V18.4255H25.9022Z" fill="black"/>
<path d="M34.4161 14.4255H34.0754L34.8409 12.2983H35.2117L35.9772 14.4255H35.6365L35.0351 12.6847H35.0185L34.4161 14.4255ZM34.4732 13.5925H35.5784V13.8626H34.4732V13.5925ZM36.9666 13.7358H37.2823L37.5046 14.0256L37.6095 14.1544L37.9637 14.6167H37.6355L37.3987 14.3082L37.3176 14.196L36.9666 13.7358ZM38.0323 13.3619C38.0323 13.589 37.9907 13.7843 37.9076 13.9477C37.8245 14.1105 37.7106 14.2358 37.5659 14.3237C37.4219 14.411 37.2581 14.4546 37.0746 14.4546C36.8904 14.4546 36.7259 14.411 36.5812 14.3237C36.4372 14.2358 36.3236 14.1101 36.2405 13.9467C36.1574 13.7833 36.1159 13.5884 36.1159 13.3619C36.1159 13.1348 36.1574 12.9399 36.2405 12.7771C36.3236 12.6137 36.4372 12.4884 36.5812 12.4011C36.7259 12.3132 36.8904 12.2692 37.0746 12.2692C37.2581 12.2692 37.4219 12.3132 37.5659 12.4011C37.7106 12.4884 37.8245 12.6137 37.9076 12.7771C37.9907 12.9399 38.0323 13.1348 38.0323 13.3619ZM37.7144 13.3619C37.7144 13.1888 37.6864 13.043 37.6303 12.9246C37.5749 12.8055 37.4987 12.7155 37.4018 12.6546C37.3055 12.5929 37.1965 12.5621 37.0746 12.5621C36.952 12.5621 36.8426 12.5929 36.7464 12.6546C36.6501 12.7155 36.5739 12.8055 36.5179 12.9246C36.4625 13.043 36.4348 13.1888 36.4348 13.3619C36.4348 13.535 36.4625 13.6811 36.5179 13.8002C36.5739 13.9187 36.6501 14.0087 36.7464 14.0703C36.8426 14.1312 36.952 14.1617 37.0746 14.1617C37.1965 14.1617 37.3055 14.1312 37.4018 14.0703C37.4987 14.0087 37.5749 13.9187 37.6303 13.8002C37.6864 13.6811 37.7144 13.535 37.7144 13.3619ZM38.7534 12.2983V14.4255H38.4324V12.2983H38.7534ZM32.8079 17.3619C32.8079 17.589 32.7664 17.7843 32.6833 17.9477C32.6002 18.1105 32.4863 18.2358 32.3416 18.3237C32.1975 18.411 32.0338 18.4546 31.8503 18.4546C31.6661 18.4546 31.5016 18.411 31.3569 18.3237C31.2128 18.2358 31.0993 18.1101 31.0162 17.9467C30.9331 17.7833 30.8915 17.5884 30.8915 17.3619C30.8915 17.1348 30.9331 16.9399 31.0162 16.7771C31.0993 16.6137 31.2128 16.4884 31.3569 16.4011C31.5016 16.3132 31.6661 16.2692 31.8503 16.2692C32.0338 16.2692 32.1975 16.3132 32.3416 16.4011C32.4863 16.4884 32.6002 16.6137 32.6833 16.7771C32.7664 16.9399 32.8079 17.1348 32.8079 17.3619ZM32.4901 17.3619C32.4901 17.1888 32.462 17.043 32.4059 16.9246C32.3506 16.8055 32.2744 16.7155 32.1774 16.6546C32.0812 16.5929 31.9721 16.5621 31.8503 16.5621C31.7277 16.5621 31.6183 16.5929 31.522 16.6546C31.4258 16.7155 31.3496 16.8055 31.2935 16.9246C31.2381 17.043 31.2104 17.1888 31.2104 17.3619C31.2104 17.535 31.2381 17.6811 31.2935 17.8002C31.3496 17.9187 31.4258 18.0087 31.522 18.0703C31.6183 18.1312 31.7277 18.1617 31.8503 18.1617C31.9721 18.1617 32.0812 18.1312 32.1774 18.0703C32.2744 18.0087 32.3506 17.9187 32.4059 17.8002C32.462 17.6811 32.4901 17.535 32.4901 17.3619ZM34.1938 17.7639V16.8301H34.5054V18.4255H34.2V18.1492H34.1834C34.1467 18.2344 34.0878 18.3054 34.0068 18.3622C33.9265 18.4183 33.8264 18.4463 33.7066 18.4463C33.6042 18.4463 33.5134 18.4238 33.4345 18.3788C33.3563 18.3331 33.2946 18.2656 33.2496 18.1763C33.2053 18.0869 33.1831 17.9765 33.1831 17.8449V16.8301H33.4937V17.8075C33.4937 17.9162 33.5238 18.0028 33.5841 18.0672C33.6443 18.1316 33.7226 18.1638 33.8188 18.1638C33.877 18.1638 33.9348 18.1492 33.9923 18.1202C34.0505 18.0911 34.0986 18.0471 34.1367 17.9882C34.1754 17.9294 34.1945 17.8546 34.1938 17.7639ZM35.6674 16.8301V17.0794H34.796V16.8301H35.6674ZM35.0297 16.4479H35.3402V17.9571C35.3402 18.0173 35.3492 18.0627 35.3672 18.0932C35.3853 18.1229 35.4084 18.1434 35.4368 18.1544C35.4659 18.1648 35.4974 18.17 35.5314 18.17C35.5563 18.17 35.5781 18.1683 35.5968 18.1648C35.6155 18.1614 35.63 18.1586 35.6404 18.1565L35.6965 18.4131C35.6785 18.42 35.6529 18.4269 35.6196 18.4338C35.5864 18.4415 35.5449 18.4456 35.495 18.4463C35.4133 18.4477 35.3371 18.4332 35.2665 18.4027C35.1959 18.3722 35.1387 18.3251 35.0951 18.2614C35.0515 18.1977 35.0297 18.1177 35.0297 18.0215V16.4479ZM36.5911 18.4567C36.4623 18.4567 36.3473 18.4238 36.2462 18.358C36.1458 18.2915 36.0669 18.197 36.0094 18.0745C35.9526 17.9512 35.9242 17.8034 35.9242 17.6309C35.9242 17.4585 35.953 17.311 36.0105 17.1885C36.0686 17.0659 36.1483 16.9721 36.2494 16.907C36.3505 16.8419 36.4651 16.8093 36.5932 16.8093C36.6922 16.8093 36.7718 16.826 36.8321 16.8592C36.893 16.8917 36.9401 16.9298 36.9733 16.9735C37.0072 17.0171 37.0336 17.0555 37.0523 17.0887H37.071V16.2983H37.3815V18.4255H37.0782V18.1773H37.0523C37.0336 18.2112 37.0066 18.25 36.9712 18.2936C36.9366 18.3372 36.8888 18.3753 36.8279 18.4079C36.767 18.4404 36.688 18.4567 36.5911 18.4567ZM36.6596 18.1918C36.749 18.1918 36.8244 18.1683 36.8861 18.1212C36.9484 18.0734 36.9955 18.0073 37.0273 17.9228C37.0599 17.8383 37.0761 17.74 37.0761 17.6278C37.0761 17.517 37.0602 17.4201 37.0284 17.337C36.9965 17.2539 36.9498 17.1892 36.8881 17.1428C36.8265 17.0964 36.7503 17.0732 36.6596 17.0732C36.5662 17.0732 36.4883 17.0974 36.4259 17.1459C36.3636 17.1943 36.3165 17.2605 36.2847 17.3443C36.2535 17.4281 36.2379 17.5226 36.2379 17.6278C36.2379 17.7345 36.2539 17.8304 36.2857 17.9155C36.3176 18.0007 36.3646 18.0682 36.427 18.1181C36.49 18.1673 36.5675 18.1918 36.6596 18.1918ZM38.4968 18.4577C38.3472 18.4577 38.2167 18.4235 38.1052 18.3549C37.9937 18.2864 37.9072 18.1904 37.8456 18.0672C37.7839 17.9439 37.7531 17.7999 37.7531 17.6351C37.7531 17.4696 37.7839 17.3249 37.8456 17.2009C37.9072 17.077 37.9937 16.9807 38.1052 16.9122C38.2167 16.8436 38.3472 16.8093 38.4968 16.8093C38.6464 16.8093 38.7769 16.8436 38.8884 16.9122C38.9999 16.9807 39.0864 17.077 39.1481 17.2009C39.2097 17.3249 39.2405 17.4696 39.2405 17.6351C39.2405 17.7999 39.2097 17.9439 39.1481 18.0672C39.0864 18.1904 38.9999 18.2864 38.8884 18.3549C38.7769 18.4235 38.6464 18.4577 38.4968 18.4577ZM38.4979 18.197C38.5948 18.197 38.6751 18.1714 38.7388 18.1202C38.8025 18.0689 38.8496 18.0007 38.8801 17.9155C38.9113 17.8304 38.9268 17.7365 38.9268 17.6341C38.9268 17.5323 38.9113 17.4388 38.8801 17.3536C38.8496 17.2677 38.8025 17.1988 38.7388 17.1469C38.6751 17.095 38.5948 17.069 38.4979 17.069C38.4002 17.069 38.3192 17.095 38.2548 17.1469C38.1911 17.1988 38.1437 17.2677 38.1125 17.3536C38.082 17.4388 38.0668 17.5323 38.0668 17.6341C38.0668 17.7365 38.082 17.8304 38.1125 17.9155C38.1437 18.0007 38.1911 18.0689 38.2548 18.1202C38.3192 18.1714 38.4002 18.197 38.4979 18.197ZM40.2592 18.4577C40.1096 18.4577 39.9791 18.4235 39.8676 18.3549C39.7561 18.2864 39.6696 18.1904 39.6079 18.0672C39.5463 17.9439 39.5155 17.7999 39.5155 17.6351C39.5155 17.4696 39.5463 17.3249 39.6079 17.2009C39.6696 17.077 39.7561 16.9807 39.8676 16.9122C39.9791 16.8436 40.1096 16.8093 40.2592 16.8093C40.4088 16.8093 40.5393 16.8436 40.6508 16.9122C40.7623 16.9807 40.8488 17.077 40.9105 17.2009C40.9721 17.3249 41.0029 17.4696 41.0029 17.6351C41.0029 17.7999 40.9721 17.9439 40.9105 18.0672C40.8488 18.1904 40.7623 18.2864 40.6508 18.3549C40.5393 18.4235 40.4088 18.4577 40.2592 18.4577ZM40.2602 18.197C40.3572 18.197 40.4375 18.1714 40.5012 18.1202C40.5649 18.0689 40.612 18.0007 40.6425 17.9155C40.6736 17.8304 40.6892 17.7365 40.6892 17.6341C40.6892 17.5323 40.6736 17.4388 40.6425 17.3536C40.612 17.2677 40.5649 17.1988 40.5012 17.1469C40.4375 17.095 40.3572 17.069 40.2602 17.069C40.1626 17.069 40.0816 17.095 40.0172 17.1469C39.9535 17.1988 39.9061 17.2677 39.8749 17.3536C39.8444 17.4388 39.8292 17.5323 39.8292 17.6341C39.8292 17.7365 39.8444 17.8304 39.8749 17.9155C39.9061 18.0007 39.9535 18.0689 40.0172 18.1202C40.0816 18.1714 40.1626 18.197 40.2602 18.197ZM41.3496 18.4255V16.8301H41.6497V17.0836H41.6664C41.6955 16.9977 41.7467 16.9302 41.8201 16.881C41.8942 16.8312 41.978 16.8062 42.0715 16.8062C42.0908 16.8062 42.1137 16.8069 42.14 16.8083C42.167 16.8097 42.1881 16.8114 42.2034 16.8135V17.1106C42.1909 17.1071 42.1687 17.1033 42.1369 17.0991C42.105 17.0943 42.0732 17.0919 42.0413 17.0919C41.9679 17.0919 41.9025 17.1074 41.845 17.1386C41.7882 17.1691 41.7432 17.2117 41.71 17.2664C41.6768 17.3204 41.6601 17.382 41.6601 17.4512V18.4255H41.3496Z" fill="black"/>
</svg>
