<svg width="48" height="49" viewBox="0 0 48 49" fill="none" xmlns="http://www.w3.org/2000/svg">
<path fill-rule="evenodd" clip-rule="evenodd" d="M14.9856 7.90424C21.4742 3.95082 28.6426 9.64547 34.542 14.4339C39.6601 18.5881 44.7099 24.1041 42.6643 30.3706C40.5208 36.9371 33.2429 39.6179 26.3355 39.5737C18.9812 39.5265 11.2238 37.0763 8.74256 30.1531C5.8695 22.1365 7.71318 12.3352 14.9856 7.90424Z" fill="#EEF4FF"/>
<g clip-path="url(#clip0_1461_72248)">
<mask id="path-2-outside-1_1461_72248" maskUnits="userSpaceOnUse" x="17.0044" y="2.99976" width="27" height="27" fill="black">
<rect fill="white" x="17.0044" y="2.99976" width="27" height="27"/>
<path d="M36.2499 5.28099C36.6672 4.86887 37.1637 4.54571 37.7095 4.33109C40.4144 3.28897 43.3326 5.29983 43.3097 8.19813C43.3048 8.85651 43.051 9.45243 42.7753 10.0355C42.6137 10.3775 42.4332 10.7117 42.2458 11.0409C42.2064 11.0965 42.1831 11.162 42.1784 11.23C42.1736 11.298 42.1877 11.366 42.219 11.4266C42.9983 13.1268 43.3885 14.9793 43.3613 16.8494C43.3117 22.4368 39.4377 27.45 34.0408 28.9066C32.3935 29.358 30.6721 29.472 28.9798 29.2416C27.2875 29.0112 25.6591 28.4413 24.1925 27.566C22.7259 26.6907 21.4513 25.528 20.4452 24.1479C19.4391 22.7678 18.7222 21.1986 18.3376 19.5345C16.7124 12.6611 21.2012 5.65282 28.1212 4.26465C30.8837 3.71236 33.5499 4.02073 36.1071 5.21753C36.1478 5.23835 36.1934 5.25719 36.2499 5.28099ZM25.2437 5.87592C25.5898 6.32608 25.9239 6.41829 26.381 6.20015C26.7667 6.01672 27.1743 5.90269 27.5768 6.0534C28.1287 6.24637 28.6675 6.47457 29.1901 6.73658C29.4165 6.85208 29.6088 7.02473 29.748 7.23744C29.8871 7.45014 29.9682 7.69552 29.9833 7.94925C30.0109 8.2698 30.0023 8.59244 29.9576 8.91105C29.8634 9.60513 29.3785 10.0692 28.6814 10.1544C28.3463 10.1951 28.0082 10.2199 27.671 10.2338C27.423 10.2401 27.179 10.2976 26.9543 10.4027C26.7295 10.5078 26.529 10.6582 26.3652 10.8446C26.1312 11.1004 25.9001 11.3592 25.6582 11.6061C24.977 12.3002 24.155 12.559 23.1992 12.3785C22.9076 12.323 22.6191 12.2545 22.3296 12.1871C22.1818 12.1534 22.0856 12.202 22.1174 12.3557C22.1453 12.5386 22.2068 12.7147 22.2988 12.8753C22.4535 13.1063 22.6607 13.3016 22.8382 13.5188C22.958 13.6519 23.0326 13.8194 23.0515 13.9975C23.0704 14.1756 23.0325 14.3551 22.9433 14.5103C22.8583 14.6726 22.7343 14.8111 22.5825 14.9137C22.4307 15.0162 22.2558 15.0795 22.0736 15.0979C21.8913 15.1163 21.7073 15.0892 21.5381 15.019C21.3689 14.9488 21.2198 14.8377 21.104 14.6957C20.9878 14.5442 20.833 14.4266 20.6557 14.3555C20.4785 14.2843 20.2854 14.2621 20.0966 14.2912C19.7297 14.3408 19.3658 14.4141 18.998 14.4657C18.9335 14.4675 18.8723 14.4942 18.8271 14.5403C18.782 14.5864 18.7565 14.6481 18.756 14.7126C18.4976 16.2968 18.5583 17.9166 18.9345 19.477C20.4635 25.7466 26.4653 29.6731 32.8162 28.5645C38.7575 27.5333 43.0569 22.1324 42.7545 16.0988C42.7495 16.0145 42.7346 15.9312 42.7237 15.839C41.5587 16.2703 40.814 17.1072 40.5344 18.2733C40.4551 18.6015 40.3777 18.9306 40.2964 19.2579C40.2331 19.5435 40.0633 19.7942 39.8215 19.9589C39.3574 20.2742 38.8954 20.5915 38.4174 20.884C37.9028 21.1993 37.3069 21.115 36.8736 20.6857C36.6971 20.5122 36.5375 20.3218 36.359 20.1512C35.9554 19.7685 35.8454 19.3094 35.9505 18.774C36.0496 18.2653 36.1369 17.7527 36.2162 17.2391C36.2415 17.0895 36.231 16.936 36.1854 16.7913C36.1398 16.6466 36.0605 16.5148 35.954 16.4067C35.8475 16.2987 35.7168 16.2174 35.5728 16.1698C35.4288 16.1221 35.2754 16.1093 35.1255 16.1325C34.6605 16.2009 34.1974 16.2773 33.7373 16.3546C33.3567 16.4248 32.9635 16.3661 32.62 16.1878C32.2764 16.0095 32.0021 15.7217 31.8405 15.37C31.7066 15.0874 31.5807 14.8008 31.4597 14.5113C31.3308 14.2281 31.2805 13.9154 31.3142 13.606C31.3479 13.2967 31.4643 13.0021 31.6511 12.7533C31.8217 12.5107 31.9968 12.2711 32.1766 12.0344C32.2397 11.9529 32.2838 11.8584 32.3057 11.7577C32.3277 11.657 32.3269 11.5527 32.3036 11.4524C32.2632 11.2588 32.2469 11.061 32.255 10.8634C32.2668 10.5602 32.357 10.2652 32.5169 10.0073C32.6768 9.74938 32.9008 9.53736 33.1672 9.39195C33.78 9.04094 34.2331 8.58384 34.4423 7.88976C34.5514 7.52784 34.8092 7.24921 35.1166 7.02512C35.1805 6.98813 35.2354 6.93732 35.2772 6.87639C35.4597 6.50258 35.6312 6.1238 35.8176 5.72222C32.2827 4.16549 28.7707 4.22201 25.2477 5.87988L25.2437 5.87592ZM41.752 11.8431C41.6628 11.9769 41.5983 12.082 41.5259 12.1802C40.8557 13.0884 40.1884 13.9997 39.5091 14.902C39.2761 15.2133 39.0996 15.2094 38.8646 14.9079C38.3887 14.2971 37.8919 13.6992 37.4547 13.0607C36.3927 11.5119 35.2415 9.99977 35.0273 8.01667C35.0042 8.05412 34.9847 8.09361 34.9688 8.13466C34.7378 8.9279 34.2133 9.45838 33.5162 9.86987C32.9213 10.2229 32.7428 10.678 32.8796 11.3631C32.919 11.5364 32.9196 11.7161 32.8813 11.8896C32.8431 12.0631 32.767 12.2259 32.6585 12.3666C32.4731 12.6184 32.2867 12.8713 32.1072 13.1281C31.9917 13.2852 31.9192 13.4698 31.8972 13.6636C31.8751 13.8574 31.9041 14.0536 31.9813 14.2327C32.1033 14.5391 32.2361 14.8415 32.3779 15.137C32.4853 15.3625 32.6635 15.5467 32.8853 15.6614C33.1071 15.7762 33.3604 15.8152 33.6065 15.7726C33.8424 15.7359 34.0764 15.6883 34.3134 15.6536C34.6793 15.599 35.0482 15.5029 35.4131 15.5118C36.241 15.5316 36.939 16.4686 36.8012 17.3184C36.707 17.8955 36.6079 18.4726 36.5107 19.0486C36.4899 19.1551 36.4956 19.265 36.5272 19.3687C36.5589 19.4725 36.6155 19.5668 36.6922 19.6436C36.8786 19.8419 37.064 20.0402 37.2563 20.2385C37.532 20.5161 37.8377 20.5492 38.1735 20.3377C38.3827 20.2058 38.587 20.068 38.7923 19.9291C39.7987 19.2499 39.6222 19.5444 39.8929 18.3427C40.0981 17.4304 40.4819 16.6184 41.2215 16.0333C41.6043 15.7359 42.0654 15.5286 42.4848 15.2699C42.5582 15.2252 42.6543 15.1181 42.6454 15.0517C42.5042 13.9463 42.2047 12.8671 41.756 11.847L41.752 11.8431ZM18.9276 13.8777C19.225 13.8291 19.4828 13.8004 19.7297 13.7468C20.5041 13.5773 21.1486 13.7657 21.6375 14.4092C21.6573 14.4415 21.6836 14.4694 21.7147 14.4912C21.7459 14.5129 21.7811 14.528 21.8183 14.5356C21.8555 14.5431 21.8939 14.5429 21.931 14.535C21.9681 14.5271 22.0032 14.5116 22.0341 14.4895C22.1055 14.4498 22.1789 14.4102 22.2493 14.3685C22.5071 14.2198 22.5348 14.08 22.3484 13.8569C22.1957 13.6725 22.041 13.49 21.8804 13.3125C21.7575 13.1796 21.6626 13.0233 21.6013 12.853C21.54 12.6827 21.5135 12.5017 21.5234 12.321C21.5413 11.8163 21.929 11.502 22.4248 11.6071C22.7064 11.6666 22.987 11.732 23.2686 11.7915C24.0506 11.9581 24.7175 11.7508 25.2695 11.1698C25.5243 10.9001 25.7702 10.6215 26.028 10.3557C26.4397 9.92961 26.9989 9.67733 27.5907 9.65074C27.9606 9.62694 28.3324 9.6081 28.6993 9.55159C28.8614 9.53407 29.0133 9.46372 29.1316 9.35138C29.2499 9.23904 29.3279 9.09094 29.3537 8.92989C29.3938 8.6944 29.413 8.45583 29.4112 8.21697C29.4231 7.72119 29.1901 7.3672 28.736 7.16592C28.3978 7.0162 28.0498 6.88631 27.7147 6.72964C27.5453 6.64282 27.357 6.59929 27.1667 6.60292C26.9764 6.60655 26.7899 6.65724 26.624 6.75046C26.3449 6.89935 26.0228 6.94667 25.7127 6.88432C25.2774 6.80401 24.977 6.5353 24.7113 6.17536C21.7317 7.94329 19.816 10.4876 18.9276 13.8777ZM39.1968 14.3794C39.5934 13.8499 39.9781 13.3572 40.344 12.8495C41.0728 11.8401 41.7719 10.8099 42.2904 9.67057C42.58 9.03598 42.7931 8.39148 42.6821 7.66666C42.4689 6.28245 41.4774 5.1154 40.1021 4.7743C38.6564 4.41338 37.408 4.80702 36.4631 5.95722C35.5182 7.10742 35.4448 8.37066 36.0952 9.70429C36.9162 11.384 38.0208 12.8693 39.1968 14.3794Z"/>
</mask>
<path d="M36.2499 5.28099C36.6672 4.86887 37.1637 4.54571 37.7095 4.33109C40.4144 3.28897 43.3326 5.29983 43.3097 8.19813C43.3048 8.85651 43.051 9.45243 42.7753 10.0355C42.6137 10.3775 42.4332 10.7117 42.2458 11.0409C42.2064 11.0965 42.1831 11.162 42.1784 11.23C42.1736 11.298 42.1877 11.366 42.219 11.4266C42.9983 13.1268 43.3885 14.9793 43.3613 16.8494C43.3117 22.4368 39.4377 27.45 34.0408 28.9066C32.3935 29.358 30.6721 29.472 28.9798 29.2416C27.2875 29.0112 25.6591 28.4413 24.1925 27.566C22.7259 26.6907 21.4513 25.528 20.4452 24.1479C19.4391 22.7678 18.7222 21.1986 18.3376 19.5345C16.7124 12.6611 21.2012 5.65282 28.1212 4.26465C30.8837 3.71236 33.5499 4.02073 36.1071 5.21753C36.1478 5.23835 36.1934 5.25719 36.2499 5.28099ZM25.2437 5.87592C25.5898 6.32608 25.9239 6.41829 26.381 6.20015C26.7667 6.01672 27.1743 5.90269 27.5768 6.0534C28.1287 6.24637 28.6675 6.47457 29.1901 6.73658C29.4165 6.85208 29.6088 7.02473 29.748 7.23744C29.8871 7.45014 29.9682 7.69552 29.9833 7.94925C30.0109 8.2698 30.0023 8.59244 29.9576 8.91105C29.8634 9.60513 29.3785 10.0692 28.6814 10.1544C28.3463 10.1951 28.0082 10.2199 27.671 10.2338C27.423 10.2401 27.179 10.2976 26.9543 10.4027C26.7295 10.5078 26.529 10.6582 26.3652 10.8446C26.1312 11.1004 25.9001 11.3592 25.6582 11.6061C24.977 12.3002 24.155 12.559 23.1992 12.3785C22.9076 12.323 22.6191 12.2545 22.3296 12.1871C22.1818 12.1534 22.0856 12.202 22.1174 12.3557C22.1453 12.5386 22.2068 12.7147 22.2988 12.8753C22.4535 13.1063 22.6607 13.3016 22.8382 13.5188C22.958 13.6519 23.0326 13.8194 23.0515 13.9975C23.0704 14.1756 23.0325 14.3551 22.9433 14.5103C22.8583 14.6726 22.7343 14.8111 22.5825 14.9137C22.4307 15.0162 22.2558 15.0795 22.0736 15.0979C21.8913 15.1163 21.7073 15.0892 21.5381 15.019C21.3689 14.9488 21.2198 14.8377 21.104 14.6957C20.9878 14.5442 20.833 14.4266 20.6557 14.3555C20.4785 14.2843 20.2854 14.2621 20.0966 14.2912C19.7297 14.3408 19.3658 14.4141 18.998 14.4657C18.9335 14.4675 18.8723 14.4942 18.8271 14.5403C18.782 14.5864 18.7565 14.6481 18.756 14.7126C18.4976 16.2968 18.5583 17.9166 18.9345 19.477C20.4635 25.7466 26.4653 29.6731 32.8162 28.5645C38.7575 27.5333 43.0569 22.1324 42.7545 16.0988C42.7495 16.0145 42.7346 15.9312 42.7237 15.839C41.5587 16.2703 40.814 17.1072 40.5344 18.2733C40.4551 18.6015 40.3777 18.9306 40.2964 19.2579C40.2331 19.5435 40.0633 19.7942 39.8215 19.9589C39.3574 20.2742 38.8954 20.5915 38.4174 20.884C37.9028 21.1993 37.3069 21.115 36.8736 20.6857C36.6971 20.5122 36.5375 20.3218 36.359 20.1512C35.9554 19.7685 35.8454 19.3094 35.9505 18.774C36.0496 18.2653 36.1369 17.7527 36.2162 17.2391C36.2415 17.0895 36.231 16.936 36.1854 16.7913C36.1398 16.6466 36.0605 16.5148 35.954 16.4067C35.8475 16.2987 35.7168 16.2174 35.5728 16.1698C35.4288 16.1221 35.2754 16.1093 35.1255 16.1325C34.6605 16.2009 34.1974 16.2773 33.7373 16.3546C33.3567 16.4248 32.9635 16.3661 32.62 16.1878C32.2764 16.0095 32.0021 15.7217 31.8405 15.37C31.7066 15.0874 31.5807 14.8008 31.4597 14.5113C31.3308 14.2281 31.2805 13.9154 31.3142 13.606C31.3479 13.2967 31.4643 13.0021 31.6511 12.7533C31.8217 12.5107 31.9968 12.2711 32.1766 12.0344C32.2397 11.9529 32.2838 11.8584 32.3057 11.7577C32.3277 11.657 32.3269 11.5527 32.3036 11.4524C32.2632 11.2588 32.2469 11.061 32.255 10.8634C32.2668 10.5602 32.357 10.2652 32.5169 10.0073C32.6768 9.74938 32.9008 9.53736 33.1672 9.39195C33.78 9.04094 34.2331 8.58384 34.4423 7.88976C34.5514 7.52784 34.8092 7.24921 35.1166 7.02512C35.1805 6.98813 35.2354 6.93732 35.2772 6.87639C35.4597 6.50258 35.6312 6.1238 35.8176 5.72222C32.2827 4.16549 28.7707 4.22201 25.2477 5.87988L25.2437 5.87592ZM41.752 11.8431C41.6628 11.9769 41.5983 12.082 41.5259 12.1802C40.8557 13.0884 40.1884 13.9997 39.5091 14.902C39.2761 15.2133 39.0996 15.2094 38.8646 14.9079C38.3887 14.2971 37.8919 13.6992 37.4547 13.0607C36.3927 11.5119 35.2415 9.99977 35.0273 8.01667C35.0042 8.05412 34.9847 8.09361 34.9688 8.13466C34.7378 8.9279 34.2133 9.45838 33.5162 9.86987C32.9213 10.2229 32.7428 10.678 32.8796 11.3631C32.919 11.5364 32.9196 11.7161 32.8813 11.8896C32.8431 12.0631 32.767 12.2259 32.6585 12.3666C32.4731 12.6184 32.2867 12.8713 32.1072 13.1281C31.9917 13.2852 31.9192 13.4698 31.8972 13.6636C31.8751 13.8574 31.9041 14.0536 31.9813 14.2327C32.1033 14.5391 32.2361 14.8415 32.3779 15.137C32.4853 15.3625 32.6635 15.5467 32.8853 15.6614C33.1071 15.7762 33.3604 15.8152 33.6065 15.7726C33.8424 15.7359 34.0764 15.6883 34.3134 15.6536C34.6793 15.599 35.0482 15.5029 35.4131 15.5118C36.241 15.5316 36.939 16.4686 36.8012 17.3184C36.707 17.8955 36.6079 18.4726 36.5107 19.0486C36.4899 19.1551 36.4956 19.265 36.5272 19.3687C36.5589 19.4725 36.6155 19.5668 36.6922 19.6436C36.8786 19.8419 37.064 20.0402 37.2563 20.2385C37.532 20.5161 37.8377 20.5492 38.1735 20.3377C38.3827 20.2058 38.587 20.068 38.7923 19.9291C39.7987 19.2499 39.6222 19.5444 39.8929 18.3427C40.0981 17.4304 40.4819 16.6184 41.2215 16.0333C41.6043 15.7359 42.0654 15.5286 42.4848 15.2699C42.5582 15.2252 42.6543 15.1181 42.6454 15.0517C42.5042 13.9463 42.2047 12.8671 41.756 11.847L41.752 11.8431ZM18.9276 13.8777C19.225 13.8291 19.4828 13.8004 19.7297 13.7468C20.5041 13.5773 21.1486 13.7657 21.6375 14.4092C21.6573 14.4415 21.6836 14.4694 21.7147 14.4912C21.7459 14.5129 21.7811 14.528 21.8183 14.5356C21.8555 14.5431 21.8939 14.5429 21.931 14.535C21.9681 14.5271 22.0032 14.5116 22.0341 14.4895C22.1055 14.4498 22.1789 14.4102 22.2493 14.3685C22.5071 14.2198 22.5348 14.08 22.3484 13.8569C22.1957 13.6725 22.041 13.49 21.8804 13.3125C21.7575 13.1796 21.6626 13.0233 21.6013 12.853C21.54 12.6827 21.5135 12.5017 21.5234 12.321C21.5413 11.8163 21.929 11.502 22.4248 11.6071C22.7064 11.6666 22.987 11.732 23.2686 11.7915C24.0506 11.9581 24.7175 11.7508 25.2695 11.1698C25.5243 10.9001 25.7702 10.6215 26.028 10.3557C26.4397 9.92961 26.9989 9.67733 27.5907 9.65074C27.9606 9.62694 28.3324 9.6081 28.6993 9.55159C28.8614 9.53407 29.0133 9.46372 29.1316 9.35138C29.2499 9.23904 29.3279 9.09094 29.3537 8.92989C29.3938 8.6944 29.413 8.45583 29.4112 8.21697C29.4231 7.72119 29.1901 7.3672 28.736 7.16592C28.3978 7.0162 28.0498 6.88631 27.7147 6.72964C27.5453 6.64282 27.357 6.59929 27.1667 6.60292C26.9764 6.60655 26.7899 6.65724 26.624 6.75046C26.3449 6.89935 26.0228 6.94667 25.7127 6.88432C25.2774 6.80401 24.977 6.5353 24.7113 6.17536C21.7317 7.94329 19.816 10.4876 18.9276 13.8777ZM39.1968 14.3794C39.5934 13.8499 39.9781 13.3572 40.344 12.8495C41.0728 11.8401 41.7719 10.8099 42.2904 9.67057C42.58 9.03598 42.7931 8.39148 42.6821 7.66666C42.4689 6.28245 41.4774 5.1154 40.1021 4.7743C38.6564 4.41338 37.408 4.80702 36.4631 5.95722C35.5182 7.10742 35.4448 8.37066 36.0952 9.70429C36.9162 11.384 38.0208 12.8693 39.1968 14.3794Z" fill="#2C2D38"/>
<path d="M36.2499 5.28099C36.6672 4.86887 37.1637 4.54571 37.7095 4.33109C40.4144 3.28897 43.3326 5.29983 43.3097 8.19813C43.3048 8.85651 43.051 9.45243 42.7753 10.0355C42.6137 10.3775 42.4332 10.7117 42.2458 11.0409C42.2064 11.0965 42.1831 11.162 42.1784 11.23C42.1736 11.298 42.1877 11.366 42.219 11.4266C42.9983 13.1268 43.3885 14.9793 43.3613 16.8494C43.3117 22.4368 39.4377 27.45 34.0408 28.9066C32.3935 29.358 30.6721 29.472 28.9798 29.2416C27.2875 29.0112 25.6591 28.4413 24.1925 27.566C22.7259 26.6907 21.4513 25.528 20.4452 24.1479C19.4391 22.7678 18.7222 21.1986 18.3376 19.5345C16.7124 12.6611 21.2012 5.65282 28.1212 4.26465C30.8837 3.71236 33.5499 4.02073 36.1071 5.21753C36.1478 5.23835 36.1934 5.25719 36.2499 5.28099ZM25.2437 5.87592C25.5898 6.32608 25.9239 6.41829 26.381 6.20015C26.7667 6.01672 27.1743 5.90269 27.5768 6.0534C28.1287 6.24637 28.6675 6.47457 29.1901 6.73658C29.4165 6.85208 29.6088 7.02473 29.748 7.23744C29.8871 7.45014 29.9682 7.69552 29.9833 7.94925C30.0109 8.2698 30.0023 8.59244 29.9576 8.91105C29.8634 9.60513 29.3785 10.0692 28.6814 10.1544C28.3463 10.1951 28.0082 10.2199 27.671 10.2338C27.423 10.2401 27.179 10.2976 26.9543 10.4027C26.7295 10.5078 26.529 10.6582 26.3652 10.8446C26.1312 11.1004 25.9001 11.3592 25.6582 11.6061C24.977 12.3002 24.155 12.559 23.1992 12.3785C22.9076 12.323 22.6191 12.2545 22.3296 12.1871C22.1818 12.1534 22.0856 12.202 22.1174 12.3557C22.1453 12.5386 22.2068 12.7147 22.2988 12.8753C22.4535 13.1063 22.6607 13.3016 22.8382 13.5188C22.958 13.6519 23.0326 13.8194 23.0515 13.9975C23.0704 14.1756 23.0325 14.3551 22.9433 14.5103C22.8583 14.6726 22.7343 14.8111 22.5825 14.9137C22.4307 15.0162 22.2558 15.0795 22.0736 15.0979C21.8913 15.1163 21.7073 15.0892 21.5381 15.019C21.3689 14.9488 21.2198 14.8377 21.104 14.6957C20.9878 14.5442 20.833 14.4266 20.6557 14.3555C20.4785 14.2843 20.2854 14.2621 20.0966 14.2912C19.7297 14.3408 19.3658 14.4141 18.998 14.4657C18.9335 14.4675 18.8723 14.4942 18.8271 14.5403C18.782 14.5864 18.7565 14.6481 18.756 14.7126C18.4976 16.2968 18.5583 17.9166 18.9345 19.477C20.4635 25.7466 26.4653 29.6731 32.8162 28.5645C38.7575 27.5333 43.0569 22.1324 42.7545 16.0988C42.7495 16.0145 42.7346 15.9312 42.7237 15.839C41.5587 16.2703 40.814 17.1072 40.5344 18.2733C40.4551 18.6015 40.3777 18.9306 40.2964 19.2579C40.2331 19.5435 40.0633 19.7942 39.8215 19.9589C39.3574 20.2742 38.8954 20.5915 38.4174 20.884C37.9028 21.1993 37.3069 21.115 36.8736 20.6857C36.6971 20.5122 36.5375 20.3218 36.359 20.1512C35.9554 19.7685 35.8454 19.3094 35.9505 18.774C36.0496 18.2653 36.1369 17.7527 36.2162 17.2391C36.2415 17.0895 36.231 16.936 36.1854 16.7913C36.1398 16.6466 36.0605 16.5148 35.954 16.4067C35.8475 16.2987 35.7168 16.2174 35.5728 16.1698C35.4288 16.1221 35.2754 16.1093 35.1255 16.1325C34.6605 16.2009 34.1974 16.2773 33.7373 16.3546C33.3567 16.4248 32.9635 16.3661 32.62 16.1878C32.2764 16.0095 32.0021 15.7217 31.8405 15.37C31.7066 15.0874 31.5807 14.8008 31.4597 14.5113C31.3308 14.2281 31.2805 13.9154 31.3142 13.606C31.3479 13.2967 31.4643 13.0021 31.6511 12.7533C31.8217 12.5107 31.9968 12.2711 32.1766 12.0344C32.2397 11.9529 32.2838 11.8584 32.3057 11.7577C32.3277 11.657 32.3269 11.5527 32.3036 11.4524C32.2632 11.2588 32.2469 11.061 32.255 10.8634C32.2668 10.5602 32.357 10.2652 32.5169 10.0073C32.6768 9.74938 32.9008 9.53736 33.1672 9.39195C33.78 9.04094 34.2331 8.58384 34.4423 7.88976C34.5514 7.52784 34.8092 7.24921 35.1166 7.02512C35.1805 6.98813 35.2354 6.93732 35.2772 6.87639C35.4597 6.50258 35.6312 6.1238 35.8176 5.72222C32.2827 4.16549 28.7707 4.22201 25.2477 5.87988L25.2437 5.87592ZM41.752 11.8431C41.6628 11.9769 41.5983 12.082 41.5259 12.1802C40.8557 13.0884 40.1884 13.9997 39.5091 14.902C39.2761 15.2133 39.0996 15.2094 38.8646 14.9079C38.3887 14.2971 37.8919 13.6992 37.4547 13.0607C36.3927 11.5119 35.2415 9.99977 35.0273 8.01667C35.0042 8.05412 34.9847 8.09361 34.9688 8.13466C34.7378 8.9279 34.2133 9.45838 33.5162 9.86987C32.9213 10.2229 32.7428 10.678 32.8796 11.3631C32.919 11.5364 32.9196 11.7161 32.8813 11.8896C32.8431 12.0631 32.767 12.2259 32.6585 12.3666C32.4731 12.6184 32.2867 12.8713 32.1072 13.1281C31.9917 13.2852 31.9192 13.4698 31.8972 13.6636C31.8751 13.8574 31.9041 14.0536 31.9813 14.2327C32.1033 14.5391 32.2361 14.8415 32.3779 15.137C32.4853 15.3625 32.6635 15.5467 32.8853 15.6614C33.1071 15.7762 33.3604 15.8152 33.6065 15.7726C33.8424 15.7359 34.0764 15.6883 34.3134 15.6536C34.6793 15.599 35.0482 15.5029 35.4131 15.5118C36.241 15.5316 36.939 16.4686 36.8012 17.3184C36.707 17.8955 36.6079 18.4726 36.5107 19.0486C36.4899 19.1551 36.4956 19.265 36.5272 19.3687C36.5589 19.4725 36.6155 19.5668 36.6922 19.6436C36.8786 19.8419 37.064 20.0402 37.2563 20.2385C37.532 20.5161 37.8377 20.5492 38.1735 20.3377C38.3827 20.2058 38.587 20.068 38.7923 19.9291C39.7987 19.2499 39.6222 19.5444 39.8929 18.3427C40.0981 17.4304 40.4819 16.6184 41.2215 16.0333C41.6043 15.7359 42.0654 15.5286 42.4848 15.2699C42.5582 15.2252 42.6543 15.1181 42.6454 15.0517C42.5042 13.9463 42.2047 12.8671 41.756 11.847L41.752 11.8431ZM18.9276 13.8777C19.225 13.8291 19.4828 13.8004 19.7297 13.7468C20.5041 13.5773 21.1486 13.7657 21.6375 14.4092C21.6573 14.4415 21.6836 14.4694 21.7147 14.4912C21.7459 14.5129 21.7811 14.528 21.8183 14.5356C21.8555 14.5431 21.8939 14.5429 21.931 14.535C21.9681 14.5271 22.0032 14.5116 22.0341 14.4895C22.1055 14.4498 22.1789 14.4102 22.2493 14.3685C22.5071 14.2198 22.5348 14.08 22.3484 13.8569C22.1957 13.6725 22.041 13.49 21.8804 13.3125C21.7575 13.1796 21.6626 13.0233 21.6013 12.853C21.54 12.6827 21.5135 12.5017 21.5234 12.321C21.5413 11.8163 21.929 11.502 22.4248 11.6071C22.7064 11.6666 22.987 11.732 23.2686 11.7915C24.0506 11.9581 24.7175 11.7508 25.2695 11.1698C25.5243 10.9001 25.7702 10.6215 26.028 10.3557C26.4397 9.92961 26.9989 9.67733 27.5907 9.65074C27.9606 9.62694 28.3324 9.6081 28.6993 9.55159C28.8614 9.53407 29.0133 9.46372 29.1316 9.35138C29.2499 9.23904 29.3279 9.09094 29.3537 8.92989C29.3938 8.6944 29.413 8.45583 29.4112 8.21697C29.4231 7.72119 29.1901 7.3672 28.736 7.16592C28.3978 7.0162 28.0498 6.88631 27.7147 6.72964C27.5453 6.64282 27.357 6.59929 27.1667 6.60292C26.9764 6.60655 26.7899 6.65724 26.624 6.75046C26.3449 6.89935 26.0228 6.94667 25.7127 6.88432C25.2774 6.80401 24.977 6.5353 24.7113 6.17536C21.7317 7.94329 19.816 10.4876 18.9276 13.8777ZM39.1968 14.3794C39.5934 13.8499 39.9781 13.3572 40.344 12.8495C41.0728 11.8401 41.7719 10.8099 42.2904 9.67057C42.58 9.03598 42.7931 8.39148 42.6821 7.66666C42.4689 6.28245 41.4774 5.1154 40.1021 4.7743C38.6564 4.41338 37.408 4.80702 36.4631 5.95722C35.5182 7.10742 35.4448 8.37066 36.0952 9.70429C36.9162 11.384 38.0208 12.8693 39.1968 14.3794Z" stroke="#2C2D38" stroke-width="0.175558" mask="url(#path-2-outside-1_1461_72248)"/>
<path d="M26.1987 16.1046C25.7413 15.8617 25.2571 15.8449 24.8437 16.1631C24.3219 16.563 23.8856 17.0677 23.779 17.7529L23.779 17.7531C23.6682 18.4841 23.573 19.2443 24.0354 19.9342C24.0911 20.023 24.134 20.1192 24.1629 20.2199L24.1629 20.2201C24.2484 20.5134 24.3957 20.7849 24.595 21.0165C24.7941 21.2479 25.0406 21.4341 25.3177 21.5623C25.7926 21.7904 25.959 22.2641 25.8624 22.7937C25.8207 23.0142 25.7799 23.2353 25.7392 23.4562C25.7113 23.6077 25.6834 23.7591 25.6552 23.9101L25.6459 23.9598L26.1783 16.1435M26.1987 16.1046C26.1987 16.1046 26.1988 16.1047 26.1989 16.1047L26.1783 16.1435M26.1987 16.1046C26.1986 16.1046 26.1985 16.1045 26.1985 16.1045L26.1783 16.1435M26.1987 16.1046C26.3039 16.1592 26.4029 16.2251 26.4939 16.3011L26.4945 16.3016L26.4945 16.3016C26.582 16.3771 26.6858 16.4314 26.7977 16.4602C26.9097 16.4889 27.0268 16.4914 27.1399 16.4674L27.1424 16.4669L27.1424 16.4669C27.3874 16.4295 27.6379 16.455 27.8704 16.541C28.1026 16.6269 28.3092 16.7705 28.4708 16.9581M26.1783 16.1435C26.2808 16.1966 26.3772 16.2608 26.4658 16.3348C26.5584 16.4148 26.6683 16.4722 26.7868 16.5027C26.9053 16.5331 27.0293 16.5357 27.149 16.5103C27.3867 16.474 27.6297 16.4987 27.8551 16.5822C28.0806 16.6656 28.2812 16.805 28.438 16.9873M28.4708 16.9581C28.4707 16.9579 28.4705 16.9578 28.4704 16.9576L28.438 16.9873M28.4708 16.9581C28.4728 16.9602 28.475 16.9626 28.4773 16.9651C28.4859 16.9742 28.4965 16.9855 28.5053 16.9969M28.4708 16.9581C28.471 16.9583 28.4711 16.9585 28.4713 16.9586L28.438 16.9873M28.438 16.9873C28.4408 16.9903 28.4436 16.9933 28.4465 16.9963C28.4548 17.0053 28.4633 17.0143 28.4707 17.0239M25.6984 23.9177L25.6984 23.9177C25.7011 23.9033 25.7038 23.889 25.7065 23.8746L25.7003 23.8743L25.6984 23.9177ZM25.6984 23.9177L25.6984 23.9182L25.7193 23.963L25.6964 23.962L25.6755 23.9611C25.6758 23.9462 25.6764 23.9313 25.6774 23.9163L25.6944 23.9174L25.6984 23.9177ZM27.3027 26.8809L27.3039 26.9248C27.3037 26.9248 27.3036 26.9248 27.3034 26.9248C27.4744 26.9232 27.641 26.8707 27.782 26.774C27.9228 26.6775 28.0316 26.5412 28.0947 26.3825M27.3027 26.8809C27.465 26.8795 27.6233 26.8297 27.7572 26.7378C27.8911 26.646 27.9945 26.5163 28.0543 26.3653M27.3027 26.8809C26.9388 26.8908 26.5907 26.761 26.4638 26.4208M27.3027 26.8809L26.4638 26.4208M28.0543 26.3653L28.0942 26.3836C28.0944 26.3832 28.0945 26.3829 28.0947 26.3825M28.0543 26.3653C28.1057 26.2528 28.151 26.1376 28.1901 26.0203C28.2462 25.8383 28.3392 25.6698 28.4634 25.5254C28.5876 25.3811 28.7403 25.264 28.912 25.1814C29.6497 24.8393 29.9868 24.2652 29.9035 23.4512V23.2776C29.8807 22.7174 30.1048 22.3 30.5837 21.9946C31.1777 21.6158 31.4067 21.0308 31.2362 20.3476C31.1346 19.9739 31.101 19.585 31.137 19.1994C31.143 19.1498 31.1489 19.1003 31.1489 19.0507C31.1975 18.5014 30.9744 18.2138 30.431 18.1226C29.7256 18.0048 29.4459 17.9931 29.2298 17.8698C29.0237 17.7522 28.8754 17.5332 28.4707 17.0239M28.0543 26.3653L28.0951 26.3815C28.0949 26.3818 28.0948 26.3822 28.0947 26.3825M28.0947 26.3825L28.5053 16.9969M28.5053 16.9969C28.5054 16.997 28.5054 16.9971 28.5055 16.9972L28.4707 17.0239M28.5053 16.9969C28.5052 16.9968 28.5052 16.9967 28.5051 16.9966L28.4707 17.0239M26.4638 26.4208C26.2441 25.8308 26.0617 25.2252 25.8792 24.6194C25.831 24.4596 25.7829 24.2998 25.7341 24.1403L26.4638 26.4208ZM30.4294 19.3425L30.4716 19.3347L30.4916 19.331C30.4931 19.3055 30.4943 19.2796 30.4956 19.2532C30.4996 19.167 30.5039 19.0772 30.5186 18.9908L30.4294 19.3425ZM30.4294 19.3425L30.4363 19.3849M30.4294 19.3425L30.4363 19.3849M30.4363 19.3849C30.4541 19.4946 30.4707 19.6049 30.4873 19.7155C30.5242 19.9607 30.5614 20.2076 30.6121 20.4537L30.6121 20.4537C30.6618 20.6931 30.6588 20.8863 30.5957 21.0512C30.5327 21.2156 30.4075 21.3577 30.201 21.4907C29.5577 21.9047 29.2158 22.5004 29.2757 23.2573L29.2757 23.2573C29.3036 23.6068 29.2669 23.8986 29.1429 24.1382C29.0194 24.377 28.8065 24.5692 28.472 24.7148L28.472 24.7148C28.062 24.8941 27.8122 25.2736 27.643 25.674L27.6428 25.6739L27.6415 25.6782C27.6014 25.8082 27.5497 25.9345 27.487 26.0553C27.4596 26.0954 27.419 26.1408 27.3758 26.176C27.3311 26.2123 27.2913 26.2312 27.2641 26.2322C27.2095 26.2259 27.157 26.2069 27.111 26.1767C27.0653 26.1467 27.0272 26.1066 26.9997 26.0594C26.9677 25.9685 26.9355 25.8779 26.9034 25.7874C26.7089 25.24 26.5163 24.6982 26.3947 24.1389L26.3946 24.1385C26.3601 23.987 26.3675 23.8219 26.3927 23.6507C26.4098 23.5344 26.4346 23.4183 26.4593 23.3025C26.4711 23.2467 26.483 23.191 26.494 23.1355M30.4363 19.3849L30.3222 18.7532M30.3222 18.7532L30.3222 18.7532C30.2103 18.7412 30.0996 18.7221 29.9904 18.7034L29.9898 18.7033C29.8801 18.6844 29.7721 18.6658 29.6633 18.6541C29.402 18.6312 29.149 18.5509 28.9224 18.4188C28.6957 18.2867 28.5011 18.106 28.3524 17.8899C28.2637 17.7641 28.1652 17.6465 28.0647 17.5264C28.0431 17.5006 28.0214 17.4747 27.9997 17.4486L28.0335 17.4206M30.3222 18.7532C30.412 18.7629 30.4649 18.784 30.4934 18.8161M30.3222 18.7532L30.4934 18.8161M28.0335 17.4206L27.9998 17.4487C27.8123 17.2246 27.5668 17.0838 27.3052 17.1412C26.7791 17.2576 26.3579 17.1074 25.9786 16.7701C25.923 16.7267 25.8607 16.6928 25.7941 16.6698L25.7885 16.6679L25.7886 16.6675C25.6992 16.6223 25.5986 16.604 25.499 16.6147C25.3997 16.6254 25.3056 16.6645 25.2279 16.7273C24.8793 17.0333 24.5459 17.356 24.4685 17.8174C24.3689 18.4257 24.2742 19.0266 24.626 19.5855L24.6263 19.5862L24.6263 19.5862C24.7479 19.7867 24.8455 20.0008 24.9172 20.2241L24.9172 20.2242C25.0117 20.5191 25.2067 20.6982 25.4812 20.8558C25.9554 21.1253 26.2652 21.4241 26.4274 21.7946C26.5896 22.1649 26.6015 22.5999 26.494 23.1355M28.0335 17.4206C27.8411 17.1905 27.5803 17.0358 27.2957 17.0983L28.9445 18.3809C28.7233 18.252 28.5334 18.0757 28.3884 17.8648C28.2986 17.7373 28.1986 17.6179 28.0979 17.4978C28.0764 17.4721 28.0549 17.4464 28.0335 17.4206ZM26.494 23.1355C26.494 23.1355 26.494 23.1354 26.494 23.1354L26.4509 23.1269L26.494 23.1356C26.494 23.1355 26.494 23.1355 26.494 23.1355ZM30.4934 18.8161C30.5204 18.8464 30.5346 18.8971 30.5186 18.9907L30.4934 18.8161Z" fill="#2C2D38" stroke="#2C2D38" stroke-width="0.0877791"/>
<path d="M37.0701 8.17098C37.0702 7.74972 37.1953 7.33796 37.4298 6.98795C37.6642 6.63793 37.9973 6.36543 38.3869 6.20506C38.7765 6.04469 39.2049 6.00366 39.6178 6.08719C40.0307 6.17071 40.4095 6.37502 40.7061 6.67419C41.0027 6.97337 41.2038 7.35391 41.2838 7.76754C41.3637 8.18116 41.319 8.60922 41.1553 8.99739C40.9916 9.38556 40.7162 9.71634 40.3642 9.94776C40.0122 10.1792 39.5993 10.3008 39.1781 10.2972M37.0701 8.17098C37.0685 8.73222 37.2895 9.2712 37.6847 9.66976C38.0798 10.0683 38.6168 10.2939 39.1781 10.2972M37.0701 8.17098C37.0701 8.17096 37.0701 8.17094 37.0701 8.17092L37.114 8.17104L37.0701 8.17104C37.0701 8.17102 37.0701 8.171 37.0701 8.17098ZM39.1781 10.2972L39.1784 10.2533L39.1782 10.2972C39.1781 10.2972 39.1781 10.2972 39.1781 10.2972Z" fill="#2C2D38" stroke="#2C2D38" stroke-width="0.0877791"/>
</g>
<defs>
<clipPath id="clip0_1461_72248">
<rect width="25.3598" height="25.3559" fill="white" transform="translate(18 3.99976)"/>
</clipPath>
</defs>
</svg>
