<svg width="129" height="72" viewBox="0 0 129 72" fill="none" xmlns="http://www.w3.org/2000/svg">
<g id="sset 1 1">
<g id="Layer 2">
<g id="Layer 1">
<path id="Vector" d="M89.0318 65.1738L90.2613 66.5711L92.5566 67.4979L93.6294 68.5399C93.6294 68.5399 93.8271 69.152 94.1658 69.623C94.5044 70.0941 95.503 70.4503 95.503 70.4503L97.3851 70.7818L99.5306 70.3364L101.479 70.6847L104.371 70.0745L104.388 70.0525L105.742 68.2411L105.875 66.869C105.875 66.869 105.57 65.1416 105.778 64.4558C105.985 63.7699 105.39 63.0584 105.39 63.0584L103.747 63.0328C103.747 63.0328 101.888 63.5855 101.368 63.8414C100.848 64.0972 96.8799 61.8721 96.8799 61.8721L96.795 61.8348C96.5026 61.7092 95.5161 61.3007 94.7992 61.2097C93.9489 61.1018 90.1582 62.3642 90.1582 62.3642L89.2575 63.5781L89.0318 65.1738Z" fill="#EFEFEF"/>
<path id="Vector_2" d="M89.0329 65.1738L90.2624 66.5711L92.5577 67.4979L93.6305 68.5399C93.6305 68.5399 93.8278 69.1515 94.1669 69.623C94.506 70.0946 95.5037 70.4503 95.5037 70.4503L97.3862 70.7818L99.5317 70.3364L101.48 70.6847L104.372 70.0745L104.389 70.0525L103.019 69.595L102.193 68.404L101.26 67.2215L99.2374 67.0305L96.5788 66.4339C96.5788 66.4339 96.9258 65.6075 96.5718 64.0785C96.388 63.2849 96.5718 62.4529 96.7938 61.8348C96.5018 61.7087 95.5149 61.3002 94.798 61.2097C93.9477 61.1018 90.157 62.3638 90.157 62.3638L89.2563 63.5776L89.0329 65.1738Z" fill="url(#paint0_linear_3601_6369)"/>
<path id="Vector_3" d="M99.2246 66.0019L99.9415 65.866L101.348 65.6125L103.748 63.0312C103.748 63.0312 101.889 63.584 101.369 63.8399C101.369 63.8399 101.082 64.0434 100.97 64.7003C100.861 65.3474 99.2773 65.9809 99.2246 66.0019Z" fill="url(#paint1_linear_3601_6369)"/>
<path id="Vector_4" d="M101.261 67.2203L95.7056 67.8767C95.7056 67.8767 95.2391 68.0872 94.7223 68.8529C94.2055 69.6186 94.1547 68.3977 94.1547 68.3977L94.7699 67.4145L96.5792 66.4341L97.645 66.1465L98.8843 66.5853L101.261 67.2203Z" fill="url(#paint2_linear_3601_6369)"/>
<path id="Vector_5" d="M93.8489 60.2637L94.7981 61.21C94.7981 61.21 94.1507 62.8221 94.7174 63.9575C95.2841 65.0929 96.3168 66.2727 96.3168 66.2727L97.3845 68.0332L98.8094 70.1271L99.3271 70.7658L96.0733 70.2924L92.848 65.4734L91.8736 62.7091L93.8489 60.2637Z" fill="url(#paint3_linear_3601_6369)"/>
<path id="Vector_6" d="M3.49516 71.4783L23.1169 71.5367H23.4037L26.6757 71.5465L27.8451 71.5497H28.6058L98.3616 71.7622L99.3271 70.7691C97.6275 69.9643 96.8831 68.7588 96.5594 67.7989C96.2683 66.9376 96.3168 66.2728 96.3168 66.2728C94.3639 65.2807 93.8592 63.3539 93.7724 61.9496C93.7341 61.3872 93.7599 60.8222 93.8494 60.2656L26.4971 60.9589L25.616 60.9683L25.081 60.9734L23.7424 60.9869L20.8262 61.0173L20.3897 61.0219L4.03015 61.19C0.830917 61.6219 0.875221 65.9053 0.875221 65.9053C0.925598 69.8214 3.49516 71.4783 3.49516 71.4783Z" fill="#F7FCF5"/>
<path id="Vector_7" d="M23.4042 71.5361L26.6757 71.5464L27.8451 71.5497H28.6054L98.3616 71.7612L99.3271 70.7681C97.6275 69.9633 96.8831 68.7606 96.5594 67.798C90.243 68.3306 54.8532 71.1949 39.9624 69.8297C31.4734 69.0506 27.4864 64.8418 25.6142 60.9668L25.0792 60.9724L23.74 60.9864L23.4042 71.5361Z" fill="url(#paint4_linear_3601_6369)"/>
<g id="Group">
<path id="Vector_8" d="M29.8145 64.5425C46.5761 60.4481 83.4627 61.5452 93.7726 61.9477C93.7343 61.3852 93.7601 60.8202 93.8496 60.2637L26.4973 60.957L25.6162 60.9663L25.0812 60.9714L23.7426 60.985L20.8264 61.0153L20.3899 61.02C18.3679 64.1443 18.2877 67.3591 29.8145 64.5425Z" fill="url(#paint5_linear_3601_6369)"/>
</g>
<path id="Vector_9" d="M23.1156 71.5361L26.6749 71.5468L27.8442 71.5501H28.6045C24.888 66.324 25.888 61.9747 26.4944 60.9551L25.0783 60.9695L20.8235 61.0134L20.8986 64.2918L23.1156 71.5361Z" fill="#8F6546"/>
<path id="Vector_10" d="M2.9775 71.0504C3.13771 71.207 3.31091 71.3498 3.49524 71.4771L26.6768 71.5467C25.5163 69.9299 24.8152 68.4654 24.4379 67.1581C23.6398 64.398 24.2784 62.328 25.0816 60.9727L4.0307 61.1897C0.831469 61.6216 0.875305 65.9051 0.875305 65.9051C0.910288 68.6918 2.22375 70.3352 2.9775 71.0504Z" fill="#C89048"/>
<path id="Vector_11" d="M0.872833 65.9032C0.910149 68.6927 2.22548 70.3384 2.97737 71.0513C3.33465 68.7506 5.01986 66.4961 9.63564 65.3598C16.9586 63.5563 21.8384 65.4919 24.4354 67.1581C23.6374 64.398 24.2759 62.328 25.0791 60.9727L4.02823 61.1897C0.828997 61.6216 0.872833 65.9032 0.872833 65.9032Z" fill="url(#paint6_linear_3601_6369)"/>
<path id="Vector_12" d="M6.49537 69.8694C6.79669 69.6798 6.96181 69.3274 6.86479 69.0823C6.76778 68.8372 6.445 68.7919 6.14415 68.9814C5.8433 69.171 5.67773 69.5234 5.77474 69.7686C5.87176 70.0137 6.19453 70.0589 6.49537 69.8694Z" fill="url(#paint7_linear_3601_6369)"/>
<path id="Vector_13" d="M12.6634 69.7981C12.9642 69.6086 13.1298 69.2561 13.0328 69.011C12.9358 68.7659 12.613 68.7206 12.3122 68.9101C12.0113 69.0997 11.8457 69.4522 11.9428 69.6977C12.0398 69.9433 12.3635 69.9876 12.6634 69.7981Z" fill="url(#paint8_linear_3601_6369)"/>
<path id="Vector_14" d="M10.0394 67.8313C10.3402 67.6418 10.5058 67.2893 10.4088 67.0442C10.3118 66.7991 9.989 66.7538 9.68768 66.9433C9.38637 67.1329 9.22125 67.4854 9.31826 67.7309C9.41528 67.9765 9.73805 68.0213 10.0394 67.8313Z" fill="url(#paint9_linear_3601_6369)"/>
<path id="Vector_15" d="M18.2698 69.3806C18.5707 69.1906 18.7363 68.8381 18.6392 68.593C18.5422 68.3479 18.2195 68.3026 17.9182 68.4922C17.6168 68.6817 17.4517 69.0342 17.5487 69.2798C17.6457 69.5253 17.9685 69.5673 18.2698 69.3806Z" fill="url(#paint10_linear_3601_6369)"/>
<path id="Vector_16" d="M15.6448 67.4118C15.9457 67.2223 16.1113 66.8694 16.0142 66.6242C15.9172 66.3791 15.5945 66.3339 15.2932 66.5234C14.9918 66.713 14.8267 67.0659 14.9237 67.311C15.0207 67.5561 15.3435 67.6014 15.6448 67.4118Z" fill="url(#paint11_linear_3601_6369)"/>
<path id="Vector_17" d="M105.686 64.2354C105.686 64.2354 105.705 66.5272 104.58 67.1341C103.897 67.501 103.161 67.7595 102.4 67.9002L100.777 67.7896L98.5347 69.3302L100.453 69.9372L101.759 70.4479L103.431 70.1897L105.672 67.4908C105.672 67.4908 106.545 66.0874 106.147 64.6327L105.686 64.2354Z" fill="url(#paint12_linear_3601_6369)"/>
<path id="Vector_18" d="M103.748 63.0329L102.732 65.4812L103.602 66.6245L104.571 67.3692L105.777 66.7076L106.394 65.1656L107.251 64.5899L107.832 63.8098L108.027 62.644L107.842 62.3854L107.062 62.2673L106.233 61.9629L105.344 62.434L105.077 62.9648L104.234 62.6375L103.748 63.0329Z" fill="url(#paint13_linear_3601_6369)"/>
<path id="Vector_19" d="M103.541 44.1846C104.5 43.9848 105.476 43.8405 106.411 43.5632C106.914 43.4143 107.103 43.5221 107.34 43.9502C108.708 46.4246 111.352 47.6053 114.13 47.0371C114.41 46.9797 114.74 46.7911 114.915 47.2561C115.078 47.6861 115.36 48.0143 114.836 48.4769C113.593 49.5727 113.274 51.2884 113.911 52.7898C114.546 54.2838 116.035 55.1951 117.681 55.0957C119.241 55.0023 120.631 53.9379 121.057 52.4345C121.203 51.919 121.257 51.3815 121.214 50.8472C121.177 50.4224 121.3 50.2473 121.648 50.0746C123.209 49.3 124.24 48.0918 124.537 46.3396C125.041 43.3685 122.771 40.5846 119.753 40.5038C119.177 40.4884 118.991 40.3274 118.829 39.7568C118.582 38.8875 118.154 38.0607 117.726 37.2568C117.546 36.9206 117.493 36.6891 117.655 36.338C119.363 32.6246 118.581 28.9181 115.573 26.1739C115.319 25.9405 115.161 25.4904 115.141 25.1305C114.894 20.7354 111.407 17.3954 107.035 17.4043C102.225 17.4141 98.4026 21.8918 99.1988 26.6482C99.3238 27.3919 99.1484 27.7421 98.5412 28.1553C95.5714 30.174 94.2034 33.8104 95.014 37.3306C95.8069 40.7746 98.6414 43.4217 102.171 43.989C102.611 44.0599 103.066 44.0464 103.513 44.0721L103.541 44.1846Z" fill="#A7A8AA"/>
<path id="Vector_20" d="M121.025 19.7024C124.468 19.6972 127.169 17.5828 127.971 14.3997C128.749 11.3184 127.279 7.99996 124.415 6.55362C123.743 6.21467 123.446 5.84398 123.345 5.0886C122.997 2.47416 121.285 0.632376 118.728 0.124894C116.806 -0.257001 115.071 0.236941 113.641 1.60625C113.293 1.93913 113.005 2.08479 112.531 1.91999C111.73 1.63987 110.917 1.67908 110.087 1.86443C109.785 1.93166 109.377 1.84155 109.107 1.67535C107.842 0.892419 106.554 0.813519 105.296 1.57918C103.959 2.39245 103.481 3.68007 103.77 5.18197C104.046 6.61291 104.977 7.47614 106.402 7.8431C106.716 7.92433 107.058 8.20305 107.23 8.48643C108.57 10.6956 110.978 11.4478 113.341 10.3833C113.532 10.2974 113.835 10.3483 114.044 10.4365C114.464 10.6125 114.398 10.9758 114.337 11.3553C113.898 14.0729 114.633 16.3881 116.78 18.1683C118.056 19.2229 119.534 19.7505 121.025 19.7024Z" fill="#A7A8AA"/>
<path id="Vector_21" d="M100.495 50.5118C100.495 51.988 101.505 53.0894 103.03 53.2126C103.458 53.2472 103.698 53.306 103.818 53.7953C104.01 54.5707 104.724 55.025 105.488 54.9918C106.251 54.9587 106.882 54.4484 107.091 53.6846C107.291 52.9558 106.998 52.1799 106.265 51.8083C105.826 51.5846 105.785 51.3297 105.858 50.903C106.121 49.3666 104.965 47.9151 103.416 47.7998C101.786 47.6761 100.492 48.8768 100.495 50.5118Z" fill="#A7A8AA"/>
<path id="Vector_22" d="M106.763 57.0816C107.261 57.0816 107.612 56.7352 107.596 56.2375C107.581 55.724 107.278 55.4616 106.799 55.4144C106.346 55.3701 105.925 55.7809 105.913 56.2352C105.899 56.702 106.278 57.0793 106.763 57.0816Z" fill="#A7A8AA"/>
</g>
</g>
</g>
<defs>
<linearGradient id="paint0_linear_3601_6369" x1="84.8035" y1="70.3168" x2="106.006" y2="63.3469" gradientUnits="userSpaceOnUse">
<stop stop-color="#EAEAEA"/>
<stop offset="0.51" stop-color="#CECECE"/>
<stop offset="1" stop-color="#84848A"/>
</linearGradient>
<linearGradient id="paint1_linear_3601_6369" x1="96.9043" y1="66.1649" x2="105.383" y2="63.3777" gradientUnits="userSpaceOnUse">
<stop stop-color="#EAEAEA"/>
<stop offset="0.51" stop-color="#CECECE"/>
<stop offset="1" stop-color="#84848A"/>
</linearGradient>
<linearGradient id="paint2_linear_3601_6369" x1="100.512" y1="68.6167" x2="94.3065" y2="67.247" gradientUnits="userSpaceOnUse">
<stop stop-color="#EAEAEA"/>
<stop offset="0.51" stop-color="#CECECE"/>
<stop offset="1" stop-color="#84848A"/>
</linearGradient>
<linearGradient id="paint3_linear_3601_6369" x1="97.1567" y1="65.1648" x2="93.8406" y2="67.1499" gradientUnits="userSpaceOnUse">
<stop stop-color="#494949"/>
<stop offset="1" stop-color="#84848A"/>
</linearGradient>
<linearGradient id="paint4_linear_3601_6369" x1="56.6614" y1="51.0409" x2="73.5459" y2="123.16" gradientUnits="userSpaceOnUse">
<stop stop-color="#EAEAEA"/>
<stop offset="0.51" stop-color="#CECECE"/>
<stop offset="1" stop-color="#84848A"/>
</linearGradient>
<linearGradient id="paint5_linear_3601_6369" x1="88.5782" y1="61.7896" x2="1.04778" y2="63.7837" gradientUnits="userSpaceOnUse">
<stop stop-color="#EAEAEA"/>
<stop offset="0.51" stop-color="#CECECE"/>
<stop offset="1" stop-color="#84848A"/>
</linearGradient>
<linearGradient id="paint6_linear_3601_6369" x1="24.3058" y1="59.3421" x2="1.93372" y2="69.8645" gradientUnits="userSpaceOnUse">
<stop stop-color="#DDAA72"/>
<stop offset="1" stop-color="#C89048"/>
</linearGradient>
<linearGradient id="paint7_linear_3601_6369" x1="5.79658" y1="70.2186" x2="6.75441" y2="68.8113" gradientUnits="userSpaceOnUse">
<stop stop-color="#DDAA72"/>
<stop offset="1" stop-color="#C89048"/>
</linearGradient>
<linearGradient id="paint8_linear_3601_6369" x1="11.9639" y1="70.1471" x2="12.9217" y2="68.7398" gradientUnits="userSpaceOnUse">
<stop stop-color="#DDAA72"/>
<stop offset="1" stop-color="#C89048"/>
</linearGradient>
<linearGradient id="paint9_linear_3601_6369" x1="9.34023" y1="68.1807" x2="10.2981" y2="66.7734" gradientUnits="userSpaceOnUse">
<stop stop-color="#DDAA72"/>
<stop offset="1" stop-color="#C89048"/>
</linearGradient>
<linearGradient id="paint10_linear_3601_6369" x1="17.57" y1="69.7274" x2="18.5283" y2="68.3199" gradientUnits="userSpaceOnUse">
<stop stop-color="#DDAA72"/>
<stop offset="1" stop-color="#C89048"/>
</linearGradient>
<linearGradient id="paint11_linear_3601_6369" x1="14.9454" y1="67.761" x2="15.9032" y2="66.3536" gradientUnits="userSpaceOnUse">
<stop stop-color="#DDAA72"/>
<stop offset="1" stop-color="#C89048"/>
</linearGradient>
<linearGradient id="paint12_linear_3601_6369" x1="106.853" y1="65.8288" x2="99.1776" y2="70.4238" gradientUnits="userSpaceOnUse">
<stop stop-color="#494949"/>
<stop offset="1" stop-color="#84848A"/>
</linearGradient>
<linearGradient id="paint13_linear_3601_6369" x1="111.264" y1="59.2004" x2="99.2698" y2="69.6174" gradientUnits="userSpaceOnUse">
<stop stop-color="#871515"/>
<stop offset="0.61" stop-color="#494949"/>
<stop offset="1" stop-color="#84848A"/>
</linearGradient>
</defs>
</svg>
