<svg width="30" height="29" viewBox="0 0 30 29" fill="none" xmlns="http://www.w3.org/2000/svg">
<path d="M0.358524 14.1168C0.358524 9.79228 0.358524 5.46805 0.358524 1.14417C0.358524 0.475415 0.804858 0.0346235 1.42349 0.10624C1.58858 0.133435 1.74734 0.190515 1.89199 0.274688C3.57559 1.1825 5.25515 2.09032 6.94076 2.98703C7.09625 3.06876 7.26892 3.11232 7.44453 3.11413C12.2807 3.12085 17.1132 3.12085 21.942 3.11413C22.1176 3.11267 22.2904 3.06909 22.4458 2.98703C24.1475 2.07922 25.8432 1.15931 27.5439 0.247458C28.1776 -0.0914592 28.8537 0.1829 29.0018 0.837534C29.0231 0.947472 29.0319 1.05948 29.028 1.17141C29.028 9.80169 29.028 18.4316 29.028 27.0612C29.028 27.961 28.3096 28.3917 27.5167 27.969C26.9978 27.6937 26.486 27.4052 25.9641 27.1369C25.8335 27.0689 25.689 27.032 25.5419 27.029C18.3118 27.0242 11.0814 27.0242 3.85065 27.029C3.70376 27.0332 3.55974 27.0708 3.4295 27.1389C2.89953 27.4113 2.37863 27.7038 1.85169 27.9822C1.091 28.3856 0.365583 27.9479 0.364575 27.0885C0.359873 22.7653 0.357852 18.4414 0.358524 14.1168ZM21.8372 24.1441V4.09557H16.1164C16.126 4.28643 16.126 4.47765 16.1164 4.6685C16.0875 5.02815 15.9239 5.36357 15.6584 5.60756C15.3929 5.85154 15.0451 5.98606 14.6847 5.98414C14.3244 5.98223 13.978 5.84403 13.7151 5.59724C13.4522 5.35045 13.2922 5.01331 13.2671 4.65338C13.25 4.47182 13.2671 4.28723 13.2671 4.09255H7.54427V24.131H13.258C13.258 23.9858 13.258 23.8647 13.258 23.7437C13.2772 22.8752 13.8887 22.2407 14.7018 22.2448C15.5149 22.2488 16.1124 22.8752 16.1315 23.7306C16.1315 23.8657 16.1315 24.0009 16.1315 24.1441H21.8372ZM1.33785 1.05945V27.1712C3.05771 26.2442 4.74736 25.3344 6.43499 24.4195C6.46608 24.4039 6.49354 24.3819 6.51558 24.355C6.53763 24.328 6.55376 24.2967 6.56293 24.2632C6.57603 24.018 6.56899 23.7729 6.56899 23.4986C6.45614 23.546 6.38762 23.5712 6.32213 23.5994C5.24742 24.1139 4.17272 24.628 3.09801 25.1417C2.57913 25.3888 2.27183 25.1861 2.26982 24.6031V3.64671C2.26982 3.02637 2.57208 2.8317 3.12623 3.09698C4.11764 3.57106 5.10906 4.04615 6.10048 4.52224C6.24758 4.59285 6.39669 4.65741 6.55084 4.72398C6.55942 4.69546 6.56649 4.66651 6.57201 4.63724C6.60224 3.89182 6.60223 3.89283 5.94834 3.53979L1.33785 1.05945ZM22.8105 4.73609C22.9485 4.67557 23.0493 4.63522 23.148 4.5868C24.1989 4.08246 25.2487 3.57812 26.3006 3.08084C26.7892 2.84784 27.1137 3.04856 27.1137 3.58518C27.1137 10.6076 27.1137 17.6297 27.1137 24.6515C27.1137 25.1881 26.7882 25.3868 26.2996 25.1558C25.7021 24.8714 25.1067 24.5829 24.5102 24.2975L22.8105 23.4905C22.8229 23.6601 22.8229 23.8303 22.8105 23.9999C22.7662 24.2773 22.8961 24.4034 23.1289 24.5315C24.7006 25.3656 26.2653 26.216 27.8321 27.0602C27.9016 27.0975 27.9771 27.1238 28.0537 27.1611V1.09576C28.0255 1.09576 28.0154 1.0887 28.0084 1.09576C26.3177 2.00357 24.6277 2.9134 22.9384 3.82525C22.9086 3.8422 22.8826 3.86538 22.8625 3.89322C22.8423 3.92107 22.8284 3.95292 22.8216 3.98664C22.8034 4.22267 22.8105 4.46173 22.8105 4.73609ZM5.46069 26.0384H23.9278C23.3445 25.7237 22.8296 25.4423 22.3087 25.171C22.216 25.1297 22.115 25.1103 22.0135 25.1145C17.1357 25.1145 12.2575 25.1145 7.37905 25.1145C7.28674 25.1073 7.194 25.1215 7.10802 25.1558C6.58107 25.4302 6.05816 25.7167 5.46069 26.0384ZM3.23505 13.6125H6.54077C6.55169 13.5893 6.55981 13.5649 6.56495 13.5399C6.56495 12.3839 6.56495 11.227 6.57502 10.071C6.57502 9.8844 6.46722 9.8612 6.34027 9.82488C5.38446 9.54851 4.42864 9.27213 3.47283 8.99575C3.39827 8.97457 3.32069 8.96751 3.23505 8.95238V13.6125ZM3.23505 19.2722C3.2846 19.2742 3.33422 19.2712 3.38315 19.2631C4.39069 18.9706 5.39823 18.672 6.40577 18.3866C6.57302 18.3392 6.56394 18.2363 6.56394 18.1122C6.56394 17.0592 6.56394 16.0054 6.56394 14.951V14.6141H3.23101L3.23505 19.2722ZM22.8085 13.6175H26.1404V8.96852C26.1105 8.96082 26.0795 8.95809 26.0487 8.96044C25.013 9.26305 23.9762 9.55557 22.9415 9.86221C22.9079 9.87848 22.8788 9.9027 22.8567 9.93275C22.8346 9.9628 22.8201 9.99779 22.8145 10.0347C22.8085 11.2179 22.8105 12.4011 22.8105 13.6175H22.8085ZM22.8327 14.6141C22.8219 14.6517 22.8145 14.6902 22.8105 14.7291C22.8105 15.876 22.8105 17.0228 22.8044 18.1697C22.8044 18.3402 22.8991 18.3624 23.0221 18.3977C23.9873 18.6754 24.9518 18.9548 25.9157 19.2359C25.9842 19.2561 26.0568 19.2651 26.1404 19.2823V14.6141H22.8327ZM26.1575 4.25394C26.1189 4.25373 26.0803 4.25814 26.0427 4.26705C25.0089 4.75929 23.9742 5.25052 22.9445 5.75385C22.9069 5.78115 22.8757 5.8165 22.8534 5.85732C22.8311 5.89814 22.8182 5.94343 22.8155 5.98988C22.8024 6.40041 22.8095 6.81095 22.8095 7.22249V8.89892C23.9077 8.57916 24.9706 8.27152 26.0336 7.95378C26.0665 7.93652 26.0948 7.91155 26.1161 7.88099C26.1373 7.85043 26.1508 7.8152 26.1555 7.77827C26.1606 6.61123 26.1585 5.44519 26.1585 4.25394H26.1575ZM26.1233 23.9817C26.1394 23.9484 26.1525 23.9323 26.1525 23.9162C26.1525 22.7683 26.1595 21.6204 26.1525 20.4725C26.1413 20.4248 26.1191 20.3804 26.0876 20.3429C26.0561 20.3054 26.0162 20.2758 25.9711 20.2567C25.6558 20.1457 25.3303 20.062 25.0089 19.9692L22.8125 19.3368C22.8125 20.3394 22.8125 21.3097 22.8206 22.2791C22.8324 22.3287 22.8551 22.375 22.887 22.4148C22.9188 22.4546 22.9591 22.4867 23.0049 22.5091C23.9762 22.9831 24.9515 23.4461 25.9268 23.9111C25.9912 23.9385 26.0571 23.962 26.1243 23.9817H26.1233ZM3.26224 4.24789C3.24411 4.27916 3.22799 4.29428 3.22799 4.3084C3.22799 5.46637 3.22094 6.62837 3.22799 7.78129C3.22799 7.84686 3.32874 7.94471 3.40431 7.96992C3.72974 8.07987 4.06324 8.17166 4.39372 8.26648L6.54883 8.88681C6.55725 8.84448 6.56331 8.80171 6.56697 8.75871C6.56697 7.83375 6.57302 6.9098 6.55992 5.98584C6.55117 5.93174 6.53042 5.88029 6.49921 5.83525C6.46801 5.79022 6.42712 5.75276 6.37957 5.72561C5.41032 5.24951 4.43401 4.78552 3.45771 4.3195C3.39726 4.28924 3.33075 4.27109 3.26224 4.24789ZM3.23606 23.9737C3.26707 23.9789 3.29874 23.9789 3.32975 23.9737C4.37222 23.476 5.41334 22.9764 6.45312 22.4748C6.48293 22.4573 6.50846 22.4334 6.52782 22.4048C6.54718 22.3761 6.55986 22.3435 6.56495 22.3093C6.571 21.3309 6.56495 20.3525 6.56495 19.3408L3.23202 20.3091L3.23606 23.9737ZM15.1653 24.1482C15.1492 23.8264 15.266 23.5016 14.9426 23.2857C14.8628 23.2258 14.7644 23.1959 14.6648 23.2012C14.5651 23.2066 14.4705 23.2468 14.3975 23.315C14.1255 23.545 14.2242 23.8506 14.2222 24.1482H15.1653ZM14.2122 4.09255C14.2384 4.40423 14.1114 4.73004 14.4368 4.94791C14.5127 5.00464 14.6053 5.03444 14.7 5.03261C14.7947 5.03079 14.8861 4.99744 14.9598 4.93783C15.262 4.71087 15.1482 4.39213 15.1613 4.09255H14.2122Z" fill="#667580"/>
<path d="M13.2561 9.99612C13.2128 11.6675 13.1553 13.3359 12.7362 14.9669C12.4108 16.2459 11.8748 17.4089 10.8692 18.3087C10.3677 18.755 9.78662 19.1027 9.15643 19.3335C9.09893 19.3596 9.03674 19.3738 8.97362 19.3752C8.9105 19.3766 8.84774 19.3653 8.78911 19.3418C8.73048 19.3184 8.6772 19.2833 8.63245 19.2387C8.58771 19.1941 8.55243 19.1409 8.52874 19.0823C8.50089 19.0251 8.4855 18.9625 8.4836 18.8988C8.4817 18.8352 8.49332 18.7718 8.5177 18.713C8.54209 18.6542 8.57867 18.6012 8.62504 18.5576C8.6714 18.5139 8.72649 18.4807 8.78666 18.46C10.7675 17.6974 11.5715 16.0734 11.9523 14.1428C12.2455 12.653 12.2889 11.141 12.2979 9.62896C12.2979 9.0873 12.2979 8.54564 12.305 8.00498C12.305 7.63076 12.4974 7.41894 12.8027 7.42801C13.108 7.43709 13.2591 7.63883 13.2601 8.00801C13.2581 8.67071 13.2561 9.33342 13.2561 9.99612Z" fill="#667580"/>
<path d="M16.5894 7.43177C16.8917 7.42572 17.0781 7.63351 17.0821 8.01378C17.0902 8.82073 17.0821 9.63876 17.0992 10.4497C17.1395 12.0092 17.2131 13.5656 17.6614 15.0746C18.0423 16.3566 18.6952 17.448 19.9002 18.1268C20.0936 18.2368 20.3032 18.3286 20.5047 18.4193C20.8503 18.5757 20.9803 18.8228 20.8573 19.0921C20.7344 19.3614 20.4775 19.4361 20.1239 19.2939C18.4554 18.6322 17.4378 17.3774 16.8685 15.7151C16.4504 14.4956 16.272 13.2307 16.2146 11.9527C16.1552 10.6414 16.1511 9.32204 16.129 8.00672C16.1249 7.63351 16.2952 7.43177 16.5894 7.43177Z" fill="#667580"/>
<path d="M14.2104 11.9303C14.2104 10.66 14.2104 9.39007 14.2104 8.12047C14.205 7.99925 14.2155 7.87785 14.2416 7.75936C14.2714 7.66383 14.3308 7.58031 14.4114 7.52099C14.492 7.46168 14.5894 7.42969 14.6894 7.42969C14.7894 7.42969 14.8868 7.46168 14.9674 7.52099C15.0479 7.58031 15.1074 7.66383 15.1371 7.75936C15.1637 7.86822 15.1745 7.9803 15.1694 8.09223C15.1694 10.6697 15.1694 13.2469 15.1694 15.8238C15.1694 15.8611 15.1694 15.8984 15.1694 15.9357C15.1573 16.2908 14.9748 16.5077 14.6894 16.5087C14.404 16.5097 14.2114 16.2918 14.2104 15.9367C14.2104 14.8907 14.2104 13.8457 14.2104 12.7997C14.2104 12.5092 14.2104 12.2197 14.2104 11.9303Z" fill="#667580"/>
</svg>
