<svg width="35" height="35" viewBox="0 0 35 35" fill="none" xmlns="http://www.w3.org/2000/svg">
<path d="M22.4334 33.6513V34.7614H21.2898V33.6552H13.2334V34.7666H12.0896V33.6279C11.6226 33.6279 11.1956 33.6279 10.7687 33.6279C10.1127 33.6279 9.77766 33.2869 9.77637 32.6232C9.77637 24.1155 9.77637 15.6079 9.77637 7.10026C9.77637 6.34285 10.2576 5.86133 11.0145 5.86133C15.1719 5.86133 19.3288 5.86133 23.4853 5.86133C24.2448 5.86133 24.7273 6.33895 24.7286 7.09636C24.7286 15.6153 24.7286 24.1346 24.7286 32.6544C24.7286 33.2895 24.3832 33.6226 23.7402 33.6292C23.3456 33.6292 22.9497 33.6292 22.5551 33.6292C22.5142 33.6344 22.4736 33.6418 22.4334 33.6513ZM23.5552 32.4514V7.0456H10.9459V32.4514H23.5552Z" fill="#667580"/>
<path d="M3.34842 22.0826C2.83091 22.0527 2.31341 22.0826 1.81401 21.985C1.34695 21.8935 0.92085 21.6551 0.597171 21.3043C0.273493 20.9534 0.0689476 20.5083 0.0130414 20.0329C-0.0438114 19.564 0.0431485 19.0888 0.262259 18.671C0.48137 18.2531 0.822187 17.9126 1.23904 17.6951C1.6559 17.4775 2.12889 17.3932 2.59467 17.4536C3.06046 17.5139 3.49681 17.716 3.84525 18.0327C4.19975 18.3528 4.25796 18.6938 4.00438 18.9723C3.7508 19.2508 3.44805 19.2235 3.09873 18.915C2.66273 18.535 2.12969 18.4856 1.67557 18.7849C1.46707 18.9232 1.30907 19.1261 1.22546 19.3628C1.14185 19.5995 1.13721 19.8572 1.21222 20.0968C1.28724 20.3364 1.43783 20.5449 1.6412 20.6907C1.84457 20.8365 2.08964 20.9117 2.3393 20.9049C3.05735 20.9114 3.77538 20.9049 4.49344 20.9049C4.9165 20.9049 5.17268 21.1287 5.17526 21.4788C5.17785 21.8289 4.91651 22.0566 4.50121 22.0618C4.11307 22.0618 3.73527 22.0618 3.35231 22.0618L3.34842 22.0826Z" fill="#667580"/>
<path d="M31.1475 22.0575C30.7529 22.0575 30.3583 22.064 29.9637 22.0575C29.5691 22.0509 29.3271 21.805 29.3362 21.464C29.3452 21.1231 29.5872 20.9083 29.9572 20.9044C30.6753 20.8953 31.3933 20.9044 32.1113 20.9044C32.7285 20.9044 33.1464 20.6038 33.3068 20.0663C33.3777 19.8283 33.3691 19.5735 33.2824 19.3409C33.1958 19.1082 33.0357 18.9105 32.8268 18.7779C32.3636 18.4799 31.8513 18.5411 31.3817 18.9497C31.0595 19.2295 30.7348 19.236 30.4967 18.9666C30.2586 18.6973 30.3065 18.381 30.6261 18.0778C30.8939 17.8198 31.2198 17.6309 31.576 17.527C31.9321 17.4231 32.308 17.4075 32.6715 17.4814C33.035 17.5552 33.3753 17.7165 33.6634 17.9513C33.9515 18.1861 34.1789 18.4875 34.3262 18.8299C34.4734 19.1722 34.5361 19.5453 34.509 19.9173C34.4819 20.2893 34.3657 20.6492 34.1704 20.9663C33.975 21.2833 33.7064 21.5482 33.3873 21.7382C33.0681 21.9282 32.7081 22.0377 32.3378 22.0575C31.9496 22.0744 31.5486 22.0575 31.154 22.0575H31.1475Z" fill="#667580"/>
<path d="M31.7078 25.499C32.0545 25.5134 32.4001 25.5477 32.7428 25.6018C33.2074 25.7082 33.627 25.9586 33.9425 26.3177C34.2579 26.6768 34.4533 27.1266 34.5011 27.6034C34.5488 28.0768 34.4503 28.5534 34.219 28.9685C33.9878 29.3836 33.635 29.7169 33.2087 29.9231C32.7824 30.1294 32.3033 30.1985 31.8366 30.121C31.3699 30.0436 30.9382 29.8234 30.6003 29.4904C30.2989 29.1898 30.264 28.8566 30.5072 28.6002C30.7504 28.3439 31.0687 28.3634 31.3934 28.6497C31.8398 29.0401 32.3508 29.1065 32.8166 28.8241C33.0279 28.6947 33.1916 28.4996 33.2829 28.2683C33.3741 28.0371 33.388 27.7822 33.3225 27.5422C33.1685 27.0008 32.7454 26.6924 32.1386 26.6859C31.7919 26.6859 31.4439 26.6937 31.1036 26.6859C30.7633 26.6781 30.4981 26.4347 30.5007 26.1055C30.5033 25.7762 30.7426 25.5485 31.1114 25.5329C31.3145 25.5251 31.5189 25.5329 31.722 25.5329L31.7078 25.499Z" fill="#667580"/>
<path d="M2.43976 30.1515C1.06965 30.1593 0.0294623 29.1508 0.000999003 27.9092C-0.0168522 27.3 0.205134 26.7083 0.618706 26.2628C1.03228 25.8173 1.604 25.554 2.2095 25.5303C2.6054 25.516 3.00129 25.5186 3.39589 25.5303C3.79049 25.542 4.03374 25.7906 4.02209 26.1237C4.01045 26.4569 3.76333 26.6742 3.39718 26.6833C3.03104 26.6924 2.67783 26.6833 2.31816 26.6833C2.06776 26.6796 1.82304 26.7583 1.62129 26.9076C1.41955 27.0568 1.27185 27.2683 1.20075 27.5098C1.12965 27.7513 1.13905 28.0096 1.2275 28.2453C1.31596 28.4809 1.47864 28.681 1.69069 28.815C2.13963 29.0961 2.65971 29.0441 3.08536 28.6771C3.12159 28.6458 3.15265 28.6081 3.19017 28.5782C3.46445 28.3595 3.77625 28.3699 3.99749 28.6042C4.05116 28.6578 4.09339 28.7218 4.12156 28.7924C4.14973 28.863 4.16327 28.9387 4.16133 29.0147C4.15939 29.0908 4.14201 29.1656 4.11028 29.2346C4.07855 29.3037 4.03313 29.3655 3.9768 29.4163C3.58122 29.8561 3.02858 30.1204 2.43976 30.1515Z" fill="#667580"/>
<path d="M28.4577 24.3724C27.8251 24.3724 27.1911 24.3724 26.5585 24.3724C26.1354 24.3724 25.8805 24.1473 25.8779 23.7972C25.8754 23.4471 26.1367 23.2181 26.5507 23.2168C27.829 23.2168 29.1076 23.2168 30.3868 23.2168C30.7995 23.2168 31.0583 23.4576 31.0492 23.8076C31.0401 24.1577 30.7904 24.3685 30.3932 24.3711C29.7515 24.3763 29.1046 24.3724 28.4577 24.3724Z" fill="#667580"/>
<path d="M6.03789 23.2143C6.67055 23.2143 7.30449 23.2143 7.93715 23.2143C8.36152 23.2143 8.61769 23.4355 8.62157 23.7843C8.62545 24.1331 8.36929 24.3699 7.95269 24.3712C6.67443 24.3712 5.39576 24.3712 4.11663 24.3712C3.70133 24.3712 3.44385 24.1344 3.45031 23.783C3.45678 23.4316 3.70908 23.2182 4.13732 23.2156C4.77128 23.2104 5.40393 23.2143 6.03789 23.2143Z" fill="#667580"/>
<path d="M27.6025 26.6856C27.2442 26.6856 26.8858 26.6856 26.5287 26.6856C26.1341 26.6778 25.8818 26.4539 25.8818 26.1156C25.8818 25.7772 26.1251 25.5352 26.5132 25.5312C27.242 25.5234 27.97 25.5234 28.6971 25.5312C29.0852 25.5312 29.3336 25.7772 29.3272 26.1169C29.3207 26.4565 29.0684 26.6778 28.6803 26.6856C28.318 26.6908 27.9609 26.6856 27.6025 26.6856Z" fill="#667580"/>
<path d="M6.90496 25.5269C7.27498 25.5269 7.64501 25.5191 8.01504 25.5269C8.38506 25.5347 8.62182 25.7716 8.6244 26.0969C8.62595 26.1755 8.61134 26.2536 8.58151 26.3263C8.55168 26.3989 8.50728 26.4646 8.45106 26.5192C8.39483 26.5738 8.32799 26.6162 8.25475 26.6436C8.1815 26.671 8.10343 26.683 8.0254 26.6786C7.27371 26.6878 6.52203 26.6891 5.77034 26.6786C5.69234 26.6825 5.6144 26.67 5.54146 26.6419C5.46852 26.6139 5.40215 26.5709 5.34657 26.5158C5.29099 26.4606 5.24742 26.3944 5.21858 26.3214C5.18975 26.2484 5.17629 26.1702 5.17907 26.0917C5.18683 25.7651 5.42748 25.5373 5.79621 25.5282C6.16494 25.5191 6.53494 25.5269 6.90496 25.5269Z" fill="#667580"/>
<path d="M16.7031 1.82422H17.8106V4.67296H16.7031V1.82422Z" fill="#667580"/>
<path d="M33.0765 24.3698C32.7906 24.3698 32.5033 24.3789 32.2187 24.3698C32.0675 24.373 31.9212 24.3157 31.8118 24.2106C31.7025 24.1055 31.6389 23.961 31.6352 23.8089C31.6321 23.7305 31.6452 23.6522 31.6737 23.5791C31.7022 23.5059 31.7455 23.4396 31.8009 23.3841C31.8562 23.3287 31.9224 23.2855 31.9952 23.2571C32.068 23.2288 32.1459 23.2159 32.2239 23.2194C32.7837 23.2081 33.3443 23.2081 33.9058 23.2194C33.9836 23.2149 34.0615 23.2266 34.1346 23.2537C34.2078 23.2808 34.2746 23.3228 34.3309 23.377C34.3872 23.4312 34.4318 23.4965 34.462 23.5688C34.4921 23.6411 34.5071 23.7188 34.5061 23.7972C34.5061 24.1239 34.2642 24.3581 33.8993 24.3724C33.6264 24.3776 33.3508 24.3698 33.0765 24.3698Z" fill="#667580"/>
<path d="M1.44022 24.3711C1.16594 24.3711 0.891675 24.3789 0.617393 24.3711C0.251252 24.3581 0.0106089 24.1291 0.00413997 23.8037C0.00189661 23.7253 0.0158234 23.6472 0.0450446 23.5744C0.0742657 23.5016 0.118136 23.4357 0.173918 23.3808C0.229699 23.3259 0.296173 23.2833 0.369154 23.2555C0.442135 23.2277 0.520035 23.2154 0.597967 23.2194C1.15775 23.2081 1.71839 23.2081 2.27989 23.2194C2.35781 23.2152 2.43575 23.2274 2.5088 23.255C2.58184 23.2826 2.64841 23.3251 2.70432 23.3799C2.76022 23.4347 2.80425 23.5005 2.83363 23.5732C2.86301 23.6459 2.87712 23.724 2.87504 23.8024C2.87504 24.1278 2.62923 24.3581 2.26308 24.3711C1.9888 24.3789 1.71451 24.3711 1.44022 24.3711Z" fill="#667580"/>
<path d="M20.1082 4.69411H19.0098V2.41406H20.1082V4.69411Z" fill="#667580"/>
<path d="M15.5027 2.3725H14.3965V0.101562H15.5027V2.3725Z" fill="#667580"/>
<path d="M26.9944 22.0547C26.8042 22.0547 26.6127 22.0677 26.4225 22.0547C26.276 22.046 26.1384 21.9807 26.0384 21.8726C25.9385 21.7644 25.8838 21.6217 25.8858 21.474C25.8878 21.3263 25.9463 21.1851 26.0492 21.0798C26.152 20.9744 26.2913 20.9129 26.438 20.9082C26.8262 20.8926 27.2247 20.8926 27.618 20.9082C27.6928 20.9085 27.7668 20.9239 27.8357 20.9534C27.9046 20.9829 27.9669 21.026 28.0189 21.08C28.071 21.1341 28.1118 21.1981 28.1389 21.2683C28.1661 21.3385 28.179 21.4134 28.1769 21.4886C28.1755 21.6406 28.1143 21.7858 28.0066 21.8925C27.8989 21.9991 27.7535 22.0584 27.6024 22.0573C27.4006 22.069 27.1975 22.0573 26.9944 22.0573V22.0547Z" fill="#667580"/>
<path d="M7.47273 20.9011C7.66421 20.9011 7.86086 20.892 8.04457 20.9011C8.19558 20.8997 8.341 20.9585 8.4491 21.0645C8.55721 21.1706 8.61921 21.3153 8.6216 21.4672C8.62402 21.5426 8.6114 21.6177 8.58452 21.6881C8.55763 21.7584 8.51703 21.8227 8.46505 21.877C8.41308 21.9314 8.3508 21.9747 8.28192 22.0044C8.21304 22.0342 8.13896 22.0498 8.064 22.0502C7.67586 22.0672 7.27737 22.0672 6.88535 22.0502C6.81039 22.0499 6.73625 22.0345 6.66731 22.0049C6.59836 21.9753 6.53601 21.9322 6.48391 21.878C6.43182 21.8237 6.39106 21.7596 6.36401 21.6893C6.33696 21.6189 6.32418 21.5439 6.32642 21.4685C6.32813 21.3168 6.38953 21.1719 6.49718 21.0655C6.60484 20.9592 6.74998 20.9001 6.90086 20.9011C7.09104 20.8907 7.28255 20.9011 7.47273 20.9011Z" fill="#667580"/>
<path d="M14.3887 4.67324V3.57227H15.5078V4.67324H14.3887Z" fill="#667580"/>
<path d="M20.1108 1.22531H19.0098V0.0996094H20.1108V1.22531Z" fill="#667580"/>
<path d="M19.5518 11.6586C19.5487 12.1158 19.4111 12.5618 19.1563 12.9404C18.9014 13.3189 18.5408 13.6131 18.1199 13.7857C17.699 13.9582 17.2367 14.0015 16.7913 13.9101C16.346 13.8186 15.9376 13.5965 15.6176 13.2718C15.2977 12.947 15.0805 12.5342 14.9936 12.0855C14.9067 11.6367 14.9539 11.1721 15.1293 10.7503C15.3046 10.3285 15.6002 9.96842 15.9789 9.71547C16.3575 9.46253 16.8021 9.32809 17.2566 9.32911C17.5595 9.3303 17.8591 9.39152 18.1384 9.50926C18.4176 9.62701 18.6711 9.79898 18.8843 10.0153C19.0974 10.2317 19.2661 10.4882 19.3807 10.7701C19.4952 11.0521 19.5534 11.354 19.5518 11.6586ZM17.2476 10.4874C17.0202 10.4881 16.7982 10.5569 16.6097 10.6848C16.4212 10.8128 16.2747 10.9942 16.1889 11.206C16.103 11.4178 16.0817 11.6505 16.1276 11.8746C16.1735 12.0986 16.2845 12.3039 16.4465 12.4644C16.6086 12.6248 16.8144 12.7332 17.0379 12.7758C17.2613 12.8184 17.4923 12.7933 17.7015 12.7036C17.9107 12.6139 18.0887 12.4637 18.2129 12.2721C18.3371 12.0805 18.4019 11.8561 18.3991 11.6274C18.393 11.324 18.2691 11.0351 18.0539 10.8225C17.8386 10.61 17.5492 10.4906 17.2476 10.4899V10.4874Z" fill="#667580"/>
<path d="M22.4121 19.7695V20.8809H21.293V19.7695H22.4121Z" fill="#667580"/>
<path d="M20.1081 20.8822H18.998V19.7695H20.1081V20.8822Z" fill="#667580"/>
<path d="M17.8132 19.7617V20.8757H16.6992V19.7617H17.8132Z" fill="#667580"/>
<path d="M13.2038 23.1986H12.0977V22.082H13.2038V23.1986Z" fill="#667580"/>
<path d="M14.4043 22.0742H15.513V23.1882H14.4043V22.0742Z" fill="#667580"/>
<path d="M15.5143 19.7617V20.8757H14.4004V19.7617H15.5143Z" fill="#667580"/>
<path d="M20.1082 23.2064H19.0098V22.082H20.1082V23.2064Z" fill="#667580"/>
<path d="M22.4186 22.0742V23.1921H21.3008V22.0742H22.4186Z" fill="#667580"/>
<path d="M13.2091 20.8822H12.1055V19.7656H13.2091V20.8822Z" fill="#667580"/>
<path d="M21.293 17.4443H22.4005V18.5687H21.293V17.4443Z" fill="#667580"/>
<path d="M19.002 17.4453H20.112V18.558H19.002V17.4453Z" fill="#667580"/>
<path d="M16.6875 18.5606V17.4492H17.8079V18.5606H16.6875Z" fill="#667580"/>
<path d="M12.0938 25.5085V24.3945H13.2077V25.5085H12.0938Z" fill="#667580"/>
<path d="M14.3926 25.502V24.3906H15.513V25.502H14.3926Z" fill="#667580"/>
<path d="M17.8055 25.5209H16.707V24.3965H17.8055V25.5209Z" fill="#667580"/>
<path d="M20.1146 24.3906V25.5033H19.002V24.3906H20.1146Z" fill="#667580"/>
<path d="M22.4122 25.5131H21.3047V24.3926H22.4122V25.5131Z" fill="#667580"/>
<path d="M14.3887 18.5567V17.457H15.5078V18.5567H14.3887Z" fill="#667580"/>
<path d="M12.0938 18.5697V17.4531H13.2012V18.5697H12.0938Z" fill="#667580"/>
<path d="M13.1987 27.8298H12.0977V26.7041H13.1987V27.8298Z" fill="#667580"/>
<path d="M15.5131 27.8259H14.4082V26.708H15.5131V27.8259Z" fill="#667580"/>
<path d="M17.8016 27.835H16.707V26.708H17.8016V27.835Z" fill="#667580"/>
<path d="M19.0098 26.6973H20.1121V27.8243H19.0098V26.6973Z" fill="#667580"/>
<path d="M22.4083 27.8353H21.3086V26.7109H22.4083V27.8353Z" fill="#667580"/>
<path d="M12.1055 29.0117H13.2065V30.1374H12.1055V29.0117Z" fill="#667580"/>
<path d="M14.4082 29.0059H15.5028V30.1316H14.4082V29.0059Z" fill="#667580"/>
<path d="M16.6875 30.1296V29.0195H17.8079V30.1296H16.6875Z" fill="#667580"/>
<path d="M20.1172 29.0273V30.1348H18.998V29.0273H20.1172Z" fill="#667580"/>
<path d="M22.4096 30.1394H21.3047V29.0215H22.4096V30.1394Z" fill="#667580"/>
<path d="M17.8093 23.1973H16.7031V22.082H17.8093V23.1973Z" fill="#667580"/>
</svg>
