<svg width="28" height="30" viewBox="0 0 28 30" fill="none" xmlns="http://www.w3.org/2000/svg">
<g id="mask">
<path id="wear mask" d="M16.8656 20.2578C16.402 20.0594 16.0006 19.8818 15.594 19.7198C15.5097 19.6896 15.4172 19.6924 15.335 19.7276C14.318 20.2098 13.305 20.6981 12.2958 21.1925C12.2231 21.2321 12.1609 21.2885 12.1145 21.3571C11.3125 22.4919 10.5114 23.6302 9.71109 24.7719C9.68519 24.8095 9.66706 24.8535 9.6308 24.9222C9.88979 24.9754 10.1371 25.0117 10.3754 25.0752C10.7119 25.147 11.0201 25.3157 11.2622 25.5605C11.5042 25.8053 11.6695 26.1157 11.7377 26.4533C11.8879 27.0704 12.051 27.6836 12.2051 28.2994C12.2919 28.6455 12.1443 28.9476 11.8542 29.0189C11.7788 29.0404 11.6999 29.0463 11.6222 29.0363C11.5444 29.0263 11.4695 29.0006 11.4021 28.9607C11.3346 28.9208 11.2759 28.8676 11.2297 28.8042C11.1834 28.7409 11.1505 28.6688 11.1329 28.5924C10.9659 27.9921 10.8014 27.3906 10.6706 26.7774C10.5826 26.3638 10.3482 26.1292 9.94936 26.0955C9.60472 26.0677 9.25858 26.0638 8.91341 26.0838C8.81053 26.1066 8.71755 26.1615 8.64795 26.2407C7.29345 27.5371 5.22674 27.5928 3.88131 26.3133C2.13833 24.6552 0.891309 22.6924 0.514484 20.272C0.228304 18.448 0.699659 16.7795 1.67992 15.2381C1.96999 14.7844 2.24581 14.3216 2.52163 13.8587C2.81299 13.3687 2.65112 12.854 2.58249 12.3484C2.453 11.4228 2.2976 10.5024 2.1707 9.57673C2.01013 8.397 2.38307 7.37285 3.13284 6.47833C3.47211 6.07385 3.84764 5.70049 4.19597 5.31156C4.27237 5.226 4.36043 5.0834 4.33842 4.99265C4.20245 4.43649 4.40057 3.97497 4.71136 3.54587C5.22933 2.82636 5.94931 2.35317 6.7198 1.95128C8.15717 1.20067 9.69814 0.784527 11.2961 0.547286C13.0805 0.288005 14.8792 0.12466 16.6636 0.443575C21.3448 1.27975 24.5782 3.89201 26.0272 8.47349C26.8456 11.0663 27.3455 13.7278 27.3468 16.4632C27.3468 17.9269 27.0554 19.3438 26.7524 20.7647C26.4818 22.0352 26.3406 23.3173 26.4792 24.6228C26.6333 26.076 26.2111 27.3024 24.9809 28.1749C24.3749 28.6053 23.6627 28.7272 22.9518 28.8348C21.4548 29.0617 19.9514 29.1926 18.4415 29.0163C18.0391 28.9668 17.6463 28.8575 17.2761 28.6922C16.2401 28.2281 15.7377 27.2104 15.8866 25.8686C15.9643 25.1686 16.1119 24.475 16.244 23.7814C16.4305 22.7923 16.6325 21.807 16.8229 20.8191C16.8484 20.6331 16.8627 20.4456 16.8656 20.2578ZM14.0478 12.6375C14.1356 12.5402 14.2157 12.4362 14.2874 12.3264C14.5 11.9349 14.8 11.5978 15.1641 11.3414C15.5282 11.0851 15.9465 10.9164 16.3865 10.8485C17.1476 10.7312 17.9259 10.8034 18.6526 11.0585C20.1987 11.5628 20.9912 12.6725 20.9615 14.2995C20.9352 15.6119 20.5927 16.8986 19.9631 18.05C19.5383 18.8356 18.9841 19.4968 18.1424 19.8728C18.093 19.9081 18.0512 19.9531 18.0196 20.005C17.988 20.0569 17.9673 20.1147 17.9585 20.1748C17.7785 21.1886 17.6192 22.2063 17.4405 23.2201C17.2774 24.1509 17.0275 25.0726 16.9446 26.0099C16.8462 27.1274 17.2981 27.6486 18.4091 27.7847C20.099 27.9921 21.7837 27.8353 23.4464 27.5138C24.6352 27.283 25.3733 26.2549 25.2865 25.0506C25.2632 24.7278 25.214 24.4024 25.1985 24.0835C25.1273 22.6691 25.328 21.2819 25.6672 19.9155C26.0346 18.5089 26.1994 17.057 26.1567 15.6037C26.0587 13.0705 25.5645 10.5683 24.6922 8.18828C23.3105 4.42871 20.4823 2.25206 16.5665 1.60256C13.8782 1.15789 11.2171 1.53514 8.62464 2.35058C7.64955 2.65783 6.71591 3.06231 5.92341 3.72995C5.28501 4.26796 5.26688 4.76708 5.89751 5.31286C6.30105 5.65199 6.7296 5.96011 7.1795 6.2346C8.62594 7.14209 10.0529 8.07031 11.2067 9.34597C12.1624 10.3999 13.0701 11.4993 14.0478 12.6375ZM4.74114 16.038V16.1754C4.02375 16.1754 3.30506 16.1676 2.58767 16.1845C2.5213 16.1881 2.45653 16.2062 2.39791 16.2375C2.33929 16.2689 2.28825 16.3127 2.2484 16.366C1.66827 17.4303 1.34194 18.5699 1.51546 19.7833C1.84697 22.1168 3.04737 23.9927 4.73207 25.5717C5.69291 26.4714 7.28439 26.2199 8.00825 25.1037C8.18566 24.8328 8.37861 24.5735 8.56767 24.3116C9.33945 23.2434 10.1125 22.1769 10.8869 21.1121C10.9736 21.0049 11.025 20.8734 11.0341 20.7358C11.0431 20.5981 11.0093 20.461 10.9374 20.3434C10.2498 18.9975 9.39342 17.7449 8.38896 16.6162C8.21709 16.434 7.98908 16.3148 7.7415 16.2778C6.7457 16.1715 5.74212 16.1132 4.74114 16.038ZM3.21441 15.0488C3.73239 15.0488 4.25036 15.0488 4.76833 15.0488C6.03607 15.0566 7.30769 15.0242 8.54435 15.3911C8.62445 15.4091 8.70826 15.4 8.78262 15.3652C10.1501 14.704 11.5136 14.0376 12.9044 13.3609C12.7011 13.0822 12.5081 12.8242 12.3217 12.561C10.3896 9.82953 7.62236 8.07031 4.86545 6.21645C4.51064 6.65852 4.1118 7.13431 3.73627 7.62953C3.54385 7.86884 3.40157 8.14451 3.31792 8.44008C3.23427 8.73565 3.21096 9.04506 3.24938 9.34985C3.35038 10.1277 3.45527 10.9159 3.59254 11.6938C3.79584 12.8424 3.95641 13.978 3.19499 15.0074C3.19629 15.0138 3.20664 15.0294 3.21441 15.0488ZM13.8329 14.1115L9.71109 16.1508L12.2129 19.9363L14.6862 18.7203C14.5904 18.5491 14.5153 18.426 14.4531 18.2976C14.3829 18.1588 14.3232 18.015 14.2744 17.8672C14.1449 17.455 14.2744 17.1685 14.6202 17.0583C14.9659 16.9481 15.2197 17.1166 15.3505 17.5379C15.4669 17.9832 15.7366 18.3729 16.1119 18.6386C16.9873 19.2233 17.9922 19.0184 18.6422 18.0785C19.4079 16.9641 19.8146 15.6418 19.8077 14.2892C19.8167 13.2741 19.3014 12.5649 18.3366 12.2771C17.8894 12.1491 17.4277 12.0785 16.9627 12.0671C16.1301 12.0412 15.5383 12.4651 15.2495 13.2339C15.098 13.641 15.0592 14.0934 14.9905 14.5303C14.9387 14.8829 14.7432 15.0929 14.4117 15.0929C14.0802 15.0929 13.8626 14.8816 13.8393 14.5303C13.8277 14.4097 13.8342 14.2905 13.8342 14.1128L13.8329 14.1115Z" fill="#667580"/>
</g>
</svg>
