<svg width="34" height="34" viewBox="0 0 34 34" fill="none" xmlns="http://www.w3.org/2000/svg">
<path d="M33.952 12.984C33.9614 12.87 33.9397 12.7555 33.889 12.6529C33.8384 12.5503 33.7609 12.4634 33.6647 12.4016C28.2354 8.35843 22.8097 4.30967 17.3875 0.255338C17.0931 0.0345615 16.8868 0.0548534 16.6043 0.267276C13.2778 2.75986 9.94723 5.24687 6.61272 7.72832L0.355751 12.3957C0.206747 12.5066 0.0494005 12.6045 0.0517846 12.8336C0.0613208 13.4637 0.0517831 14.0926 0.0577433 14.7228C0.0648955 15.0808 0.32476 15.2001 0.625151 15.0104C0.679985 14.9746 0.731237 14.9316 0.783686 14.891C6.10809 10.9218 11.4269 6.95063 16.7402 2.97745C16.9345 2.83186 17.0513 2.83305 17.2445 2.97745C21.8139 6.39849 26.3881 9.81157 30.9671 13.2167C31.0573 13.273 31.1304 13.3529 31.1785 13.4477C31.2266 13.5426 31.2479 13.6488 31.2401 13.7549C31.227 15.2001 31.2341 16.6477 31.2317 18.0953C31.2317 18.186 31.2747 18.2898 31.1936 18.3733C29.7632 17.0606 27.6676 17.7456 27.192 19.5524C27.0691 19.9995 26.917 20.438 26.7366 20.8651C26.6102 21.1706 26.8391 21.1527 26.9941 21.2136C27.149 21.2744 27.3028 21.3699 27.3863 21.0871C27.5472 20.5381 27.7343 19.9963 27.9358 19.4605C28.0824 19.0625 28.3737 18.7345 28.7513 18.542C29.1289 18.3496 29.5652 18.3068 29.973 18.4222C30.3757 18.5329 30.7239 18.7875 30.9519 19.1377C31.1799 19.488 31.2718 19.9098 31.2103 20.3233C31.0386 21.3974 30.8527 22.4774 30.6786 23.5562C30.1589 26.7008 29.6344 29.8441 29.129 32.9911C29.0861 33.2512 29.0241 33.3491 28.7297 33.3491C23.534 33.3396 18.3383 33.3368 13.1427 33.3408C13.0274 33.362 12.9085 33.3474 12.8017 33.299C13.0521 33.071 13.2333 32.799 13.5384 32.645C14.6184 32.0972 15.6912 31.5399 16.77 30.9898C16.838 30.954 16.9011 30.8704 17.0084 30.9277C17.0084 31.3036 17.0335 31.6808 17.0001 32.0519C16.9727 32.3586 17.1288 32.3467 17.3446 32.3538C17.583 32.3538 17.6807 32.3228 17.6784 32.0424C17.6617 30.4742 17.6688 28.9049 17.6712 27.3368C17.6654 27.1931 17.6745 27.0491 17.6986 26.9072C17.8321 26.2664 18.3507 25.8535 19.0325 25.8523C21.1503 25.8523 23.2682 25.8523 25.386 25.8523C25.5732 25.8523 25.7436 25.8451 25.8175 25.6351C26.1299 24.7102 26.5328 23.8128 26.7294 22.8533C26.9345 21.8329 26.1883 20.957 25.15 20.9439C24.6994 20.9367 24.2441 20.9642 23.7947 20.9379C22.9209 20.8842 22.3046 21.247 21.9434 22.0382C21.8054 22.3274 21.5786 22.565 21.2962 22.716C20.7001 23.0741 20.0946 23.3068 19.352 23.2865C17.4781 23.2292 15.6018 23.2745 13.7268 23.259C13.4156 23.259 13.4884 23.4357 13.4884 23.5956C13.4884 23.7555 13.4049 23.9476 13.716 23.9369C14.3895 23.9142 15.0618 23.9369 15.7353 23.9261C15.7686 23.9203 15.8027 23.9211 15.8357 23.9286C15.8686 23.936 15.8998 23.9498 15.9274 23.9694C15.955 23.9889 15.9784 24.0137 15.9964 24.0423C16.0144 24.0709 16.0265 24.1028 16.0322 24.1362C16.2801 24.8427 16.8725 25.2448 17.6247 25.2544C17.8488 25.2544 18.0741 25.2544 18.3924 25.2544C17.4304 25.678 16.9739 26.3404 16.9977 27.3046C16.9977 27.4693 16.9107 27.5361 16.8034 27.6149C15.6424 28.4932 14.4527 29.3369 13.3346 30.2666C12.611 30.8633 11.8744 31.2499 10.9207 31.0888C10.8986 31.0859 10.8761 31.0859 10.854 31.0888C10.6055 31.1006 10.3623 31.1643 10.1399 31.276C9.91758 31.3876 9.72105 31.5446 9.563 31.7368C9.26976 32.0865 9.29718 32.2524 9.67267 32.5078L10.8921 33.3431C10.2341 33.3431 9.67386 33.3312 9.1136 33.3431C8.89069 33.3515 8.8454 33.2787 8.84659 33.0687C8.85612 31.7762 8.84659 30.4838 8.84659 29.1914C8.84659 28.794 8.7548 28.6997 8.36978 28.6985C7.918 28.6985 7.46502 28.6985 7.01324 28.6985C6.92027 28.6985 6.80941 28.7402 6.73908 28.6352C6.4673 28.2295 6.1979 27.8202 5.90466 27.375H6.42199C6.84159 27.375 6.92861 27.2891 6.93219 26.8798C6.93219 26.6244 6.93219 26.3714 6.93219 26.1172C6.93219 23.4917 6.93219 20.8623 6.93219 18.2289C6.93219 17.7719 6.85589 17.6979 6.39219 17.6967H5.4648C5.02494 17.6967 4.94745 17.7766 4.94745 18.217C4.94745 19.4426 4.93673 20.6706 4.95342 21.8962C4.95342 22.1683 4.87117 22.2315 4.62442 22.2089C4.417 22.1898 4.20601 22.2089 3.99621 22.2089C3.75781 22.2089 3.6243 22.3342 3.62311 22.5752C3.62311 24.055 3.62311 25.5352 3.62311 27.0158C3.62311 27.2545 3.76019 27.3738 3.9986 27.3738H4.66256C4.47064 27.6614 4.28111 27.8822 4.16429 28.1376C3.94734 28.6149 3.60881 28.7701 3.09146 28.714C2.83279 28.6854 2.74815 28.6567 2.74935 28.3727C2.75968 23.8776 2.76206 19.3825 2.7565 14.8874C2.7565 14.8111 2.7565 14.7335 2.7565 14.6559C2.7565 14.6022 2.7565 14.5282 2.69571 14.5246C2.51046 14.4994 2.32227 14.5054 2.13903 14.5426C2.03293 14.5772 2.09731 14.7633 2.09731 14.8779C2.09731 21.066 2.09731 27.2529 2.09731 33.4386C2.09731 33.9756 2.12711 34.0067 2.6516 34.0067H31.2782C31.8349 34.0067 31.885 33.9565 31.885 33.41V13.9041L33.3011 14.9614C33.4346 15.0617 33.5705 15.1643 33.7505 15.0664C33.9305 14.9686 33.9412 14.8158 33.9389 14.6416C33.9448 14.0891 33.9317 13.5365 33.952 12.984ZM17.6009 24.5885C17.1646 24.5885 16.8618 24.3701 16.6604 23.9285C17.6605 23.9285 18.6069 23.8999 19.5522 23.9393C20.1792 23.9643 20.7443 23.8617 21.2592 23.4953C21.3438 23.4345 21.4976 23.2662 21.5525 23.5073C21.5894 23.6863 21.9101 23.8653 21.5632 24.0825C20.9815 24.4536 20.3855 24.6589 19.6774 24.6028C18.9872 24.5491 18.2911 24.5956 17.6009 24.5885ZM5.60903 18.6215C5.60903 18.3136 5.7628 18.3554 5.94876 18.3542C6.13472 18.353 6.29325 18.316 6.28849 18.6227C6.26703 19.9355 6.27896 21.2482 6.27896 22.5609C6.27896 23.8533 6.26703 25.1446 6.28849 26.437C6.28849 26.7461 6.13472 26.7043 5.94876 26.7043C5.7628 26.7043 5.60784 26.7425 5.60903 26.437C5.62334 23.8338 5.62254 21.2283 5.60665 18.6203L5.60903 18.6215ZM4.65541 26.7091C4.49449 26.69 4.28468 26.8082 4.29183 26.4704C4.31091 25.3451 4.30852 24.2173 4.29183 23.0908C4.29183 22.7328 4.52071 22.8915 4.66971 22.8688C4.83898 22.8437 4.97845 22.8402 4.96653 23.1075C4.94149 23.6576 4.95938 24.2114 4.95938 24.7639C4.95938 25.3164 4.94149 25.8904 4.96653 26.4537C4.97249 26.7246 4.83898 26.7294 4.64826 26.7079L4.65541 26.7091ZM8.20885 33.1057C8.20885 33.293 8.15879 33.3443 7.97045 33.3443C7.14318 33.3348 6.31591 33.3443 5.48864 33.3443C4.66137 33.3443 3.8341 33.3443 3.00802 33.3443C2.81968 33.3443 2.76961 33.2954 2.76961 33.1057C2.77836 31.9353 2.77836 30.7646 2.76961 29.5935C2.76961 29.4062 2.81968 29.3548 3.00802 29.3548C4.66177 29.3612 6.3163 29.3612 7.97163 29.3548C8.15878 29.3548 8.21004 29.4038 8.21004 29.5935C8.19256 30.763 8.18978 31.9334 8.2017 33.1045L8.20885 33.1057ZM12.1426 33.0376C12.0079 33.2083 11.9041 33.2238 11.7134 33.0889C11.2223 32.7309 10.7133 32.4063 10.1864 32.0495C10.4403 31.8299 10.7085 31.7082 11.0018 31.7524C12.0472 31.9075 12.8709 31.5292 13.6636 30.8573C14.7126 29.9694 15.8486 29.1866 17.0013 28.3106C17.0013 28.9216 17.0013 29.4861 17.0013 30.0494C17.0013 30.1938 16.8535 30.1986 16.7629 30.2451C15.8474 30.7225 14.9367 31.2141 14.0045 31.6605C13.2869 32.0018 12.6337 32.4075 12.139 33.0364L12.1426 33.0376ZM30.9027 33.3443C30.5296 33.3181 30.1541 33.3443 29.7393 33.3443C30.2257 30.3716 30.7084 27.4216 31.1924 24.4703H31.2365V24.8283C31.2365 27.5564 31.2365 30.2845 31.2449 33.0138C31.2425 33.2882 31.1722 33.3622 30.8992 33.3431L30.9027 33.3443ZM33.381 14.3791L17.0049 1.95114L0.595351 14.3779V12.8109L17.0049 0.721955L33.3798 12.7489L33.381 14.3791Z" fill="#667580"/>
<path d="M25.4109 15.3695C25.0247 15.3623 24.6385 15.3695 24.2522 15.3695C23.8996 15.3874 23.5463 15.3874 23.1937 15.3695C22.2854 15.274 21.4998 16.1452 22.1018 17.1596C22.4249 17.7025 22.3831 18.0486 22.0422 18.4806C21.9171 18.6405 21.923 18.847 22.1066 18.9425C22.4642 19.1286 22.4427 19.4294 22.4392 19.7528C22.4392 20.4127 22.7455 20.7218 23.4095 20.7278C23.9483 20.7278 24.4895 20.7278 25.0294 20.7278C25.8901 20.717 26.4921 20.2218 26.6613 19.3781C26.7972 18.7086 26.9236 18.0391 27.0464 17.3648C27.0961 17.1225 27.0911 16.8722 27.0318 16.6321C26.9725 16.3919 26.8604 16.1681 26.7037 15.9769C26.547 15.7857 26.3496 15.6319 26.1259 15.5268C25.9023 15.4217 25.658 15.368 25.4109 15.3695ZM25.7101 19.816C25.6212 19.899 25.5164 19.9629 25.4021 20.0039C25.2877 20.045 25.1662 20.0623 25.0449 20.0547C24.7803 20.0547 24.5157 20.0547 24.2511 20.0547H23.357C23.1806 20.0547 23.0948 19.9783 23.0996 19.7946C23.1067 19.563 23.0996 19.3303 23.0996 19.0988C23.1049 19.0274 23.0919 18.9559 23.0619 18.8909C23.0319 18.826 22.9857 18.7698 22.9279 18.7277C22.8635 18.6775 22.705 18.6489 22.7908 18.514C22.8766 18.3792 22.8838 18.2085 23.0984 18.2169C23.1997 18.2169 23.3701 18.2766 23.3976 18.1739C23.4319 17.9905 23.4375 17.8029 23.4142 17.6178C23.4142 17.5247 23.3105 17.5546 23.2533 17.5593C23.1103 17.5701 23.0829 17.4973 23.0996 17.3779C23.1186 17.2359 23.2295 17.2908 23.3058 17.2873C23.425 17.2873 23.4703 17.3875 23.5335 17.4591C23.7148 17.6892 23.9441 17.877 24.2053 18.0093C24.4666 18.1417 24.7535 18.2153 25.0461 18.2252C25.1072 18.2179 25.169 18.2313 25.2215 18.2633C25.2741 18.2954 25.3143 18.3442 25.3358 18.4019C25.3728 18.5212 25.2953 18.5952 25.2166 18.6799C25.0414 18.8577 25.132 19.094 25.1558 19.2969C25.1677 19.4031 25.331 19.3518 25.4097 19.3077C25.6302 19.1823 25.7888 19.3172 25.8806 19.464C25.9723 19.6108 25.8078 19.7182 25.7101 19.816ZM26.3633 17.3099C26.2823 17.7216 26.2036 18.1334 26.1249 18.5451C26.0915 18.5236 26.0546 18.5021 26.0188 18.4806C25.9426 17.8839 25.6612 17.6023 25.0509 17.5617C24.6802 17.5379 24.3357 17.4137 24.1295 17.1142C23.816 16.6619 23.4071 16.5593 22.9017 16.6082C22.8027 16.6178 22.5989 16.7574 22.5667 16.5044C22.5508 16.4103 22.5691 16.3137 22.6184 16.232C22.6676 16.1503 22.7444 16.089 22.8349 16.0593C22.9168 16.0349 23.0025 16.026 23.0876 16.033C23.8374 16.033 24.5872 16.0258 25.3382 16.033C26.0892 16.0402 26.5088 16.5843 26.3645 17.3147L26.3633 17.3099Z" fill="#667580"/>
<path d="M17.9403 9.25397C17.8295 9.34586 17.7997 9.67166 17.541 9.42105C17.4872 9.3663 17.4276 9.31748 17.3634 9.27545C16.8008 8.93533 16.4956 8.47827 16.672 7.79565C16.6845 7.6308 16.6845 7.46524 16.672 7.3004C16.6208 6.99131 16.7578 6.94238 17.0296 6.94238C17.2609 6.94238 17.3872 6.98296 17.3372 7.2455C17.3217 7.34097 17.3491 7.4448 17.3372 7.54146C17.2347 8.13816 17.4099 8.61551 17.9618 8.9067C18.199 9.04036 18.05 9.16208 17.9403 9.25397Z" fill="#667580"/>
<path d="M16.9939 5.81455C16.4544 5.81573 15.9274 5.97705 15.4795 6.27811C15.0316 6.57918 14.683 7.00645 14.4777 7.5059C14.2724 8.00535 14.2196 8.55453 14.3261 9.08399C14.4326 9.61345 14.6936 10.0994 15.0759 10.4804C15.4583 10.8614 15.945 11.1202 16.4743 11.2243C17.0037 11.3284 17.552 11.2729 18.0499 11.065C18.5478 10.8571 18.9729 10.506 19.2714 10.0561C19.57 9.60631 19.7286 9.07794 19.7272 8.53785C19.7285 8.17876 19.6585 7.82298 19.5215 7.49114C19.3844 7.1593 19.1829 6.85799 18.9287 6.60469C18.6744 6.35138 18.3725 6.15111 18.0404 6.01547C17.7082 5.87984 17.3525 5.81155 16.9939 5.81455ZM16.9736 10.612C16.5657 10.6068 16.1685 10.4808 15.832 10.25C15.4956 10.0191 15.2349 9.69368 15.0829 9.31473C14.9309 8.93578 14.8943 8.52025 14.9778 8.12053C15.0613 7.72082 15.2612 7.3548 15.5522 7.06862C15.8432 6.78245 16.2123 6.58892 16.613 6.51244C17.0137 6.43596 17.428 6.47996 17.8038 6.63888C18.1795 6.79779 18.4999 7.06452 18.7244 7.40543C18.949 7.74635 19.0677 8.1462 19.0656 8.55456C19.065 8.8277 19.0102 9.098 18.9044 9.34976C18.7986 9.60153 18.6439 9.82974 18.4493 10.0212C18.2546 10.2126 18.024 10.3634 17.7706 10.4648C17.5173 10.5662 17.2464 10.6162 16.9736 10.612Z" fill="#667580"/>
<path d="M5.98073 28.6834H4.59082C4.80777 28.3564 5.00684 28.0617 5.19995 27.7633C5.281 27.638 5.32749 27.6917 5.38471 27.78C5.57424 28.0724 5.76616 28.3612 5.98073 28.6834Z" fill="#667580"/>
<path d="M26.1218 18.5498C26.0646 18.5677 26.0359 18.5343 26.0156 18.4854C26.0514 18.5068 26.0884 18.5283 26.1218 18.5498Z" fill="#667580"/>
<path d="M26.0395 18.7169C25.9536 18.6931 26.0097 18.5677 26.0157 18.4854C26.0515 18.5068 26.0885 18.5283 26.1219 18.5498C26.1255 18.6238 26.1314 18.742 26.0395 18.7169Z" fill="#667580"/>
<path d="M17.9403 9.25397C17.8295 9.34586 17.7997 9.67166 17.541 9.42105C17.4872 9.3663 17.4276 9.31748 17.3634 9.27545C16.8008 8.93533 16.4956 8.47827 16.672 7.79565C16.6845 7.6308 16.6845 7.46524 16.672 7.3004C16.6208 6.99131 16.7578 6.94238 17.0296 6.94238C17.2609 6.94238 17.3872 6.98296 17.3372 7.2455C17.3217 7.34097 17.3491 7.4448 17.3372 7.54146C17.2347 8.13816 17.4099 8.61551 17.9618 8.9067C18.199 9.04036 18.05 9.16208 17.9403 9.25397Z" fill="#667580"/>
<path d="M17.9403 9.25397C17.8295 9.34586 17.7997 9.67166 17.541 9.42105C17.4872 9.3663 17.4276 9.31748 17.3634 9.27545C16.8008 8.93533 16.4956 8.47827 16.672 7.79565C16.6845 7.6308 16.6845 7.46524 16.672 7.3004C16.6208 6.99131 16.7578 6.94238 17.0296 6.94238C17.2609 6.94238 17.3872 6.98296 17.3372 7.2455C17.3217 7.34097 17.3491 7.4448 17.3372 7.54146C17.2347 8.13816 17.4099 8.61551 17.9618 8.9067C18.199 9.04036 18.05 9.16208 17.9403 9.25397Z" fill="#667580"/>
</svg>
