<svg width="154" height="119" viewBox="0 0 154 119" fill="none" xmlns="http://www.w3.org/2000/svg">
<g id="Layer_1" clip-path="url(#clip0_3419_120)">
<path id="Vector" d="M0.00155304 93.2453C0.0465911 93.2453 0.0900762 93.2453 0.135114 93.2468C0.377388 93.4953 0.343221 93.8152 0.343221 94.1181C0.349434 101.935 0.347881 109.751 0.343221 117.569C0.343221 117.872 0.377388 118.19 0.152198 118.448C0.100947 118.456 0.0512503 118.465 0 118.473C0 110.065 0 101.655 0 93.2468L0.00155304 93.2453Z" fill="#B6B7B7"/>
<path id="Vector_2" d="M87.0156 118.882C87.0141 118.921 87.0125 118.961 87.011 119H84.8988C84.8973 118.961 84.8957 118.922 84.8942 118.885C85.6008 118.539 86.309 118.545 87.0156 118.882Z" fill="#DDDDDD"/>
<path id="Vector_3" d="M40.2695 118.998H38.8174C38.7755 118.919 38.791 118.852 38.864 118.8C39.3175 118.629 39.7694 118.629 40.2229 118.8C40.2959 118.852 40.3114 118.919 40.2695 119V118.998Z" fill="#D6D6D7"/>
<path id="Vector_4" d="M87.9351 0.00155304H89.2552C89.2971 0.080758 89.2816 0.145986 89.2102 0.198789C88.8002 0.364964 88.3886 0.366517 87.9786 0.198789C87.9072 0.145986 87.8932 0.0792049 87.9351 0V0.00155304Z" fill="#FBCF8C"/>
<path id="Vector_5" d="M62.979 0.00155366H63.6393C63.6843 0.0699145 63.675 0.132061 63.6144 0.186439C63.4109 0.302963 63.2073 0.302963 63.0038 0.186439C62.9417 0.132061 62.9339 0.0699145 62.979 0V0.00155366Z" fill="#FBC980"/>
<path id="Vector_6" d="M153.687 98.9276C153.731 98.9276 153.776 98.9276 153.819 98.9276V99.4558L153.765 99.4667L153.71 99.4636C153.521 99.2927 153.557 99.1124 153.687 98.9276Z" fill="#D9DADA"/>
<path id="Vector_7" d="M89.2649 0.116524C89.2587 0.0776828 89.2556 0.0388414 89.254 0H89.7823C89.7823 0.0419487 89.7823 0.0823438 89.7854 0.124293C89.6098 0.281212 89.4358 0.282766 89.2649 0.116524Z" fill="#FDEACE"/>
<path id="Vector_8" d="M87.9355 0C87.9355 0.0388414 87.9308 0.0776828 87.9262 0.116524C87.7537 0.284319 87.5797 0.282765 87.4026 0.124293C87.4072 0.0823438 87.4073 0.0419487 87.4057 0H87.9339H87.9355Z" fill="#FDE5C2"/>
<path id="Vector_9" d="M38.8171 118.886C38.8187 118.923 38.8202 118.96 38.8218 118.999H38.2935C38.2935 118.957 38.2935 118.917 38.2935 118.875C38.4722 118.716 38.6478 118.712 38.8202 118.886H38.8171Z" fill="#EBEBEB"/>
<path id="Vector_10" d="M40.269 119.003C40.269 118.965 40.2706 118.928 40.2737 118.891C40.4462 118.715 40.6217 118.72 40.8004 118.88C40.8004 118.92 40.7988 118.961 40.7988 119.003H40.2706H40.269Z" fill="#EAEAEA"/>
<path id="Vector_11" d="M62.1824 0.114971C62.1824 0.0761292 62.1855 0.0388414 62.1871 0H62.5832C62.6283 0.0683609 62.6205 0.1274 62.5568 0.180224C62.417 0.243924 62.288 0.245478 62.1808 0.114971H62.1824Z" fill="#FEEDD4"/>
<path id="Vector_12" d="M62.5776 0.111863C62.5823 0.0745755 62.5839 0.0372878 62.587 0H62.9831C62.9816 0.0388414 62.9785 0.0776828 62.9754 0.116524C62.8402 0.240817 62.7081 0.24237 62.5776 0.11031V0.111863Z" fill="#FCD8A2"/>
<path id="Vector_13" d="M63.6473 0.116524C63.6442 0.0776828 63.6426 0.0388414 63.6395 0H64.0357C64.0823 0.0652536 64.0746 0.124293 64.0155 0.177117C63.8788 0.24237 63.7529 0.243924 63.6473 0.116524Z" fill="#FCD8A2"/>
<path id="Vector_14" d="M64.0456 0.111863C64.041 0.0745755 64.0379 0.0372878 64.0363 0H64.4325C64.4341 0.0388414 64.4356 0.0761292 64.4372 0.114971C64.3051 0.240817 64.1746 0.24237 64.0456 0.11031V0.111863Z" fill="#FEEDD5"/>
<path id="Vector_15" d="M64.0443 0.112198C64.1748 0.112198 64.3052 0.115304 64.4357 0.116857C68.5233 0.781557 70.9165 3.38445 72.3469 7.0667C73.1016 9.01111 73.4433 11.0471 73.5411 13.122C73.7104 16.7064 73.6328 20.2939 73.6918 23.8799C73.6964 24.175 73.712 24.439 73.3206 24.5291C71.7552 24.8847 70.2378 25.405 68.6895 25.9625C68.5947 25.5743 68.5683 25.2124 68.5652 24.8443C68.5419 21.6528 68.5342 18.4613 68.486 15.2714C68.4581 13.4683 68.3571 11.6684 67.8632 9.91498C67.5682 8.86978 67.1721 7.87273 66.5338 6.9875C65.8055 5.97492 64.8503 5.31643 63.5815 5.20772C62.6823 5.13162 61.839 5.3801 61.0283 5.74041C59.8899 6.2467 58.91 6.9906 57.9952 7.82459C55.9499 9.68979 54.2633 11.8594 52.6901 14.1222C50.0747 17.8836 47.7995 21.8547 45.5073 25.815C43.3423 29.5547 41.5222 33.4559 40.0732 37.5295C38.5807 41.7243 37.5153 46.0293 36.8631 50.4306C36.4639 53.1283 36.2232 55.8414 36.1285 58.5717C36.0741 60.1558 36.0337 61.7399 36.0788 63.3224C36.1269 64.9919 36.1766 66.6676 36.3412 68.3294C36.627 71.2087 38.1583 73.3115 40.5981 74.7978C42.5472 75.9843 44.6904 76.6102 46.9143 76.9845C48.7826 77.2982 50.6696 77.4302 52.5643 77.379C56.2714 77.2811 59.9195 76.7748 63.479 75.711C67.2187 74.5944 69.4116 72.0256 70.3636 68.3108C70.4723 67.8852 70.5686 67.455 70.6339 67.0217C70.6773 66.7313 70.814 66.6226 71.0936 66.5651C74.268 65.9113 77.3476 64.9547 80.3233 63.6672C80.3636 63.6501 80.4056 63.6346 80.446 63.6206C80.8327 63.4824 80.8684 63.4963 80.8994 63.8815C80.9243 64.189 80.915 64.4981 80.9383 64.8056C81.0641 66.4564 81.3343 68.0794 81.9027 69.6402C83.0768 72.8565 85.3598 74.8786 88.632 75.798C91.0268 76.4704 93.462 76.9332 95.9422 77.1646C97.4315 77.3029 98.9224 77.4224 100.42 77.3836C103.332 77.306 106.208 76.986 108.955 75.9315C110.257 75.433 111.476 74.7838 112.553 73.8893C114.377 72.3766 115.343 70.4322 115.548 68.0763C115.779 65.4206 115.832 62.7602 115.796 60.0983C115.753 56.9068 115.484 53.734 115.024 50.5735C114.355 45.9688 113.227 41.4805 111.643 37.1071C110.134 32.9372 108.219 28.9614 105.975 25.1394C103.915 21.6295 101.889 18.0995 99.5949 14.7325C98.2686 12.7834 96.8616 10.898 95.2495 9.17418C94.1034 7.94883 92.8718 6.81977 91.3809 6.0153C90.7209 5.65965 90.0313 5.38942 89.2796 5.26828C87.6536 5.00893 86.3956 5.60995 85.4234 6.88034C84.577 7.9861 84.1437 9.27512 83.8362 10.6138C83.4635 12.2337 83.42 13.8799 83.4076 15.5308C83.3905 17.8852 83.3486 20.238 83.3175 22.5924C83.3175 22.6592 83.3098 22.7244 83.316 22.7897C83.3439 23.122 83.2088 23.2618 82.8625 23.2571C82.3127 23.2509 81.7645 23.3022 81.2163 23.3332C80.2301 23.3891 79.2486 23.5041 78.2717 23.5755C78.1071 23.3938 78.1708 23.1857 78.1723 22.9978C78.2096 19.8731 78.2282 16.7483 78.3028 13.6252C78.3571 11.3935 78.7174 9.20524 79.5048 7.10553C80.2922 5.00582 81.4679 3.17634 83.2896 1.81122C84.5134 0.893376 85.8956 0.366896 87.3974 0.132387C87.5713 0.129281 87.7452 0.127728 87.9207 0.124622C88.368 0.124622 88.8137 0.124622 89.261 0.124622C89.4349 0.127728 89.6073 0.129281 89.7813 0.132387C92.5736 0.553261 94.9078 1.89353 96.9967 3.72767C99.4443 5.87708 101.44 8.41474 103.305 11.0642C105.739 14.5213 107.851 18.1787 109.991 21.819C111.609 24.5694 113.12 27.3742 114.425 30.2877C116.725 35.4236 118.43 40.7474 119.502 46.2732C120.079 49.2534 120.469 52.2539 120.707 55.2808C120.938 58.2455 121.004 61.2134 120.903 64.1812C120.844 65.8927 120.825 67.6103 120.569 69.3109C119.916 73.6284 117.683 76.8897 113.984 79.1665C111.746 80.544 109.297 81.3687 106.736 81.8735C104.226 82.3689 101.684 82.5692 99.1306 82.5024C95.1191 82.3968 91.1712 81.8377 87.298 80.7537C81.6216 79.1649 78.1133 75.4718 76.5898 69.825C76.349 68.9335 76.1565 68.0312 76.0353 67.1149C75.9934 67.0637 75.9499 67.0124 75.9406 66.9487C75.8583 66.955 75.9189 67.0326 75.8847 67.0621C75.8428 67.1646 75.8598 67.278 75.7977 67.3712C75.3737 70.0735 74.5615 72.6375 73.0162 74.9205C71.1293 77.7082 68.5046 79.5113 65.3256 80.5239C63.0814 81.2383 60.7783 81.7042 58.4472 82.035C56.2232 82.3502 53.9884 82.5444 51.7458 82.5133C48.2142 82.4652 44.7323 82.0645 41.3839 80.8407C39.042 79.9834 36.9019 78.786 35.1252 77.0218C33.187 75.096 31.9539 72.7757 31.4165 70.0874C31.1696 68.8512 31.1386 67.5964 31.0609 66.3493C30.8637 63.1842 30.8745 60.0144 31.0531 56.8509C31.4725 49.4553 32.8702 42.2508 35.4125 35.2823C36.9314 31.1202 38.8043 27.1226 41.0299 23.2897C43.0628 19.7892 45.074 16.2762 47.3103 12.9015C49.393 9.75967 51.6216 6.7328 54.4 4.15631C55.8955 2.76945 57.5309 1.59535 59.4427 0.842126C60.3263 0.494245 61.2426 0.270608 62.1776 0.124622C62.308 0.124622 62.4385 0.123069 62.5705 0.121516C62.7025 0.123069 62.8361 0.126175 62.9681 0.127728C63.1933 0.127728 63.4184 0.127728 63.6436 0.127728C63.7756 0.126175 63.9092 0.123069 64.0412 0.121516L64.0443 0.112198Z" fill="#FAAF40"/>
<path id="Vector_16" d="M0.150961 118.449C0.150961 110.335 0.147855 102.222 0.146302 94.107C0.146302 93.8212 0.136983 93.5355 0.132324 93.2497C0.17115 93.2295 0.211529 93.1938 0.250355 93.1938C3.12037 93.2 5.98883 93.1364 8.85885 93.2233C10.0298 93.2482 11.1884 93.3817 12.2911 93.7886C14.8101 94.7158 16.4889 96.4272 16.9579 99.1249C17.7096 103.455 14.8893 107.129 10.971 107.671C9.15237 107.923 7.33066 107.887 5.50739 107.901C5.2294 107.903 5.10826 107.808 5.11292 107.522C5.12379 106.84 5.12534 106.159 5.11292 105.477C5.10671 105.174 5.2558 105.11 5.51826 105.113C6.28857 105.123 7.05888 105.107 7.82763 105.118C8.556 105.129 9.28283 105.095 10.0003 104.998C11.7677 104.759 13.3005 103.584 13.7571 101.518C14.1609 99.6902 13.358 97.783 11.791 96.8497C10.9415 96.3434 10.0112 96.0918 9.03434 96.0374C7.29804 95.9411 5.56019 96.0079 3.82234 95.9831C3.46514 95.9784 3.35488 96.1244 3.37973 96.4505C3.3937 96.626 3.38128 96.8031 3.38128 96.9786C3.38128 103.8 3.38128 110.62 3.38128 117.441C3.38128 117.595 3.38439 117.749 3.38128 117.904C3.37041 118.477 3.36886 118.49 2.79113 118.483C1.91211 118.474 1.03309 118.527 0.154067 118.451L0.150961 118.449Z" fill="#6D6E70"/>
<path id="Vector_17" d="M57.6759 102.196C58.4773 100.623 59.8471 99.798 61.4933 99.4175C64.09 98.8165 66.581 99.1209 68.8298 100.615C70.5351 101.749 71.7231 103.309 72.1658 105.347C72.3568 106.228 72.3708 107.136 72.3692 108.04C72.3677 111.318 72.3692 114.597 72.3692 117.877C72.3692 118.475 72.363 118.478 71.7495 118.481C71.0243 118.484 70.2975 118.475 69.5722 118.484C69.2989 118.489 69.156 118.403 69.1808 118.11C69.1932 117.958 69.1824 117.802 69.1824 117.649C69.1824 114.282 69.1203 110.913 69.2026 107.549C69.2631 105.05 67.4228 102.84 64.9907 102.25C63.9036 101.986 62.804 101.991 61.7247 102.283C59.6063 102.854 58.395 104.316 57.853 106.381C57.6464 107.17 57.5781 107.983 57.5796 108.801C57.5843 111.727 57.5812 114.654 57.5812 117.582C57.5812 117.714 57.5843 117.846 57.5812 117.978C57.5703 118.473 57.5688 118.479 57.0625 118.483C56.3139 118.489 55.5669 118.475 54.8183 118.489C54.5155 118.495 54.3571 118.41 54.3912 118.082C54.4052 117.951 54.3928 117.818 54.3928 117.686C54.3928 111.876 54.3928 106.068 54.3928 100.258C54.3928 100.126 54.4021 99.9937 54.3928 99.8617C54.3711 99.5666 54.5186 99.4843 54.7904 99.4874C55.5824 99.4967 56.3745 99.5014 57.1665 99.4858C57.4833 99.4796 57.5967 99.5961 57.5858 99.9083C57.5625 100.59 57.5625 101.272 57.5517 101.954C57.5439 102.061 57.3839 102.247 57.6775 102.201L57.6759 102.196Z" fill="#6D6E70"/>
<path id="Vector_18" d="M22.5024 103.135C23.3783 101.641 24.5369 100.558 26.0123 99.8329C27.0621 99.3173 28.1461 98.8964 29.3466 98.9119C29.8281 98.9182 29.8405 98.9259 29.7986 99.3825C29.7318 100.105 29.6371 100.825 29.6029 101.549C29.5858 101.922 29.4227 102.046 29.0904 102.08C28.5872 102.133 28.098 102.265 27.6166 102.417C24.9469 103.262 23.3504 105.088 22.7105 107.789C22.4807 108.758 22.4061 109.741 22.4077 110.734C22.4108 113.043 22.4077 115.352 22.4077 117.662C22.4077 117.816 22.3999 117.969 22.4077 118.123C22.4185 118.368 22.3207 118.483 22.0629 118.482C21.2056 118.474 20.3483 118.474 19.4911 118.482C19.2239 118.483 19.1494 118.347 19.1618 118.111C19.168 117.979 19.1618 117.847 19.1618 117.715C19.1618 111.908 19.1618 106.103 19.1618 100.296C19.1618 99.4384 19.064 99.485 19.9849 99.485C20.5999 99.485 21.2165 99.4804 21.8315 99.485C22.3968 99.4897 22.4015 99.4943 22.4046 100.086C22.4092 100.878 22.403 101.67 22.4077 102.461C22.4077 102.652 22.3626 102.85 22.4977 103.132L22.5024 103.135Z" fill="#6D6E70"/>
<path id="Vector_19" d="M153.69 98.9276C153.698 99.1062 153.706 99.2848 153.714 99.4634C153.665 100.165 153.597 100.867 153.578 101.569C153.569 101.909 153.422 102.027 153.117 102.079C152.685 102.152 152.252 102.236 151.83 102.357C149.061 103.144 147.371 104.964 146.694 107.75C146.438 108.806 146.379 109.88 146.377 110.96C146.374 113.183 146.377 115.407 146.377 117.629C146.377 117.783 146.371 117.938 146.377 118.092C146.386 118.359 146.285 118.493 145.993 118.488C145.18 118.477 144.364 118.474 143.55 118.49C143.221 118.496 143.12 118.353 143.148 118.055C143.159 117.946 143.148 117.834 143.148 117.726C143.148 111.914 143.148 106.104 143.148 100.293C143.148 99.4742 143.046 99.4882 143.915 99.4913C144.554 99.4929 145.192 99.4866 145.83 99.4929C146.363 99.4975 146.369 99.5037 146.374 100.057C146.38 100.87 146.374 101.686 146.377 102.5C146.377 102.684 146.346 102.878 146.444 103.102C148.21 100.507 150.522 98.9664 153.69 98.9276Z" fill="#6D6E70"/>
<path id="Vector_20" d="M135.722 108.895C135.722 106.035 135.722 103.172 135.722 100.312C135.722 100.18 135.731 100.046 135.722 99.9156C135.697 99.6159 135.798 99.4746 136.129 99.4808C136.899 99.4979 137.669 99.4948 138.438 99.4823C138.744 99.4777 138.892 99.5879 138.868 99.9047C138.859 100.037 138.868 100.169 138.868 100.301C138.868 106.089 138.868 111.877 138.868 117.665C138.868 117.819 138.861 117.974 138.868 118.128C138.881 118.377 138.775 118.485 138.521 118.484C137.707 118.476 136.893 118.476 136.078 118.484C135.831 118.485 135.71 118.397 135.724 118.139C135.733 117.985 135.724 117.831 135.724 117.676C135.724 114.749 135.724 111.821 135.724 108.895H135.722Z" fill="#6D6E70"/>
<path id="Vector_21" d="M138.866 95.0738C138.866 95.5568 138.857 96.0398 138.87 96.5228C138.877 96.8117 138.809 96.9732 138.474 96.9654C137.683 96.9499 136.893 96.953 136.102 96.9654C135.821 96.9701 135.715 96.8676 135.718 96.5834C135.729 95.5739 135.729 94.5629 135.718 93.5534C135.715 93.2661 135.84 93.1636 136.11 93.1652C136.9 93.1698 137.691 93.1714 138.481 93.1652C138.761 93.1621 138.874 93.2816 138.868 93.5612C138.857 94.0659 138.865 94.5707 138.865 95.0769L138.866 95.0738Z" fill="#6D6E70"/>
<path id="Vector_22" d="M8.85729 93.2209C8.44263 93.2287 8.02797 93.2442 7.61331 93.2442C5.11913 93.2473 2.62495 93.2473 0.132324 93.2473C0.233272 93.0889 0.394788 93.1138 0.545432 93.1153C3.17162 93.1169 5.79625 93.12 8.42244 93.1231C8.57464 93.1231 8.7315 93.1122 8.85885 93.2209H8.85729Z" fill="#B6B7B7"/>
<path id="Vector_23" d="M75.8013 67.3671C75.7982 67.2351 75.7966 67.103 75.7935 66.9709C75.91 66.9181 75.7811 66.6229 76.0452 66.7146C76.0421 66.8466 76.0406 66.9787 76.0374 67.1108C75.9582 67.1962 75.879 67.2817 75.7997 67.3671H75.8013Z" fill="#FDDCAC"/>
<path id="Vector_24" d="M93.3752 102.73C93.5228 102.904 93.4964 103.096 93.4653 103.312C93.3037 103.228 93.2726 103.11 93.2493 102.988C93.2913 102.903 93.3332 102.817 93.3752 102.73Z" fill="#C8C8C9"/>
<path id="Vector_25" d="M57.6736 102.199C57.6565 102.31 57.6177 102.435 57.4887 102.411C57.4126 102.397 57.4219 102.264 57.4437 102.183C57.4639 102.102 57.512 102.029 57.5478 101.953C57.5866 102.037 57.5788 102.144 57.6736 102.2V102.199Z" fill="#B9B9BA"/>
<path id="Vector_26" d="M47.0265 102.875C47.1446 102.993 47.1632 103.131 47.1042 103.335C46.9675 103.252 46.9022 103.15 46.8851 103.008C46.9317 102.963 46.9799 102.92 47.0265 102.875Z" fill="#C0C1C1"/>
<path id="Vector_27" d="M84.6214 38.5543C82.7313 39.0683 80.9003 39.7563 79.0879 40.4893C70.0508 44.139 61.7669 49.0761 54.1383 55.1283C51.4811 57.2373 48.9838 59.5234 46.6201 61.957C46.2505 61.8607 46.4353 61.6076 46.4617 61.3995C46.6232 59.7998 46.9291 58.225 47.2693 56.658C48.2585 52.0999 49.7743 47.7296 52.0045 43.6218C54.949 38.2017 58.9 33.7057 64.1663 30.4272C67.7927 28.1691 71.7343 26.717 75.915 25.897C79.5802 25.1779 83.2873 24.9621 87.0115 25.1329C92.1241 25.3674 97.142 26.2371 102.088 27.5339C102.534 27.6504 102.983 27.7622 103.427 27.888C103.952 28.0371 103.968 28.0588 103.867 28.5605C103.441 30.6726 102.947 32.7676 102.323 34.8316C101.025 39.1258 99.2774 43.2196 96.8795 47.023C91.989 54.7789 85.182 60.1135 76.5394 63.1233C73.3743 64.226 70.1238 64.959 66.8018 65.4047C63.351 65.8691 59.8846 66.0601 56.4058 65.9794C53.5466 65.9141 50.6953 65.7216 47.8563 65.3737C47.7119 65.3566 47.5084 65.4172 47.4479 65.2401C47.3733 65.0242 47.5969 64.9435 47.7227 64.8425C48.9496 63.8393 50.1688 62.8298 51.4143 61.8498C58.8875 55.9731 66.5409 50.3403 74.3667 44.945C77.4836 42.7956 80.7264 40.8481 84.0778 39.0823C84.3108 38.9596 84.5375 38.8245 84.7674 38.6956C84.8435 38.5853 84.9724 38.5527 85.0733 38.4921C85.1354 38.4409 85.1463 38.5574 85.1059 38.4813C85.0718 38.4176 85.0454 38.5154 85.0034 38.5046C84.8807 38.5807 84.741 38.4688 84.6229 38.5512L84.6214 38.5543Z" fill="#68B555"/>
<path id="Vector_28" d="M46.4617 61.3994C46.5269 61.5812 46.398 61.8205 46.6201 61.9572C46.53 62.1219 46.4088 62.2275 46.3483 61.9619C46.3063 61.7801 46.3234 61.5672 46.4601 61.3994H46.4617Z" fill="#98CD8C"/>
<path id="Vector_29" d="M85.1514 38.551C85.0255 38.6054 84.9183 38.711 84.7661 38.6986C84.7179 38.6504 84.6697 38.6023 84.6216 38.5541C84.7226 38.4313 84.8671 38.4251 85.0084 38.4096C85.1498 38.3614 85.1778 38.4267 85.1514 38.5494V38.551Z" fill="#DAEDD5"/>
<path id="Vector_30" d="M76.0452 66.7105C75.9613 66.796 75.8774 66.8814 75.7935 66.9669C75.7935 66.8628 75.7935 66.7587 75.7982 66.6546C75.8028 66.5629 75.851 66.4837 75.9458 66.5039C76.0406 66.5241 76.039 66.6266 76.0437 66.709L76.0452 66.7105Z" fill="#FBBD63"/>
<g id="Group">
<path id="Vector_31" d="M50.1639 100.202C50.1639 100.091 50.1561 99.9811 50.1639 99.8724C50.1872 99.5866 50.0583 99.4826 49.7772 99.4872C48.9851 99.4981 48.1931 99.5012 47.401 99.4857C47.0826 99.4795 46.9724 99.596 46.9817 99.9081C47.0081 100.897 46.9475 101.888 47.0252 102.878C47.0562 103.005 47.0935 103.138 46.8839 103.011C45.9085 101.289 44.4223 100.239 42.5384 99.7155C41.9654 99.5556 41.3814 99.467 40.7882 99.4127C38.2816 99.1813 35.9178 99.6255 33.7855 100.995C29.9961 103.43 28.3996 107.284 29.4557 111.641C30.0676 114.168 31.6812 115.988 33.829 117.367C35.1895 118.24 36.7068 118.656 38.2878 118.88C38.4633 118.883 38.6388 118.888 38.8143 118.891C39.3004 118.891 39.788 118.891 40.2741 118.891C40.4496 118.888 40.6251 118.885 40.8006 118.88C41.06 118.835 41.3178 118.788 41.5771 118.743C43.9113 118.332 45.7222 117.162 46.8916 115.066C46.9118 114.94 46.946 114.825 47.1013 114.74C47.1696 114.956 47.1696 115.14 47.0221 115.313C47.0096 116.237 47.0065 117.161 46.9801 118.085C46.9708 118.416 47.1121 118.496 47.4119 118.489C48.0937 118.473 48.7755 118.486 49.4572 118.484C50.2384 118.484 50.1608 118.529 50.1623 117.765C50.1623 111.91 50.1623 106.057 50.1623 100.202H50.1639ZM45.7859 113.069C44.076 115.446 41.7029 116.429 38.791 116.136C37.0345 115.96 35.5529 115.229 34.3105 113.991C32.9686 112.654 32.2744 111.045 32.2993 109.181C32.2014 105.241 35.5172 102.505 38.6046 102.205C39.8051 102.089 40.9823 102.134 42.1191 102.517C47.1836 104.226 48.1387 109.801 45.7874 113.069H45.7859Z" fill="#6D6E70"/>
<path id="Vector_32" d="M47.0342 115.007C46.9767 114.924 46.9425 115.049 46.8928 115.067C46.9969 115.119 46.9845 115.23 47.0233 115.316C47.0839 115.215 47.0948 115.095 47.0342 115.008V115.007Z" fill="#B2B2B3"/>
<path id="Vector_33" d="M47.1026 114.738C46.9456 114.822 46.9115 114.939 46.8928 115.065C46.9441 115.046 46.9767 114.923 47.0342 115.004C47.0964 115.091 47.0839 115.211 47.0233 115.312C47.1709 115.139 47.1709 114.953 47.1026 114.738Z" fill="#B2B2B3"/>
</g>
<g id="Group_2">
<path id="Vector_34" d="M96.1505 99.4839C95.3585 99.4948 94.568 99.4964 93.7759 99.4839C93.4731 99.4793 93.3395 99.5725 93.3473 99.897C93.3706 100.843 93.3706 101.789 93.3784 102.733C93.4032 102.852 93.4715 102.978 93.3411 103.078C93.3349 103.082 93.2821 103.022 93.2526 102.989C92.2773 101.264 90.7941 100.169 88.8947 99.7185C84.9174 98.7773 81.3361 99.5554 78.3449 102.441C74.9935 105.674 74.5338 110.975 77.2858 114.673C79.1758 117.212 81.7523 118.58 84.8972 118.884C85.6038 118.884 86.312 118.883 87.0187 118.881C89.6697 118.622 91.8253 117.532 93.2293 115.177C93.2494 115.047 93.2976 114.935 93.456 114.854C93.5119 115.076 93.501 115.269 93.3706 115.451C93.3644 116.308 93.369 117.167 93.3473 118.024C93.3395 118.355 93.4343 118.499 93.7899 118.488C94.4701 118.467 95.1535 118.484 95.8353 118.482C96.6009 118.481 96.531 118.538 96.531 117.757C96.531 111.907 96.531 106.056 96.531 100.206C96.531 100.096 96.5233 99.9856 96.531 99.8769C96.5528 99.5989 96.4363 99.4808 96.1505 99.4855V99.4839ZM87.1553 116.119C84.7683 116.389 82.6888 115.799 80.8811 114.18C77.7719 111.396 77.7967 106.033 81.7476 103.398C83.3147 102.351 85.0401 102.009 86.9022 102.194C89.064 102.408 90.7848 103.385 92.0862 105.111C92.9357 106.24 93.3535 107.623 93.3535 109.195C93.4312 112.981 90.2614 115.764 87.1569 116.117L87.1553 116.119Z" fill="#6D6E70"/>
<path id="Vector_35" d="M93.2275 115.177C93.3393 115.234 93.33 115.354 93.3689 115.45C93.3751 115.332 93.5771 115.11 93.2275 115.177Z" fill="#CDCDCD"/>
<path id="Vector_36" d="M93.4543 114.856C93.2958 114.938 93.2477 115.05 93.2275 115.179C93.5786 115.112 93.3751 115.334 93.3689 115.452C93.5009 115.271 93.5102 115.076 93.4543 114.856Z" fill="#CDCDCD"/>
</g>
<path id="Vector_37" d="M121.232 91.8883C116.791 100.807 112.418 109.591 107.992 118.483C108.967 118.483 109.803 118.455 110.635 118.493C111.12 118.517 111.374 118.36 111.593 117.914C113.004 115.055 114.457 112.216 115.869 109.357C116.077 108.934 116.319 108.807 116.773 108.81C119.742 108.83 122.713 108.832 125.683 108.807C126.153 108.802 126.377 108.966 126.576 109.371C127.809 111.876 129.068 114.369 130.318 116.866C130.534 117.299 130.763 117.726 130.964 118.166C131.072 118.4 131.232 118.486 131.48 118.483C132.097 118.475 132.712 118.483 133.328 118.481C133.665 118.481 134.002 118.476 134.436 118.473C130.02 109.585 125.662 100.811 121.232 91.8868V91.8883ZM117.498 106.043C118.716 103.544 119.921 101.07 121.188 98.4654C122.427 101.047 123.617 103.522 124.814 106.016C124.238 106.128 118.262 106.147 117.497 106.043H117.498Z" fill="#6D6E70"/>
<path id="Vector_38" d="M76.583 29.0572C77.299 28.7311 78.0677 28.5758 78.8287 28.4065C79.8475 28.1798 80.8709 27.9592 81.9022 27.8008C82.8045 27.6611 83.7052 27.4887 84.6231 27.4747C84.8436 27.4716 85.0564 27.4545 85.2676 27.3753C85.3841 27.3318 85.5238 27.307 85.6124 27.453C85.5922 27.6052 85.471 27.5958 85.367 27.6005C82.6134 27.7465 79.9282 28.2932 77.2694 28.9843C77.08 29.034 76.8998 29.1194 76.7166 29.1877C76.6777 29.138 76.5939 29.1349 76.5846 29.0557L76.583 29.0572Z" fill="#6EB95E"/>
<path id="Vector_39" d="M76.5801 29.0527C76.6236 29.0962 76.6687 29.1412 76.7122 29.1847C75.8875 29.3183 75.1187 29.6429 74.3438 29.9271C73.8546 30.1057 73.339 30.233 72.8839 30.5048C72.8373 30.4753 72.8233 30.4458 72.8373 30.4163C72.8529 30.3868 72.8684 30.3728 72.8839 30.3728C73.0843 30.1072 73.4135 30.0855 73.6868 29.983C74.6357 29.6273 75.5831 29.2624 76.5801 29.0527Z" fill="#73BB63"/>
<path id="Vector_40" d="M68.3926 32.491C68.1597 32.8777 67.7124 32.9522 67.3645 33.1603C66.751 33.5268 66.1935 34.0036 65.4869 34.2086C65.7695 33.7846 66.2525 33.6387 66.6563 33.3933C67.2123 33.0547 67.7372 32.6432 68.3926 32.491Z" fill="#76BD68"/>
<path id="Vector_41" d="M68.3921 32.4889C68.462 32.4112 68.5179 32.2979 68.6064 32.2606C69.3317 31.95 69.9622 31.4266 70.7698 31.3008C70.0197 31.7807 69.2307 32.1845 68.3936 32.4905L68.3921 32.4889Z" fill="#75BD67"/>
<path id="Vector_42" d="M72.8846 30.3751C72.8846 30.4186 72.8846 30.4636 72.8846 30.5071C72.3861 30.6578 71.9093 30.8597 71.4465 31.0957C71.2337 31.2044 71.0272 31.3287 70.7725 31.3023C71.4154 30.855 72.1158 30.5351 72.8846 30.3767V30.3751Z" fill="#74BC66"/>
<path id="Vector_43" d="M58.5462 39.7857C58.9748 39.3462 59.3274 38.9828 59.6426 38.6582C59.5169 38.9719 59.242 39.2701 58.5462 39.7857Z" fill="#72BB63"/>
<path id="Vector_44" d="M56.9807 41.327C56.7011 41.7665 56.3393 42.1222 55.9215 42.4219C56.1451 41.9358 56.5645 41.6283 56.9807 41.327Z" fill="#70BA61"/>
<path id="Vector_45" d="M86.1243 27.3657H87.519C87.0499 27.5132 86.5763 27.4573 86.1243 27.3657Z" fill="#6EB95E"/>
<path id="Vector_46" d="M64.6965 34.7366C64.5333 35.0769 64.19 35.1779 63.8839 35.3286C64.0672 35.0163 64.3438 34.8267 64.6965 34.7351V34.7366Z" fill="#75BD67"/>
<path id="Vector_47" d="M60.868 37.6419C60.7111 37.9076 60.4889 38.1033 60.2093 38.3131C60.3771 37.8625 60.3911 37.8485 60.868 37.6403V37.6419Z" fill="#73BC64"/>
<path id="Vector_48" d="M61.6628 36.9831C61.4516 37.2659 61.262 37.5766 60.8705 37.6434C61.0818 37.3591 61.2698 37.0484 61.6628 36.9831Z" fill="#73BC65"/>
<path id="Vector_49" d="M61.6599 36.9811C61.7546 36.818 61.8509 36.6549 62.1384 36.6145C62.025 36.8568 61.8882 36.9734 61.6614 36.9827L61.6599 36.9811Z" fill="#74BC66"/>
<path id="Vector_50" d="M62.8493 36.059C62.7545 36.2237 62.6582 36.3853 62.3692 36.4257C62.4842 36.1833 62.6193 36.0668 62.8477 36.0575L62.8493 36.059Z" fill="#74BD66"/>
<path id="Vector_51" d="M62.85 36.0564C62.937 35.8824 63.0582 35.7503 63.3503 35.6447C63.2151 35.9321 63.0784 36.0487 62.85 36.058V36.0564Z" fill="#75BD66"/>
<path id="Vector_52" d="M85.1532 38.5518C85.105 38.5052 85.0584 38.4586 85.0103 38.412C85.1485 38.3001 85.2946 38.2458 85.467 38.3468C85.3987 38.4835 85.2728 38.513 85.1532 38.5518Z" fill="#BADDB1"/>
<path id="Vector_53" d="M64.6974 34.7347C64.772 34.5591 64.904 34.4706 65.0936 34.4706C65.019 34.6477 64.8869 34.7347 64.6974 34.7362V34.7347Z" fill="#76BE69"/>
<path id="Vector_54" d="M65.4904 34.2101C65.4158 34.3857 65.2837 34.4742 65.0942 34.4742C65.1688 34.2987 65.3008 34.2117 65.4904 34.2101Z" fill="#76BE69"/>
</g>
<defs>
<clipPath id="clip0_3419_120">
<rect width="153.821" height="119" fill="white"/>
</clipPath>
</defs>
</svg>
