<svg width="18" height="10" viewBox="0 0 18 10" fill="none" xmlns="http://www.w3.org/2000/svg">
<g id="WeatherIcon - 2-7">
<g id="Group Wind">
<path id="Path 6" d="M5.67187 4.88651C5.67187 4.88651 12.8871 4.94812 14.4492 4.54393C16.0114 4.13974 16.0094 2.04199 14.4492 1.52489C12.8891 1.00778 12.3559 2.85613 12.3559 2.85613" stroke="#4BA9FF" stroke-width="1.5" stroke-linecap="round"/>
<path id="Path 7" d="M8.04297 7.32615C8.04297 7.32615 13.3381 6.89993 15.6725 7.32615C18.0068 7.75238 17.2635 8.97513 16.1572 9.03102C15.0509 9.08691 14.03 8.43927 14.03 8.43927" stroke="#4BA9FF" stroke-width="1.5" stroke-linecap="round"/>
<path id="Path 52" d="M1.73438 2.25869C1.73438 2.25869 3.34063 2.37732 5.24394 2.37732C7.14726 2.37732 9.72709 2.15479 9.72709 2.15479" stroke="#4BA9FF" stroke-width="1.5" stroke-linecap="round"/>
</g>
<g id="Group Thunder">
<path id="Path 12" d="M2.19684 4.54688L4.19973 4.54688L3.04826 6.05331L4.39452 6.076L1.56879 9.05566L2.25347 6.7839H1L2.19684 4.54688Z" fill="url(#paint0_linear_3601_5539)"/>
</g>
</g>
<defs>
<linearGradient id="paint0_linear_3601_5539" x1="2.38496" y1="6.80127" x2="0.846725" y2="6.16829" gradientUnits="userSpaceOnUse">
<stop stop-color="#FFD100"/>
<stop offset="1" stop-color="#FFF0AA"/>
</linearGradient>
</defs>
</svg>
