<svg width="359" height="32" viewBox="0 0 359 32" fill="none" xmlns="http://www.w3.org/2000/svg">
<path d="M4.08729 30.4533C6.59785 30.4417 8.20949 30.3485 8.95422 30.1826C9.67859 30.0079 10.112 29.5305 10.2459 28.7474C10.3855 27.9672 10.4204 20.8058 10.3651 7.26616L10.2022 1.14989L6.84221 1.17027C4.97748 1.35949 3.56074 1.99703 2.57747 3.06833C1.48364 4.29973 0.561457 5.50494 0.270547 8.30545H0.0465457L0 0.326042L13.1346 0.32022L26.5514 0.259086L26.5892 8.30545H26.4903C25.9928 5.33027 25.7368 5.17889 25.3703 4.35796C24.3783 2.18043 22.5368 1.10331 19.843 1.11496L16.0815 1.1295L16.0146 8.03761L16.0612 17.8772C16.0873 25.0299 16.131 28.7998 16.1746 29.1811C16.2299 29.5683 16.8379 29.8565 18.0132 30.0719C19.1768 30.2786 20.5906 30.3863 22.2168 30.3718L22.4496 30.8754L3.85457 30.9569L4.08729 30.4533ZM35.306 30.9395L29.3802 30.8289L23.1169 30.9569V30.3398C25.6885 30.3222 27.0675 30.0749 27.2129 29.5887C27.274 29.417 27.3147 28.7445 27.3351 27.5567C27.3496 26.3748 27.3526 24.7329 27.3409 22.6398L27.3206 17.7812L27.3089 14.7623L27.3031 13.8104L27.3002 13.0913L27.2973 12.4946L27.3002 12.0433C27.2886 11.0594 27.2362 10.4742 27.1286 10.2821C26.9686 9.81341 25.6071 9.58343 23.0267 9.59508V8.93425L29.4849 9.03614L35.2188 8.88185L35.2247 9.53977C33.0371 9.5485 31.8124 9.77557 31.5447 10.2035C31.4022 10.5936 31.3382 13.5513 31.3644 19.0766L41.2698 19.03L41.2523 17.1727L41.2494 15.7084C41.2378 12.4946 41.1621 10.6576 41.0021 10.2006C40.8392 9.73772 39.6086 9.52521 37.2842 9.52812L37.2871 8.87312L42.9133 8.98374L49.517 8.81781L49.5199 9.47572C46.9628 9.48445 45.613 9.71152 45.4734 10.1482C45.3337 10.5819 45.2697 13.0389 45.2988 17.5133L45.3048 19.5366C45.328 25.8421 45.4211 29.1957 45.5753 29.6149C45.7353 30.0254 47.0735 30.2262 49.6044 30.2146L49.6104 30.8754L43.2046 30.7706L37.3864 30.8987L37.3776 30.2641C39.5914 30.2581 40.8132 30.0428 41.0489 29.6003C41.2263 29.2947 41.302 26.1157 41.2699 20.0839L31.3674 20.1246C31.3906 26.0779 31.4925 29.2306 31.635 29.5741C31.731 29.8187 32.2314 29.9875 33.1448 30.0923C33.4503 30.1156 34.1834 30.1738 35.3063 30.2816L35.306 30.9395ZM54.6949 29.5596C54.8433 29.0996 54.9102 26.7562 54.8898 22.538L54.8754 17.6443C54.855 13.0739 54.7677 10.5645 54.6222 10.1162C54.4826 9.67077 53.1037 9.44952 50.5058 9.45825L50.497 8.93716C51.7276 8.92843 53.4818 8.9197 55.7567 8.91097C58.0287 8.90223 59.6694 8.89058 60.708 8.89058L70.8986 8.84691L70.9451 17.4464H70.3837C70.0172 14.0957 69.3045 11.9123 68.2426 10.908C67.1895 9.90074 65.2055 9.39712 62.2935 9.41168C61.6797 9.41459 61.0688 9.41749 60.4782 9.42041C59.6899 9.4699 59.236 9.60381 59.1342 9.84834C58.9626 10.2035 58.887 13.2456 58.9073 18.9776L60.2339 19.0068C62.0724 18.998 63.3466 18.5817 64.0332 17.7579C64.7168 16.9428 65.063 15.3824 65.0514 13.1059H65.575L65.6332 25.8392H65.1066C65.1037 23.5074 64.7692 21.8713 64.1263 20.931C63.4921 19.982 62.3546 19.5191 60.7633 19.5249L58.9161 19.5308C58.9421 25.7664 59.0324 29.1549 59.1837 29.7051C59.2768 30.0545 60.6092 30.2262 63.1983 30.2146C65.991 30.2001 67.9227 29.6615 69.0077 28.5815C70.1888 27.4141 71.0296 25.1289 71.5154 21.7054H72.0419L72.068 27.5684L72.1116 30.8929L60.0737 30.8172L50.5959 30.9569V30.2699C53.1821 30.2555 54.5437 30.0196 54.6949 29.5596ZM86.2279 28.9978C86.4344 28.3544 86.5217 25.0765 86.5013 19.161L86.4635 12.3199C86.4459 5.91541 86.3297 2.4075 86.1173 1.7787C85.9224 1.14989 83.9937 0.847135 80.3573 0.858779L80.3485 0.125174C82.0678 0.116443 84.5173 0.10479 87.6998 0.0902412C90.8853 0.0727778 93.1922 0.0669671 94.6322 0.0640461L108.916 0L108.974 12.0346L108.186 12.0404C107.671 7.34477 106.676 4.29973 105.201 2.88201C103.712 1.46429 100.928 0.768534 96.8548 0.78309C95.9995 0.7889 95.1588 0.794742 94.3268 0.797632C93.2155 0.864587 92.5872 1.07128 92.433 1.41188C92.1915 1.90095 92.0897 6.15993 92.1275 14.1801L93.9777 14.2121C96.561 14.2063 98.3268 13.6182 99.2926 12.4742C100.27 11.3272 100.733 9.14675 100.724 5.96197L101.457 5.95906L101.533 23.7868L100.8 23.7928C100.785 20.5264 100.331 18.2324 99.4352 16.9166C98.5305 15.5949 96.9654 14.9428 94.7108 14.9516L92.1246 14.9574C92.1683 23.6849 92.2904 28.4272 92.5086 29.1957C92.6366 29.6935 94.5159 29.9235 98.1319 29.9147C102.033 29.8972 104.741 29.1346 106.269 27.6237C107.924 25.9935 109.091 22.7883 109.768 18.0082L110.513 18.0053L110.548 26.2089L110.612 30.8696L93.7595 30.756L80.4882 30.9569L80.4911 29.9875C84.0955 29.9759 86.0068 29.6469 86.2279 28.9978ZM129.849 21.4622C129.855 24.5509 129.142 26.9496 127.679 28.6585C126.225 30.376 124.188 31.2319 121.561 31.2523C118.562 31.2583 116.147 30.2654 114.326 28.2655C112.511 26.2597 111.589 23.5698 111.571 20.1813C111.563 16.6646 112.488 13.7913 114.358 11.5498C116.223 9.30819 118.606 8.18741 121.457 8.17867C122.527 8.16994 123.467 8.35625 124.255 8.72888C125.064 9.11024 125.855 9.73322 126.638 10.6153L126.946 10.6095C127.249 10.1728 127.525 9.73905 127.781 9.30238C128.025 8.85698 128.243 8.37373 128.441 7.84682L128.936 7.84973L128.977 18.2512L128.383 18.257C127.665 11.9107 125.39 8.74634 121.59 8.76672C119.699 8.77838 118.254 9.69537 117.273 11.5381C116.296 13.3809 115.813 16.0999 115.836 19.7038C115.857 26.9787 117.945 30.6089 122.082 30.5973C124.249 30.5828 125.98 29.7705 127.304 28.1723C128.619 26.5654 129.27 24.3966 129.259 21.663V21.4651L129.849 21.4622ZM136.782 11.4217C135.798 13.2062 135.318 15.8146 135.321 19.2468C135.342 22.8537 135.854 25.6484 136.889 27.6454C137.91 29.6366 139.313 30.6322 141.049 30.6264C144.849 30.606 146.737 27.2117 146.716 20.4433C146.699 16.6646 146.196 13.7593 145.212 11.7448C144.241 9.73615 142.873 8.7289 141.116 8.73764C139.217 8.74055 137.771 9.64009 136.782 11.4217ZM137.026 30.3964C135.775 29.8259 134.667 29.0195 133.727 27.9831C132.779 26.9526 132.043 25.7357 131.505 24.3238C130.975 22.9207 130.707 21.4738 130.702 19.9891C130.699 18.2832 130.995 16.6617 131.603 15.1305C132.206 13.5992 133.061 12.263 134.175 11.1248C136.11 9.14811 138.449 8.14959 141.189 8.14377C143.365 8.13211 145.366 8.86281 147.164 10.3475C148.482 11.4304 149.5 12.7899 150.254 14.4289C150.99 16.0679 151.359 17.8116 151.362 19.6718C151.388 22.8799 150.361 25.6105 148.302 27.855C146.245 30.1053 143.755 31.2348 140.854 31.2523C139.563 31.2523 138.294 30.9728 137.026 30.3964ZM149.02 30.3704C150.809 30.0938 151.987 29.5814 152.548 28.8362C153.052 28.1841 153.305 26.9789 153.296 25.2497L153.284 24.158L152.967 11.5819C152.548 10.6881 152.039 10.0972 151.423 9.81478C150.806 9.53531 149.855 9.39266 148.566 9.4014L148.56 8.86866L152.132 8.92397L155.678 8.91232L167.527 24.318L167.484 15.2207C167.478 13.0141 167.193 11.5178 166.655 10.7289C165.986 9.7944 164.656 9.33153 162.666 9.33735V8.80753L167.385 8.85993L172.074 8.83665L172.077 9.29661C170.239 9.30534 169.066 9.77695 168.54 10.7202C168.173 11.3781 168.002 12.8162 168.007 15.0228L168.037 22.5714C168.045 23.6601 168.086 25.1885 168.159 27.1331C168.232 29.0777 168.275 30.4867 168.278 31.3397H167.618C166.986 30.2276 166.332 29.2116 165.698 28.2975C165.322 27.7357 164.374 26.4606 162.847 24.484L153.529 12.3067L153.808 24.318C153.831 26.5945 154.157 28.1491 154.797 28.9991C155.452 29.855 156.764 30.2655 158.722 30.2596L158.728 30.8506L154.597 30.804C153.96 30.8069 152.979 30.8389 151.644 30.9001C150.306 30.9583 149.433 30.9845 149.02 30.9874L149.02 30.3704ZM175.844 11.4189C174.864 13.2121 174.378 15.8147 174.39 19.244C174.413 22.8509 174.919 25.6543 175.949 27.6426C176.973 29.6425 178.355 30.6352 180.112 30.6294C183.92 30.6062 185.808 27.2147 185.773 20.4375C185.755 16.6589 185.255 13.7652 184.278 11.7478C183.294 9.7275 181.936 8.72608 180.179 8.73772C178.282 8.74063 176.828 9.64308 175.844 11.4189ZM176.089 30.3994C174.832 29.823 173.732 29.0196 172.784 27.9832C171.838 26.9439 171.108 25.7329 170.57 24.3239C170.041 22.9178 169.773 21.4739 169.767 19.9863C169.761 18.2862 170.058 16.6618 170.663 15.1306C171.268 13.6022 172.121 12.2602 173.235 11.119C175.175 9.14819 177.505 8.15258 180.24 8.14094C182.43 8.13513 184.42 8.86872 186.218 10.3476C187.542 11.4276 188.574 12.79 189.302 14.4261C190.049 16.0679 190.413 17.8088 190.425 19.669C190.445 22.8829 189.412 25.6077 187.358 27.858C185.31 30.1054 182.823 31.2407 179.923 31.2524C178.631 31.2553 177.348 30.9758 176.089 30.3994ZM193.174 10.0924L193.506 24.0599C193.52 26.5373 193.776 28.1821 194.285 28.9856C194.896 29.9463 196.179 30.4266 198.128 30.4208L198.122 30.9098L195.312 30.8894C194.564 30.8865 193.479 30.9302 192.054 31.003C190.64 31.0728 189.587 31.1049 188.912 31.1107L188.915 30.5867C190.41 30.5837 191.469 30.2868 192.071 29.7075C192.676 29.1282 192.973 28.1559 192.962 26.8051L192.964 26.6683L192.677 14.0921C192.671 12.3425 192.415 11.1432 191.914 10.5085C191.408 9.86518 190.378 9.54204 188.819 9.55369V8.99475L192.246 9.01222L197.389 8.98894L202.428 24.6857H202.687L207.455 8.94236C207.728 8.94236 208.13 8.94236 208.653 8.93655C209.183 8.93655 209.549 8.93364 209.768 8.93364L212.694 8.9191L216.301 8.90164V9.49551C213.808 9.51005 212.511 9.68473 212.4 10.0253C212.299 10.363 212.246 11.411 212.252 13.1548L212.258 13.9466L212.313 25.693C212.304 26.4383 212.322 27.2388 212.325 28.1034C212.325 28.9739 212.366 29.5037 212.447 29.6958C212.633 30.1383 213.942 30.3537 216.392 30.3363V30.8632L210.259 30.8224L203.967 30.8485V30.3885C206.123 30.3769 207.397 30.31 207.752 30.1731C208.107 30.045 208.29 29.5443 208.284 28.6622L208.217 10.1533L207.694 10.1591L204.549 20.4819C203.053 25.3815 202.082 28.8719 201.64 30.9592L200.49 30.968L193.744 10.0894L193.174 10.0924ZM221.337 29.5917C221.427 29.3239 221.488 28.2031 221.523 26.2206C221.564 24.2469 221.572 21.4289 221.555 17.7725C221.526 13.2603 221.442 10.7567 221.273 10.256C221.104 9.75238 219.746 9.50785 217.188 9.5224L217.182 8.92562C218.404 8.91981 219.943 8.92853 221.793 8.95764C223.638 8.98092 224.569 8.9984 224.601 8.99549C224.813 8.99549 225.596 8.97222 226.922 8.93727C228.26 8.89651 229.258 8.87322 229.91 8.87322V9.46709C227.329 9.47874 225.962 9.72618 225.799 10.2182C225.63 10.7189 225.564 13.828 225.593 19.5629C225.622 25.7752 225.724 29.1143 225.904 29.5859C226.084 30.0575 227.446 30.2788 230.009 30.2729V30.9279L223.641 30.8231L217.278 30.957L217.272 30.3224C219.844 30.3165 221.194 30.075 221.337 29.5917ZM245.501 28.6585C244.034 30.3732 242.001 31.2349 239.38 31.2524C236.378 31.2612 233.975 30.2713 232.148 28.2655C230.324 26.2627 229.408 23.5641 229.39 20.1842C229.378 16.6589 230.304 13.7914 232.171 11.5469C234.039 9.31118 236.41 8.18748 239.278 8.17875C240.352 8.17294 241.282 8.35633 242.085 8.72895C242.891 9.10449 243.674 9.73038 244.465 10.6125H244.77C245.07 10.1758 245.344 9.73329 245.6 9.29371C245.841 8.85413 246.074 8.37671 246.26 7.84688L246.749 7.85269L246.798 18.2512L246.208 18.2571C245.483 11.9107 243.217 8.74922 239.412 8.76378C237.501 8.77543 236.075 9.69534 235.095 11.5323C234.114 13.3808 233.632 16.0969 233.652 19.7009C233.678 26.9758 235.776 30.6089 239.889 30.5914C242.068 30.5855 243.799 29.7763 245.12 28.1723C246.429 26.5624 247.086 24.3995 247.077 21.663V21.4679L247.662 21.4621C247.68 24.5538 246.964 26.9468 245.501 28.6585ZM259.307 30.4476C261.826 30.4388 263.447 30.3428 264.186 30.1798C264.91 30.0051 265.355 29.5335 265.48 28.7446C265.623 27.9615 265.658 20.803 265.596 7.26628L265.431 1.15582L262.079 1.16455C260.215 1.35669 258.795 1.99131 257.815 3.06843C256.724 4.29693 255.953 4.71904 255.508 8.48895H255.281L255.237 0.326147L268.366 0.308684L281.771 0.253372L281.815 8.48896H281.727C281.349 5.3623 280.968 5.17016 280.596 4.34922C279.607 2.17461 277.768 1.09749 275.071 1.11205L271.307 1.12659L271.246 8.0347L271.293 17.8772C271.322 25.0328 271.362 28.794 271.412 29.1753C271.464 29.5625 272.066 29.8565 273.239 30.0632C274.42 30.2757 275.822 30.3805 277.448 30.366L277.681 30.8725L259.095 30.9569L259.307 30.4476ZM282.653 29.5916C282.74 29.3354 282.801 28.2088 282.833 26.2292C282.868 24.2468 282.885 21.4259 282.865 17.7782C282.842 13.2718 282.751 10.7653 282.586 10.2617C282.414 9.76101 281.055 9.5223 278.493 9.52812V8.93134C279.717 8.93134 281.259 8.94007 283.109 8.96336C284.954 8.99248 285.882 9.00121 285.905 8.99829C286.123 9.0012 286.9 8.98083 288.229 8.94007C289.573 8.90223 290.562 8.87603 291.226 8.87603L291.22 9.4699C288.645 9.48736 287.275 9.73481 287.115 10.2239C286.938 10.7188 286.882 13.8395 286.906 19.5686C286.935 25.7809 287.034 29.12 287.214 29.5916C287.38 30.0574 288.759 30.2874 291.316 30.2786L291.325 30.9366L284.945 30.8317L278.591 30.9569L278.589 30.331C281.146 30.3194 282.496 30.0749 282.653 29.5916ZM296.411 10.0617L296.731 24.0293C296.745 26.5096 296.999 28.1544 297.505 28.9637C298.119 29.9215 299.407 30.3989 301.351 30.3901V30.885L298.523 30.859C297.787 30.8649 296.705 30.9026 295.288 30.9754C293.863 31.0511 292.815 31.0802 292.132 31.086V30.5591C293.647 30.5531 294.697 30.2622 295.288 29.6799C295.89 29.0977 296.193 28.1341 296.187 26.7776L296.178 26.6407L295.905 14.0617C295.899 12.3208 295.637 11.1156 295.137 10.478C294.631 9.83468 293.604 9.51736 292.044 9.52319L292.05 8.96716L295.474 8.9817L300.606 8.95843L305.647 24.6669L305.918 24.6609L310.671 8.91462C310.954 8.91462 311.352 8.9088 311.879 8.9117C312.405 8.90879 312.786 8.90589 312.999 8.90589L315.914 8.89135L319.524 8.8797L319.518 9.46775C317.036 9.4794 315.727 9.65406 315.628 9.99757C315.515 10.3324 315.468 11.3804 315.474 13.1358L315.487 13.9218L315.527 25.6653C315.534 26.4047 315.537 27.2111 315.543 28.0844C315.543 28.9432 315.596 29.4701 315.686 29.671C315.86 30.1076 317.163 30.3231 319.625 30.3085V30.8383L313.492 30.7947L307.191 30.8151L307.197 30.3639C309.35 30.3551 310.615 30.2824 310.979 30.1514C311.342 30.0175 311.511 29.5138 311.505 28.6347L311.43 10.1344H310.919L307.771 20.4516C306.281 25.3597 305.313 28.8531 304.865 30.9316L303.716 30.9376L296.964 10.059L296.411 10.0617ZM324.523 29.5596C324.668 29.1025 324.738 26.7591 324.721 22.5321L324.699 17.6472C324.686 13.0768 324.6 10.5586 324.455 10.1162C324.306 9.66493 322.939 9.45241 320.332 9.46115V8.93423C321.56 8.92258 323.308 8.91677 325.58 8.90512C327.858 8.89931 329.505 8.89058 330.532 8.88184L340.74 8.844L340.768 17.4406H340.207C339.843 14.0957 339.133 11.9065 338.077 10.9022C337.024 9.89201 335.034 9.3942 332.119 9.40876C331.503 9.41167 330.903 9.41167 330.304 9.41457C329.521 9.46406 329.068 9.6067 328.966 9.85124C328.794 10.2006 328.716 13.2456 328.739 18.9718L330.057 19.0009C331.907 18.9951 333.169 18.5759 333.859 17.7579C334.551 16.9369 334.886 15.3766 334.883 13.1088L335.401 13.103L335.462 25.8392H334.932C334.92 23.5044 334.601 21.8713 333.955 20.9252C333.321 19.9849 332.189 19.5162 330.589 19.522L328.745 19.5308C328.767 25.7635 328.861 29.1491 329.015 29.6964C329.1 30.0545 330.441 30.2204 333.033 30.2088C335.814 30.1972 337.751 29.6498 338.845 28.5727C340.026 27.4141 340.855 25.1201 341.335 21.7054L341.871 21.7025L341.896 27.5684L341.942 30.8987L329.904 30.8114L320.429 30.9569L320.417 30.2641C323.003 30.2581 324.38 30.0196 324.523 29.5596ZM343.029 31.2523L342.985 21.3108L343.477 21.3079C344.254 24.3675 345.391 26.6935 346.895 28.3033C348.399 29.8957 350.159 30.6992 352.172 30.6904C353.551 30.6875 354.651 30.2916 355.474 29.5085C356.283 28.7254 356.676 27.692 356.673 26.4256C356.666 24.7779 356.036 23.5582 354.767 22.7751C353.924 22.254 352.233 21.6834 349.685 21.0721C347.14 20.4578 345.295 19.6689 344.152 18.7082C342.854 17.6195 342.209 16.0999 342.197 14.1727C342.2 12.3969 342.802 10.9326 344.036 9.77107C345.26 8.61535 346.846 8.03313 348.777 8.02439C351.029 8.01858 353.025 9.00253 354.773 10.9879C355.256 10.6502 355.631 10.266 355.919 9.81474C356.199 9.36351 356.425 8.75218 356.6 7.99237L356.932 7.98946L356.964 16.4812L356.513 16.49C356.009 14.0097 355.073 12.0709 353.679 10.6939C352.286 9.29364 350.613 8.60662 348.702 8.61826C347.279 8.62407 346.151 8.97924 345.324 9.68083C344.501 10.3853 344.085 11.3343 344.088 12.5163C344.097 13.8699 344.734 14.8917 346.005 15.5613C346.968 16.0824 348.757 16.6006 351.361 17.1013C353.959 17.602 355.861 18.3676 357.036 19.3923C358.34 20.5073 358.988 22.1113 359 24.2161C359.006 26.251 358.357 27.9249 357.039 29.2407C355.721 30.5449 354.037 31.1999 351.975 31.2174C349.612 31.2233 347.518 30.0762 345.705 27.7648C344.632 28.4023 343.844 29.5667 343.352 31.2523H343.029Z" fill="black"/>
</svg>
