<svg width="21" height="14" viewBox="0 0 21 14" fill="none" xmlns="http://www.w3.org/2000/svg">
<path d="M20.8723 13.1891H0C0.207396 11.2314 0.866655 9.35431 1.92199 7.71666C2.73359 6.41689 3.82266 5.328 5.10501 4.53419L5.46158 4.32683L3.70483 1.25255C3.64385 1.1485 3.62518 1.02362 3.65289 0.905318C3.68061 0.787012 3.75245 0.68493 3.85267 0.621461C3.90222 0.59076 3.95717 0.570595 4.01432 0.562139C4.07147 0.553684 4.12967 0.557109 4.18552 0.572214C4.24138 0.58732 4.29378 0.613803 4.33966 0.65012C4.38554 0.686436 4.42398 0.73186 4.45275 0.78374L6.26168 3.93917C7.59977 3.38488 9.03006 3.10917 10.4709 3.12777C11.8863 3.10987 13.2909 3.38575 14.6019 3.93917L16.4021 0.78374C16.4316 0.731374 16.471 0.68571 16.5179 0.649483C16.5648 0.613255 16.6182 0.587207 16.6751 0.572898C16.7319 0.55859 16.7909 0.556314 16.8486 0.566207C16.9063 0.576101 16.9615 0.59796 17.0109 0.630477C17.1097 0.695402 17.1797 0.79814 17.2058 0.916331C17.2318 1.03452 17.2118 1.1586 17.15 1.26156L15.3933 4.34486L15.8281 4.5973C17.1062 5.4221 18.1859 6.53829 18.9851 7.86091C19.9835 9.47199 20.6278 11.291 20.8723 13.1891V13.1891ZM14.3497 9.15013C14.3497 9.38924 14.4413 9.61855 14.6044 9.78762C14.7675 9.9567 14.9887 10.0517 15.2194 10.0517C15.45 10.0517 15.6712 9.9567 15.8343 9.78762C15.9974 9.61855 16.089 9.38924 16.089 9.15013C16.089 8.91102 15.9974 8.68171 15.8343 8.51264C15.6712 8.34356 15.45 8.24858 15.2194 8.24858C14.9887 8.24858 14.7675 8.34356 14.6044 8.51264C14.4413 8.68171 14.3497 8.91102 14.3497 9.15013ZM4.78323 9.15013C4.78323 9.38924 4.87485 9.61855 5.03795 9.78762C5.20105 9.9567 5.42225 10.0517 5.65291 10.0517C5.88356 10.0517 6.10476 9.9567 6.26786 9.78762C6.43096 9.61855 6.52258 9.38924 6.52258 9.15013C6.52258 8.91102 6.43096 8.68171 6.26786 8.51264C6.10476 8.34356 5.88356 8.24858 5.65291 8.24858C5.42225 8.24858 5.20105 8.34356 5.03795 8.51264C4.87485 8.68171 4.78323 8.91102 4.78323 9.15013Z" fill="#212529"/>
</svg>
