<svg width="27" height="28" viewBox="0 0 27 28" fill="none" xmlns="http://www.w3.org/2000/svg">
<g id="Graphic_Elements" clip-path="url(#clip0_3601_6254)">
<path id="Vector" d="M2.54756 15.436C2.55597 15.2636 2.61543 15.0976 2.71835 14.9591C2.82127 14.8205 2.96302 14.7157 3.12564 14.6578C3.28827 14.6 3.46443 14.5917 3.63175 14.6341C3.79907 14.6765 3.94998 14.7677 4.0654 14.896C4.18082 15.0243 4.25553 15.184 4.28001 15.3549C4.30449 15.5257 4.27764 15.6999 4.2029 15.8555C4.12817 16.0111 4.00889 16.1409 3.86021 16.2286C3.71154 16.3163 3.54017 16.3578 3.36784 16.3479C3.13923 16.3327 2.92558 16.2289 2.77238 16.0586C2.61917 15.8882 2.53851 15.6649 2.54756 15.436Z" fill="#4BA9FF"/>
<path id="Vector_2" d="M21.608 2.91991C21.6029 3.09274 21.5465 3.26015 21.446 3.40082C21.3454 3.54149 21.2053 3.64906 21.0434 3.70982C20.8815 3.77058 20.7052 3.78179 20.5369 3.74201C20.3686 3.70224 20.216 3.61328 20.0984 3.48647C19.9809 3.35966 19.9037 3.20074 19.8768 3.02994C19.8499 2.85915 19.8745 2.68421 19.9473 2.52741C20.0202 2.3706 20.1381 2.23903 20.286 2.14945C20.4339 2.05987 20.6051 2.01633 20.7778 2.02438C21.0051 2.03746 21.2185 2.13802 21.3733 2.30497C21.5281 2.47192 21.6122 2.69231 21.608 2.91991Z" fill="#4BA9FF"/>
<path id="Vector_3" d="M14.4829 0.851298C14.4868 1.02407 14.4393 1.19409 14.3463 1.33974C14.2532 1.48538 14.119 1.60007 13.9606 1.6692C13.8022 1.73833 13.6269 1.75879 13.4568 1.72797C13.2868 1.69715 13.1298 1.61644 13.0058 1.49611C12.8817 1.37578 12.7963 1.22127 12.7603 1.05225C12.7243 0.883219 12.7394 0.707313 12.8037 0.546907C12.868 0.3865 12.9786 0.248846 13.1214 0.151457C13.2641 0.0540679 13.4326 0.0013458 13.6054 0C13.8331 0.00153367 14.0515 0.0909147 14.215 0.249511C14.3785 0.408107 14.4745 0.623682 14.4829 0.851298Z" fill="#4BA9FF"/>
<path id="Vector_4" d="M22.4188 13.9236C22.4275 13.7513 22.4872 13.5855 22.5903 13.4472C22.6934 13.3089 22.8353 13.2043 22.9979 13.1467C23.1606 13.0891 23.3366 13.0811 23.5038 13.1236C23.671 13.1662 23.8218 13.2575 23.9371 13.3858C24.0523 13.5142 24.1268 13.6739 24.1512 13.8447C24.1755 14.0155 24.1486 14.1896 24.0739 14.3451C23.9991 14.5005 23.8799 14.6303 23.7312 14.7179C23.5826 14.8055 23.4113 14.847 23.239 14.8372C23.01 14.8224 22.7958 14.7185 22.6425 14.5477C22.4892 14.3769 22.4089 14.1529 22.4188 13.9236Z" fill="#4BA9FF"/>
<path id="Vector_5" d="M1.74088 11.4376C1.74316 11.6106 1.69392 11.7803 1.59939 11.9251C1.50486 12.07 1.36934 12.1834 1.21012 12.2509C1.05089 12.3184 0.875133 12.3371 0.705296 12.3044C0.535458 12.2716 0.379233 12.1891 0.25647 12.0673C0.133708 11.9455 0.049999 11.7898 0.0160095 11.6203C-0.01798 11.4507 -0.000715639 11.2748 0.0656125 11.1151C0.131941 10.9553 0.244295 10.819 0.388412 10.7234C0.532529 10.6277 0.701855 10.5772 0.874809 10.5781C1.10234 10.5815 1.31972 10.6729 1.48124 10.8332C1.64275 10.9935 1.73582 11.2101 1.74088 11.4376Z" fill="#4BA9FF"/>
<path id="Vector_6" d="M5.30926 2.88555C5.31121 3.05835 5.26172 3.22783 5.16706 3.37242C5.07241 3.51701 4.93687 3.63018 4.77771 3.69751C4.61855 3.76485 4.44295 3.78332 4.27326 3.75056C4.10358 3.71781 3.9475 3.63532 3.82484 3.51358C3.70217 3.39185 3.61849 3.23637 3.58445 3.06694C3.55041 2.89751 3.56754 2.72178 3.63366 2.56211C3.69979 2.40245 3.81192 2.26606 3.95578 2.17031C4.09965 2.07456 4.26875 2.02378 4.44157 2.02442C4.6694 2.02817 4.88696 2.11989 5.04869 2.2804C5.21042 2.44091 5.30379 2.65775 5.30926 2.88555Z" fill="#4BA9FF"/>
<path id="Vector_7" d="M21.7728 18.2902C21.9458 18.2899 22.115 18.3411 22.2588 18.4374C22.4025 18.5336 22.5144 18.6705 22.5801 18.8306C22.6458 18.9907 22.6623 19.1667 22.6275 19.3362C22.5927 19.5056 22.5083 19.6609 22.3849 19.7822C22.2615 19.9035 22.1048 19.9853 21.9347 20.0172C21.7646 20.0491 21.5889 20.0296 21.43 19.9612C21.2711 19.8928 21.1361 19.7786 21.0423 19.6332C20.9486 19.4878 20.9002 19.3177 20.9035 19.1448C20.9098 18.9176 21.0039 18.7017 21.166 18.5423C21.328 18.383 21.5455 18.2926 21.7728 18.2902Z" fill="#4BA9FF"/>
<path id="Vector_8" d="M5.20578 18.2903C5.37855 18.2864 5.54857 18.3339 5.69421 18.4269C5.83986 18.52 5.95458 18.6542 6.02371 18.8126C6.09284 18.971 6.11328 19.1463 6.08246 19.3164C6.05163 19.4864 5.97092 19.6434 5.85059 19.7675C5.73027 19.8915 5.57576 19.9769 5.40673 20.0129C5.2377 20.0489 5.0618 20.0337 4.90139 19.9695C4.74099 19.9052 4.60333 19.7946 4.50594 19.6518C4.40856 19.5091 4.35584 19.3406 4.35449 19.1678C4.3548 18.9397 4.4438 18.7206 4.60265 18.5568C4.76151 18.3931 4.97776 18.2975 5.20578 18.2903Z" fill="#4BA9FF"/>
<path id="Vector_9" d="M26.7077 10.957C26.7054 11.1298 26.6517 11.298 26.5535 11.4402C26.4553 11.5824 26.317 11.6921 26.1562 11.7555C25.9955 11.8188 25.8195 11.833 25.6507 11.796C25.4819 11.7591 25.3279 11.6728 25.2082 11.5481C25.0886 11.4234 25.0088 11.2659 24.9789 11.0957C24.9491 10.9255 24.9705 10.7502 25.0405 10.5923C25.1105 10.4343 25.226 10.3007 25.3721 10.2085C25.5183 10.1163 25.6886 10.0697 25.8614 10.0746C26.0894 10.0831 26.3052 10.1799 26.4631 10.3446C26.621 10.5092 26.7088 10.7289 26.7077 10.957Z" fill="#4BA9FF"/>
<path id="Vector_10" d="M3.41192 7.55572C3.58473 7.55377 3.7542 7.60327 3.89879 7.69792C4.04338 7.79258 4.15654 7.92811 4.22387 8.08727C4.29121 8.24643 4.30969 8.42202 4.27693 8.5917C4.24418 8.76139 4.16168 8.9175 4.03995 9.04016C3.91821 9.16282 3.76275 9.2465 3.59332 9.28054C3.42389 9.31458 3.24814 9.29744 3.08847 9.23132C2.92881 9.16519 2.79242 9.05306 2.69667 8.90919C2.60092 8.76533 2.55015 8.59622 2.55079 8.42341C2.55372 8.19532 2.64519 7.97731 2.80587 7.8154C2.96656 7.6535 3.18386 7.56038 3.41192 7.55572Z" fill="#4BA9FF"/>
<path id="Vector_11" d="M22.7374 7.78525C22.5649 7.77716 22.3986 7.71795 22.2599 7.61514C22.1211 7.51233 22.016 7.37056 21.9579 7.20786C21.8999 7.04517 21.8915 6.86888 21.9338 6.70141C21.9762 6.53394 22.0674 6.38285 22.1958 6.26734C22.3242 6.15183 22.4841 6.07712 22.6551 6.05269C22.8261 6.02827 23.0004 6.05525 23.1561 6.13019C23.3117 6.20513 23.4415 6.32465 23.529 6.47357C23.6165 6.62249 23.6578 6.79407 23.6476 6.96652C23.6321 7.19455 23.5283 7.40755 23.3584 7.56039C23.1885 7.71322 22.9658 7.79387 22.7374 7.78525Z" fill="#4BA9FF"/>
<path id="Vector_12" d="M1.4584 20.3798C1.28596 20.3714 1.11993 20.3119 0.981361 20.2089C0.842792 20.1059 0.73795 19.9641 0.680151 19.8013C0.622352 19.6386 0.614193 19.4624 0.656728 19.2951C0.699264 19.1277 0.790577 18.9768 0.919048 18.8614C1.04752 18.7461 1.20738 18.6715 1.3783 18.6472C1.54922 18.6229 1.72348 18.65 1.879 18.7249C2.03452 18.7999 2.16428 18.9194 2.25175 19.0683C2.33923 19.2172 2.38048 19.3887 2.3703 19.5611C2.35472 19.7894 2.25076 20.0026 2.08048 20.1555C1.91021 20.3084 1.68703 20.3889 1.4584 20.3798Z" fill="#4BA9FF"/>
<path id="Vector_13" d="M25.2429 14.8068C25.4159 14.8038 25.5858 14.8525 25.731 14.9464C25.8762 15.0404 25.9901 15.1755 26.0582 15.3345C26.1263 15.4934 26.1456 15.6691 26.1136 15.839C26.0815 16.009 25.9996 16.1656 25.8782 16.2888C25.7569 16.412 25.6015 16.4963 25.4321 16.5309C25.2626 16.5656 25.0867 16.549 24.9267 16.4833C24.7668 16.4175 24.63 16.3057 24.5338 16.1619C24.4376 16.0182 24.3864 15.849 24.3867 15.6761C24.3888 15.4484 24.4792 15.2305 24.639 15.0683C24.7988 14.906 25.0153 14.8123 25.2429 14.8068Z" fill="#4BA9FF"/>
<path id="Vector_14" d="M25.3149 18.7864C25.4877 18.7838 25.6574 18.8326 25.8023 18.9267C25.9472 19.0208 26.0609 19.1559 26.1288 19.3148C26.1968 19.4737 26.2159 19.6492 26.1838 19.8191C26.1517 19.9889 26.0698 20.1453 25.9485 20.2684C25.8272 20.3915 25.6721 20.4758 25.5028 20.5105C25.3335 20.5452 25.1577 20.5287 24.9978 20.4632C24.8379 20.3977 24.7011 20.286 24.6048 20.1425C24.5085 19.999 24.4571 19.8301 24.457 19.6573C24.4591 19.4292 24.5497 19.2108 24.7098 19.0483C24.8699 18.8858 25.0868 18.7919 25.3149 18.7864Z" fill="#4BA9FF"/>
<path id="Vector_15" d="M8.69296 3.48406C8.5202 3.48071 8.35235 3.42604 8.21074 3.32701C8.06914 3.22799 7.96015 3.08907 7.89772 2.92795C7.83528 2.76682 7.82218 2.59077 7.86007 2.42217C7.89797 2.25358 7.98517 2.10006 8.11055 1.98116C8.23594 1.86226 8.39386 1.78335 8.56422 1.75445C8.73458 1.72556 8.90968 1.74799 9.06726 1.8189C9.22483 1.88981 9.35772 2.00599 9.44908 2.15266C9.54044 2.29933 9.58613 2.46986 9.58031 2.64257C9.57094 2.87072 9.47301 3.08623 9.30732 3.24335C9.14164 3.40046 8.92127 3.48681 8.69296 3.48406Z" fill="#4BA9FF"/>
<g id="Group 427322197">
<path id="Vector_16" d="M24.8409 27.5926C24.8438 27.5454 24.8438 27.4981 24.8409 27.4509C24.8247 27.0031 24.8266 26.5544 24.7893 26.1094C24.6852 24.8898 24.2303 23.8422 23.1304 23.1884C22.6843 22.9339 22.2122 22.7268 21.7219 22.5706C20.7663 22.2456 19.7782 21.9896 18.8217 21.6552C18.1419 21.4265 17.5177 21.0603 16.9889 20.5801C16.6229 20.2419 16.4098 19.8442 16.4394 19.3302C16.4595 18.9854 16.4394 18.6387 16.4471 18.2911C16.4481 18.2077 16.4763 18.1269 16.5273 18.0606C17.1571 17.3445 17.5259 16.5027 17.7801 15.5996C17.8169 15.4953 17.891 15.408 17.9884 15.354C18.333 15.1844 18.6134 14.9098 18.7882 14.5708C18.9599 14.233 19.0588 13.8636 19.0787 13.486C19.0986 13.1084 19.0391 12.7309 18.9039 12.3772C18.8694 12.3018 18.8568 12.2184 18.8676 12.1363C19.073 11.3749 19.0883 10.5983 19.0692 9.81989C19.0649 8.95997 18.8571 8.11298 18.4624 7.34665C18.4463 7.31064 18.438 7.27171 18.438 7.23234C18.438 7.19298 18.4463 7.15405 18.4624 7.11803C18.66 6.75647 18.7507 6.34727 18.7242 5.93715C18.7042 5.52998 18.6344 5.29853 18.063 5.35144C17.2727 5.42512 16.4748 5.37411 15.7333 5.09731C14.4321 4.61602 13.0278 4.47321 11.6548 4.68258C10.5903 4.83279 9.6481 5.2239 8.9792 6.09964C8.93345 6.15332 8.87722 6.19734 8.81388 6.22907C7.89174 6.71842 7.33082 7.49308 7.04701 8.46802C6.79378 9.33809 6.89985 10.2318 6.92852 11.1132C6.93807 11.4382 7.04128 11.7594 7.09575 12.0843C7.11153 12.1496 7.10887 12.2179 7.08809 12.2818C6.92549 12.6683 6.86309 13.0888 6.90654 13.5052C6.96674 14.2553 7.2276 14.9043 7.94047 15.2765C8.01355 15.3099 8.07761 15.36 8.12743 15.4225C8.17725 15.4851 8.21141 15.5584 8.22714 15.6364C8.45935 16.5301 8.84923 17.3464 9.47705 18.0417C9.53278 18.114 9.56359 18.2021 9.56496 18.293C9.57451 18.6312 9.55159 18.9703 9.57261 19.3066C9.59354 19.5669 9.54696 19.8282 9.43727 20.0658C9.32758 20.3033 9.15839 20.5093 8.94574 20.6642C8.61273 20.9304 8.2554 21.1653 7.87836 21.3661C6.81002 21.9244 5.6423 22.205 4.48413 22.5139C4.03262 22.6344 3.59488 22.8006 3.17785 23.0099C2.05791 23.571 1.4425 24.5072 1.27719 25.7212C1.1931 26.3381 1.18163 26.9653 1.13672 27.6191" stroke="#4BA9FF" stroke-width="1.30645" stroke-miterlimit="10"/>
<path id="Vector_17" d="M18.9038 12.3791C18.749 12.1618 18.5588 10.9195 18.4537 10.7419C18.2626 10.4141 18.0934 10.0711 17.8966 9.74522C17.1465 8.50577 16.1555 8.0542 14.7145 8.26204C13.8936 8.38013 13.0709 8.51333 12.23 8.40185C11.541 8.30738 10.916 8.08066 10.3886 7.62058C10.0436 7.32017 9.79802 7.39669 9.58588 7.80952C9.20365 8.54734 8.82141 9.28516 8.39044 9.99274C8.10377 10.4651 7.62597 11.7754 7.0918 12.0872" stroke="#4BA9FF" stroke-width="1.30645" stroke-miterlimit="10"/>
<path id="Vector_18" d="M17.413 20.9404C16.3399 22.9697 14.854 24.6191 12.9877 25.9738C11.1281 24.6512 9.7072 22.9715 8.64746 20.9423" stroke="#4BA9FF" stroke-width="1.30645" stroke-miterlimit="10"/>
<path id="Vector_19" d="M9.52937 13.7568C8.91397 16.0137 9.52937 18.0978 9.52937 18.0978C11.8725 19.7472 14.1601 19.6423 16.5319 18.0335C16.5319 18.0335 17.0575 15.257 16.5319 13.7568" stroke="#4BA9FF" stroke-width="1.30645" stroke-miterlimit="10"/>
<path id="Vector_20" d="M7.0957 12.089L9.52957 13.7564H16.5321L18.9038 12.379" stroke="#4BA9FF" stroke-width="1.30645" stroke-miterlimit="10"/>
<path id="Vector_21" d="M15.3887 15.2764C15.3887 15.2764 16.3442 15.4162 16.7618 15.2764" stroke="#4BA9FF" stroke-width="0.870968" stroke-miterlimit="10"/>
<path id="Vector_22" d="M15.3887 16.6689C15.3887 16.6689 16.2707 16.8654 16.7112 16.6689" stroke="#4BA9FF" stroke-width="1.30645" stroke-miterlimit="10"/>
<path id="Vector_23" d="M10.8999 15.2765C10.8999 15.2765 9.66909 15.5334 9.27539 15.3379" stroke="#4BA9FF" stroke-width="0.870968" stroke-miterlimit="10"/>
<path id="Vector_24" d="M10.9004 16.7119C10.9004 16.7119 9.81769 17.0728 9.29785 16.7563" stroke="#4BA9FF" stroke-width="0.870968" stroke-miterlimit="10"/>
</g>
</g>
<defs>
<clipPath id="clip0_3601_6254">
<rect width="27" height="27.6279" fill="white"/>
</clipPath>
</defs>
</svg>
