<svg width="22" height="22" viewBox="0 0 22 22" fill="none" xmlns="http://www.w3.org/2000/svg">
<circle cx="10.9135" cy="11.3793" r="10.4838" fill="#4BA9FF"/>
<path d="M15.7827 7.73741C15.5082 7.46276 15.1822 7.24489 14.8235 7.09625C14.4647 6.9476 14.0802 6.87109 13.6919 6.87109C13.3036 6.87109 12.9191 6.9476 12.5603 7.09625C12.2016 7.24489 11.8756 7.46276 11.6011 7.73741L11.0314 8.30714L10.4617 7.73741C9.90715 7.1829 9.15507 6.87138 8.37087 6.87138C7.58668 6.87138 6.8346 7.1829 6.28009 7.73741C5.72558 8.29192 5.41406 9.044 5.41406 9.82819C5.41406 10.6124 5.72558 11.3645 6.28009 11.919L6.84982 12.4887L11.0314 16.6703L15.2129 12.4887L15.7827 11.919C16.0573 11.6445 16.2752 11.3185 16.4238 10.9598C16.5725 10.601 16.649 10.2165 16.649 9.82819C16.649 9.43987 16.5725 9.05536 16.4238 8.69662C16.2752 8.33787 16.0573 8.01193 15.7827 7.73741Z" fill="white"/>
</svg>
