<svg width="22" height="22" viewBox="0 0 22 22" fill="none" xmlns="http://www.w3.org/2000/svg">
<g id="Group 427319720">
<g id="Group 427319718">
<circle id="Ellipse 995" cx="10.9135" cy="11.1918" r="10.0511" stroke="#4BA9FF" stroke-width="0.865494"/>
</g>
<g id="&#240;&#159;&#166;&#134; icon &#34;heart&#34;">
<path id="Vector" d="M15.7827 7.54991C15.5082 7.27526 15.1822 7.05739 14.8235 6.90875C14.4647 6.7601 14.0802 6.68359 13.6919 6.68359C13.3036 6.68359 12.9191 6.7601 12.5603 6.90875C12.2016 7.05739 11.8756 7.27526 11.6011 7.54991L11.0314 8.11964L10.4617 7.54991C9.90715 6.9954 9.15507 6.68388 8.37087 6.68388C7.58668 6.68388 6.8346 6.9954 6.28009 7.54991C5.72558 8.10442 5.41406 8.8565 5.41406 9.64069C5.41406 10.4249 5.72558 11.177 6.28009 11.7315L6.84982 12.3012L11.0314 16.4828L15.2129 12.3012L15.7827 11.7315C16.0573 11.457 16.2752 11.131 16.4238 10.7723C16.5725 10.4135 16.649 10.029 16.649 9.64069C16.649 9.25237 16.5725 8.86786 16.4238 8.50912C16.2752 8.15037 16.0573 7.82443 15.7827 7.54991Z" fill="white" stroke="#4BA9FF" stroke-width="0.865494" stroke-linecap="round" stroke-linejoin="round"/>
</g>
</g>
</svg>
