<svg width="14" height="14" viewBox="0 0 14 14" fill="none" xmlns="http://www.w3.org/2000/svg">
<path opacity="0.66" d="M13.5711 10.4658L11.7984 9.03609C11.3916 8.71514 10.8104 8.68596 10.4035 9.00692L8.8924 10.1157C8.71804 10.2616 8.45649 10.2324 8.28213 10.0573L6.01544 8.01487L3.98124 5.73901C3.80688 5.56395 3.80688 5.33053 3.92312 5.12628L5.0274 3.60904C5.34706 3.20055 5.318 2.617 4.99834 2.20851L3.57439 0.428674C3.13849 -0.0965248 2.35387 -0.15488 1.85985 0.341141L0.348721 1.85838C0.11624 2.0918 0 2.41276 0 2.73371C0.145301 5.70984 1.48207 8.54007 3.45815 10.5242C5.43424 12.5082 8.25307 13.8504 11.2172 13.9963C11.5369 14.0255 11.8565 13.8796 12.089 13.6462L13.6001 12.1289C14.1523 11.6913 14.1232 10.8743 13.5711 10.4658Z" fill="#31343D"/>
</svg>
