<svg width="12" height="17" viewBox="0 0 12 17" fill="none" xmlns="http://www.w3.org/2000/svg">
<path d="M2.97062 15.9773C2.67988 15.7764 2.4217 15.529 2.20568 15.2442C1.97017 14.9491 1.75187 14.6387 1.55141 14.3174C1.08066 13.6036 0.711998 12.8229 0.456877 11.9996C0.149423 11.0422 0 10.1256 0 9.22868C0 8.22789 0.209069 7.35459 0.616139 6.62153C0.919678 6.04716 1.36541 5.56705 1.90745 5.23062C2.43266 4.89291 3.03587 4.70796 3.65379 4.69517C3.86901 4.69517 4.10267 4.72704 4.34863 4.79079C4.52696 4.84178 4.74218 4.92465 5.00659 5.02664C5.34479 5.1605 5.52926 5.24337 5.59075 5.2625C5.78752 5.33899 5.95355 5.37086 6.08268 5.37086C6.18106 5.37086 6.32249 5.33899 6.47929 5.28799C6.56846 5.25612 6.73755 5.19875 6.97737 5.09038C7.21472 5.00114 7.40289 4.92465 7.55231 4.86728C7.77983 4.79716 7.99996 4.73342 8.19796 4.70154C8.43778 4.6633 8.67575 4.65055 8.90388 4.66967C9.34046 4.70154 9.74015 4.79716 10.0968 4.9374C10.724 5.19875 11.2301 5.60672 11.6076 6.18679C11.4478 6.28878 11.3002 6.40735 11.1618 6.53738C10.8624 6.81149 10.6084 7.13658 10.4055 7.49674C10.1418 7.98771 10.0053 8.54116 10.0095 9.1031C10.0187 9.79345 10.1878 10.4003 10.526 10.9262C10.7723 11.3162 11.0934 11.6495 11.4693 11.9053C11.6599 12.0392 11.8272 12.1316 11.9858 12.1922C11.912 12.4312 11.8308 12.6639 11.7368 12.8933C11.5234 13.4078 11.2694 13.9005 10.9681 14.3658C10.7025 14.7674 10.4934 15.067 10.3348 15.2646C10.0876 15.5706 9.84899 15.8001 9.60918 15.9639C9.34477 16.1456 9.03424 16.2418 8.71633 16.2418C8.50111 16.2514 8.28589 16.2227 8.08052 16.1609C7.90219 16.1003 7.72633 16.0321 7.55415 15.955C7.37374 15.8694 7.18779 15.797 6.99766 15.7383C6.76402 15.6749 6.52341 15.6434 6.28191 15.6446C6.03594 15.6446 5.79613 15.6764 5.56861 15.737C5.37799 15.7931 5.19352 15.8619 5.01089 15.9442C4.75263 16.0557 4.58353 16.129 4.48514 16.1609C4.28692 16.2217 4.08271 16.2591 3.87638 16.2724C3.55663 16.2724 3.25902 16.1768 2.96263 15.9856L2.97062 15.9773ZM7.18521 4.21007C6.76707 4.42681 6.36984 4.5186 5.97199 4.488C5.9105 4.07621 5.97199 3.65295 6.13802 3.18953C6.2856 2.79431 6.48237 2.43734 6.75293 2.11862C7.03579 1.78715 7.37399 1.51305 7.75523 1.31544C8.16107 1.09871 8.54846 0.983967 8.91741 0.964844C8.9666 1.39831 8.91741 1.82539 8.76368 2.28435C8.62216 2.69205 8.41417 3.07153 8.14877 3.40626C7.88128 3.73773 7.54923 4.01183 7.17353 4.20944L7.18521 4.21007Z" fill="white"/>
</svg>
