<svg width="20" height="20" viewBox="0 0 20 20" fill="none" xmlns="http://www.w3.org/2000/svg">
<path d="M9.67288 6.29785C11.5363 6.29785 13.0469 7.80844 13.0469 9.67185C13.0469 11.5353 11.5363 13.0459 9.67288 13.0459C7.80944 13.0459 6.29888 11.5353 6.29888 9.67185C6.29888 7.80844 7.80944 6.29785 9.67288 6.29785Z" fill="#4BA9FF"/>
<path fill-rule="evenodd" clip-rule="evenodd" d="M9.67162 0C9.29895 0 8.99682 0.302121 8.99682 0.6748V1.82798C5.18717 2.15138 2.15084 5.18769 1.82747 8.99733H0.674286C0.301617 8.99733 -0.000513077 9.29946 -0.000513077 9.67213C-0.000513077 10.0448 0.301617 10.3469 0.674286 10.3469H1.82747C2.15084 14.1566 5.18717 17.1929 8.99682 17.5163V18.6695C8.99682 19.0421 9.29895 19.3443 9.67162 19.3443C10.0443 19.3443 10.3464 19.0421 10.3464 18.6695V17.5163C14.1561 17.1929 17.1924 14.1566 17.5158 10.3469H18.669C19.0416 10.3469 19.3438 10.0448 19.3438 9.67213C19.3438 9.29946 19.0416 8.99733 18.669 8.99733H17.5158C17.1924 5.18769 14.1561 2.15138 10.3464 1.82798V0.6748C10.3464 0.302121 10.0443 0 9.67162 0ZM16.1947 9.67213C16.1947 13.2748 13.2742 16.1952 9.67162 16.1952C6.069 16.1952 3.14855 13.2748 3.14855 9.67213C3.14855 6.06955 6.069 3.14907 9.67162 3.14907C13.2742 3.14907 16.1947 6.06955 16.1947 9.67213Z" fill="#4BA9FF"/>
</svg>
