<svg width="45" height="46" viewBox="0 0 45 46" fill="none" xmlns="http://www.w3.org/2000/svg">
<path fill-rule="evenodd" clip-rule="evenodd" d="M14.4208 7.74252C20.4403 4.07491 27.0905 9.35787 32.5634 13.8001C37.3115 17.654 41.9962 22.7713 40.0985 28.5847C38.1099 34.6765 31.3582 37.1635 24.9502 37.1224C18.1276 37.0787 10.9309 34.8057 8.62908 28.3829C5.96373 20.9459 7.67412 11.8531 14.4208 7.74252Z" fill="#E2FFF8"/>
<g clip-path="url(#clip0_3659_228)">
<path d="M21.3239 9.01642L22.2738 8.93871C22.2826 8.91539 22.3117 8.84158 22.3379 8.77067C22.5147 8.26849 22.6876 7.76437 22.8683 7.26317C22.9654 6.99508 23.1004 6.90767 23.3666 6.96012C24.1458 7.10918 24.9425 7.14419 25.7318 7.06405C25.7821 7.05668 25.8334 7.05945 25.8827 7.0722C25.9319 7.08494 25.9781 7.1074 26.0186 7.13826C26.059 7.16911 26.0929 7.20775 26.1182 7.25189C26.1435 7.29603 26.1597 7.34478 26.1659 7.39527C26.1725 7.44794 26.1676 7.50139 26.1517 7.55202C26.1359 7.60266 26.1093 7.6493 26.0739 7.68879C26.0384 7.72829 25.9949 7.75972 25.9463 7.78097C25.8977 7.80222 25.845 7.81279 25.792 7.81197C25.1392 7.81974 24.4846 7.8178 23.8328 7.78866C23.4812 7.77312 23.4802 7.74398 23.3666 8.08006C23.2002 8.57867 23.0383 9.07728 22.8809 9.5759C22.7896 9.85467 22.5895 9.94694 22.3137 9.83135C21.7085 9.57881 21.3783 9.74296 21.2394 10.385C21.1111 10.916 21.1585 11.4743 21.3744 11.976C21.4434 12.1289 21.5425 12.2664 21.6658 12.3801C21.7549 12.442 21.8647 12.4667 21.9718 12.4491C22.2495 12.4093 22.3962 12.5044 22.4982 12.7813C22.741 13.4379 22.945 14.1168 23.2597 14.7385C23.8707 15.9478 24.7818 16.8822 26.0503 17.4203C27.8337 18.176 29.8191 17.7059 31.2236 16.2081C31.8799 15.4929 32.391 14.657 32.7282 13.7468C32.7561 13.6628 32.7886 13.5805 32.8253 13.5001C32.8662 13.4146 32.9379 13.3478 33.0261 13.3132C33.1142 13.2786 33.2122 13.2787 33.3003 13.3136C33.389 13.3458 33.4614 13.4117 33.5017 13.497C33.5421 13.5823 33.5472 13.6801 33.5159 13.7691C33.39 14.128 33.2454 14.4801 33.0827 14.824C32.6243 15.7548 31.9792 16.5814 31.1877 17.2523C31.136 17.2879 31.0971 17.3393 31.077 17.3989C31.0569 17.4584 31.0565 17.5228 31.076 17.5825C31.2188 18.1657 31.4974 18.7068 31.889 19.1619C31.9586 19.2371 32.0488 19.2901 32.1483 19.3144C34.0326 19.6991 35.8603 20.3216 37.5877 21.1667C38.4159 21.5755 39.1043 22.2204 39.5663 23.0202C40.0282 23.8199 40.2428 24.7385 40.1831 25.6601C40.1831 25.6999 40.1783 25.7407 40.1715 25.7805C40.1355 26.0078 39.9869 26.1457 39.7829 26.1399C39.579 26.1341 39.4303 25.9719 39.4158 25.7358C39.3934 25.3415 39.4051 24.9403 39.3361 24.5547C39.1419 23.494 38.5348 22.7034 37.6693 22.0924C36.8748 21.531 35.986 21.1648 35.0633 20.8909C34.0919 20.5995 33.1022 20.3518 32.1182 20.0963C32.0715 20.0884 32.0235 20.0909 31.9778 20.1036C31.9322 20.1164 31.8899 20.1391 31.854 20.1701C30.6483 21.4335 29.4503 22.7024 28.2601 23.9768C28.1976 24.0559 28.1634 24.1537 28.163 24.2546C28.1533 24.7315 28.163 25.2094 28.1571 25.6863C28.1571 25.9544 28.0221 26.1108 27.8026 26.1234C27.5598 26.137 27.4024 25.9748 27.3995 25.6863C27.3995 25.2259 27.4083 24.7645 27.3908 24.3041C27.3851 24.165 27.3339 24.0316 27.2451 23.9243C26.1125 22.717 24.977 21.5261 23.8503 20.3197C23.6978 20.1565 23.5638 20.0924 23.3326 20.1371C21.5376 20.481 19.8067 21.0181 18.203 21.903C17.1792 22.4683 16.4391 23.293 16.2108 24.4828C16.1532 24.8494 16.1253 25.22 16.1273 25.5911C16.1195 25.935 16.0185 26.1098 15.7718 26.1215C15.5251 26.1331 15.3706 25.967 15.3638 25.6086C15.3221 23.6523 16.1409 22.1604 17.8582 21.2279C19.5191 20.3364 21.315 19.7232 23.1743 19.4125C23.2693 19.4056 23.3608 19.374 23.4399 19.3209C23.5189 19.2677 23.5827 19.1948 23.6249 19.1095C23.8843 18.5898 24.1543 18.076 24.4263 17.5631C24.4962 17.432 24.471 17.3552 24.3583 17.2571C23.1859 16.2495 22.331 14.9235 21.897 13.4398C21.8829 13.3941 21.8591 13.352 21.8272 13.3163C21.7954 13.2806 21.7562 13.2522 21.7124 13.2329C21.5028 13.1826 21.3076 13.0848 21.1419 12.9471C20.9762 12.8093 20.8444 12.6352 20.7566 12.4384C20.5607 12.06 20.4448 11.6454 20.4158 11.2203C20.3869 10.7952 20.4457 10.3688 20.5886 9.96734C20.6489 9.79515 20.661 9.60974 20.6236 9.43117C20.302 7.63033 20.5264 5.91886 21.5113 4.35114C22.471 2.82519 23.8785 1.93351 25.6268 1.56926C25.9182 1.50807 26.1125 1.61006 26.1679 1.83249C26.2232 2.05493 26.0805 2.23753 25.7725 2.30553C24.1747 2.6552 22.8877 3.4614 22.0427 4.89022C21.2831 6.17917 21.1141 7.57108 21.3239 9.01642ZM27.7744 23.3833L31.2489 19.7078L30.3135 17.8788C29.5348 18.3294 28.6499 18.5642 27.7502 18.5587C26.836 18.5529 25.9398 18.3039 25.1538 17.837C24.9207 18.2877 24.706 18.7209 24.4739 19.1444C24.2184 19.6116 24.2097 19.6097 24.5827 20.005C25.6366 21.124 26.6953 22.2391 27.7744 23.3833Z" fill="#31343D"/>
<path d="M28.9122 12.3343H27.6029C27.2512 12.3343 27.1172 12.207 27.1172 11.8486C27.1172 8.50918 27.1172 5.16976 27.1172 1.83034C27.1172 1.4593 27.2425 1.33691 27.6164 1.33691H39.6745C40.0572 1.33691 40.1796 1.46319 40.1796 1.85172C40.1796 5.17559 40.1796 8.49882 40.1796 11.8214C40.1796 12.2099 40.0543 12.3323 39.6725 12.3323C37.4812 12.3323 35.2902 12.3323 33.0996 12.3323C32.9236 12.3267 32.7508 12.3804 32.6091 12.4848C31.6173 13.1958 30.6188 13.8981 29.6242 14.6042C29.4668 14.7169 29.3104 14.8131 29.1133 14.7014C28.9161 14.5897 28.9112 14.4265 28.9112 14.2419C28.9132 13.6193 28.9122 12.9977 28.9122 12.3343ZM27.8855 2.10815V11.5795H28.7888C29.663 11.5795 29.663 11.5795 29.663 12.4469V13.6358C29.7602 13.5698 29.8311 13.529 29.8952 13.4843C30.7004 12.9151 31.5085 12.3498 32.306 11.7719C32.4879 11.638 32.7097 11.5695 32.9354 11.5776C34.9888 11.5828 37.0422 11.5828 39.0956 11.5776H39.4035V2.10815H27.8855Z" fill="#31343D"/>
<path d="M33.6811 26.1459C32.9779 26.1459 32.2756 26.1459 31.5724 26.1459C31.1673 26.1459 31.0527 26.0313 31.0518 25.6263C31.0518 25.0853 31.0518 24.5442 31.0518 24.0032C31.0518 23.6302 31.1751 23.5098 31.5491 23.5098C32.9737 23.5098 34.3954 23.5098 35.8142 23.5098C36.1852 23.5098 36.3115 23.638 36.3125 24.0042C36.3125 24.5526 36.3125 25.1031 36.3125 25.6554C36.3125 26.0197 36.1833 26.1479 35.8132 26.1489C35.1022 26.1479 34.3921 26.1459 33.6811 26.1459ZM31.8123 25.3689H35.5451V24.281H31.8123V25.3689Z" fill="#31343D"/>
<path d="M32.3522 5.63619C32.3522 5.27389 32.3522 4.93684 32.3522 4.59979C32.3522 3.88295 32.6902 3.54785 33.4061 3.54688C33.6004 3.54688 33.7946 3.54688 33.9889 3.54688C34.5591 3.55173 34.9272 3.90917 34.9398 4.48323C34.9486 4.85427 34.9398 5.2263 34.9398 5.63425C35.2905 5.63425 35.6275 5.65465 35.9626 5.63425C36.6766 5.58374 37.0797 6.09563 37.0311 6.70271C37.0165 6.89697 37.0311 7.09124 37.0311 7.28551C37.0165 7.83916 36.6426 8.20826 36.0928 8.21603C35.7217 8.22089 35.3507 8.21603 34.9398 8.21603C34.9398 8.51714 34.9398 8.79883 34.9398 9.09022C34.944 9.25255 34.9352 9.41495 34.9136 9.57589C34.8799 9.77693 34.777 9.95987 34.6227 10.0931C34.4684 10.2263 34.2724 10.3014 34.0686 10.3054C33.8102 10.3122 33.5508 10.3054 33.2915 10.3054C32.7446 10.3054 32.3784 9.95276 32.3551 9.40396C32.3415 9.10577 32.3551 8.8066 32.3551 8.50743C32.3551 8.42001 32.3551 8.33356 32.3551 8.21603C31.9763 8.21603 31.6228 8.21603 31.2692 8.21603C30.6252 8.21603 30.2668 7.85373 30.2629 7.2078C30.2629 6.99799 30.258 6.78721 30.2629 6.5774C30.2784 6.00432 30.6446 5.64299 31.2148 5.63911C31.581 5.63328 31.9511 5.63619 32.3522 5.63619ZM34.1812 8.60748C34.1812 8.38893 34.1812 8.17135 34.1812 7.95281C34.1812 7.58564 34.3056 7.46714 34.6795 7.46714C35.1156 7.46714 35.5537 7.46131 35.9879 7.46714C36.1899 7.46714 36.2909 7.40595 36.2793 7.1874C36.2662 7.01021 36.2662 6.8323 36.2793 6.65512C36.2948 6.43754 36.1958 6.37246 35.9927 6.37635C35.5654 6.38412 35.137 6.37635 34.7087 6.37635C34.3036 6.37635 34.1871 6.26075 34.1861 5.86154C34.1861 5.42541 34.1783 4.98735 34.1861 4.55317C34.1909 4.34919 34.1074 4.27634 33.9131 4.28605C33.7364 4.29382 33.5576 4.29382 33.3809 4.28605C33.1866 4.27731 33.1021 4.34919 33.1069 4.55317C33.1167 4.99706 33.1069 5.44193 33.1069 5.88582C33.1069 6.25395 32.9836 6.37149 32.6096 6.37635C32.1735 6.37635 31.7354 6.38217 31.3012 6.37635C31.0992 6.37635 30.9992 6.43754 31.0157 6.65512C31.0302 6.82446 31.0302 6.99474 31.0157 7.16409C30.9904 7.40886 31.105 7.47297 31.3275 7.46714C31.7636 7.45743 32.2017 7.46714 32.6358 7.46714C32.9768 7.46714 33.105 7.59633 33.1069 7.93338C33.1069 8.39379 33.1069 8.8542 33.1069 9.3146C33.1069 9.47682 33.1662 9.55744 33.3303 9.55646C33.5402 9.55646 33.7509 9.55646 33.9607 9.55646C34.1268 9.55646 34.188 9.47487 34.1822 9.31363C34.1735 9.07954 34.1812 8.84545 34.1812 8.60748Z" fill="#31343D"/>
</g>
<defs>
<clipPath id="clip0_3659_228">
<rect width="24.8319" height="24.8086" fill="white" transform="translate(15.3623 1.33691)"/>
</clipPath>
</defs>
</svg>
