<svg width="48" height="49" viewBox="0 0 48 49" fill="none" xmlns="http://www.w3.org/2000/svg">
<path fill-rule="evenodd" clip-rule="evenodd" d="M14.9329 7.96222C21.3987 4.0227 28.542 9.69733 34.4206 14.4689C39.5207 18.6086 44.5528 24.1052 42.5144 30.3496C40.3783 36.893 33.126 39.5644 26.2429 39.5203C18.9145 39.4733 11.1843 37.0318 8.71183 30.1329C5.84887 22.1444 7.68607 12.3776 14.9329 7.96222Z" fill="#FFF5E2"/>
<g clip-path="url(#clip0_3659_227)">
<mask id="path-2-outside-1_3659_227" maskUnits="userSpaceOnUse" x="16.9385" y="4.06824" width="27" height="27" fill="black">
<rect fill="white" x="16.9385" y="4.06824" width="27" height="27"/>
<path d="M36.1199 6.34497C36.5356 5.93429 37.0304 5.61227 37.5743 5.3984C40.2697 4.35995 43.1776 6.36374 43.1549 9.25185C43.1499 9.90792 42.897 10.5017 42.6223 11.0827C42.4613 11.4236 42.2814 11.7566 42.0947 12.0846C42.0554 12.1401 42.0322 12.2053 42.0275 12.2731C42.0228 12.3409 42.0368 12.4086 42.068 12.469C42.8445 14.1632 43.2334 16.0092 43.2063 17.8727C43.1568 23.4404 39.2965 28.4361 33.9185 29.8875C32.277 30.3374 30.5617 30.4509 28.8753 30.2213C27.1889 29.9918 25.5663 29.4238 24.1049 28.5516C22.6434 27.6794 21.3733 26.5208 20.3707 25.1456C19.3681 23.7703 18.6538 22.2066 18.2705 20.5484C16.6511 13.6991 21.124 6.71549 28.0197 5.3322C30.7725 4.78185 33.4294 5.08914 35.9776 6.28173C36.0181 6.30248 36.0635 6.32125 36.1199 6.34497ZM25.1524 6.93781C25.4972 7.38639 25.8302 7.47827 26.2857 7.2609C26.67 7.07811 27.0761 6.96448 27.4773 7.11467C28.0272 7.30695 28.5641 7.53435 29.0849 7.79544C29.3105 7.91053 29.5021 8.08258 29.6408 8.29454C29.7794 8.5065 29.8603 8.75101 29.8753 9.00384C29.9028 9.32327 29.8942 9.64478 29.8496 9.96227C29.7557 10.6539 29.2726 11.1163 28.578 11.2013C28.244 11.2418 27.9071 11.2665 27.5711 11.2803C27.324 11.2866 27.0808 11.3439 26.8569 11.4487C26.633 11.5534 26.4331 11.7033 26.2699 11.889C26.0367 12.1439 25.8065 12.4018 25.5654 12.6478C24.8866 13.3395 24.0675 13.5973 23.115 13.4175C22.8245 13.3622 22.537 13.294 22.2484 13.2268C22.1012 13.1932 22.0054 13.2416 22.037 13.3948C22.0648 13.5771 22.1261 13.7526 22.2178 13.9125C22.372 14.1428 22.5785 14.3374 22.7553 14.5538C22.8747 14.6864 22.949 14.8534 22.9678 15.0308C22.9867 15.2083 22.9489 15.3871 22.8601 15.5419C22.7753 15.7035 22.6517 15.8416 22.5005 15.9438C22.3492 16.046 22.175 16.1091 21.9933 16.1274C21.8117 16.1457 21.6284 16.1187 21.4598 16.0487C21.2912 15.9788 21.1425 15.8681 21.0272 15.7266C20.9114 15.5756 20.7571 15.4585 20.5805 15.3875C20.4039 15.3166 20.2114 15.2945 20.0233 15.3235C19.6577 15.3729 19.2951 15.446 18.9286 15.4974C18.8643 15.4992 18.8033 15.5258 18.7583 15.5717C18.7134 15.6176 18.688 15.6792 18.6875 15.7434C18.4299 17.322 18.4904 18.9362 18.8653 20.4911C20.3889 26.7386 26.3697 30.6513 32.6982 29.5467C38.6187 28.5191 42.9029 23.1371 42.6016 17.1247C42.5966 17.0407 42.5818 16.9578 42.5709 16.8659C41.41 17.2957 40.6679 18.1296 40.3893 19.2916C40.3102 19.6186 40.2332 19.9466 40.1521 20.2727C40.0891 20.5573 39.9198 20.8071 39.6789 20.9713C39.2165 21.2855 38.756 21.6017 38.2798 21.8931C37.767 22.2073 37.1731 22.1233 36.7414 21.6955C36.5655 21.5226 36.4064 21.3329 36.2286 21.1629C35.8264 20.7816 35.7167 20.3241 35.8215 19.7905C35.9203 19.2837 36.0072 18.7728 36.0863 18.261C36.1115 18.1119 36.101 17.959 36.0556 17.8148C36.0101 17.6706 35.9311 17.5393 35.825 17.4316C35.7188 17.3239 35.5886 17.243 35.4451 17.1955C35.3016 17.148 35.1488 17.1352 34.9994 17.1583C34.536 17.2265 34.0746 17.3026 33.6161 17.3797C33.2368 17.4496 32.845 17.3911 32.5027 17.2134C32.1603 17.0357 31.887 16.749 31.7259 16.3985C31.5926 16.1169 31.4671 15.8314 31.3465 15.5428C31.218 15.2606 31.1679 14.949 31.2015 14.6408C31.235 14.3325 31.351 14.039 31.5372 13.791C31.7072 13.5493 31.8817 13.3105 32.0609 13.0747C32.1237 12.9934 32.1676 12.8992 32.1895 12.7989C32.2114 12.6986 32.2107 12.5947 32.1874 12.4947C32.1471 12.3018 32.1309 12.1046 32.139 11.9078C32.1507 11.6056 32.2406 11.3117 32.4 11.0547C32.5593 10.7976 32.7826 10.5864 33.048 10.4415C33.6586 10.0917 34.1101 9.63621 34.3186 8.94456C34.4273 8.58392 34.6842 8.30627 34.9905 8.08297C35.0542 8.04611 35.1089 7.99547 35.1506 7.93476C35.3324 7.56226 35.5033 7.18482 35.6891 6.78465C32.1666 5.23339 28.6669 5.28971 25.1563 6.94176L25.1524 6.93781ZM41.6026 12.884C41.5137 13.0174 41.4495 13.1221 41.3773 13.2199C40.7094 14.125 40.0444 15.033 39.3676 15.9321C39.1354 16.2424 38.9596 16.2384 38.7254 15.9381C38.2511 15.3294 37.7561 14.7336 37.3204 14.0973C36.2621 12.554 35.115 11.0472 34.9016 9.07103C34.8786 9.10834 34.8591 9.14771 34.8433 9.18861C34.6131 9.97906 34.0904 10.5077 33.3958 10.9177C32.8029 11.2695 32.6251 11.723 32.7614 12.4057C32.8006 12.5784 32.8012 12.7575 32.7631 12.9304C32.725 13.1032 32.6492 13.2655 32.5411 13.4057C32.3563 13.6566 32.1706 13.9086 31.9917 14.1645C31.8766 14.3211 31.8044 14.505 31.7824 14.6981C31.7604 14.8912 31.7893 15.0867 31.8663 15.2652C31.9878 15.5705 32.1202 15.8719 32.2615 16.1663C32.3685 16.391 32.546 16.5745 32.767 16.6889C32.9881 16.8033 33.2405 16.8422 33.4857 16.7997C33.7208 16.7631 33.954 16.7157 34.1902 16.6811C34.5548 16.6268 34.9223 16.5309 35.2859 16.5398C36.111 16.5596 36.8066 17.4933 36.6692 18.3401C36.5754 18.9151 36.4766 19.4902 36.3797 20.0642C36.359 20.1703 36.3647 20.2798 36.3962 20.3832C36.4277 20.4866 36.4842 20.5806 36.5605 20.6571C36.7463 20.8547 36.9311 21.0523 37.1227 21.2499C37.3974 21.5266 37.7021 21.5595 38.0367 21.3487C38.2452 21.2173 38.4487 21.08 38.6533 20.9416C39.6561 20.2648 39.4803 20.5583 39.75 19.3607C39.9545 18.4517 40.3369 17.6425 41.074 17.0595C41.4554 16.7631 41.9149 16.5566 42.3328 16.2987C42.4059 16.2543 42.5018 16.1475 42.4929 16.0813C42.3522 14.9799 42.0537 13.9044 41.6066 12.8879L41.6026 12.884ZM18.8584 14.9115C19.1548 14.8631 19.4117 14.8344 19.6577 14.7811C20.4294 14.6121 21.0717 14.7998 21.5588 15.4411C21.5786 15.4733 21.6048 15.5011 21.6358 15.5228C21.6668 15.5445 21.7019 15.5595 21.739 15.567C21.7761 15.5745 21.8143 15.5743 21.8513 15.5664C21.8883 15.5585 21.9232 15.5431 21.954 15.5211C22.0251 15.4816 22.0983 15.4421 22.1684 15.4006C22.4253 15.2524 22.453 15.113 22.2672 14.8907C22.1151 14.7069 21.9609 14.5251 21.8009 14.3483C21.6784 14.2158 21.5838 14.0601 21.5227 13.8903C21.4616 13.7206 21.4352 13.5403 21.4452 13.3602C21.4629 12.8573 21.8493 12.5441 22.3433 12.6488C22.6239 12.7081 22.9035 12.7733 23.1841 12.8326C23.9634 12.9986 24.628 12.7921 25.1781 12.2131C25.432 11.9443 25.677 11.6667 25.9339 11.4019C26.3441 10.9772 26.9013 10.7259 27.4911 10.6994C27.8597 10.6756 28.2302 10.6569 28.5958 10.6006C28.7574 10.5831 28.9087 10.513 29.0266 10.4011C29.1444 10.2891 29.2222 10.1415 29.2479 9.98104C29.2878 9.74638 29.307 9.50865 29.3052 9.27062C29.317 8.77659 29.0849 8.42385 28.6323 8.22327C28.2954 8.07407 27.9486 7.94464 27.6146 7.78853C27.4458 7.70201 27.2582 7.65863 27.0686 7.66225C26.8789 7.66587 26.6931 7.71638 26.5277 7.80927C26.2497 7.95764 25.9287 8.00479 25.6197 7.94266C25.186 7.86263 24.8866 7.59486 24.6218 7.2362C21.6526 8.99791 19.7437 11.5333 18.8584 14.9115ZM39.0564 15.4114C39.4516 14.8838 39.835 14.3927 40.1996 13.8868C40.9258 12.881 41.6224 11.8544 42.1391 10.7191C42.4277 10.0868 42.6401 9.44452 42.5294 8.72225C42.317 7.34291 41.3289 6.17996 39.9585 5.84006C38.5179 5.48041 37.2739 5.87267 36.3323 7.01882C35.3907 8.16497 35.3176 9.42377 35.9657 10.7527C36.7838 12.4265 37.8845 13.9066 39.0564 15.4114Z"/>
</mask>
<path d="M36.1199 6.34497C36.5356 5.93429 37.0304 5.61227 37.5743 5.3984C40.2697 4.35995 43.1776 6.36374 43.1549 9.25185C43.1499 9.90792 42.897 10.5017 42.6223 11.0827C42.4613 11.4236 42.2814 11.7566 42.0947 12.0846C42.0554 12.1401 42.0322 12.2053 42.0275 12.2731C42.0228 12.3409 42.0368 12.4086 42.068 12.469C42.8445 14.1632 43.2334 16.0092 43.2063 17.8727C43.1568 23.4404 39.2965 28.4361 33.9185 29.8875C32.277 30.3374 30.5617 30.4509 28.8753 30.2213C27.1889 29.9918 25.5663 29.4238 24.1049 28.5516C22.6434 27.6794 21.3733 26.5208 20.3707 25.1456C19.3681 23.7703 18.6538 22.2066 18.2705 20.5484C16.6511 13.6991 21.124 6.71549 28.0197 5.3322C30.7725 4.78185 33.4294 5.08914 35.9776 6.28173C36.0181 6.30248 36.0635 6.32125 36.1199 6.34497ZM25.1524 6.93781C25.4972 7.38639 25.8302 7.47827 26.2857 7.2609C26.67 7.07811 27.0761 6.96448 27.4773 7.11467C28.0272 7.30695 28.5641 7.53435 29.0849 7.79544C29.3105 7.91053 29.5021 8.08258 29.6408 8.29454C29.7794 8.5065 29.8603 8.75101 29.8753 9.00384C29.9028 9.32327 29.8942 9.64478 29.8496 9.96227C29.7557 10.6539 29.2726 11.1163 28.578 11.2013C28.244 11.2418 27.9071 11.2665 27.5711 11.2803C27.324 11.2866 27.0808 11.3439 26.8569 11.4487C26.633 11.5534 26.4331 11.7033 26.2699 11.889C26.0367 12.1439 25.8065 12.4018 25.5654 12.6478C24.8866 13.3395 24.0675 13.5973 23.115 13.4175C22.8245 13.3622 22.537 13.294 22.2484 13.2268C22.1012 13.1932 22.0054 13.2416 22.037 13.3948C22.0648 13.5771 22.1261 13.7526 22.2178 13.9125C22.372 14.1428 22.5785 14.3374 22.7553 14.5538C22.8747 14.6864 22.949 14.8534 22.9678 15.0308C22.9867 15.2083 22.9489 15.3871 22.8601 15.5419C22.7753 15.7035 22.6517 15.8416 22.5005 15.9438C22.3492 16.046 22.175 16.1091 21.9933 16.1274C21.8117 16.1457 21.6284 16.1187 21.4598 16.0487C21.2912 15.9788 21.1425 15.8681 21.0272 15.7266C20.9114 15.5756 20.7571 15.4585 20.5805 15.3875C20.4039 15.3166 20.2114 15.2945 20.0233 15.3235C19.6577 15.3729 19.2951 15.446 18.9286 15.4974C18.8643 15.4992 18.8033 15.5258 18.7583 15.5717C18.7134 15.6176 18.688 15.6792 18.6875 15.7434C18.4299 17.322 18.4904 18.9362 18.8653 20.4911C20.3889 26.7386 26.3697 30.6513 32.6982 29.5467C38.6187 28.5191 42.9029 23.1371 42.6016 17.1247C42.5966 17.0407 42.5818 16.9578 42.5709 16.8659C41.41 17.2957 40.6679 18.1296 40.3893 19.2916C40.3102 19.6186 40.2332 19.9466 40.1521 20.2727C40.0891 20.5573 39.9198 20.8071 39.6789 20.9713C39.2165 21.2855 38.756 21.6017 38.2798 21.8931C37.767 22.2073 37.1731 22.1233 36.7414 21.6955C36.5655 21.5226 36.4064 21.3329 36.2286 21.1629C35.8264 20.7816 35.7167 20.3241 35.8215 19.7905C35.9203 19.2837 36.0072 18.7728 36.0863 18.261C36.1115 18.1119 36.101 17.959 36.0556 17.8148C36.0101 17.6706 35.9311 17.5393 35.825 17.4316C35.7188 17.3239 35.5886 17.243 35.4451 17.1955C35.3016 17.148 35.1488 17.1352 34.9994 17.1583C34.536 17.2265 34.0746 17.3026 33.6161 17.3797C33.2368 17.4496 32.845 17.3911 32.5027 17.2134C32.1603 17.0357 31.887 16.749 31.7259 16.3985C31.5926 16.1169 31.4671 15.8314 31.3465 15.5428C31.218 15.2606 31.1679 14.949 31.2015 14.6408C31.235 14.3325 31.351 14.039 31.5372 13.791C31.7072 13.5493 31.8817 13.3105 32.0609 13.0747C32.1237 12.9934 32.1676 12.8992 32.1895 12.7989C32.2114 12.6986 32.2107 12.5947 32.1874 12.4947C32.1471 12.3018 32.1309 12.1046 32.139 11.9078C32.1507 11.6056 32.2406 11.3117 32.4 11.0547C32.5593 10.7976 32.7826 10.5864 33.048 10.4415C33.6586 10.0917 34.1101 9.63621 34.3186 8.94456C34.4273 8.58392 34.6842 8.30627 34.9905 8.08297C35.0542 8.04611 35.1089 7.99547 35.1506 7.93476C35.3324 7.56226 35.5033 7.18482 35.6891 6.78465C32.1666 5.23339 28.6669 5.28971 25.1563 6.94176L25.1524 6.93781ZM41.6026 12.884C41.5137 13.0174 41.4495 13.1221 41.3773 13.2199C40.7094 14.125 40.0444 15.033 39.3676 15.9321C39.1354 16.2424 38.9596 16.2384 38.7254 15.9381C38.2511 15.3294 37.7561 14.7336 37.3204 14.0973C36.2621 12.554 35.115 11.0472 34.9016 9.07103C34.8786 9.10834 34.8591 9.14771 34.8433 9.18861C34.6131 9.97906 34.0904 10.5077 33.3958 10.9177C32.8029 11.2695 32.6251 11.723 32.7614 12.4057C32.8006 12.5784 32.8012 12.7575 32.7631 12.9304C32.725 13.1032 32.6492 13.2655 32.5411 13.4057C32.3563 13.6566 32.1706 13.9086 31.9917 14.1645C31.8766 14.3211 31.8044 14.505 31.7824 14.6981C31.7604 14.8912 31.7893 15.0867 31.8663 15.2652C31.9878 15.5705 32.1202 15.8719 32.2615 16.1663C32.3685 16.391 32.546 16.5745 32.767 16.6889C32.9881 16.8033 33.2405 16.8422 33.4857 16.7997C33.7208 16.7631 33.954 16.7157 34.1902 16.6811C34.5548 16.6268 34.9223 16.5309 35.2859 16.5398C36.111 16.5596 36.8066 17.4933 36.6692 18.3401C36.5754 18.9151 36.4766 19.4902 36.3797 20.0642C36.359 20.1703 36.3647 20.2798 36.3962 20.3832C36.4277 20.4866 36.4842 20.5806 36.5605 20.6571C36.7463 20.8547 36.9311 21.0523 37.1227 21.2499C37.3974 21.5266 37.7021 21.5595 38.0367 21.3487C38.2452 21.2173 38.4487 21.08 38.6533 20.9416C39.6561 20.2648 39.4803 20.5583 39.75 19.3607C39.9545 18.4517 40.3369 17.6425 41.074 17.0595C41.4554 16.7631 41.9149 16.5566 42.3328 16.2987C42.4059 16.2543 42.5018 16.1475 42.4929 16.0813C42.3522 14.9799 42.0537 13.9044 41.6066 12.8879L41.6026 12.884ZM18.8584 14.9115C19.1548 14.8631 19.4117 14.8344 19.6577 14.7811C20.4294 14.6121 21.0717 14.7998 21.5588 15.4411C21.5786 15.4733 21.6048 15.5011 21.6358 15.5228C21.6668 15.5445 21.7019 15.5595 21.739 15.567C21.7761 15.5745 21.8143 15.5743 21.8513 15.5664C21.8883 15.5585 21.9232 15.5431 21.954 15.5211C22.0251 15.4816 22.0983 15.4421 22.1684 15.4006C22.4253 15.2524 22.453 15.113 22.2672 14.8907C22.1151 14.7069 21.9609 14.5251 21.8009 14.3483C21.6784 14.2158 21.5838 14.0601 21.5227 13.8903C21.4616 13.7206 21.4352 13.5403 21.4452 13.3602C21.4629 12.8573 21.8493 12.5441 22.3433 12.6488C22.6239 12.7081 22.9035 12.7733 23.1841 12.8326C23.9634 12.9986 24.628 12.7921 25.1781 12.2131C25.432 11.9443 25.677 11.6667 25.9339 11.4019C26.3441 10.9772 26.9013 10.7259 27.4911 10.6994C27.8597 10.6756 28.2302 10.6569 28.5958 10.6006C28.7574 10.5831 28.9087 10.513 29.0266 10.4011C29.1444 10.2891 29.2222 10.1415 29.2479 9.98104C29.2878 9.74638 29.307 9.50865 29.3052 9.27062C29.317 8.77659 29.0849 8.42385 28.6323 8.22327C28.2954 8.07407 27.9486 7.94464 27.6146 7.78853C27.4458 7.70201 27.2582 7.65863 27.0686 7.66225C26.8789 7.66587 26.6931 7.71638 26.5277 7.80927C26.2497 7.95764 25.9287 8.00479 25.6197 7.94266C25.186 7.86263 24.8866 7.59486 24.6218 7.2362C21.6526 8.99791 19.7437 11.5333 18.8584 14.9115ZM39.0564 15.4114C39.4516 14.8838 39.835 14.3927 40.1996 13.8868C40.9258 12.881 41.6224 11.8544 42.1391 10.7191C42.4277 10.0868 42.6401 9.44452 42.5294 8.72225C42.317 7.34291 41.3289 6.17996 39.9585 5.84006C38.5179 5.48041 37.2739 5.87267 36.3323 7.01882C35.3907 8.16497 35.3176 9.42377 35.9657 10.7527C36.7838 12.4265 37.8845 13.9066 39.0564 15.4114Z" fill="#31343D"/>
<path d="M36.1199 6.34497C36.5356 5.93429 37.0304 5.61227 37.5743 5.3984C40.2697 4.35995 43.1776 6.36374 43.1549 9.25185C43.1499 9.90792 42.897 10.5017 42.6223 11.0827C42.4613 11.4236 42.2814 11.7566 42.0947 12.0846C42.0554 12.1401 42.0322 12.2053 42.0275 12.2731C42.0228 12.3409 42.0368 12.4086 42.068 12.469C42.8445 14.1632 43.2334 16.0092 43.2063 17.8727C43.1568 23.4404 39.2965 28.4361 33.9185 29.8875C32.277 30.3374 30.5617 30.4509 28.8753 30.2213C27.1889 29.9918 25.5663 29.4238 24.1049 28.5516C22.6434 27.6794 21.3733 26.5208 20.3707 25.1456C19.3681 23.7703 18.6538 22.2066 18.2705 20.5484C16.6511 13.6991 21.124 6.71549 28.0197 5.3322C30.7725 4.78185 33.4294 5.08914 35.9776 6.28173C36.0181 6.30248 36.0635 6.32125 36.1199 6.34497ZM25.1524 6.93781C25.4972 7.38639 25.8302 7.47827 26.2857 7.2609C26.67 7.07811 27.0761 6.96448 27.4773 7.11467C28.0272 7.30695 28.5641 7.53435 29.0849 7.79544C29.3105 7.91053 29.5021 8.08258 29.6408 8.29454C29.7794 8.5065 29.8603 8.75101 29.8753 9.00384C29.9028 9.32327 29.8942 9.64478 29.8496 9.96227C29.7557 10.6539 29.2726 11.1163 28.578 11.2013C28.244 11.2418 27.9071 11.2665 27.5711 11.2803C27.324 11.2866 27.0808 11.3439 26.8569 11.4487C26.633 11.5534 26.4331 11.7033 26.2699 11.889C26.0367 12.1439 25.8065 12.4018 25.5654 12.6478C24.8866 13.3395 24.0675 13.5973 23.115 13.4175C22.8245 13.3622 22.537 13.294 22.2484 13.2268C22.1012 13.1932 22.0054 13.2416 22.037 13.3948C22.0648 13.5771 22.1261 13.7526 22.2178 13.9125C22.372 14.1428 22.5785 14.3374 22.7553 14.5538C22.8747 14.6864 22.949 14.8534 22.9678 15.0308C22.9867 15.2083 22.9489 15.3871 22.8601 15.5419C22.7753 15.7035 22.6517 15.8416 22.5005 15.9438C22.3492 16.046 22.175 16.1091 21.9933 16.1274C21.8117 16.1457 21.6284 16.1187 21.4598 16.0487C21.2912 15.9788 21.1425 15.8681 21.0272 15.7266C20.9114 15.5756 20.7571 15.4585 20.5805 15.3875C20.4039 15.3166 20.2114 15.2945 20.0233 15.3235C19.6577 15.3729 19.2951 15.446 18.9286 15.4974C18.8643 15.4992 18.8033 15.5258 18.7583 15.5717C18.7134 15.6176 18.688 15.6792 18.6875 15.7434C18.4299 17.322 18.4904 18.9362 18.8653 20.4911C20.3889 26.7386 26.3697 30.6513 32.6982 29.5467C38.6187 28.5191 42.9029 23.1371 42.6016 17.1247C42.5966 17.0407 42.5818 16.9578 42.5709 16.8659C41.41 17.2957 40.6679 18.1296 40.3893 19.2916C40.3102 19.6186 40.2332 19.9466 40.1521 20.2727C40.0891 20.5573 39.9198 20.8071 39.6789 20.9713C39.2165 21.2855 38.756 21.6017 38.2798 21.8931C37.767 22.2073 37.1731 22.1233 36.7414 21.6955C36.5655 21.5226 36.4064 21.3329 36.2286 21.1629C35.8264 20.7816 35.7167 20.3241 35.8215 19.7905C35.9203 19.2837 36.0072 18.7728 36.0863 18.261C36.1115 18.1119 36.101 17.959 36.0556 17.8148C36.0101 17.6706 35.9311 17.5393 35.825 17.4316C35.7188 17.3239 35.5886 17.243 35.4451 17.1955C35.3016 17.148 35.1488 17.1352 34.9994 17.1583C34.536 17.2265 34.0746 17.3026 33.6161 17.3797C33.2368 17.4496 32.845 17.3911 32.5027 17.2134C32.1603 17.0357 31.887 16.749 31.7259 16.3985C31.5926 16.1169 31.4671 15.8314 31.3465 15.5428C31.218 15.2606 31.1679 14.949 31.2015 14.6408C31.235 14.3325 31.351 14.039 31.5372 13.791C31.7072 13.5493 31.8817 13.3105 32.0609 13.0747C32.1237 12.9934 32.1676 12.8992 32.1895 12.7989C32.2114 12.6986 32.2107 12.5947 32.1874 12.4947C32.1471 12.3018 32.1309 12.1046 32.139 11.9078C32.1507 11.6056 32.2406 11.3117 32.4 11.0547C32.5593 10.7976 32.7826 10.5864 33.048 10.4415C33.6586 10.0917 34.1101 9.63621 34.3186 8.94456C34.4273 8.58392 34.6842 8.30627 34.9905 8.08297C35.0542 8.04611 35.1089 7.99547 35.1506 7.93476C35.3324 7.56226 35.5033 7.18482 35.6891 6.78465C32.1666 5.23339 28.6669 5.28971 25.1563 6.94176L25.1524 6.93781ZM41.6026 12.884C41.5137 13.0174 41.4495 13.1221 41.3773 13.2199C40.7094 14.125 40.0444 15.033 39.3676 15.9321C39.1354 16.2424 38.9596 16.2384 38.7254 15.9381C38.2511 15.3294 37.7561 14.7336 37.3204 14.0973C36.2621 12.554 35.115 11.0472 34.9016 9.07103C34.8786 9.10834 34.8591 9.14771 34.8433 9.18861C34.6131 9.97906 34.0904 10.5077 33.3958 10.9177C32.8029 11.2695 32.6251 11.723 32.7614 12.4057C32.8006 12.5784 32.8012 12.7575 32.7631 12.9304C32.725 13.1032 32.6492 13.2655 32.5411 13.4057C32.3563 13.6566 32.1706 13.9086 31.9917 14.1645C31.8766 14.3211 31.8044 14.505 31.7824 14.6981C31.7604 14.8912 31.7893 15.0867 31.8663 15.2652C31.9878 15.5705 32.1202 15.8719 32.2615 16.1663C32.3685 16.391 32.546 16.5745 32.767 16.6889C32.9881 16.8033 33.2405 16.8422 33.4857 16.7997C33.7208 16.7631 33.954 16.7157 34.1902 16.6811C34.5548 16.6268 34.9223 16.5309 35.2859 16.5398C36.111 16.5596 36.8066 17.4933 36.6692 18.3401C36.5754 18.9151 36.4766 19.4902 36.3797 20.0642C36.359 20.1703 36.3647 20.2798 36.3962 20.3832C36.4277 20.4866 36.4842 20.5806 36.5605 20.6571C36.7463 20.8547 36.9311 21.0523 37.1227 21.2499C37.3974 21.5266 37.7021 21.5595 38.0367 21.3487C38.2452 21.2173 38.4487 21.08 38.6533 20.9416C39.6561 20.2648 39.4803 20.5583 39.75 19.3607C39.9545 18.4517 40.3369 17.6425 41.074 17.0595C41.4554 16.7631 41.9149 16.5566 42.3328 16.2987C42.4059 16.2543 42.5018 16.1475 42.4929 16.0813C42.3522 14.9799 42.0537 13.9044 41.6066 12.8879L41.6026 12.884ZM18.8584 14.9115C19.1548 14.8631 19.4117 14.8344 19.6577 14.7811C20.4294 14.6121 21.0717 14.7998 21.5588 15.4411C21.5786 15.4733 21.6048 15.5011 21.6358 15.5228C21.6668 15.5445 21.7019 15.5595 21.739 15.567C21.7761 15.5745 21.8143 15.5743 21.8513 15.5664C21.8883 15.5585 21.9232 15.5431 21.954 15.5211C22.0251 15.4816 22.0983 15.4421 22.1684 15.4006C22.4253 15.2524 22.453 15.113 22.2672 14.8907C22.1151 14.7069 21.9609 14.5251 21.8009 14.3483C21.6784 14.2158 21.5838 14.0601 21.5227 13.8903C21.4616 13.7206 21.4352 13.5403 21.4452 13.3602C21.4629 12.8573 21.8493 12.5441 22.3433 12.6488C22.6239 12.7081 22.9035 12.7733 23.1841 12.8326C23.9634 12.9986 24.628 12.7921 25.1781 12.2131C25.432 11.9443 25.677 11.6667 25.9339 11.4019C26.3441 10.9772 26.9013 10.7259 27.4911 10.6994C27.8597 10.6756 28.2302 10.6569 28.5958 10.6006C28.7574 10.5831 28.9087 10.513 29.0266 10.4011C29.1444 10.2891 29.2222 10.1415 29.2479 9.98104C29.2878 9.74638 29.307 9.50865 29.3052 9.27062C29.317 8.77659 29.0849 8.42385 28.6323 8.22327C28.2954 8.07407 27.9486 7.94464 27.6146 7.78853C27.4458 7.70201 27.2582 7.65863 27.0686 7.66225C26.8789 7.66587 26.6931 7.71638 26.5277 7.80927C26.2497 7.95764 25.9287 8.00479 25.6197 7.94266C25.186 7.86263 24.8866 7.59486 24.6218 7.2362C21.6526 8.99791 19.7437 11.5333 18.8584 14.9115ZM39.0564 15.4114C39.4516 14.8838 39.835 14.3927 40.1996 13.8868C40.9258 12.881 41.6224 11.8544 42.1391 10.7191C42.4277 10.0868 42.6401 9.44452 42.5294 8.72225C42.317 7.34291 41.3289 6.17996 39.9585 5.84006C38.5179 5.48041 37.2739 5.87267 36.3323 7.01882C35.3907 8.16497 35.3176 9.42377 35.9657 10.7527C36.7838 12.4265 37.8845 13.9066 39.0564 15.4114Z" stroke="#31343D" stroke-width="0.174941" mask="url(#path-2-outside-1_3659_227)"/>
<path d="M28.3984 18.0193C28.3896 18.0079 28.3791 17.9966 28.3706 17.9876C28.3682 17.9851 28.366 17.9827 28.3641 17.9806C28.203 17.7936 27.9972 17.6506 27.7657 17.565C27.5341 17.4793 27.2845 17.4539 27.0403 17.4912L27.0403 17.4911L27.0378 17.4916C26.9251 17.5156 26.8084 17.5131 26.6969 17.4844C26.5853 17.4558 26.4819 17.4017 26.3947 17.3264L26.3947 17.3264L26.3941 17.326C26.3034 17.2502 26.2048 17.1845 26.0999 17.1301C25.6441 16.8881 25.1617 16.8713 24.7497 17.1885C24.2298 17.5869 23.7949 18.0898 23.6887 18.7727L23.6887 18.7728C23.5783 19.5013 23.4835 20.2587 23.9442 20.9463C23.9997 21.0348 24.0425 21.1306 24.0713 21.231L24.0713 21.2311C24.1565 21.5234 24.3033 21.794 24.5018 22.0247C24.7003 22.2554 24.9459 22.4408 25.2221 22.5686C25.6952 22.796 25.8611 23.268 25.7649 23.7957C25.7233 24.0154 25.6827 24.2357 25.6421 24.4559C25.6143 24.6068 25.5865 24.7577 25.5584 24.9082L25.5491 24.9577L28.364 18.0462M28.3984 18.0193C28.3985 18.0194 28.3986 18.0195 28.3986 18.0196L28.364 18.0462M28.3984 18.0193C28.3984 18.0192 28.3983 18.0191 28.3982 18.019L28.364 18.0462M28.3984 18.0193C28.4684 18.1073 28.5305 18.1864 28.5864 18.2576C28.6962 18.3976 28.7823 18.5072 28.8577 18.5951C28.971 18.727 29.0564 18.8052 29.1562 18.859C29.2564 18.913 29.3744 18.9443 29.5565 18.9763C29.6448 18.9919 29.7453 19.0071 29.8642 19.0252C29.9933 19.0448 30.1441 19.0677 30.3246 19.0979L30.3246 19.0979C30.6011 19.1443 30.8043 19.242 30.9308 19.4055C31.0571 19.5686 31.1008 19.7891 31.0765 20.0678M28.364 18.0462C28.7672 18.5537 28.915 18.772 29.1204 18.8891C29.3358 19.012 29.6145 19.0237 30.3174 19.141C30.8588 19.2319 31.0812 19.5184 31.0327 20.0658M31.0765 20.0678C31.0765 20.0671 31.0765 20.0665 31.0765 20.0658H31.0327M31.0765 20.0678C31.0763 20.1192 31.0702 20.1701 31.0644 20.2181L31.0644 20.2181M31.0765 20.0678C31.0764 20.0684 31.0764 20.0691 31.0763 20.0697L31.0327 20.0658M31.0327 20.0658C31.0327 20.1152 31.0268 20.1646 31.0209 20.214M25.6014 24.9158L25.6014 24.9158C25.6041 24.9014 25.6068 24.8871 25.6095 24.8728L25.6033 24.8725L25.6014 24.9158ZM25.6014 24.9158L25.6014 24.9162L25.6222 24.9609L25.5995 24.9599L25.5786 24.959C25.5789 24.9441 25.5795 24.9293 25.5804 24.9144L25.5974 24.9155L25.6014 24.9158ZM27.2 27.8686L27.2012 27.9123C27.2011 27.9123 27.201 27.9123 27.2008 27.9123C27.3712 27.9107 27.5372 27.8584 27.6777 27.762C27.818 27.6658 27.9264 27.53 27.9892 27.3719M27.2 27.8686C27.3618 27.8671 27.5195 27.8175 27.6529 27.726C27.7864 27.6344 27.8894 27.5052 27.949 27.3548M27.2 27.8686C26.8374 27.8784 26.4906 27.749 26.3641 27.4101M27.2 27.8686L26.3641 27.4101M27.949 27.3548L27.9888 27.3729C27.9889 27.3726 27.9891 27.3723 27.9892 27.3719M27.949 27.3548C28.0002 27.2427 28.0454 27.1279 28.0844 27.0109C28.1402 26.8296 28.2329 26.6617 28.3567 26.5178C28.4805 26.374 28.6327 26.2573 28.8037 26.175C29.5388 25.8341 29.8747 25.2621 29.7917 24.4509V24.2779C29.769 23.7197 29.9923 23.3037 30.4695 22.9994C31.0614 22.622 31.2896 22.039 31.1197 21.3582C31.0185 20.9858 30.985 20.5983 31.0209 20.214M27.949 27.3548L27.9897 27.3709C27.9895 27.3712 27.9894 27.3716 27.9892 27.3719M27.9892 27.3719L31.0644 20.2181M31.0644 20.2181L31.0209 20.214M31.0644 20.2181L31.0643 20.2193L31.0209 20.214M26.3641 27.4101C26.1452 26.8221 25.9634 26.2187 25.7815 25.615C25.7336 25.4558 25.6856 25.2965 25.6369 25.1376L26.3641 27.4101ZM30.3158 20.3567L30.3578 20.3489L30.3777 20.3452C30.3792 20.3198 30.3805 20.2939 30.3817 20.2677C30.3858 20.1817 30.39 20.0923 30.4047 20.0061L30.3158 20.3567ZM30.3158 20.3567L30.3226 20.3989M30.3158 20.3567L30.3226 20.3989M30.3226 20.3989C30.3403 20.5082 30.3569 20.6181 30.3735 20.7283C30.4103 20.9727 30.4473 21.2187 30.4978 21.4639L30.4979 21.4639C30.5473 21.7025 30.5444 21.895 30.4814 22.0593C30.4187 22.2231 30.2939 22.3647 30.0882 22.4972C29.4471 22.9098 29.1064 23.5034 29.1662 24.2577L29.1662 24.2577C29.194 24.606 29.1574 24.8967 29.0338 25.1355C28.9107 25.3734 28.6986 25.5649 28.3653 25.7101L28.3652 25.7101C27.9567 25.8887 27.7077 26.2669 27.5392 26.6659L27.539 26.6658L27.5377 26.67C27.4978 26.7997 27.4462 26.9254 27.3837 27.0458C27.3564 27.0858 27.316 27.1311 27.2729 27.1661C27.2283 27.2023 27.1887 27.2211 27.1616 27.2221C27.1071 27.2158 27.0549 27.1969 27.009 27.1668C26.9635 27.137 26.9255 27.0969 26.8981 27.0499C26.8663 26.9593 26.8342 26.869 26.8021 26.7789C26.6083 26.2334 26.4165 25.6935 26.2952 25.1362L26.2951 25.1358C26.2608 24.9848 26.2682 24.8203 26.2933 24.6496C26.3103 24.5339 26.335 24.4181 26.3596 24.3027C26.3714 24.2471 26.3832 24.1917 26.3942 24.1363C26.5013 23.6026 26.4895 23.1691 26.3279 22.8002C26.1662 22.4309 25.8574 22.1331 25.3849 21.8646C25.1114 21.7075 24.9171 21.5291 24.8229 21.2352L24.8229 21.2352C24.7515 21.0127 24.6543 20.7993 24.5331 20.5994L24.5331 20.5994L24.5327 20.5988C24.1822 20.0418 24.2766 19.4431 24.3758 18.8369C24.453 18.3771 24.7852 18.0555 25.1326 17.7506C25.2099 17.688 25.3038 17.6491 25.4027 17.6384C25.502 17.6278 25.6022 17.646 25.6913 17.691L25.6911 17.6914L25.6967 17.6933C25.7631 17.7163 25.8252 17.7501 25.8806 17.7933C26.2586 18.1294 26.6783 18.2791 27.2026 18.163L27.1931 18.1203M30.3226 20.3989L30.209 19.7694M30.209 19.7694L30.209 19.7694C30.0974 19.7574 29.9871 19.7385 29.8783 19.7198L29.8777 19.7196C29.7684 19.7009 29.6607 19.6824 29.5523 19.6707C29.2919 19.6479 29.0398 19.5678 28.814 19.4362C28.5882 19.3045 28.3942 19.1245 28.2461 18.9091C28.1577 18.7838 28.0595 18.6666 27.9594 18.5469C27.9378 18.5212 27.9162 18.4954 27.8946 18.4694L27.9282 18.4415M30.209 19.7694C30.2984 19.779 30.3511 19.8001 30.3796 19.8321M30.209 19.7694L30.3796 19.8321M27.9282 18.4415L27.8947 18.4695C27.7079 18.2461 27.4632 18.1058 27.2025 18.1631L27.1931 18.1203M27.9282 18.4415C27.7366 18.2122 27.4767 18.0581 27.1931 18.1203M27.9282 18.4415C27.9496 18.4672 27.9711 18.4928 27.9925 18.5184C28.0928 18.6381 28.1924 18.7571 28.282 18.8841C28.4265 19.0943 28.6157 19.2699 28.836 19.3984L25.9086 17.7597C26.2782 18.0887 26.6843 18.233 27.1931 18.1203M30.3796 19.8321C30.4064 19.8623 30.4205 19.9128 30.4047 20.0061L30.3796 19.8321ZM24.4957 20.6221C24.6151 20.819 24.7109 21.0293 24.7813 21.2485L24.4957 20.6221Z" fill="#31343D" stroke="#31343D" stroke-width="0.0874706"/>
<path d="M36.9367 9.22506C36.9368 8.80528 37.0615 8.39497 37.2951 8.04619C37.5287 7.6974 37.8607 7.42586 38.2489 7.26605C38.6371 7.10624 39.064 7.06536 39.4755 7.14859C39.8869 7.23182 40.2644 7.43542 40.56 7.73354C40.8555 8.03166 41.0559 8.41087 41.1356 8.82304C41.2152 9.23521 41.1707 9.66176 41.0075 10.0486C40.8444 10.4354 40.57 10.765 40.2192 10.9956C39.8684 11.2262 39.457 11.3474 39.0373 11.3438M36.9367 9.22506C36.9351 9.78433 37.1554 10.3214 37.5491 10.7186C37.9429 11.1157 38.478 11.3406 39.0373 11.3438M36.9367 9.22506C36.9367 9.22504 36.9367 9.22502 36.9367 9.225L36.9805 9.22512L36.9367 9.22512C36.9367 9.2251 36.9367 9.22508 36.9367 9.22506ZM39.0373 11.3438L39.0376 11.3001L39.0374 11.3438C39.0373 11.3438 39.0373 11.3438 39.0373 11.3438Z" fill="#31343D" stroke="#31343D" stroke-width="0.0874706"/>
</g>
<defs>
<clipPath id="clip0_3659_227">
<rect width="25.2707" height="25.2667" fill="white" transform="translate(17.9336 5.06824)"/>
</clipPath>
</defs>
</svg>
