<svg width="72" height="69" viewBox="0 0 72 69" fill="none" xmlns="http://www.w3.org/2000/svg">
<g id="Group 427321461">
<path id="Rectangle 34625009" d="M0.0673828 0.000244141H61.0002C67.0754 0.000244141 72.0002 4.92511 72.0002 11.0002V69.0002H11.0674C4.99225 69.0002 0.0673828 64.0754 0.0673828 58.0002V0.000244141Z" fill="#F4F7FE"/>
<g id="Group 427321296">
<circle id="Ellipse 1222" cx="37.0449" cy="35.0002" r="13" fill="#31343D"/>
<path id="Vector 790" d="M42.1723 31.0002C42.1723 30.593 41.8354 30.2629 41.4199 30.2629L34.6489 30.2629C34.2334 30.2629 33.8966 30.593 33.8966 31.0002C33.8966 31.4075 34.2334 31.7376 34.6489 31.7376L40.6676 31.7376L40.6676 37.6364C40.6676 38.0436 41.0044 38.3737 41.4199 38.3737C41.8354 38.3737 42.1723 38.0436 42.1723 37.6364L42.1723 31.0002ZM32.4685 38.7306C32.1746 39.0186 32.1746 39.4855 32.4685 39.7734C32.7623 40.0614 33.2386 40.0614 33.5324 39.7734L32.4685 38.7306ZM40.8879 30.4789L32.4685 38.7306L33.5324 39.7734L41.9519 31.5216L40.8879 30.4789Z" fill="white"/>
</g>
</g>
</svg>
