<svg width="34" height="33" viewBox="0 0 34 33" fill="none" xmlns="http://www.w3.org/2000/svg">
<g clip-path="url(#clip0_3601_5734)">
<path d="M7.15845 23.3129C4.05678 23.6114 0.797364 23.3976 0.334276 19.8821C-0.0685927 16.8076 2.84818 14.2674 5.94984 14.2674C5.94817 13.2709 6.21213 12.2919 6.71458 11.4313C7.21703 10.5707 7.93978 9.8596 8.80842 9.3712C9.67706 8.88279 10.6602 8.63475 11.6566 8.65261C12.6529 8.67047 13.6265 8.95359 14.4771 9.47281C15.2704 7.84169 16.5934 6.52779 18.23 5.74578C19.8665 4.96376 21.72 4.75985 23.4874 5.16735C25.2548 5.57485 26.8318 6.56967 27.9608 7.9893C29.0898 9.40894 29.704 11.1695 29.703 12.9833C29.703 13.0918 29.6911 13.197 29.6869 13.3039C30.7847 13.6883 31.736 14.4042 32.4093 15.3528C33.0825 16.3014 33.4444 17.4357 33.445 18.5989C33.445 21.6997 30.9311 23.2128 27.8294 23.2128" stroke="#667580" stroke-width="0.593702" stroke-miterlimit="10"/>
<path d="M10.6787 4.66991C11.8863 4.66991 12.8652 3.69097 12.8652 2.48339C12.8652 1.27581 11.8863 0.296875 10.6787 0.296875C9.47113 0.296875 8.49219 1.27581 8.49219 2.48339C8.49219 3.69097 9.47113 4.66991 10.6787 4.66991Z" stroke="#667580" stroke-width="0.593702" stroke-miterlimit="10"/>
<path d="M5.47068 8.5273C6.43609 8.5273 7.21871 7.74469 7.21871 6.77928C7.21871 5.81387 6.43609 5.03125 5.47068 5.03125C4.50527 5.03125 3.72266 5.81387 3.72266 6.77928C3.72266 7.74469 4.50527 8.5273 5.47068 8.5273Z" stroke="#667580" stroke-width="0.593702" stroke-miterlimit="10"/>
<path d="M11.7674 18.2787C11.345 18.2787 10.9583 18.2252 10.6072 18.1184C10.256 18.0064 9.95832 17.8512 9.71405 17.6527L9.96595 17.0268C10.2204 17.2202 10.4927 17.3652 10.7827 17.4619C11.0728 17.5586 11.401 17.6069 11.7674 17.6069C12.2 17.6069 12.518 17.5306 12.7216 17.3779C12.9302 17.2202 13.0345 17.0166 13.0345 16.7673C13.0345 16.5637 12.9608 16.4034 12.8132 16.2864C12.6656 16.1642 12.4188 16.0675 12.0727 15.9963L11.256 15.8284C10.7725 15.7266 10.4112 15.5587 10.1721 15.3246C9.93797 15.0905 9.82092 14.775 9.82092 14.378C9.82092 14.0574 9.90489 13.775 10.0728 13.5307C10.2458 13.2865 10.485 13.0982 10.7904 12.9659C11.0957 12.8285 11.4468 12.7598 11.8437 12.7598C12.2101 12.7598 12.5486 12.8158 12.859 12.9277C13.1745 13.0346 13.4417 13.1923 13.6605 13.401L13.4009 14.004C12.9684 13.6223 12.4468 13.4315 11.8361 13.4315C11.4595 13.4315 11.1593 13.5155 10.9354 13.6834C10.7166 13.8513 10.6072 14.0753 10.6072 14.3551C10.6072 14.5689 10.6759 14.7394 10.8133 14.8666C10.9507 14.9938 11.1796 15.0905 11.5002 15.1566L12.3094 15.3246C12.8183 15.4314 13.1974 15.5968 13.4467 15.8207C13.6961 16.0396 13.8208 16.3373 13.8208 16.7138C13.8208 17.0293 13.7368 17.3041 13.5689 17.5382C13.4009 17.7723 13.1643 17.9555 12.859 18.0878C12.5536 18.215 12.1898 18.2787 11.7674 18.2787ZM17.0578 18.2787C16.5439 18.2787 16.0986 18.1667 15.722 17.9428C15.3454 17.7138 15.0528 17.3932 14.8442 16.981C14.6406 16.5637 14.5388 16.0752 14.5388 15.5154C14.5388 14.9505 14.6406 14.462 14.8442 14.0498C15.0528 13.6376 15.3454 13.3196 15.722 13.0956C16.0986 12.8717 16.5439 12.7598 17.0578 12.7598C17.5667 12.7598 18.0095 12.8717 18.386 13.0956C18.7677 13.3196 19.0603 13.6376 19.2639 14.0498C19.4725 14.462 19.5768 14.948 19.5768 15.5078C19.5768 16.0726 19.4725 16.5637 19.2639 16.981C19.0603 17.3932 18.7677 17.7138 18.386 17.9428C18.0095 18.1667 17.5667 18.2787 17.0578 18.2787ZM17.0578 17.5917C17.5922 17.5917 18.0069 17.411 18.3021 17.0497C18.6023 16.6833 18.7524 16.1719 18.7524 15.5154C18.7524 14.8589 18.6049 14.3501 18.3097 13.9887C18.0145 13.6274 17.5973 13.4468 17.0578 13.4468C16.5235 13.4468 16.1062 13.6274 15.806 13.9887C15.5108 14.3501 15.3632 14.8589 15.3632 15.5154C15.3632 16.1719 15.5108 16.6833 15.806 17.0497C16.1062 17.411 16.5235 17.5917 17.0578 17.5917ZM20.3321 18.21V17.9226L21.2091 16.9822C21.331 16.8503 21.4181 16.7309 21.4703 16.6239C21.5251 16.517 21.5524 16.4087 21.5524 16.2993C21.5524 16.0156 21.3857 15.8738 21.0524 15.8738C20.7986 15.8738 20.5709 15.9696 20.3694 16.1612L20.2314 15.8664C20.3309 15.7693 20.4577 15.6922 20.612 15.635C20.7662 15.5753 20.9267 15.5454 21.0934 15.5454C21.3646 15.5454 21.5723 15.6076 21.7166 15.732C21.8634 15.8564 21.9368 16.0343 21.9368 16.2657C21.9368 16.4224 21.8982 16.5754 21.8211 16.7247C21.7465 16.874 21.6283 17.0332 21.4666 17.2024L20.8172 17.8853H22.0413V18.21H20.3321Z" fill="#667580"/>
<path d="M11.0983 19.8789L11.0135 31.8734C11.0143 31.91 11.0033 31.946 10.9819 31.9758C10.9606 32.0057 10.9302 32.0278 10.8952 32.0389C10.8602 32.05 10.8226 32.0494 10.788 32.0373C10.7533 32.0252 10.7236 32.0022 10.7031 31.9717L9.29688 30.0312L11.0076 32.3882L12.6335 30.027" stroke="#667580" stroke-width="0.593702" stroke-miterlimit="10"/>
<path d="M16.7124 19.0654L16.6141 27.5833C16.6134 27.6254 16.5996 27.6661 16.5745 27.6998C16.5494 27.7335 16.5143 27.7585 16.4743 27.7712C16.4342 27.7838 16.3911 27.7836 16.3512 27.7704C16.3113 27.7573 16.2766 27.7319 16.2519 27.6979L14.6133 25.4384L16.6039 28.1821L18.4961 25.4342" stroke="#667580" stroke-width="0.593702" stroke-miterlimit="10"/>
<path d="M22.0071 21.8022L21.9223 31.2955C21.923 31.3321 21.9117 31.368 21.8903 31.3977C21.8689 31.4274 21.8385 31.4494 21.8035 31.4603C21.7686 31.4713 21.7311 31.4707 21.6965 31.4586C21.662 31.4464 21.6323 31.4235 21.6119 31.3931L20.2031 29.4525L21.9138 31.8095L23.5397 29.4483" stroke="#667580" stroke-width="0.593702" stroke-miterlimit="10"/>
</g>
<defs>
<clipPath id="clip0_3601_5734">
<rect width="33.7418" height="32.9021" fill="white"/>
</clipPath>
</defs>
</svg>
