<svg width="35" height="36" viewBox="0 0 35 36" fill="none" xmlns="http://www.w3.org/2000/svg">
<g clip-path="url(#clip0_3601_5663)">
<path d="M34.2715 13.8532C34.2766 11.9892 33.5521 10.1973 32.253 8.86067C30.9539 7.52401 29.1834 6.74873 27.3201 6.70062C25.4567 6.65252 23.6486 7.33541 22.2822 8.60326C20.9159 9.87111 20.0999 11.6232 20.0088 13.485C19.1055 12.5827 17.9766 11.9393 16.74 11.6218C15.5034 11.3043 14.2042 11.3243 12.978 11.6797C11.7517 12.0351 10.6433 12.713 9.76813 13.6426C8.89299 14.5722 8.28323 15.7196 8.0024 16.965C7.46977 16.6857 6.86864 16.5637 6.26927 16.6134C5.66989 16.6631 5.09704 16.8823 4.61764 17.2455C4.13825 17.6087 3.77213 18.1008 3.56207 18.6643C3.35202 19.2279 3.30669 19.8396 3.43141 20.428C2.83186 20.6166 2.27866 20.9292 1.8077 21.3454C1.33674 21.7617 0.958543 22.2722 0.697626 22.8441C0.43671 23.4159 0.298905 24.0361 0.293156 24.6647C0.287407 25.2932 0.413847 25.9159 0.66426 26.4923C0.914674 27.0688 1.28347 27.5863 1.74674 28.011C2.21 28.4358 2.75739 28.7585 3.35339 28.9581C3.94939 29.1577 4.58069 29.2297 5.20634 29.1696C5.83199 29.1095 6.43801 28.9186 6.98511 28.6092C7.58327 30.2472 8.76356 31.6077 10.3008 32.4311C11.838 33.2544 13.6246 33.483 15.3196 33.0731C15.88 33.9388 16.7221 34.5845 17.7036 34.9009C18.6851 35.2173 19.7458 35.1851 20.7063 34.8098C21.6668 34.4344 22.4682 33.7388 22.9751 32.8407C23.4819 31.9426 23.6631 30.8971 23.488 29.8808C23.6787 29.7112 23.8315 29.5033 23.9362 29.2705C24.041 29.0378 24.0954 28.7856 24.096 28.5304C24.0938 28.4402 24.0847 28.3503 24.0685 28.2615C24.8662 28.1698 25.6245 27.8654 26.2642 27.3803C26.9039 26.8952 27.4016 26.2471 27.7051 25.5038C28.0086 24.7605 28.1068 23.9493 27.9895 23.155C27.8722 22.3608 27.5437 21.6126 27.0383 20.9888C27.0691 20.9888 27.0999 20.994 27.1307 20.994C29.0246 20.994 30.8409 20.2416 32.1801 18.9025C33.5192 17.5633 34.2715 15.747 34.2715 13.8532V13.8532Z" stroke="#667580" stroke-width="0.599419" stroke-miterlimit="10"/>
<path d="M8.8552 9.58979C9.86254 9.58979 10.6791 8.77318 10.6791 7.76584C10.6791 6.7585 9.86254 5.94189 8.8552 5.94189C7.84786 5.94189 7.03125 6.7585 7.03125 7.76584C7.03125 8.77318 7.84786 9.58979 8.8552 9.58979Z" stroke="#667580" stroke-width="0.599419" stroke-miterlimit="10"/>
<path d="M17.2857 5.35523C18.6817 5.35523 19.8135 4.22348 19.8135 2.8274C19.8135 1.43131 18.6817 0.299561 17.2857 0.299561C15.8896 0.299561 14.7578 1.43131 14.7578 2.8274C14.7578 4.22348 15.8896 5.35523 17.2857 5.35523Z" stroke="#667580" stroke-width="0.599419" stroke-miterlimit="10"/>
<path d="M28.6997 33.8833C30.0958 33.8833 31.2276 32.7516 31.2276 31.3555C31.2276 29.9594 30.0958 28.8276 28.6997 28.8276C27.3036 28.8276 26.1719 29.9594 26.1719 31.3555C26.1719 32.7516 27.3036 33.8833 28.6997 33.8833Z" stroke="#667580" stroke-width="0.599419" stroke-miterlimit="10"/>
<path d="M13.6699 25.6641C13.151 25.6641 12.7014 25.5511 12.3212 25.325C11.941 25.0938 11.6456 24.7701 11.435 24.3539C11.2294 23.9326 11.1267 23.4394 11.1267 22.8742C11.1267 22.3039 11.2294 21.8107 11.435 21.3945C11.6456 20.9783 11.941 20.6572 12.3212 20.4312C12.7014 20.2051 13.151 20.0921 13.6699 20.0921C14.1837 20.0921 14.6307 20.2051 15.0109 20.4312C15.3963 20.6572 15.6917 20.9783 15.8972 21.3945C16.1079 21.8107 16.2132 22.3013 16.2132 22.8665C16.2132 23.4368 16.1079 23.9326 15.8972 24.3539C15.6917 24.7701 15.3963 25.0938 15.0109 25.325C14.6307 25.5511 14.1837 25.6641 13.6699 25.6641ZM13.6699 24.9705C14.2094 24.9705 14.6281 24.7881 14.9261 24.4233C15.2293 24.0534 15.3808 23.537 15.3808 22.8742C15.3808 22.2114 15.2318 21.6976 14.9339 21.3329C14.6359 20.9681 14.2145 20.7857 13.6699 20.7857C13.1305 20.7857 12.7092 20.9681 12.406 21.3329C12.108 21.6976 11.959 22.2114 11.959 22.8742C11.959 23.537 12.108 24.0534 12.406 24.4233C12.7092 24.7881 13.1305 24.9705 13.6699 24.9705ZM18.089 25.6256C17.8321 25.6256 17.6009 25.5896 17.3953 25.5177C17.1898 25.4406 17.0203 25.3378 16.8867 25.2094L17.1256 24.7547C17.3465 24.9807 17.6445 25.0938 18.0196 25.0938C18.1943 25.0938 18.3356 25.0552 18.4435 24.9782C18.5565 24.9011 18.613 24.7829 18.613 24.6237C18.613 24.4747 18.5591 24.3719 18.4512 24.3154C18.3484 24.2537 18.2071 24.2229 18.0273 24.2229H17.4108V23.6757H17.9348C18.1198 23.6757 18.2636 23.6423 18.3664 23.5755C18.4692 23.5087 18.5205 23.4009 18.5205 23.2519C18.5205 23.1285 18.4743 23.0309 18.3818 22.959C18.2893 22.8819 18.1557 22.8434 17.9811 22.8434C17.6625 22.8434 17.3876 22.9564 17.1564 23.1825L16.9175 22.7201C17.0511 22.5916 17.2207 22.4914 17.4262 22.4195C17.6368 22.3424 17.8552 22.3039 18.0812 22.3039C18.4101 22.3039 18.6695 22.381 18.8596 22.5351C19.0549 22.6893 19.1525 22.8948 19.1525 23.1517C19.1525 23.3366 19.1037 23.4959 19.0061 23.6295C18.9084 23.7579 18.7851 23.853 18.6361 23.9146C18.8211 23.9609 18.9675 24.0508 19.0754 24.1844C19.1885 24.318 19.245 24.4901 19.245 24.7007C19.245 24.9936 19.1345 25.2222 18.9136 25.3866C18.6927 25.5459 18.4178 25.6256 18.089 25.6256Z" fill="#667580"/>
</g>
<defs>
<clipPath id="clip0_3601_5663">
<rect width="34.5711" height="35.4" fill="white"/>
</clipPath>
</defs>
</svg>
