<svg width="35" height="28" viewBox="0 0 35 28" fill="none" xmlns="http://www.w3.org/2000/svg">
<g clip-path="url(#clip0_3601_5771)">
<path d="M21.4633 9.57953C21.9824 9.57953 22.4033 9.15872 22.4033 8.63962C22.4033 8.12052 21.9824 7.69971 21.4633 7.69971C20.9442 7.69971 20.5234 8.12052 20.5234 8.63962C20.5234 9.15872 20.9442 9.57953 21.4633 9.57953Z" fill="#667580"/>
<path d="M28.8696 11.999C29.3887 11.999 29.8095 11.5781 29.8095 11.0591C29.8095 10.54 29.3887 10.1191 28.8696 10.1191C28.3505 10.1191 27.9297 10.54 27.9297 11.0591C27.9297 11.5781 28.3505 11.999 28.8696 11.999Z" fill="#667580"/>
<path d="M31.6118 14.183C32.1309 14.183 32.5517 13.7622 32.5517 13.2431C32.5517 12.724 32.1309 12.3032 31.6118 12.3032C31.0927 12.3032 30.6719 12.724 30.6719 13.2431C30.6719 13.7622 31.0927 14.183 31.6118 14.183Z" fill="#667580"/>
<path d="M30.1782 18.3246C30.6973 18.3246 31.1181 17.9038 31.1181 17.3847C31.1181 16.8656 30.6973 16.4448 30.1782 16.4448C29.6591 16.4448 29.2383 16.8656 29.2383 17.3847C29.2383 17.9038 29.6591 18.3246 30.1782 18.3246Z" fill="#667580"/>
<path d="M18.0962 20.829C18.6153 20.829 19.0361 20.4082 19.0361 19.8891C19.0361 19.37 18.6153 18.9492 18.0962 18.9492C17.5771 18.9492 17.1562 19.37 17.1562 19.8891C17.1562 20.4082 17.5771 20.829 18.0962 20.829Z" fill="#667580"/>
<path d="M15.3305 23.8437C15.8496 23.8437 16.2704 23.4229 16.2704 22.9038C16.2704 22.3847 15.8496 21.9639 15.3305 21.9639C14.8114 21.9639 14.3906 22.3847 14.3906 22.9038C14.3906 23.4229 14.8114 23.8437 15.3305 23.8437Z" fill="#667580"/>
<path d="M25.0454 19.8661C25.5645 19.8661 25.9853 19.4453 25.9853 18.9262C25.9853 18.4071 25.5645 17.9863 25.0454 17.9863C24.5263 17.9863 24.1055 18.4071 24.1055 18.9262C24.1055 19.4453 24.5263 19.8661 25.0454 19.8661Z" fill="#667580"/>
<path d="M22.4087 22.9042C22.9278 22.9042 23.3486 22.4834 23.3486 21.9643C23.3486 21.4452 22.9278 21.0244 22.4087 21.0244C21.8896 21.0244 21.4688 21.4452 21.4688 21.9643C21.4688 22.4834 21.8896 22.9042 22.4087 22.9042Z" fill="#667580"/>
<path d="M27.2094 22.9843C27.7285 22.9843 28.1493 22.5635 28.1493 22.0444C28.1493 21.5253 27.7285 21.1045 27.2094 21.1045C26.6903 21.1045 26.2695 21.5253 26.2695 22.0444C26.2695 22.5635 26.6903 22.9843 27.2094 22.9843Z" fill="#667580"/>
<path d="M14.6313 9.57953C15.1504 9.57953 15.5712 9.15872 15.5712 8.63962C15.5712 8.12052 15.1504 7.69971 14.6313 7.69971C14.1122 7.69971 13.6914 8.12052 13.6914 8.63962C13.6914 9.15872 14.1122 9.57953 14.6313 9.57953Z" fill="#667580"/>
<path d="M11.1079 9.14349C11.627 9.14349 12.0478 8.72268 12.0478 8.20358C12.0478 7.68448 11.627 7.26367 11.1079 7.26367C10.5888 7.26367 10.168 7.68448 10.168 8.20358C10.168 8.72268 10.5888 9.14349 11.1079 9.14349Z" fill="#667580"/>
<path d="M7.36569 11.0595C7.88479 11.0595 8.3056 10.6387 8.3056 10.1196C8.3056 9.6005 7.88479 9.17969 7.36569 9.17969C6.84659 9.17969 6.42578 9.6005 6.42578 10.1196C6.42578 10.6387 6.84659 11.0595 7.36569 11.0595Z" fill="#667580"/>
<path d="M8.58835 14.6044C9.10745 14.6044 9.52826 14.1836 9.52826 13.6645C9.52826 13.1454 9.10745 12.7246 8.58835 12.7246C8.06925 12.7246 7.64844 13.1454 7.64844 13.6645C7.64844 14.1836 8.06925 14.6044 8.58835 14.6044Z" fill="#667580"/>
<path d="M6.44772 17.7695C6.96682 17.7695 7.38763 17.3487 7.38763 16.8296C7.38763 16.3105 6.96682 15.8896 6.44772 15.8896C5.92862 15.8896 5.50781 16.3105 5.50781 16.8296C5.50781 17.3487 5.92862 17.7695 6.44772 17.7695Z" fill="#667580"/>
<path d="M2.94772 20.3476C3.46682 20.3476 3.88763 19.9268 3.88763 19.4077C3.88763 18.8886 3.46682 18.4678 2.94772 18.4678C2.42862 18.4678 2.00781 18.8886 2.00781 19.4077C2.00781 19.9268 2.42862 20.3476 2.94772 20.3476Z" fill="#667580"/>
<path d="M4.10788 24.7265C4.62698 24.7265 5.04779 24.3057 5.04779 23.7866C5.04779 23.2675 4.62698 22.8467 4.10788 22.8467C3.58878 22.8467 3.16797 23.2675 3.16797 23.7866C3.16797 24.3057 3.58878 24.7265 4.10788 24.7265Z" fill="#667580"/>
<path d="M6.88522 22.4091C7.40432 22.4091 7.82513 21.9883 7.82513 21.4692C7.82513 20.9501 7.40432 20.5293 6.88522 20.5293C6.36612 20.5293 5.94531 20.9501 5.94531 21.4692C5.94531 21.9883 6.36612 22.4091 6.88522 22.4091Z" fill="#667580"/>
<path d="M9.3735 24.267C9.8926 24.267 10.3134 23.8462 10.3134 23.3271C10.3134 22.808 9.8926 22.3872 9.3735 22.3872C8.85441 22.3872 8.43359 22.808 8.43359 23.3271C8.43359 23.8462 8.85441 24.267 9.3735 24.267Z" fill="#667580"/>
<path d="M11.5844 20.829C12.1035 20.829 12.5244 20.4082 12.5244 19.8891C12.5244 19.37 12.1035 18.9492 11.5844 18.9492C11.0653 18.9492 10.6445 19.37 10.6445 19.8891C10.6445 20.4082 11.0653 20.829 11.5844 20.829Z" fill="#667580"/>
<path d="M18.354 7.26459C18.8731 7.26459 19.2939 6.84377 19.2939 6.32468C19.2939 5.80558 18.8731 5.38477 18.354 5.38477C17.8349 5.38477 17.4141 5.80558 17.4141 6.32468C17.4141 6.84377 17.8349 7.26459 18.354 7.26459Z" fill="#667580"/>
<path d="M17.9594 3.98627C18.4785 3.98627 18.8994 3.56545 18.8994 3.04636C18.8994 2.52726 18.4785 2.10645 17.9594 2.10645C17.4403 2.10645 17.0195 2.52726 17.0195 3.04636C17.0195 3.56545 17.4403 3.98627 17.9594 3.98627Z" fill="#667580"/>
<path d="M22.2094 4.79486C22.7285 4.79486 23.1494 4.37405 23.1494 3.85495C23.1494 3.33585 22.7285 2.91504 22.2094 2.91504C21.6903 2.91504 21.2695 3.33585 21.2695 3.85495C21.2695 4.37405 21.6903 4.79486 22.2094 4.79486Z" fill="#667580"/>
<path d="M26.0493 5.49359C26.5684 5.49359 26.9892 5.07278 26.9892 4.55368C26.9892 4.03458 26.5684 3.61377 26.0493 3.61377C25.5302 3.61377 25.1094 4.03458 25.1094 4.55368C25.1094 5.07278 25.5302 5.49359 26.0493 5.49359Z" fill="#667580"/>
<path d="M25.0532 9.14349C25.5723 9.14349 25.9931 8.72268 25.9931 8.20358C25.9931 7.68448 25.5723 7.26367 25.0532 7.26367C24.5341 7.26367 24.1133 7.68448 24.1133 8.20358C24.1133 8.72268 24.5341 9.14349 25.0532 9.14349Z" fill="#667580"/>
<path d="M29.9399 6.80511C30.459 6.80511 30.8798 6.3843 30.8798 5.8652C30.8798 5.34611 30.459 4.92529 29.9399 4.92529C29.4208 4.92529 29 5.34611 29 5.8652C29 6.3843 29.4208 6.80511 29.9399 6.80511Z" fill="#667580"/>
<path d="M31.6118 10.0419C32.1309 10.0419 32.5517 9.62112 32.5517 9.10202C32.5517 8.58292 32.1309 8.16211 31.6118 8.16211C31.0927 8.16211 30.6719 8.58292 30.6719 9.10202C30.6719 9.62112 31.0927 10.0419 31.6118 10.0419Z" fill="#667580"/>
<path d="M33.7672 10.092C33.7817 10.0643 33.791 10.0342 33.7945 10.0031C33.9217 9.42777 33.9878 8.84057 33.9917 8.25131C33.9917 8.12263 33.9847 7.99325 33.9777 7.86457C33.9707 7.73589 33.9574 7.59952 33.9441 7.47015C33.9308 7.34077 33.9099 7.22608 33.8896 7.10369C33.8696 6.97778 33.8425 6.85309 33.8084 6.73025C33.8014 6.70997 33.8014 6.68969 33.7945 6.66871C33.7356 6.44516 33.6632 6.22539 33.5777 6.01063C33.5301 5.89454 33.4826 5.77915 33.428 5.66096C33.3735 5.54277 33.3126 5.43018 33.2518 5.32178C33.2105 5.24695 33.17 5.18191 33.1224 5.10429C32.983 4.87546 32.8263 4.65757 32.6538 4.4525H32.6468C32.593 4.38257 32.5384 4.31683 32.4769 4.2483C32.4154 4.17976 32.3552 4.11962 32.2937 4.05178C32.165 3.91611 32.0293 3.79373 31.8867 3.66435C31.8454 3.63078 31.8118 3.59442 31.7713 3.56924L31.7573 3.55595C31.6216 3.44056 31.4776 3.33147 31.3377 3.23006C31.1978 3.12866 31.0391 3.02655 30.8894 2.93774C30.774 2.8678 30.6656 2.80906 30.5502 2.74752C30.4551 2.69996 30.36 2.65241 30.2705 2.61884C30.1725 2.56706 30.0703 2.52378 29.9649 2.48946C29.8469 2.43544 29.7243 2.39237 29.5984 2.36078C29.4424 2.3127 29.2836 2.27416 29.1229 2.24539C29.0608 2.2275 28.9971 2.21602 28.9327 2.21113C28.8405 2.191 28.747 2.17745 28.6529 2.17056C28.5718 2.15728 28.49 2.15028 28.4089 2.14329C27.492 2.08245 26.5276 2.24539 25.536 2.62583C25.2849 2.72094 25.0401 2.82234 24.7751 2.92445C24.5786 2.69996 24.4254 2.51044 24.259 2.33351C24.1576 2.22511 24.0555 2.12371 23.9534 2.0209L23.9268 1.99363C23.8114 1.88523 23.689 1.77683 23.5736 1.67473C23.5538 1.66092 23.5355 1.64497 23.5191 1.62718C23.4037 1.53906 23.2953 1.45094 23.1792 1.36912C23.0505 1.27401 22.9211 1.1859 22.7925 1.10407C22.6638 1.02225 22.5274 0.948119 22.3987 0.880284C22.0046 0.67365 21.5875 0.514041 21.156 0.404735C21.0162 0.371166 20.8763 0.3348 20.7364 0.316617C20.6826 0.306463 20.6282 0.299691 20.5735 0.296338C20.4745 0.278761 20.3745 0.267317 20.2741 0.262071C20.2132 0.256832 20.1521 0.254729 20.0909 0.255775C20.001 0.244146 19.9103 0.239469 19.8196 0.241788C19.7652 0.240612 19.7108 0.24295 19.6566 0.248784C19.2955 0.256214 18.9359 0.299314 18.5832 0.377459C18.3279 0.421152 18.076 0.482611 17.8293 0.561386C17.4491 0.678015 17.0808 0.830211 16.7292 1.01596C16.6341 1.06351 16.539 1.11806 16.4439 1.17191C16.3222 1.24184 16.2068 1.30828 16.0977 1.38171C16.0096 1.43626 15.9215 1.50409 15.8397 1.56563C15.7419 1.63437 15.6484 1.70911 15.5599 1.78942C15.5326 1.8167 15.5054 1.83698 15.4781 1.86425C15.38 1.95249 15.2866 2.04586 15.1984 2.14399C15.1391 2.19617 15.0867 2.25562 15.0424 2.32092C14.9901 2.37242 14.9433 2.42913 14.9025 2.49016C14.8326 2.57198 14.7739 2.65311 14.7123 2.74192C14.501 3.02952 14.3211 3.33901 14.1759 3.66505V3.67204C14.1685 3.68207 14.1639 3.69391 14.1626 3.70631C14.1081 3.828 14.0535 3.95038 14.006 4.07276C13.9654 4.18116 13.9249 4.29655 13.8906 4.41264C13.8563 4.52873 13.8207 4.63643 13.7955 4.74483C13.707 5.06321 13.6434 5.38798 13.6053 5.71621C13.5717 5.94 13.4969 6.15749 13.4423 6.38198C13.2591 6.33442 13.0759 6.28687 12.8989 6.2526C12.6346 6.19805 12.3695 6.15749 12.1115 6.13022C11.8559 6.1034 11.5992 6.08986 11.3422 6.08965C10.8812 6.087 10.4212 6.1339 9.97011 6.22952C9.88044 6.24354 9.79187 6.26387 9.70506 6.29036C9.63513 6.30435 9.56939 6.32463 9.50155 6.34491C9.40644 6.37219 9.31133 6.39946 9.22182 6.43303C9.1323 6.4666 9.0316 6.50296 8.94208 6.53513C8.89771 6.55019 8.85447 6.56843 8.81271 6.58968C8.69301 6.63698 8.57624 6.69139 8.46304 6.75263C8.34065 6.81347 8.22526 6.87501 8.11337 6.94285C8.07281 6.96313 8.03854 6.98341 7.99797 7.00369C7.96717 7.02181 7.93772 7.04214 7.90986 7.06453C7.77419 7.14635 7.64481 7.24146 7.51543 7.33657C7.31986 7.48633 7.13306 7.64721 6.95596 7.81842C6.84057 7.93381 6.72518 8.0492 6.62307 8.17158C6.53496 8.27369 6.45384 8.37579 6.37201 8.48419L6.35873 8.49747C6.22959 8.67417 6.1072 8.85764 5.99158 9.04786C5.95102 9.11779 5.91045 9.18353 5.87619 9.25136C5.80625 9.37375 5.74751 9.50312 5.68597 9.6318C5.61603 9.78775 5.55029 9.9444 5.48945 10.1074C5.45518 10.2157 5.41952 10.3172 5.38735 10.4193C5.37406 10.4808 5.35308 10.5416 5.33979 10.6032C5.28086 10.8129 5.23554 11.0261 5.20412 11.2417C5.20412 11.255 5.19713 11.2683 5.19713 11.2822C5.17685 11.4179 5.16356 11.562 5.14957 11.6962C5.13628 11.8795 5.12929 12.0697 5.12929 12.2599C5.13628 12.4907 5.14957 12.7215 5.17685 12.953C5.17685 12.9662 5.18384 12.9865 5.18384 13.0005C5.20412 13.1565 5.23769 13.3194 5.27196 13.4754C5.27196 13.4893 5.27895 13.5026 5.27895 13.5166C5.31252 13.6796 5.36008 13.8355 5.40763 13.9985C5.47673 14.245 5.56536 14.4856 5.67268 14.7181V14.7251C5.69296 14.7656 5.70625 14.8069 5.72723 14.8475C5.42202 14.9105 5.1204 14.9899 4.82368 15.0852H4.81669C4.66263 15.1268 4.51089 15.1765 4.36212 15.2342C4.24673 15.2755 4.13134 15.323 4.02224 15.3636C3.91314 15.4041 3.81244 15.4517 3.70964 15.5034C3.6397 15.5307 3.57396 15.5643 3.50613 15.5985C3.09941 15.7964 2.71671 16.0402 2.36551 16.3252C2.35852 16.3322 2.34523 16.3385 2.33824 16.3454C2.23604 16.4259 2.13845 16.5121 2.04591 16.6035C2.02394 16.6197 2.00356 16.638 1.98507 16.658C1.91804 16.7177 1.85453 16.7812 1.79485 16.8483C1.78156 16.8616 1.76757 16.8748 1.75428 16.8888C1.70673 16.9434 1.65918 16.9972 1.61862 17.0518C1.56638 17.1058 1.51954 17.1649 1.47875 17.228C1.43862 17.2699 1.40428 17.3169 1.37665 17.3679C1.30248 17.463 1.2345 17.5627 1.17314 17.6665C1.09158 17.7938 1.01665 17.9252 0.948652 18.0602C0.874934 18.192 0.809304 18.3282 0.752134 18.4679C0.718911 18.5378 0.691539 18.6103 0.670309 18.6847C0.617035 18.8056 0.573994 18.9308 0.541633 19.0589C0.494078 19.2148 0.446525 19.3708 0.412257 19.5337C0.377954 19.6721 0.350874 19.8121 0.331131 19.9533V19.9673C0.324138 19.9876 0.324141 20.0079 0.317148 20.0373C0.296867 20.1771 0.276583 20.3289 0.269589 20.4785V20.4855C0.261726 20.5212 0.257281 20.5575 0.256306 20.5939C0.223151 20.9827 0.227596 21.3739 0.269589 21.7618V21.7688C0.2828 21.9444 0.30615 22.119 0.339523 22.2919V22.2989C0.394028 22.5949 0.473574 22.8857 0.5773 23.1682C0.69744 23.5106 0.85455 23.8389 1.04585 24.1473C1.26473 24.5028 1.52457 24.8314 1.82002 25.1263C2.06967 25.3799 2.34243 25.6095 2.63476 25.8124C2.93093 26.0187 3.24206 26.2027 3.56557 26.3628C3.98122 26.5706 4.41558 26.7387 4.86285 26.8649C5.20036 26.9598 5.54589 27.0235 5.89507 27.0551C6.04403 27.0691 6.19369 27.0824 6.34265 27.0824C6.70283 27.0888 7.06268 27.0569 7.41613 26.9873C7.58601 26.9545 7.7537 26.9113 7.91825 26.8579C8.16603 26.7859 8.40877 26.6976 8.64486 26.5935C9.05746 26.4028 9.45088 26.1731 9.81975 25.9075C10.0527 25.7453 10.2751 25.5685 10.4855 25.3781C10.8224 25.0888 11.1401 24.7778 11.4366 24.4473C11.7999 24.6712 12.1763 24.873 12.564 25.0515C12.8784 25.1987 13.2028 25.3237 13.5346 25.4257C13.6976 25.4795 13.8605 25.5271 14.0172 25.5655C14.3231 25.6397 14.6339 25.6921 14.9473 25.7222H14.9543C15.1821 25.7437 15.4112 25.7482 15.6396 25.7355C15.9389 25.729 16.2369 25.6951 16.5299 25.6341H16.5362C16.7112 25.6039 16.8837 25.5607 17.0523 25.5047C17.3944 25.4018 17.7264 25.2676 18.044 25.104C18.7863 24.7088 19.4623 24.2001 20.0476 23.5962C20.0615 23.61 20.0776 23.6216 20.0951 23.6305C20.2238 23.7389 20.3259 23.8207 20.421 23.9102C20.5294 24.0053 20.6308 24.1074 20.7399 24.2088H20.7469C20.7724 24.2356 20.7998 24.2606 20.8287 24.2836C21.1366 24.5382 21.466 24.7654 21.8134 24.9627C22.0966 25.1356 22.3968 25.279 22.7092 25.3907C22.8589 25.4515 23.0149 25.4991 23.1715 25.5466C23.4773 25.6365 23.7912 25.6957 24.1086 25.7236H24.1156C24.3454 25.7507 24.577 25.7575 24.808 25.7439C25.1021 25.7353 25.3951 25.7035 25.6842 25.6487H25.6905C25.8675 25.6145 26.0437 25.5739 26.2206 25.5264C26.4326 25.4709 26.6412 25.403 26.8451 25.3228C26.9792 25.2755 27.1106 25.2211 27.2389 25.1599C29.2089 24.2766 30.3901 22.6877 30.7027 20.4743C30.7838 19.8771 31.0216 19.5037 31.5041 19.1505C33.5756 17.6224 34.4854 14.9601 33.6973 12.5424C33.421 11.6739 33.1357 10.8997 33.7672 10.092Z" stroke="#667580" stroke-width="0.489537" stroke-miterlimit="10"/>
<path d="M10.8603 17.4375V12.8622H12.7553C13.2486 12.8622 13.6293 12.9855 13.8975 13.2321C14.1658 13.4744 14.2999 13.8162 14.2999 14.2575C14.2999 14.7031 14.1658 15.0492 13.8975 15.2958C13.6293 15.5381 13.2486 15.6593 12.7553 15.6593H11.5352V17.4375H10.8603ZM11.5352 15.1206H12.658C13.3156 15.1206 13.6444 14.8329 13.6444 14.2575C13.6444 13.6864 13.3156 13.4008 12.658 13.4008H11.5352V15.1206ZM15.0372 17.4375V12.8622H15.6018L17.2956 16.0227L18.983 12.8622H19.5346V17.4375H18.9311V14.0822L17.4968 16.7366H17.088L15.6472 14.0952V17.4375H15.0372ZM20.8412 17.4375V16.8729H21.8796V13.6409L21.0684 14.1471L20.7958 13.6474L22.0743 12.8622H22.5481V16.8729H23.5215V17.4375H20.8412ZM25.9203 17.4959C25.3881 17.4959 24.9814 17.2947 24.7002 16.8924C24.4233 16.4857 24.2848 15.9037 24.2848 15.1466C24.2848 14.3765 24.4233 13.7945 24.7002 13.4008C24.9814 13.0028 25.3881 12.8037 25.9203 12.8037C26.4568 12.8037 26.8635 13.0028 27.1404 13.4008C27.4173 13.7945 27.5557 14.3743 27.5557 15.1401C27.5557 15.9016 27.4151 16.4857 27.1339 16.8924C26.857 17.2947 26.4524 17.4959 25.9203 17.4959ZM25.9203 16.9378C26.2491 16.9378 26.4935 16.7928 26.6536 16.503C26.8137 16.2131 26.8937 15.7588 26.8937 15.1401C26.8937 14.5214 26.8137 14.0714 26.6536 13.7902C26.4979 13.5046 26.2534 13.3619 25.9203 13.3619C25.5914 13.3619 25.347 13.5046 25.1869 13.7902C25.0268 14.0758 24.9468 14.5257 24.9468 15.1401C24.9468 15.7588 25.0268 16.2131 25.1869 16.503C25.347 16.7928 25.5914 16.9378 25.9203 16.9378Z" fill="#667580"/>
</g>
<defs>
<clipPath id="clip0_3601_5771">
<rect width="34.2424" height="27.3287" fill="white"/>
</clipPath>
</defs>
</svg>
