<svg width="33" height="32" viewBox="0 0 33 32" fill="none" xmlns="http://www.w3.org/2000/svg">
<g clip-path="url(#clip0_3601_5708)">
<path d="M6.84505 22.2878C3.87975 22.5724 0.76364 22.3689 0.320913 19.0079C-0.064243 16.0685 2.72428 13.64 5.68958 13.64C5.68798 12.6873 5.94036 11.7514 6.42072 10.9286C6.90107 10.1059 7.59205 9.42602 8.42249 8.95909C9.25294 8.49216 10.1928 8.25502 11.1454 8.2721C12.098 8.28917 13.0287 8.55985 13.8419 9.05624C14.6003 7.49695 15.865 6.2409 17.4294 5.49325C18.9939 4.74559 20.7656 4.55052 22.4553 4.93989C24.1449 5.32927 25.6526 6.28008 26.7321 7.63702C27.8115 8.99395 28.3989 10.6768 28.3984 12.4107C28.3984 12.5145 28.387 12.6151 28.383 12.7173C29.4326 13.0846 30.3422 13.7691 30.9858 14.676C31.6295 15.5829 31.9755 16.6673 31.9759 17.7794C31.9759 20.7439 29.5725 22.1905 26.6072 22.1905" stroke="#667580" stroke-width="0.567598" stroke-miterlimit="10"/>
<path d="M10.2076 4.46422C11.3621 4.46422 12.298 3.52832 12.298 2.37383C12.298 1.21934 11.3621 0.283447 10.2076 0.283447C9.05308 0.283447 8.11719 1.21934 8.11719 2.37383C8.11719 3.52832 9.05308 4.46422 10.2076 4.46422Z" stroke="#667580" stroke-width="0.567598" stroke-miterlimit="10"/>
<path d="M5.22977 8.15191C6.15273 8.15191 6.90094 7.40371 6.90094 6.48074C6.90094 5.55778 6.15273 4.80957 5.22977 4.80957C4.3068 4.80957 3.55859 5.55778 3.55859 6.48074C3.55859 7.40371 4.3068 8.15191 5.22977 8.15191Z" stroke="#667580" stroke-width="0.567598" stroke-miterlimit="10"/>
<path d="M9.532 16.7607V11.6159H10.1085L13.0568 15.5055V11.6159H13.7574V16.7607H13.1954L10.2326 12.8565V16.7607H9.532ZM17.1885 16.8264C16.6971 16.8264 16.2714 16.7194 15.9114 16.5053C15.5514 16.2864 15.2716 15.9799 15.0722 15.5858C14.8775 15.1869 14.7802 14.7198 14.7802 14.1847C14.7802 13.6446 14.8775 13.1776 15.0722 12.7835C15.2716 12.3894 15.5514 12.0854 15.9114 11.8713C16.2714 11.6572 16.6971 11.5502 17.1885 11.5502C17.675 11.5502 18.0983 11.6572 18.4583 11.8713C18.8232 12.0854 19.1029 12.3894 19.2975 12.7835C19.497 13.1776 19.5967 13.6422 19.5967 14.1774C19.5967 14.7174 19.497 15.1869 19.2975 15.5858C19.1029 15.9799 18.8232 16.2864 18.4583 16.5053C18.0983 16.7194 17.675 16.8264 17.1885 16.8264ZM17.1885 16.1696C17.6993 16.1696 18.0958 15.9969 18.378 15.6515C18.665 15.3012 18.8086 14.8123 18.8086 14.1847C18.8086 13.5571 18.6675 13.0705 18.3853 12.7251C18.1031 12.3797 17.7042 12.207 17.1885 12.207C16.6776 12.207 16.2787 12.3797 15.9917 12.7251C15.7095 13.0705 15.5684 13.5571 15.5684 14.1847C15.5684 14.8123 15.7095 15.3012 15.9917 15.6515C16.2787 15.9969 16.6776 16.1696 17.1885 16.1696ZM20.3188 16.7607V16.486L21.1572 15.5869C21.2738 15.4609 21.357 15.3467 21.407 15.2444C21.4593 15.1422 21.4855 15.0387 21.4855 14.934C21.4855 14.6629 21.3261 14.5273 21.0074 14.5273C20.7648 14.5273 20.5471 14.6189 20.3545 14.802L20.2225 14.5202C20.3176 14.4274 20.4389 14.3537 20.5864 14.299C20.7339 14.2419 20.8873 14.2134 21.0466 14.2134C21.3059 14.2134 21.5045 14.2728 21.6424 14.3917C21.7828 14.5107 21.8529 14.6807 21.8529 14.9019C21.8529 15.0518 21.8161 15.1981 21.7423 15.3408C21.671 15.4835 21.558 15.6357 21.4034 15.7974L20.7826 16.4503H21.9528V16.7607H20.3188Z" fill="#667580"/>
<path d="M10.6083 19.0044L10.5272 30.4715C10.528 30.5066 10.5174 30.5409 10.497 30.5695C10.4766 30.598 10.4475 30.6192 10.4141 30.6297C10.3807 30.6403 10.3447 30.6398 10.3116 30.6282C10.2785 30.6167 10.25 30.5947 10.2304 30.5655L8.88281 28.7087L10.5183 30.9629L12.0727 28.7046" stroke="#667580" stroke-width="0.567598" stroke-miterlimit="10"/>
<path d="M15.9795 18.2271L15.8846 26.3705C15.8841 26.4106 15.871 26.4496 15.847 26.4818C15.8231 26.514 15.7896 26.5378 15.7513 26.5499C15.713 26.5619 15.6719 26.5616 15.6338 26.5489C15.5957 26.5362 15.5626 26.5118 15.5392 26.4791L13.9727 24.3198L15.8757 26.9429L17.6847 24.315" stroke="#667580" stroke-width="0.567598" stroke-miterlimit="10"/>
<path d="M21.0411 20.8438L20.96 29.9188C20.9611 29.9541 20.9506 29.9888 20.9302 30.0176C20.9097 30.0464 20.8805 30.0678 20.8468 30.0784C20.8131 30.0891 20.7769 30.0884 20.7436 30.0766C20.7103 30.0648 20.6818 30.0424 20.6624 30.0129L19.3164 28.1577L20.9519 30.411L22.5063 28.1536" stroke="#667580" stroke-width="0.567598" stroke-miterlimit="10"/>
</g>
<defs>
<clipPath id="clip0_3601_5708">
<rect width="32.2582" height="31.4555" fill="white"/>
</clipPath>
</defs>
</svg>
