<svg width="34" height="28" viewBox="0 0 34 28" fill="none" xmlns="http://www.w3.org/2000/svg">
<g clip-path="url(#clip0_3601_5687)">
<path d="M32.9401 7.1512C32.9449 5.35973 32.2486 3.63747 31 2.35278C29.7514 1.06808 28.0497 0.322935 26.2588 0.276701C24.468 0.230467 22.7301 0.886814 21.4169 2.10537C20.1037 3.32393 19.3194 5.00796 19.2318 6.7973C18.3635 5.93036 17.2786 5.31217 16.0901 5.00718C14.9016 4.70218 13.653 4.72153 12.4746 5.06322C11.2961 5.4049 10.2309 6.05642 9.38985 6.94985C8.54884 7.84329 7.96285 8.94594 7.69297 10.1429C7.22866 9.89947 6.70938 9.78004 6.18538 9.79616C5.66139 9.81228 5.15043 9.9634 4.70197 10.2349C4.2535 10.5064 3.88273 10.8891 3.62553 11.3459C3.36832 11.8027 3.2334 12.3182 3.23383 12.8424C3.23404 13.0537 3.25583 13.2644 3.29885 13.4712C2.72345 13.6532 2.19269 13.954 1.74095 14.3542C1.28921 14.7543 0.926567 15.2449 0.676484 15.7942C0.426402 16.3434 0.294465 16.939 0.289225 17.5425C0.283985 18.146 0.405556 18.7438 0.646063 19.2973C0.88657 19.8508 1.24065 20.3476 1.68537 20.7556C2.1301 21.1635 2.65555 21.4735 3.2277 21.6655C3.79985 21.8574 4.40593 21.9271 5.00671 21.8699C5.60748 21.8127 6.18956 21.63 6.71522 21.3335C7.29057 22.9075 8.42488 24.2147 9.90201 25.0061C11.3791 25.7974 13.0958 26.0177 14.7249 25.6248C15.2635 26.4569 16.0729 27.0774 17.0162 27.3815C17.9596 27.6857 18.979 27.6547 19.9022 27.2939C20.8254 26.9331 21.5956 26.2646 22.0828 25.4015C22.5699 24.5383 22.744 23.5333 22.5757 22.5566C22.7591 22.3935 22.9059 22.1934 23.0066 21.9696C23.1073 21.7458 23.1596 21.5033 23.1601 21.2578C23.1579 21.1715 23.1493 21.0854 23.1346 21.0002C23.9011 20.9119 24.6298 20.6193 25.2446 20.153C25.8593 19.6867 26.3375 19.0638 26.6291 18.3494C26.9207 17.635 27.0151 16.8554 26.9023 16.0921C26.7895 15.3288 26.4737 14.6098 25.988 14.0103C26.0184 14.0103 26.0472 14.0103 26.0769 14.0103C27.8965 14.0105 29.6416 13.2881 30.9287 12.0018C32.2157 10.7155 32.9392 8.97079 32.9401 7.1512V7.1512Z" stroke="#667580" stroke-width="0.576117" stroke-miterlimit="10"/>
<path d="M12.3757 18.8002C11.8309 18.8002 11.365 18.6882 10.978 18.4641C10.5911 18.2401 10.2932 17.9219 10.0844 17.5094C9.88076 17.0919 9.77892 16.6005 9.77892 16.0353C9.77892 15.4702 9.88076 14.9814 10.0844 14.5689C10.2932 14.1565 10.5911 13.8382 10.978 13.6142C11.365 13.3902 11.8309 13.2782 12.3757 13.2782C12.7423 13.2782 13.0835 13.3367 13.3992 13.4538C13.72 13.5658 13.9873 13.7288 14.2011 13.9426L13.9262 14.5766C13.692 14.3678 13.4501 14.2176 13.2006 14.1259C12.9562 14.0292 12.6889 13.9808 12.3986 13.9808C11.8182 13.9808 11.3752 14.159 11.0697 14.5155C10.7642 14.8719 10.6114 15.3785 10.6114 16.0353C10.6114 16.6922 10.7642 17.2014 11.0697 17.5629C11.3752 17.9193 11.8182 18.0975 12.3986 18.0975C12.6889 18.0975 12.9562 18.0517 13.2006 17.96C13.4501 17.8633 13.692 17.7105 13.9262 17.5018L14.2011 18.1357C13.9873 18.3445 13.72 18.5074 13.3992 18.6245C13.0835 18.7416 12.7423 18.8002 12.3757 18.8002ZM17.2892 18.8002C16.7749 18.8002 16.3294 18.6882 15.9526 18.4641C15.5758 18.235 15.283 17.9142 15.0743 17.5018C14.8706 17.0843 14.7688 16.5954 14.7688 16.0353C14.7688 15.4702 14.8706 14.9814 15.0743 14.5689C15.283 14.1565 15.5758 13.8382 15.9526 13.6142C16.3294 13.3902 16.7749 13.2782 17.2892 13.2782C17.7984 13.2782 18.2414 13.3902 18.6181 13.6142C19 13.8382 19.2928 14.1565 19.4965 14.5689C19.7052 14.9814 19.8096 15.4676 19.8096 16.0277C19.8096 16.5929 19.7052 17.0843 19.4965 17.5018C19.2928 17.9142 19 18.235 18.6181 18.4641C18.2414 18.6882 17.7984 18.8002 17.2892 18.8002ZM17.2892 18.1128C17.8238 18.1128 18.2388 17.932 18.5341 17.5705C18.8345 17.2039 18.9848 16.6922 18.9848 16.0353C18.9848 15.3785 18.8371 14.8693 18.5418 14.5078C18.2464 14.1463 17.8289 13.9655 17.2892 13.9655C16.7546 13.9655 16.337 14.1463 16.0366 14.5078C15.7413 14.8693 15.5936 15.3785 15.5936 16.0353C15.5936 16.6922 15.7413 17.2039 16.0366 17.5705C16.337 17.932 16.7546 18.1128 17.2892 18.1128Z" fill="#667580"/>
</g>
<defs>
<clipPath id="clip0_3601_5687">
<rect width="33.2271" height="27.8602" fill="white"/>
</clipPath>
</defs>
</svg>
