<svg width="21" height="20" viewBox="0 0 21 20" fill="none" xmlns="http://www.w3.org/2000/svg">
<g clip-path="url(#clip0_3601_6203)">
<g filter="url(#filter0_d_3601_6203)">
<mask id="path-1-outside-1_3601_6203" maskUnits="userSpaceOnUse" x="4.2627" y="2.30542" width="10" height="10" fill="black">
<rect fill="white" x="4.2627" y="2.30542" width="10" height="10"/>
<path d="M13.544 7.35486C13.5516 7.9548 13.4322 8.54956 13.1938 9.10015C13.1583 9.17987 13.1369 9.31369 13.0081 9.26101C12.8657 9.20194 12.9547 9.09019 12.9917 9.00477C13.2083 8.50818 13.3195 7.97202 13.3182 7.43024C13.3169 6.88845 13.2032 6.35284 12.9842 5.85728C12.7652 5.36172 12.4458 4.91701 12.0461 4.55128C11.6463 4.18555 11.1751 3.90678 10.662 3.7326C8.31955 2.92544 5.78774 4.52695 5.51798 6.98544C5.25533 9.37917 7.10383 11.3885 9.53029 11.3472C9.60125 11.3393 9.67287 11.3393 9.74383 11.3472C9.79815 11.3683 9.84865 11.3981 9.89331 11.4355C9.84704 11.4782 9.80007 11.5579 9.75095 11.5572C9.3794 11.5487 8.99931 11.5693 8.63772 11.4996C6.5159 11.0924 5.10585 9.22187 5.27668 7.0673C5.44537 4.94405 7.31096 3.26282 9.44986 3.30624C11.5425 3.34824 13.2223 4.83942 13.507 6.91711C13.5334 7.08367 13.5369 7.25592 13.544 7.35486Z"/>
</mask>
<path d="M13.544 7.35486C13.5516 7.9548 13.4322 8.54956 13.1938 9.10015C13.1583 9.17987 13.1369 9.31369 13.0081 9.26101C12.8657 9.20194 12.9547 9.09019 12.9917 9.00477C13.2083 8.50818 13.3195 7.97202 13.3182 7.43024C13.3169 6.88845 13.2032 6.35284 12.9842 5.85728C12.7652 5.36172 12.4458 4.91701 12.0461 4.55128C11.6463 4.18555 11.1751 3.90678 10.662 3.7326C8.31955 2.92544 5.78774 4.52695 5.51798 6.98544C5.25533 9.37917 7.10383 11.3885 9.53029 11.3472C9.60125 11.3393 9.67287 11.3393 9.74383 11.3472C9.79815 11.3683 9.84865 11.3981 9.89331 11.4355C9.84704 11.4782 9.80007 11.5579 9.75095 11.5572C9.3794 11.5487 8.99931 11.5693 8.63772 11.4996C6.5159 11.0924 5.10585 9.22187 5.27668 7.0673C5.44537 4.94405 7.31096 3.26282 9.44986 3.30624C11.5425 3.34824 13.2223 4.83942 13.507 6.91711C13.5334 7.08367 13.5369 7.25592 13.544 7.35486Z" fill="#677580"/>
<path d="M13.544 7.35486L13.844 7.35109L13.8439 7.3422L13.8433 7.33334L13.544 7.35486ZM13.1938 9.10015L13.4678 9.22245L13.4691 9.21935L13.1938 9.10015ZM13.0081 9.26101L12.8931 9.53811L12.8945 9.5387L13.0081 9.26101ZM12.9917 9.00477L12.7167 8.88483L12.7164 8.88549L12.9917 9.00477ZM10.662 3.7326L10.5643 4.01624L10.5656 4.01667L10.662 3.7326ZM5.51798 6.98544L5.21977 6.95272L5.21977 6.95272L5.51798 6.98544ZM9.53029 11.3472L9.5354 11.6472L9.54952 11.647L9.56355 11.6454L9.53029 11.3472ZM9.74383 11.3472L9.85221 11.0675L9.81585 11.0534L9.77709 11.0491L9.74383 11.3472ZM9.89331 11.4355L10.0968 11.656L10.3475 11.4245L10.0859 11.2055L9.89331 11.4355ZM9.75095 11.5572L9.74406 11.8572L9.74661 11.8572L9.75095 11.5572ZM8.63772 11.4996L8.69455 11.205L8.69426 11.2049L8.63772 11.4996ZM5.27668 7.0673L4.97762 7.04354L4.97762 7.04359L5.27668 7.0673ZM9.44986 3.30624L9.44377 3.60618L9.44384 3.60618L9.44986 3.30624ZM13.507 6.91711L13.2097 6.95785L13.2107 6.96397L13.507 6.91711ZM13.2441 7.35863C13.2511 7.9163 13.1401 8.46915 12.9185 8.98095L13.4691 9.21935C13.7243 8.62996 13.8521 7.9933 13.844 7.35109L13.2441 7.35863ZM12.9199 8.97786C12.9118 8.99607 12.905 9.01356 12.9004 9.02574C12.8948 9.04063 12.8924 9.04724 12.8887 9.05651C12.8813 9.07539 12.8818 9.07002 12.8905 9.05771C12.901 9.0427 12.9343 9.0023 12.9979 8.98266C13.0624 8.96275 13.1105 8.97878 13.1216 8.98333L12.8945 9.5387C12.9701 9.56958 13.0691 9.58864 13.1749 9.55596C13.2799 9.52356 13.3449 9.45459 13.3814 9.40275C13.4159 9.35361 13.4365 9.30313 13.4471 9.27614C13.4635 9.23441 13.462 9.23536 13.4678 9.22245L12.9199 8.97786ZM13.1231 8.98393C13.1264 8.98534 13.1706 9.00455 13.2029 9.06315C13.2365 9.12399 13.2311 9.17953 13.2269 9.20084C13.2237 9.21745 13.2194 9.22235 13.2287 9.20315C13.2331 9.19412 13.2367 9.18705 13.244 9.17251C13.2501 9.16038 13.2588 9.14296 13.267 9.12406L12.7164 8.88549C12.7096 8.90118 12.7096 8.89837 12.6885 8.94193C12.6752 8.96954 12.6506 9.02209 12.6383 9.0847C12.625 9.15201 12.6218 9.25191 12.6776 9.35298C12.7321 9.45181 12.8185 9.50715 12.8931 9.5381L13.1231 8.98393ZM13.2667 9.12472C13.4999 8.59007 13.6196 8.01282 13.6182 7.42952L13.0182 7.43095C13.0194 7.93122 12.9167 8.42629 12.7167 8.88483L13.2667 9.12472ZM13.6182 7.42952C13.6168 6.84622 13.4944 6.26956 13.2586 5.73602L12.7098 5.97853C12.912 6.43611 13.017 6.93069 13.0182 7.43095L13.6182 7.42952ZM13.2586 5.73602C13.0229 5.20249 12.6789 4.7237 12.2486 4.32995L11.8435 4.77261C12.2126 5.11031 12.5076 5.52095 12.7098 5.97853L13.2586 5.73602ZM12.2486 4.32995C11.8182 3.93619 11.3108 3.63606 10.7585 3.44853L10.5656 4.01667C11.0393 4.17751 11.4745 4.43492 11.8435 4.77261L12.2486 4.32995ZM10.7598 3.44897C8.23594 2.57932 5.51058 4.30238 5.21977 6.95272L5.81619 7.01817C6.0649 4.75151 8.40317 3.27156 10.5643 4.01623L10.7598 3.44897ZM5.21977 6.95272C4.93712 9.52872 6.93096 11.6915 9.5354 11.6472L9.52519 11.0473C7.27669 11.0855 5.57354 9.22962 5.81619 7.01816L5.21977 6.95272ZM9.56355 11.6454C9.61241 11.64 9.66172 11.64 9.71057 11.6454L9.77709 11.0491C9.68403 11.0387 9.5901 11.0387 9.49703 11.0491L9.56355 11.6454ZM9.63545 11.627C9.65917 11.6362 9.68122 11.6492 9.7007 11.6655L10.0859 11.2055C10.0161 11.147 9.93712 11.1004 9.85221 11.0675L9.63545 11.627ZM9.68983 11.2151C9.66485 11.2381 9.64372 11.2624 9.63179 11.2761C9.62849 11.2799 9.62517 11.2838 9.62242 11.287C9.61951 11.2904 9.61704 11.2932 9.61468 11.2959C9.60989 11.3014 9.60679 11.3049 9.6046 11.3072C9.60239 11.3095 9.60243 11.3093 9.60429 11.3077C9.60603 11.3061 9.6116 11.3012 9.62073 11.2951C9.6366 11.2845 9.68426 11.2562 9.7553 11.2573L9.74661 11.8572C9.84221 11.8586 9.91416 11.8206 9.95409 11.794C9.99423 11.7671 10.0244 11.7366 10.0418 11.7181C10.0591 11.6997 10.0775 11.6779 10.0851 11.6692C10.0965 11.656 10.0986 11.6542 10.0968 11.656L9.68983 11.2151ZM9.75785 11.2573C9.35414 11.248 9.02316 11.2684 8.69455 11.205L8.5809 11.7941C8.97546 11.8703 9.40467 11.8493 9.74406 11.8571L9.75785 11.2573ZM8.69426 11.2049C6.72421 10.8269 5.41687 9.09483 5.57574 7.09101L4.97762 7.04359C4.79484 9.3489 6.30759 11.3579 8.58119 11.7942L8.69426 11.2049ZM5.57574 7.09106C5.73176 5.12729 7.46249 3.56596 9.44377 3.60618L9.45595 3.0063C7.15943 2.95969 5.15899 4.76082 4.97762 7.04354L5.57574 7.09106ZM9.44384 3.60618C11.3891 3.64522 12.9452 5.02668 13.2098 6.95784L13.8042 6.87639C13.4995 4.65216 11.6959 3.05126 9.45588 3.0063L9.44384 3.60618ZM13.2107 6.96397C13.2344 7.11386 13.2362 7.25604 13.2448 7.37639L13.8433 7.33334C13.8377 7.25581 13.8323 7.05348 13.8033 6.87026L13.2107 6.96397Z" fill="#677580" mask="url(#path-1-outside-1_3601_6203)"/>
</g>
<path d="M12.9997 11.2201L13.0054 11.2222V11.2569C13.0054 11.3968 13.0058 11.5368 13.0062 11.6769C13.007 11.9572 13.0078 12.2376 13.0054 12.5181C13.0054 12.5183 13.0054 12.5184 13.0054 12.5186L12.9554 12.5182C12.9588 12.8777 12.8196 13.2239 12.5683 13.481C12.3169 13.7381 11.9739 13.8851 11.6144 13.8898L12.9997 11.2201ZM12.9997 11.2201C12.9998 11.0766 13.0006 10.9327 13.0013 10.7887C13.0029 10.4768 13.0045 10.1641 12.9997 9.85187L12.9997 11.2201ZM10.195 12.5915C10.1737 11.8437 10.1789 11.0953 10.1842 10.3479C10.1852 10.1957 10.1863 10.0435 10.1871 9.89141L10.2371 9.89169H10.1871C10.1871 9.56319 10.4225 9.33479 10.7261 9.34346C10.876 9.34774 11.0031 9.40652 11.0927 9.50676C11.1819 9.60662 11.2309 9.74429 11.2317 9.90213L11.2317 9.90237L11.2317 9.90712V9.91187V9.91662V9.92137V9.92612V9.93087V9.93562V9.94037V9.94512V9.94987V9.95462V9.95937V9.96412V9.96887V9.97362V9.97837V9.98312V9.98787V9.99262V9.99737V10.0021V10.0069V10.0116V10.0164V10.0211V10.0259V10.0306V10.0354V10.0401V10.0449V10.0496V10.0544V10.0591V10.0639V10.0686V10.0734V10.0781V10.0829V10.0876V10.0924V10.0971V10.1019V10.1066V10.1114V10.1161V10.1209V10.1256V10.1304V10.1351V10.1399V10.1446V10.1494V10.1541V10.1589V10.1636V10.1684V10.1731V10.1779V10.1826V10.1874V10.1921V10.1969V10.2016V10.2064V10.2111V10.2159V10.2206V10.2254V10.2301V10.2349V10.2396V10.2444V10.2491V10.2539V10.2586V10.2634V10.2681V10.2729V10.2776V10.2824V10.2871V10.2919V10.2966V10.3014V10.3061V10.3109V10.3156V10.3204V10.3251V10.3299V10.3346V10.3394V10.3441V10.3489V10.3536V10.3584V10.3631V10.3679V10.3726V10.3774V10.3821V10.3869V10.3917V10.3964V10.4012V10.4059V10.4107V10.4154V10.4202V10.4249V10.4297V10.4344V10.4392V10.4439V10.4487V10.4534V10.4582V10.4629V10.4677V10.4724V10.4772V10.4819V10.4867V10.4914V10.4962V10.5009V10.5057V10.5104V10.5152V10.5199V10.5247V10.5294V10.5342V10.5389V10.5437V10.5484V10.5532V10.5579V10.5627V10.5674V10.5722V10.5769V10.5817V10.5864V10.5912V10.5959V10.6007V10.6054V10.6102V10.6149V10.6197V10.6244V10.6292V10.6339V10.6387V10.6434V10.6482V10.6529V10.6577V10.6624V10.6672V10.6719V10.6767V10.6814V10.6862V10.6909V10.6957V10.7004V10.7052V10.7099V10.7147V10.7194V10.7242V10.7289V10.7337V10.7384V10.7432V10.7479V10.7527V10.7574V10.7622V10.7669V10.7717V10.7764V10.7812V10.7859V10.7907V10.7954V10.8002V10.8049V10.8097V10.8144V10.8192V10.8239V10.8287V10.8334V10.8382V10.8429V10.8477V10.8524V10.8572V10.8619V10.8667V10.8714V10.8762V10.8809V10.8857V10.8904V10.8952V10.8999V10.9047V10.9094V10.9142V10.9189V10.9237V10.9284V10.9332V10.9379V10.9427V10.9474V10.9522V10.9569V10.9617V10.9664V10.9712V10.9759V10.9807V10.9854V10.9902V10.9949V10.9997V11.0044V11.0092V11.0139V11.0187V11.0234V11.0282V11.0329V11.0377V11.0424V11.0472V11.0519V11.0567V11.0614V11.0662V11.0709V11.0757V11.0804V11.0852V11.0899V11.0947V11.0994V11.1042V11.1089V11.1137V11.1184V11.1232V11.1279V11.1327V11.1374V11.1422V11.147V11.1517V11.1565V11.1612V11.166V11.1707V11.1755V11.1802V11.185V11.1897V11.1945V11.1992V11.204V11.2087V11.2135V11.2182V11.223V11.2277V11.2325V11.2372V11.242V11.2467V11.2515V11.2562V11.261V11.2657V11.2705V11.2752V11.28V11.2847V11.2895V11.2942V11.299V11.3037V11.3085V11.3132V11.318V11.3227V11.3275V11.3322V11.337V11.3417V11.3465V11.3512V11.356V11.3607V11.3655V11.3702V11.375V11.3797V11.3845V11.3892V11.394V11.3987V11.4035V11.4082V11.413V11.4177V11.4225V11.4272V11.432V11.4367V11.4415V11.4462V11.451V11.4557V11.4605V11.4652V11.47V11.4747V11.4795V11.4842V11.489V11.4937V11.4985V11.5032V11.508V11.5127V11.5175V11.5222V11.527V11.5317V11.5365V11.5412V11.546V11.5507V11.5555V11.5602V11.565V11.5697V11.5745V11.5792V11.584V11.5887V11.5935V11.5982V11.603V11.6077V11.6125V11.6172V11.622V11.6267V11.6315V11.6362V11.641V11.6457V11.6505V11.6552V11.66V11.6647V11.6695V11.6742V11.679V11.6837V11.6885V11.6932V11.698V11.7027V11.7075V11.7122V11.717V11.7217V11.7265V11.7312V11.736V11.7407V11.7455V11.7502V11.755V11.7597V11.7645V11.7692V11.774V11.7787V11.7835V11.7882V11.793V11.7977V11.8025V11.8072V11.812V11.8167V11.8215V11.8262V11.831V11.8357V11.8405V11.8452V11.85V11.8547V11.8595V11.8642V11.869V11.8737V11.8785V11.8832V11.888V11.8927V11.8975V11.9022V11.907V11.9118V11.9165V11.9213V11.926V11.9308V11.9355V11.9403V11.945V11.9498V11.9545V11.9593V11.964V11.9688V11.9735V11.9783V11.983V11.9878V11.9925V11.9973V12.002V12.0068V12.0115V12.0163V12.021V12.0258V12.0305V12.0353V12.04V12.0448V12.0495V12.0543V12.059V12.0638V12.0685V12.0733V12.078V12.0828V12.0875V12.0923V12.097V12.1018V12.1065V12.1113V12.116V12.1208V12.1255V12.1303V12.135V12.1398V12.1445V12.1493V12.154V12.1588V12.1635V12.1683V12.173V12.1778V12.1825V12.1873V12.192V12.1968V12.2015V12.2063V12.211V12.2158V12.2205V12.2253V12.23V12.2348V12.2395V12.2443V12.249V12.2538V12.2585V12.2633V12.268V12.2728V12.2775V12.2823V12.287V12.2918V12.2965V12.3013V12.306V12.3108V12.3155V12.3203V12.325V12.3298V12.3345V12.3348V12.3352V12.3355V12.3358V12.3361V12.3364V12.3367V12.337V12.3373V12.3377V12.338V12.3383V12.3386V12.3389V12.3392V12.3395V12.3398V12.3402V12.3405V12.3408V12.3411V12.3414V12.3417V12.342V12.3423V12.3427V12.343V12.3433V12.3436V12.3439V12.3442V12.3445V12.3449V12.3452V12.3455V12.3458V12.3461V12.3464V12.3467V12.347V12.3474V12.3477V12.348V12.3483V12.3486V12.3489V12.3492V12.3495V12.3499V12.3502V12.3505V12.3508V12.3511V12.3514V12.3517V12.352V12.3524V12.3527V12.353V12.3533V12.3536V12.3539V12.3542V12.3545V12.3549V12.3552V12.3555V12.3558V12.3561V12.3564V12.3567V12.357V12.3574V12.3577V12.358V12.3583V12.3586V12.3589V12.3592V12.3596V12.3599V12.3602V12.3605V12.3608V12.3611V12.3614V12.3617V12.3621V12.3624V12.3627V12.363V12.3633V12.3636V12.3639V12.3642V12.3646V12.3649V12.3652V12.3655V12.3658V12.3661V12.3664V12.3667V12.3671V12.3674V12.3677V12.368V12.3683V12.3686V12.3689V12.3692V12.3696V12.3699V12.3702V12.3705V12.3708V12.3711V12.3714V12.3718V12.3721V12.3724V12.3727V12.373V12.3733V12.3736V12.3739V12.3743V12.3746V12.3749V12.3752V12.3755V12.3758V12.3761V12.3764V12.3768V12.3771V12.3774V12.3777V12.378V12.3783V12.3786V12.3789V12.3793V12.3796V12.3799V12.3802V12.3805V12.3808V12.3811V12.3814V12.3818V12.3821V12.3824V12.3827V12.383V12.3833V12.3836V12.3839V12.3843V12.3846V12.3849V12.3852V12.3855V12.3858V12.3861V12.3865V12.3868V12.3871V12.3874V12.3877V12.388V12.3883V12.3886V12.389V12.3893V12.3896V12.3899V12.3902V12.3905V12.3908V12.3911V12.3915V12.3918V12.3921V12.3924V12.3927V12.393V12.3933V12.3936V12.394V12.3943V12.3946V12.3949V12.3952V12.3955V12.3958V12.3961V12.3965V12.3968V12.3971V12.3974V12.3977V12.398V12.3983V12.3987V12.399V12.3993V12.3996V12.3999V12.4002V12.4005V12.4008V12.4012V12.4015V12.4018V12.4021V12.4024V12.4027V12.403V12.4033V12.4037V12.404V12.4043V12.4046V12.4049V12.4052V12.4055V12.4058V12.4062V12.4065V12.4068V12.4071V12.4074V12.4077V12.408V12.4083V12.4087V12.409V12.4093V12.4096V12.4099V12.4102V12.4105V12.4109V12.4112V12.4115V12.4118V12.4121V12.4124V12.4127V12.413V12.4134V12.4137V12.414V12.4143V12.4146V12.4149V12.4152V12.4155V12.4159V12.4162V12.4165V12.4168V12.4171V12.4174V12.4177V12.418V12.4184V12.4187V12.419V12.4193V12.4196V12.4199V12.4202V12.4205V12.4209V12.4212V12.4215V12.4218V12.4221V12.4224V12.4227V12.423V12.4234V12.4237V12.424V12.4243V12.4246V12.4249V12.4252V12.4256V12.4259V12.4262V12.4265V12.4268V12.4271V12.4274V12.4277V12.4281V12.4284V12.4287V12.429V12.4293V12.4296V12.4299V12.4302V12.4306V12.4309V12.4312V12.4315V12.4318V12.4321V12.4324V12.4327V12.4331V12.4334V12.4337V12.434V12.4343V12.4346V12.4349V12.4352V12.4356V12.4359V12.4362V12.4365V12.4368V12.4371V12.4374V12.4378V12.4381V12.4384V12.4387V12.439V12.4393V12.4396V12.4399V12.4403V12.4406V12.4409V12.4412V12.4415V12.4418V12.4421V12.4424V12.4428V12.4431V12.4434V12.4437V12.444V12.4443V12.4446V12.4449V12.4453V12.4456V12.4459V12.4462V12.4465V12.4468V12.4471V12.4474V12.4478V12.4481V12.4484V12.4487V12.449V12.4493V12.4496V12.4499V12.4503V12.4506V12.4509V12.4512V12.4515V12.4518V12.4521V12.4525V12.4528V12.4531V12.4534V12.4537V12.454V12.4543V12.4546V12.455V12.4553V12.4556V12.4559V12.4562V12.4565V12.4568V12.4571V12.4575V12.4578V12.4581V12.4584V12.4587V12.459V12.4593V12.4596V12.46V12.4603V12.4606V12.4609V12.4612V12.4615V12.4618V12.4621V12.4625V12.4628V12.4631V12.4634V12.4637V12.464V12.4643V12.4647V12.465V12.4653V12.4656V12.4659V12.4662V12.4665V12.4668V12.4672V12.4675V12.4678V12.4681V12.4684V12.4687V12.469V12.4693V12.4697V12.47V12.4703V12.4706V12.4709V12.4712V12.4715V12.4718V12.4722V12.4725V12.4728V12.4731V12.4734V12.4737V12.474V12.4743V12.4747V12.475V12.4753V12.4756V12.4759V12.4762V12.4765V12.4769V12.4772V12.4775V12.4778V12.4781V12.4784V12.4787V12.479V12.4794V12.4797V12.48V12.4803V12.4806V12.4809V12.4812V12.4815V12.4819V12.4822V12.4825V12.4828V12.4831V12.4834V12.4837V12.484V12.4844V12.4847V12.485V12.4853V12.4856V12.4859V12.4862V12.4865V12.4869V12.4872V12.4875V12.4878V12.4881V12.4884V12.4887V12.489V12.4894V12.4897V12.49V12.4903V12.4906V12.4909V12.4912V12.4916V12.4919V12.4922V12.4925V12.4928V12.4931V12.4934V12.4936C11.2419 12.7315 11.3947 12.8882 11.5939 12.8888C11.7944 12.8894 11.9503 12.7365 11.9509 12.496L11.9509 12.4958C11.9538 11.9475 11.9528 11.3992 11.9519 10.8508C11.9514 10.5767 11.9509 10.3025 11.9509 10.0282C11.9509 10.028 11.9509 10.0278 11.9509 10.0276H12.0009C11.9991 9.95079 12.0034 9.87391 12.0137 9.79773L10.195 12.5915ZM10.195 12.5915C10.195 12.5915 10.195 12.5915 10.195 12.5915L10.245 12.5901L10.195 12.5915ZM10.9139 9.95509V9.95006V9.95509ZM10.9139 9.95509V9.96012M10.9139 9.95509V9.96012M10.9139 9.96012V9.96515M10.9139 9.96012V9.96515M10.9139 9.96515V9.97018M10.9139 9.96515V9.97018M10.9139 9.97018V9.97521M10.9139 9.97018V9.97521M10.9139 9.97521V9.98024M10.9139 9.97521V9.98024M10.9139 9.98024V9.98527M10.9139 9.98024V9.98527M10.9139 9.98527V9.99029M10.9139 9.98527V9.99029M10.9139 9.99029V9.99532M10.9139 9.99029V9.99532M10.9139 9.99532V10.0004M10.9139 9.99532V10.0004M10.9139 10.0004V10.0054M10.9139 10.0004V10.0054M10.9139 10.0054V10.0104M10.9139 10.0054V10.0104M10.9139 10.0104V10.0154M10.9139 10.0104V10.0154M10.9139 10.0154V10.0205M10.9139 10.0154V10.0205M10.9139 10.0205V10.0255M10.9139 10.0205V10.0255M10.9139 10.0255V10.0305M10.9139 10.0255V10.0305M10.9139 10.0305V10.0356M10.9139 10.0305V10.0356M10.9139 10.0356V10.0406M10.9139 10.0356V10.0406M10.9139 10.0406V10.0456M10.9139 10.0406V10.0456M10.9139 10.0456V10.0507M10.9139 10.0456V10.0507M10.9139 10.0507V10.0557M10.9139 10.0507V10.0557M10.9139 10.0557V10.0607M10.9139 10.0557V10.0607M10.9139 10.0607V10.0657M10.9139 10.0607V10.0657M10.9139 10.0657V10.0708M10.9139 10.0657V10.0708M10.9139 10.0708V10.0758M10.9139 10.0708V10.0758M10.9139 10.0758V10.0808M10.9139 10.0758V10.0808M10.9139 10.0808V10.0859M10.9139 10.0808V10.0859M10.9139 10.0859V10.0909M10.9139 10.0859V10.0909M10.9139 10.0909V10.0959M10.9139 10.0909V10.0959M10.9139 10.0959V10.101M10.9139 10.0959V10.101M10.9139 10.101V10.106M10.9139 10.101V10.106M10.9139 10.106V10.111M10.9139 10.106V10.111M10.9139 10.111V10.116M10.9139 10.111V10.116M10.9139 10.116V10.1211M10.9139 10.116V10.1211M10.9139 10.1211V10.1261M10.9139 10.1211V10.1261M10.9139 10.1261V10.1311M10.9139 10.1261V10.1311M10.9139 10.1311V10.1362M10.9139 10.1311V10.1362M10.9139 10.1362V10.1412M10.9139 10.1362V10.1412M10.9139 10.1412V10.1462M10.9139 10.1412V10.1462M10.9139 10.1462V10.1513M10.9139 10.1462V10.1513M10.9139 10.1513V10.1563M10.9139 10.1513V10.1563M10.9139 10.1563V10.1613M10.9139 10.1563V10.1613M10.9139 10.1613V10.1663M10.9139 10.1613V10.1663M10.9139 10.1663V10.1714M10.9139 10.1663V10.1714M10.9139 10.1714V10.1764M10.9139 10.1714V10.1764M10.9139 10.1764V10.1814M10.9139 10.1764V10.1814M10.9139 10.1814V10.1865M10.9139 10.1814V10.1865M10.9139 10.1865V10.1915M10.9139 10.1865V10.1915M10.9139 10.1915V10.1965M10.9139 10.1915V10.1965M10.9139 10.1965V10.2016M10.9139 10.1965V10.2016M10.9139 10.2016V10.2066M10.9139 10.2016V10.2066M10.9139 10.2066V10.2116M10.9139 10.2066V10.2116M10.9139 10.2116V10.2167M10.9139 10.2116V10.2167M10.9139 10.2167V10.2217M10.9139 10.2167V10.2217M10.9139 10.2217V10.2267M10.9139 10.2217V10.2267M10.9139 10.2267V10.2317M10.9139 10.2267V10.2317M10.9139 10.2317V10.2368M10.9139 10.2317V10.2368M10.9139 10.2368V10.2418M10.9139 10.2368V10.2418M10.9139 10.2418V10.2468M10.9139 10.2418V10.2468M10.9139 10.2468V10.2519M10.9139 10.2468V10.2519M10.9139 10.2519V10.2569M10.9139 10.2519V10.2569M10.9139 10.2569V10.2619M10.9139 10.2569V10.2619M10.9139 10.2619V10.267M10.9139 10.2619V10.267M10.9139 10.267V10.272M10.9139 10.267V10.272M10.9139 10.272V10.277M10.9139 10.272V10.277M10.9139 10.277V10.2821M10.9139 10.277V10.2821M10.9139 10.2821V10.2871M10.9139 10.2821V10.2871M10.9139 10.2871V10.2921M10.9139 10.2871V10.2921M10.9139 10.2921V10.2971M10.9139 10.2921V10.2971M10.9139 10.2971V10.3022M10.9139 10.2971V10.3022M10.9139 10.3022V10.3072M10.9139 10.3022V10.3072M10.9139 10.3072V10.3122M10.9139 10.3072V10.3122M10.9139 10.3122V10.3173M10.9139 10.3122V10.3173M10.9139 10.3173V10.3223M10.9139 10.3173V10.3223M10.9139 10.3223V10.3273M10.9139 10.3223V10.3273M10.9139 10.3273V10.3324M10.9139 10.3273V10.3324M10.9139 10.3324V10.3374M10.9139 10.3324V10.3374M10.9139 10.3374V10.3424M10.9139 10.3374V10.3424M10.9139 10.3424V10.3475M10.9139 10.3424V10.3475M10.9139 10.3475V10.3525M10.9139 10.3475V10.3525M10.9139 10.3525V10.3575M10.9139 10.3525V10.3575M10.9139 10.3575V10.3625M10.9139 10.3575V10.3625M10.9139 10.3625V10.3676M10.9139 10.3625V10.3676M10.9139 10.3676V10.3726M10.9139 10.3676V10.3726M10.9139 10.3726V10.3776M10.9139 10.3726V10.3776M10.9139 10.3776V10.3827M10.9139 10.3776V10.3827M10.9139 10.3827V10.3877M10.9139 10.3827V10.3877M10.9139 10.3877V10.3927M10.9139 10.3877V10.3927M10.9139 10.3927V10.3978M10.9139 10.3927V10.3978M10.9139 10.3978V10.4028M10.9139 10.3978V10.4028M10.9139 10.4028V10.4078M10.9139 10.4028V10.4078M10.9139 10.4078V10.4129M10.9139 10.4078V10.4129M10.9139 10.4129V10.4179M10.9139 10.4129V10.4179M10.9139 10.4179V10.4229M10.9139 10.4179V10.4229M10.9139 10.4229V10.4279M10.9139 10.4229V10.4279M10.9139 10.4279V10.433M10.9139 10.4279V10.433M10.9139 10.433V10.438M10.9139 10.433V10.438M10.9139 10.438V10.443M10.9139 10.438V10.443M10.9139 10.443V10.4481M10.9139 10.443V10.4481M10.9139 10.4481V10.4531M10.9139 10.4481V10.4531M10.9139 10.4531V10.4581M10.9139 10.4531V10.4581M10.9139 10.4581V10.4632M10.9139 10.4581V10.4632M10.9139 10.4632V10.4682M10.9139 10.4632V10.4682M10.9139 10.4682V10.4732M10.9139 10.4682V10.4732M10.9139 10.4732V10.4783M10.9139 10.4732V10.4783M10.9139 10.4783V10.4833M10.9139 10.4783V10.4833M10.9139 10.4833V10.4883M10.9139 10.4833V10.4883M10.9139 10.4883V10.4934M10.9139 10.4883V10.4934M10.9139 10.4934V10.4984M10.9139 10.4934V10.4984M10.9139 10.4984V10.5034M10.9139 10.4984V10.5034M10.9139 10.5034V10.5084M10.9139 10.5034V10.5084M10.9139 10.5084V10.5135M10.9139 10.5084V10.5135M10.9139 10.5135V10.5185M10.9139 10.5135V10.5185M10.9139 10.5185V10.5235M10.9139 10.5185V10.5235M10.9139 10.5235V10.5286M10.9139 10.5235V10.5286M10.9139 10.5286V10.5336M10.9139 10.5286V10.5336M10.9139 10.5336V10.5386M10.9139 10.5336V10.5386M10.9139 10.5386V10.5437M10.9139 10.5386V10.5437M10.9139 10.5437V10.5487M10.9139 10.5437V10.5487M10.9139 10.5487V10.5537M10.9139 10.5487V10.5537M10.9139 10.5537V10.5588M10.9139 10.5537V10.5588M10.9139 10.5588V10.5638M10.9139 10.5588V10.5638M10.9139 10.5638V10.5688M10.9139 10.5638V10.5688M10.9139 10.5688V10.5738M10.9139 10.5688V10.5738M10.9139 10.5738V10.5789M10.9139 10.5738V10.5789M10.9139 10.5789V10.5839M10.9139 10.5789V10.5839M10.9139 10.5839V10.5889M10.9139 10.5839V10.5889M10.9139 10.5889V10.594M10.9139 10.5889V10.594M10.9139 10.594V10.599M10.9139 10.594V10.599M10.9139 10.599V10.604M10.9139 10.599V10.604M10.9139 10.604V10.6091M10.9139 10.604V10.6091M10.9139 10.6091V10.6141M10.9139 10.6091V10.6141M10.9139 10.6141V10.6191M10.9139 10.6141V10.6191M10.9139 10.6191V10.6242M10.9139 10.6191V10.6242M10.9139 10.6242V10.6292M10.9139 10.6242V10.6292M10.9139 10.6292V10.6342M10.9139 10.6292V10.6342M10.9139 10.6342V10.6393M10.9139 10.6342V10.6393M10.9139 10.6393V10.6443M10.9139 10.6393V10.6443M10.9139 10.6443V10.6493M10.9139 10.6443V10.6493M10.9139 10.6493V10.6544M10.9139 10.6493V10.6544M10.9139 10.6544V10.6594M10.9139 10.6544V10.6594M10.9139 10.6594V10.6644M10.9139 10.6594V10.6644M10.9139 10.6644V10.6694M10.9139 10.6644V10.6694M10.9139 10.6694V10.6745M10.9139 10.6694V10.6745M10.9139 10.6745V10.6795M10.9139 10.6745V10.6795M10.9139 10.6795V10.6845M10.9139 10.6795V10.6845M10.9139 10.6845V10.6896M10.9139 10.6845V10.6896M10.9139 10.6896V10.6946M10.9139 10.6896V10.6946M10.9139 10.6946V10.6996M10.9139 10.6946V10.6996M10.9139 10.6996V10.7047M10.9139 10.6996V10.7047M10.9139 10.7047V10.7097M10.9139 10.7047V10.7097M10.9139 10.7097V10.7147M10.9139 10.7097V10.7147M10.9139 10.7147V10.7198M10.9139 10.7147V10.7198M10.9139 10.7198V10.7248M10.9139 10.7198V10.7248M10.9139 10.7248V10.7298M10.9139 10.7248V10.7298M10.9139 10.7298V10.7349M10.9139 10.7298V10.7349M10.9139 10.7349V10.7399M10.9139 10.7349V10.7399M10.9139 10.7399V10.7449M10.9139 10.7399V10.7449M10.9139 10.7449V10.7499M10.9139 10.7449V10.7499M10.9139 10.7499V10.755M10.9139 10.7499V10.755M10.9139 10.755V10.76M10.9139 10.755V10.76M10.9139 10.76V10.765M10.9139 10.76V10.765M10.9139 10.765V10.7701M10.9139 10.765V10.7701M10.9139 10.7701V10.7751M10.9139 10.7701V10.7751M10.9139 10.7751V10.7801M10.9139 10.7751V10.7801M10.9139 10.7801V10.7852M10.9139 10.7801V10.7852M10.9139 10.7852V10.7902M10.9139 10.7852V10.7902M10.9139 10.7902V10.7952M10.9139 10.7902V10.7952M10.9139 10.7952V10.8003M10.9139 10.7952V10.8003M10.9139 10.8003V10.8053M10.9139 10.8003V10.8053M10.9139 10.8053V10.8103M10.9139 10.8053V10.8103M10.9139 10.8103V10.8154M10.9139 10.8103V10.8154M10.9139 10.8154V10.8204M10.9139 10.8154V10.8204M10.9139 10.8204V10.8254M10.9139 10.8204V10.8254M10.9139 10.8254V10.8305M10.9139 10.8254V10.8305M10.9139 10.8305V10.8355M10.9139 10.8305V10.8355M10.9139 10.8355V10.8405M10.9139 10.8355V10.8405M10.9139 10.8405V10.8455M10.9139 10.8405V10.8455M10.9139 10.8455V10.8506M10.9139 10.8455V10.8506M10.9139 10.8506V10.8556M10.9139 10.8506V10.8556M10.9139 10.8556V10.8606M10.9139 10.8556V10.8606M10.9139 10.8606V10.8657M10.9139 10.8606V10.8657M10.9139 10.8657V10.8707M10.9139 10.8657V10.8707M10.9139 10.8707V10.8757M10.9139 10.8707V10.8757M10.9139 10.8757V10.8808M10.9139 10.8757V10.8808M10.9139 10.8808V10.8858M10.9139 10.8808V10.8858M10.9139 10.8858V10.8908M10.9139 10.8858V10.8908M10.9139 10.8908V10.8959M10.9139 10.8908V10.8959M10.9139 10.8959V10.9009M10.9139 10.8959V10.9009M10.9139 10.9009V10.9059M10.9139 10.9009V10.9059M10.9139 10.9059V10.911M10.9139 10.9059V10.911M10.9139 10.911V10.916M10.9139 10.911V10.916M10.9139 10.916V10.921M10.9139 10.916V10.921M10.9139 10.921V10.9261M10.9139 10.921V10.9261M10.9139 10.9261V10.9311M10.9139 10.9261V10.9311M10.9139 10.9311V10.9361M10.9139 10.9311V10.9361M10.9139 10.9361V10.9412M10.9139 10.9361V10.9412M10.9139 10.9412V10.9462M10.9139 10.9412V10.9462M10.9139 10.9462V10.9512M10.9139 10.9462V10.9512M10.9139 10.9512V10.9562M10.9139 10.9512V10.9562M10.9139 10.9562V10.9613M10.9139 10.9562V10.9613M10.9139 10.9613V10.9663M10.9139 10.9613V10.9663M10.9139 10.9663V10.9713M10.9139 10.9663V10.9713M10.9139 10.9713V10.9764M10.9139 10.9713V10.9764M10.9139 10.9764V10.9814M10.9139 10.9764V10.9814M10.9139 10.9814V10.9864M10.9139 10.9814V10.9864M10.9139 10.9864V10.9915M10.9139 10.9864V10.9915M10.9139 10.9915V10.9965M10.9139 10.9915V10.9965M10.9139 10.9965V11.0015M10.9139 10.9965V11.0015M10.9139 11.0015V11.0066M10.9139 11.0015V11.0066M10.9139 11.0066V11.0116M10.9139 11.0066V11.0116M10.9139 11.0116V11.0166M10.9139 11.0116V11.0166M10.9139 11.0166V11.0217M10.9139 11.0166V11.0217M10.9139 11.0217V11.0267M10.9139 11.0217V11.0267M10.9139 11.0267V11.0317M10.9139 11.0267V11.0317M10.9139 11.0317V11.0368M10.9139 11.0317V11.0368M10.9139 11.0368V11.0418M10.9139 11.0368V11.0418M10.9139 11.0418V11.0468M10.9139 11.0418V11.0468M10.9139 11.0468V11.0519M10.9139 11.0468V11.0519M10.9139 11.0519V11.0569M10.9139 11.0519V11.0569M10.9139 11.0569V11.0619M10.9139 11.0569V11.0619M10.9139 11.0619V11.0669M10.9139 11.0619V11.0669M10.9139 11.0669V11.072M10.9139 11.0669V11.072M10.9139 11.072V11.077M10.9139 11.072V11.077M10.9139 11.077V11.082M10.9139 11.077V11.082M10.9139 11.082V11.0871M10.9139 11.082V11.0871M10.9139 11.0871V11.0921M10.9139 11.0871V11.0921M10.9139 11.0921V11.0971M10.9139 11.0921V11.0971M10.9139 11.0971V11.1022M10.9139 11.0971V11.1022M10.9139 11.1022V11.1072M10.9139 11.1022V11.1072M10.9139 11.1072V11.1122M10.9139 11.1072V11.1122M10.9139 11.1122V11.1173V11.1122ZM12.7113 9.78635C12.6401 9.71517 12.5547 9.63545 12.4664 9.62477C12.3483 9.60982 12.2579 9.69595 12.2394 9.82834C12.2338 9.88724 12.2321 9.94645 12.2344 10.0056L12.7113 9.78635ZM12.2844 12.421V12.4167V12.4119V12.4072V12.4025V12.3978V12.3931V12.3883V12.3836V12.3789V12.3742V12.3695V12.3648V12.36V12.3553V12.3506V12.3459V12.3412V12.3365V12.3317V12.327V12.3223V12.3176V12.3129V12.3082V12.3034V12.2987V12.294V12.2893V12.2846V12.2799V12.2751V12.2704V12.2657V12.261V12.2563V12.2515V12.2468V12.2421V12.2374V12.2327V12.228V12.2232V12.2185V12.2138V12.2091V12.2044V12.1997V12.1949V12.1902V12.1855V12.1808V12.1761V12.1713V12.1666V12.1619V12.1572V12.1525V12.1478V12.143V12.1383V12.1336V12.1289V12.1242V12.1195V12.1147V12.11V12.1053V12.1006V12.0959V12.0911V12.0864V12.0817V12.077V12.0723V12.0676V12.0628V12.0581V12.0534V12.0487V12.044V12.0392V12.0345V12.0298V12.0251V12.0204V12.0157V12.0109V12.0062V12.0015V11.9968V11.9921V11.9873V11.9826V11.9779V11.9732V11.9685V11.9638V11.959V11.9543V11.9496V11.9449V11.9402V11.9354V11.9307V11.926V11.9213V11.9166V11.9119V11.9071V11.9024V11.8977V11.893V11.8883V11.8835V11.8788V11.8741V11.8694V11.8647V11.86V11.8552V11.8505V11.8458V11.8411V11.8364V11.8316V11.8269V11.8222V11.8175V11.8128V11.8081V11.8033V11.7986V11.7939V11.7892V11.7845V11.7797V11.775V11.7703V11.7656V11.7609V11.7561V11.7514V11.7467V11.742V11.7373V11.7326V11.7278V11.7231V11.7184V11.7137V11.709V11.7042V11.6995V11.6948V11.6901V11.6854V11.6806V11.6759V11.6712V11.6665V11.6618V11.6571V11.6523V11.6476V11.6429V11.6382V11.6335V11.6287V11.624V11.6193V11.6146V11.6099V11.6051V11.6004V11.5957V11.591V11.5863V11.5816V11.5768V11.5721V11.5674V11.5627V11.558V11.5532V11.5485V11.5438V11.5391V11.5344V11.5296V11.5249V11.5202V11.5155V11.5108V11.5061V11.5013V11.4966V11.4919V11.4872V11.4825V11.4777V11.473V11.4683V11.4636V11.4589V11.4541V11.4494V11.4447V11.44V11.4353V11.4305V11.4258V11.4211V11.4164V11.4117V11.407V11.4022V11.3975V11.3928V11.3881V11.3834V11.3786V11.3739V11.3692V11.3645V11.3598V11.355V11.3503V11.3456V11.3409V11.3362V11.3314V11.3267V11.322V11.3173V11.3126V11.3079V11.3031V11.2984V11.2937V11.289V11.2843V11.2795V11.2748V11.2701V11.2654V11.2607V11.2559V11.2512V11.2465V11.2418V11.2371V11.2323V11.2276V11.2229V11.2182V11.2135V11.2088V11.204V11.1993V11.1946V11.1899V11.1852V11.1804V11.1757V11.171V11.1663V11.1616V11.1568V11.1521V11.1474V11.1427V11.138V11.1332V11.1285V11.1238V11.1191V11.1144V11.1097V11.1049V11.1002V11.0955V11.0908V11.0861V11.0813V11.0766V11.0719V11.0672V11.0625V11.0577V11.053V11.0483V11.0436V11.0389V11.0342V11.0294V11.0247V11.02V11.0153V11.0106V11.0058V11.0011V10.9964V10.9917V10.987V10.9822V10.9775V10.9728V10.9681V10.9634V10.9586V10.9539V10.9492V10.9445V10.9398V10.9351V10.9303V10.9256V10.9209V10.9162V10.9115V10.9067V10.902V10.8973V10.8926V10.8879V10.8831V10.8784V10.8737V10.869V10.8643V10.8595V10.8548V10.8501V10.8454V10.8407V10.836V10.8312V10.8265V10.8218V10.8171V10.8124V10.8076V10.8029V10.7982V10.7935V10.7888V10.784V10.7793V10.7746V10.7699V10.7652V10.7605V10.7557V10.751V10.7463V10.7416V10.7369V10.7321V10.7274V10.7227V10.718V10.7133V10.7085V10.7038V10.6991V10.6944V10.6897V10.685V10.6802V10.6755V10.6708V10.6661V10.6614V10.6566V10.6519V10.6472V10.6425V10.6378V10.6331V10.6283V10.6236V10.6189V10.6142V10.6095V10.6047V10.6V10.5953V10.5906V10.5859V10.5811V10.5764V10.5717V10.567V10.5623V10.5576V10.5528V10.5481V10.5434V10.5387V10.534V10.5292V10.5245V10.5198V10.5151V10.5104V10.5057V10.5009V10.4962V10.4915V10.4868V10.4821V10.4773V10.4726V10.4679V10.4632V10.4585V10.4538V10.449V10.4443V10.4396V10.4349V10.4302V10.4254V10.4207V10.416V10.4113V10.4066V10.4019V10.3971V10.3924V10.3877V10.383V10.3783V10.3735V10.3688V10.3641V10.3594V10.3547V10.35V10.3452V10.3405V10.3358V10.3311V10.3264V10.3216V10.3169V10.3122V10.3075V10.3028V10.2981V10.2933V10.2886V10.2839V10.2792V10.2745V10.2698V10.265V10.2603V10.2556V10.2509V10.2462V10.2414V10.2367V10.232V10.2273V10.2226V10.2179V10.2131V10.2084V10.2037V10.199V10.1943V10.1896V10.1848V10.1801V10.1754V10.1707V10.166V10.1612V10.1565V10.1518V10.1471V10.1424V10.1377V10.1329V10.1282V10.1235V10.1188V10.1141V10.1094V10.1046V10.0999V10.0952V10.0905V10.0858V10.0811V10.0763V10.0716V10.0669V10.0622V10.0575V10.0527V10.048V10.0433V10.0386V10.0339V10.0292V10.0244V10.0197V10.015V10.0103V10.0056H12.2844L12.2843 10.0037C12.2822 9.94713 12.2837 9.89052 12.289 9.8342C12.2971 9.77783 12.3199 9.73502 12.3492 9.70824C12.3781 9.68191 12.4156 9.66874 12.4602 9.67438L12.4604 9.67441C12.4923 9.67827 12.5275 9.69529 12.5658 9.72324C12.6037 9.75093 12.6405 9.78623 12.6759 9.8217L12.6759 9.82171L12.6768 9.82255C12.6768 9.82255 12.6768 9.82256 12.6768 9.82261C12.6773 9.82334 12.6822 9.83127 12.684 9.85751C12.6852 9.87469 12.6848 9.8916 12.6845 9.9098C12.6843 9.91924 12.6841 9.92903 12.6841 9.93938C12.6841 10.226 12.6847 10.5125 12.6853 10.7989C12.6866 11.3711 12.6879 11.943 12.6841 12.515L12.6841 12.5159C12.687 12.7586 12.6081 12.9951 12.4599 13.1873C12.3118 13.3795 12.1032 13.5161 11.8678 13.5751L11.8678 13.575L11.8667 13.5754C11.6411 13.6373 11.4013 13.6223 11.1852 13.5327C10.9692 13.4432 10.7891 13.2841 10.6736 13.0808C10.6297 13.0026 10.6027 12.9136 10.58 12.8177C10.5718 12.7829 10.5639 12.7463 10.556 12.709C10.5429 12.648 10.5294 12.5852 10.5133 12.5259C10.5126 12.5199 10.5127 12.5139 10.5136 12.5079L10.5142 12.508V12.5004V11.2569V11.1847L12.2844 12.421ZM10.5085 11.2569C10.5085 10.8198 10.5104 10.3812 10.5142 9.94123L10.5085 11.2569Z" fill="#677580" stroke="#677580" stroke-width="0.1"/>
<path d="M14.6843 13.939C14.8273 13.9425 14.967 13.8964 15.0798 13.8085C15.1926 13.7207 15.2715 13.5966 15.3032 13.4573C15.5944 12.3128 15.8809 11.1671 16.1627 10.0202C16.1836 9.95108 16.1899 9.87837 16.1813 9.80666C16.1727 9.73448 16.1491 9.66489 16.1121 9.60233C16.0751 9.53976 16.0254 9.4856 15.9663 9.44329C15.9074 9.40111 15.8404 9.37163 15.7695 9.35671C15.4853 9.28927 15.2227 9.47189 15.1409 9.77247C15.0902 9.95845 15.0439 10.1459 14.9977 10.3325C14.9743 10.4271 14.951 10.5215 14.9271 10.6153L14.9271 10.6154C14.8492 10.9234 14.7712 11.2311 14.6933 11.5384C14.6592 11.4023 14.6252 11.2663 14.5911 11.1303C14.4796 10.6845 14.3681 10.2386 14.2547 9.79281C14.1782 9.47531 13.9138 9.28898 13.6254 9.3561L13.6367 9.4048M14.6843 13.939C14.5444 13.9375 14.4091 13.8886 14.3005 13.8004C14.192 13.7123 14.1165 13.59 14.0863 13.4536C13.7983 12.3148 13.5136 11.1745 13.2323 10.0325L13.2321 10.0319L13.2321 10.0319C13.1942 9.86946 13.2123 9.71847 13.282 9.59792C13.352 9.47701 13.4711 9.39158 13.6255 9.35607L13.6367 9.4048M14.6843 13.939C14.6844 13.939 14.6845 13.939 14.6847 13.939L14.6852 13.889L14.6839 13.939C14.6841 13.939 14.6842 13.939 14.6843 13.939ZM13.6367 9.4048C13.8937 9.34501 14.135 9.50872 14.2062 9.80482L14.135 13.442C13.8469 12.3032 13.5622 11.1627 13.2808 10.0205C13.2097 9.71585 13.352 9.47029 13.6367 9.4048ZM14.9954 13.3217L14.9954 13.3217C15.2702 12.2223 15.5447 11.1221 15.8189 10.0212C15.8468 9.90851 15.8461 9.83066 15.8259 9.77857C15.8072 9.73042 15.7689 9.69666 15.6988 9.67805C15.6291 9.65957 15.5799 9.67054 15.5408 9.7039C15.4982 9.74018 15.4602 9.809 15.4305 9.92233L15.4136 9.99301L15.4135 9.99344C15.368 10.1758 15.3228 10.3583 15.2776 10.5407C15.1438 11.0806 15.01 11.6206 14.8695 12.1592M14.9954 13.3217L14.8695 12.1592M14.9954 13.3217L14.9953 13.3224M14.9954 13.3217L14.9953 13.3224M14.8695 12.1592C14.8572 12.2064 14.8274 12.2463 14.7994 12.279M14.8695 12.1592L14.7994 12.279M14.9953 13.3224C14.9703 13.4283 14.9315 13.4994 14.8825 13.544C14.8344 13.5878 14.7715 13.6105 14.688 13.6105V13.6605L14.6882 13.6105C14.6057 13.6102 14.544 13.5884 14.4965 13.547C14.4483 13.5048 14.4096 13.4378 14.3827 13.3376C14.1573 12.4405 13.9322 11.5412 13.7073 10.6397L13.7073 10.6396C13.6869 10.5586 13.6662 10.478 13.6455 10.3976C13.6104 10.2608 13.5754 10.1244 13.5423 9.98739C13.5196 9.8935 13.5254 9.82373 13.5483 9.77564C13.5704 9.72941 13.6117 9.69613 13.6775 9.68051C13.7434 9.66485 13.7932 9.67587 13.8322 9.70681C13.8734 9.73944 13.9096 9.7997 13.9342 9.89605C13.9601 10.0004 13.986 10.1047 14.0118 10.209C14.1736 10.8612 14.3355 11.5135 14.5037 12.1648L14.5029 12.165L14.5065 12.173C14.5404 12.2475 14.5863 12.3161 14.6423 12.3758L14.6828 12.419M14.9953 13.3224L14.6828 12.419M14.6828 12.419L14.7186 12.3718M14.6828 12.419L14.7186 12.3718M14.7186 12.3718C14.733 12.3528 14.7482 12.3362 14.7647 12.318M14.7186 12.3718L14.7647 12.318M14.7647 12.318C14.7756 12.3061 14.7871 12.2934 14.7994 12.279M14.7647 12.318L14.7994 12.279" fill="#677580" stroke="#677580" stroke-width="0.1"/>
<path d="M14.8595 4.15251C14.8375 4.1502 14.8166 4.15943 14.8 4.16856C14.7913 4.1734 14.7826 4.17888 14.7747 4.18399C14.7738 4.18455 14.7729 4.18511 14.7721 4.18566C14.7649 4.19025 14.7584 4.19445 14.752 4.19814C14.3074 4.45461 13.8627 4.71203 13.418 4.9704C13.3777 4.98715 13.3421 5.01364 13.3146 5.0475L13.3141 5.04712L13.3118 5.05179C13.302 5.07204 13.2964 5.09411 13.2954 5.1166C13.2944 5.1391 13.298 5.16156 13.3061 5.1826L13.306 5.18263L13.3069 5.18441C13.3173 5.20589 13.3374 5.22024 13.355 5.23084C13.3625 5.23537 13.3704 5.23969 13.3777 5.24371C13.3792 5.24453 13.3807 5.24535 13.3821 5.24614C13.3909 5.25098 13.3987 5.25541 13.4055 5.25996L13.4163 5.26725L13.4279 5.26135C13.4612 5.24443 13.4895 5.23113 13.5158 5.2187C13.5269 5.21345 13.5378 5.20835 13.5485 5.2032L13.5485 5.20326L13.5499 5.20244L14.8874 4.43299L14.8875 4.43294C14.8943 4.42899 14.9013 4.42557 14.9092 4.42179L14.9098 4.42146C14.9173 4.41789 14.9255 4.41393 14.9335 4.4093C14.9505 4.39946 14.9675 4.3861 14.9803 4.36352C14.9914 4.34399 15.0032 4.31717 15.0101 4.29181C15.0135 4.27916 15.016 4.26597 15.0161 4.25376C15.0163 4.24208 15.0144 4.2279 15.0056 4.21657L15.0058 4.21642L15.0034 4.21413C14.9645 4.17687 14.9134 4.15498 14.8595 4.15251ZM14.8595 4.15251C14.8593 4.15249 14.859 4.15248 14.8588 4.15247L14.8578 4.17462L14.8595 4.15251Z" fill="#677580" stroke="#677580" stroke-width="0.0443366"/>
<path d="M7.17604 3.3245C6.92991 2.87985 6.67558 2.4447 6.42033 2.00799C6.40452 1.98094 6.38871 1.95389 6.37289 1.92683L6.37296 1.92679L6.37187 1.92524C6.34515 1.88732 6.31334 1.85325 6.27733 1.824L6.28058 1.82L6.26465 1.81907C6.19803 1.81517 6.14631 1.83902 6.12162 1.88455C6.0974 1.92923 6.10329 1.98747 6.13512 2.04423L6.13512 2.04423L6.13519 2.04434C6.40355 2.5163 6.67482 2.98763 6.95323 3.45403C6.97069 3.48356 7.00601 3.49855 7.03723 3.50902C7.0496 3.51317 7.06269 3.517 7.07527 3.52068C7.07924 3.52184 7.08317 3.52299 7.087 3.52412C7.10337 3.52898 7.11848 3.53377 7.1317 3.53932L7.15893 3.55075L7.1623 3.52141C7.16393 3.50724 7.16715 3.49184 7.17095 3.47532C7.17186 3.47132 7.17282 3.46723 7.17379 3.46308C7.17673 3.45053 7.17979 3.43748 7.18223 3.42487C7.18851 3.39253 7.19277 3.35465 7.17604 3.3245ZM7.17604 3.3245L7.15665 3.33523L7.17602 3.32447C7.17603 3.32448 7.17603 3.32449 7.17604 3.3245ZM7.14028 3.51888L7.11825 3.51635C7.11846 3.51454 7.11869 3.51272 7.11894 3.5109C7.12633 3.5134 7.13349 3.51603 7.14028 3.51888ZM7.14028 3.51888L7.14886 3.49844C7.14718 3.49773 7.14549 3.49705 7.14379 3.49637C7.14234 3.50403 7.14112 3.51156 7.14028 3.51888Z" fill="#677580" stroke="#677580" stroke-width="0.0443366"/>
<path d="M7.12754 11.3552L7.12355 11.3334C7.05509 11.3459 6.99278 11.381 6.94655 11.433L6.94625 11.4327L6.94408 11.4363C6.71463 11.821 6.49152 12.2094 6.26849 12.5976C6.23265 12.66 6.19681 12.7224 6.16094 12.7848L6.16089 12.7849C6.15791 12.7901 6.15474 12.7956 6.15147 12.8012C6.14315 12.8155 6.13424 12.8309 6.12649 12.846C6.11563 12.8671 6.10583 12.89 6.10183 12.9129C6.09775 12.9363 6.09953 12.9608 6.11327 12.9834C6.12682 13.0057 6.1502 13.0232 6.18336 13.0364L6.18357 13.0364C6.20098 13.0432 6.22131 13.0398 6.23872 13.0343C6.25709 13.0284 6.27679 13.0186 6.29559 13.0068C6.33266 12.9836 6.37043 12.9501 6.38931 12.9181L6.37021 12.9069L6.38923 12.9183C6.60114 12.5647 6.80666 12.2069 7.01189 11.8497C7.06252 11.7616 7.11314 11.6735 7.16383 11.5855L7.14462 11.5744L7.1638 11.5855C7.17812 11.5608 7.19039 11.5343 7.20472 11.5032C7.2116 11.4883 7.21895 11.4724 7.22724 11.4552L7.23345 11.4423L7.22422 11.4313C7.21918 11.4253 7.21292 11.4167 7.20563 11.4065C7.2044 11.4048 7.20315 11.4031 7.20188 11.4013C7.19582 11.3928 7.18931 11.3837 7.18294 11.3753C7.17534 11.3652 7.16714 11.3551 7.15926 11.3476C7.15535 11.3439 7.15068 11.34 7.14546 11.3372C7.14056 11.3346 7.13206 11.3312 7.12216 11.3337L7.12754 11.3552ZM7.12754 11.3552C7.1396 11.3522 7.16303 11.385 7.18377 11.4141C7.1924 11.4262 7.20057 11.4376 7.20726 11.4456L6.18016 12.7958C6.21603 12.7334 6.25188 12.671 6.28772 12.6087C6.51076 12.2204 6.73377 11.8322 6.96312 11.4477C7.00607 11.3994 7.06394 11.3668 7.12754 11.3552Z" fill="#677580" stroke="#677580" stroke-width="0.0443366"/>
<path d="M11.8603 3.40439L11.8794 3.41551C12.1342 2.97625 12.3882 2.53675 12.6415 2.09701C12.6615 2.06611 12.6772 2.0318 12.6962 1.99066C12.7017 1.97857 12.7075 1.96589 12.7138 1.95254L12.7201 1.93914L12.7102 1.92818C12.701 1.91812 12.6912 1.90476 12.6807 1.89053C12.6759 1.88393 12.6709 1.87715 12.6658 1.87041C12.6582 1.86044 12.6502 1.85049 12.6425 1.84299C12.6387 1.83926 12.6343 1.83544 12.6295 1.83252C12.625 1.82979 12.6176 1.82633 12.6087 1.82705L12.6087 1.82687L12.606 1.82744C12.5383 1.84153 12.4771 1.87761 12.4321 1.93008L12.4318 1.92986L12.4299 1.93318C12.1631 2.3813 11.9034 2.83227 11.6509 3.28608M11.8603 3.40439L11.8795 3.41548C11.877 3.41975 11.8745 3.42418 11.8719 3.42871C11.8631 3.44411 11.8536 3.46064 11.8437 3.47601C11.8307 3.49594 11.8158 3.51568 11.7979 3.53051C11.7798 3.5456 11.7578 3.55628 11.7316 3.55607C11.7056 3.55587 11.6789 3.54503 11.6511 3.5238L11.651 3.52377C11.6362 3.51237 11.6289 3.49295 11.6251 3.47535C11.6211 3.45663 11.6198 3.43465 11.6207 3.41244C11.6223 3.36862 11.6325 3.31881 11.6509 3.28608M11.8603 3.40439C11.8577 3.40889 11.855 3.41346 11.8524 3.41808C11.8095 3.49317 11.7604 3.57925 11.6645 3.50617L12.6938 1.9431C12.6872 1.95705 12.6812 1.9701 12.6755 1.98239C12.6567 2.02337 12.6417 2.05588 12.6226 2.08545C12.3692 2.52533 12.1151 2.96498 11.8603 3.40439ZM11.6509 3.28608C11.6509 3.2861 11.6509 3.28611 11.6508 3.28613L11.6702 3.29691L11.6509 3.28604C11.6509 3.28605 11.6509 3.28607 11.6509 3.28608Z" fill="#677580" stroke="#677580" stroke-width="0.0443366"/>
<path d="M5.26982 5.20745L5.26987 5.20748C5.33415 5.24385 5.39412 5.25803 5.44043 5.24463C5.46421 5.23775 5.4838 5.22367 5.49714 5.20286C5.50879 5.18468 5.51499 5.16247 5.51625 5.13743L5.58077 5.07615L5.60882 5.0495L5.57164 5.03877C5.51497 5.02242 5.45969 5.00155 5.40636 4.97634C5.28802 4.90853 5.16945 4.84033 5.05068 4.772C4.71007 4.57606 4.36773 4.37912 4.02389 4.18768C3.99423 4.16838 3.95609 4.16972 3.92326 4.17341C3.91193 4.17468 3.90002 4.17641 3.88853 4.17809C3.88283 4.17892 3.87723 4.17974 3.87185 4.18048C3.85505 4.18279 3.83946 4.18448 3.8252 4.18448H3.79203L3.80471 4.21512C3.81065 4.22948 3.81572 4.24549 3.82082 4.26263C3.82201 4.26663 3.82321 4.27071 3.82442 4.27484C3.82829 4.28802 3.83229 4.30167 3.83665 4.31467C3.84782 4.34802 3.86331 4.38394 3.89281 4.40482C3.99267 4.47548 4.10071 4.53587 4.20767 4.59566C4.25049 4.61959 4.29314 4.64343 4.33502 4.66779C4.6469 4.8515 4.95733 5.0295 5.26982 5.20745Z" fill="#677580" stroke="#677580" stroke-width="0.0443366"/>
<path d="M3.88469 10.7514L3.87502 10.7401C3.86931 10.7335 3.86179 10.7262 3.85309 10.7181C3.85117 10.7163 3.84919 10.7145 3.84717 10.7126C3.84037 10.7063 3.83315 10.6996 3.82659 10.693C3.81813 10.6846 3.80956 10.6752 3.80335 10.6654L3.88469 10.7514ZM3.88469 10.7514L3.89876 10.7467M3.88469 10.7514L3.89876 10.7467M3.89876 10.7467C3.93972 10.7332 3.9798 10.7172 4.01877 10.6987L4.0188 10.6988L4.02026 10.6979C4.48786 10.4311 4.95206 10.1655 5.41345 9.89137M3.89876 10.7467L5.41345 9.89137M5.28906 9.6886C5.32209 9.67112 5.37037 9.68148 5.41874 9.69185C5.43327 9.69497 5.4478 9.69809 5.46193 9.70045C5.46281 9.69839 5.46371 9.69635 5.46463 9.69434L5.4848 9.70355L5.48266 9.72561C5.48047 9.7254 5.47827 9.72516 5.47606 9.7249C5.47152 9.73712 5.46734 9.74999 5.46317 9.76287C5.44839 9.80841 5.43356 9.85413 5.40223 9.87225M5.28906 9.6886L3.89183 10.7257C3.93191 10.7125 3.97114 10.6968 4.00927 10.6787C4.47691 10.4118 4.94099 10.1463 5.40223 9.87225M5.28906 9.6886C5.04944 9.8175 4.81416 9.95507 4.57964 10.0922C4.52924 10.1217 4.47888 10.1511 4.42851 10.1804L5.28906 9.6886ZM5.40223 9.87225L5.41332 9.89144C5.41336 9.89141 5.4134 9.89139 5.41345 9.89137M5.40223 9.87225L5.41355 9.8913C5.41351 9.89132 5.41348 9.89134 5.41345 9.89137" fill="#677580" stroke="#677580" stroke-width="0.0443366"/>
<path d="M4.91775 7.44358L4.89064 7.46154C4.87855 7.46954 4.8662 7.47942 4.8532 7.49027C4.84983 7.49307 4.8464 7.49596 4.84292 7.49889C4.83328 7.50701 4.82328 7.51543 4.81341 7.52315L4.91775 7.44358ZM4.91775 7.44358L4.89112 7.4249L4.91775 7.44358ZM2.91912 7.44172L2.94533 7.42345C2.95783 7.41473 2.97057 7.40408 2.98397 7.39246C2.98726 7.3896 2.99062 7.38667 2.99401 7.3837C3.00412 7.37486 3.0146 7.3657 3.025 7.35725C3.05208 7.33524 3.08427 7.31312 3.11987 7.3113L3.12006 7.31129L3.12006 7.31129C3.31585 7.30289 3.51185 7.30414 3.70722 7.30539C3.7774 7.30584 3.84751 7.30629 3.91749 7.30629C3.98746 7.30629 4.0576 7.30584 4.12784 7.30539C4.32324 7.30414 4.51936 7.30289 4.71449 7.31127C4.71464 7.31128 4.71478 7.31128 4.71493 7.31129L2.91912 7.44172ZM2.91912 7.44172L2.94542 7.45987M2.91912 7.44172L2.94542 7.45987M2.94542 7.45987C2.95692 7.46781 2.96874 7.47776 2.98129 7.48879C2.98459 7.49169 2.98797 7.49469 2.9914 7.49773C3.00066 7.50595 3.01029 7.51451 3.0198 7.52235C3.045 7.54313 3.07598 7.56487 3.11033 7.56487V7.5427L3.11 7.56487C3.64737 7.57294 4.18451 7.57294 4.72141 7.56487L2.94542 7.45987Z" fill="#677580" stroke="#677580" stroke-width="0.0443366"/>
<path d="M9.5357 1.95179V2.73475L9.5357 2.73726C9.53571 2.77745 9.53572 2.82806 9.51981 2.86684C9.51134 2.88749 9.49783 2.90629 9.4764 2.9184C9.45509 2.93044 9.4286 2.93438 9.3969 2.93042L9.39965 2.90842L9.39704 2.93044C9.37923 2.92832 9.36319 2.91688 9.35053 2.90468C9.33722 2.89186 9.32458 2.87521 9.31366 2.85735L9.5357 1.95179ZM9.5357 1.95179C9.5357 1.69342 9.5357 1.4343 9.53499 1.17731L9.51282 1.17737H9.53499C9.53499 1.17388 9.535 1.1703 9.53501 1.16666C9.53506 1.14912 9.53512 1.13005 9.53399 1.11166C9.53263 1.08945 9.52946 1.06637 9.52159 1.04592C9.51359 1.0251 9.50031 1.00605 9.47849 0.994004C9.45692 0.9821 9.42988 0.978646 9.39732 0.983157L9.40036 1.00512M9.5357 1.95179L9.29645 1.16812M9.29645 1.16812H9.27428C9.27428 1.13329 9.29181 1.08975 9.31333 1.05537C9.32433 1.03779 9.33713 1.02138 9.35064 1.00871C9.36362 0.996543 9.37975 0.985462 9.39748 0.983136L9.40036 1.00512M9.29645 1.16812C9.29645 1.11046 9.35694 1.01081 9.40036 1.00512M9.29645 1.16812L9.51284 1.16636C9.51308 1.08513 9.51336 0.989459 9.40036 1.00512M9.29645 1.16812L9.27428 1.16776C9.26573 1.69328 9.26573 2.21832 9.27428 2.74289L9.29645 1.16812Z" fill="#677580" stroke="#677580" stroke-width="0.0443366"/>
<path d="M15.8939 7.44037L15.8643 7.45896C15.8509 7.46739 15.8373 7.47769 15.8231 7.48888C15.8196 7.49158 15.8161 7.49435 15.8126 7.49715C15.8018 7.50571 15.7906 7.51456 15.7795 7.52268L15.8939 7.44037ZM15.8939 7.44037L15.8645 7.42154M15.8939 7.44037L15.8645 7.42154M15.8645 7.42154C15.8519 7.41346 15.839 7.40313 15.8253 7.39157C15.821 7.388 15.8167 7.38426 15.8122 7.38046C15.8028 7.37233 15.7929 7.3639 15.7833 7.35617C15.7558 7.33412 15.7225 7.31148 15.6858 7.31127M15.8645 7.42154L15.6858 7.31127M15.6858 7.31127C15.4948 7.30289 15.3033 7.30414 15.1123 7.30539C15.0436 7.30584 14.975 7.30629 14.9066 7.30629H14.1109L14.1098 7.30628C14.0683 7.30594 14.0169 7.30551 13.978 7.3218C13.9575 7.33042 13.939 7.34422 13.9274 7.36602L15.6858 7.31127Z" fill="#677580" stroke="#677580" stroke-width="0.0443366"/>
<path d="M9.40432 11.9243L9.42272 11.9532C9.4311 11.9663 9.44145 11.9797 9.45276 11.9938C9.45572 11.9975 9.45877 12.0012 9.46186 12.005C9.47029 12.0154 9.47902 12.0262 9.48703 12.0368L9.40432 11.9243ZM9.40432 11.9243L9.38551 11.9529M9.40432 11.9243L9.38551 11.9529M9.38551 11.9529C9.37705 11.9658 9.3664 11.9789 9.35462 11.9927C9.35136 11.9965 9.34797 12.0005 9.34453 12.0045C9.33591 12.0145 9.32696 12.0249 9.31874 12.0351C9.2964 12.0631 9.27388 12.0966 9.27368 12.134M9.38551 11.9529L9.27368 12.134M9.41278 13.925L9.3935 13.8996C9.38414 13.8873 9.37275 13.8748 9.36034 13.8617C9.35733 13.8585 9.35425 13.8553 9.35113 13.8521C9.34166 13.8421 9.33186 13.8319 9.32284 13.8217L9.41278 13.925ZM9.41278 13.925L9.42986 13.8981M9.41278 13.925L9.42986 13.8981M9.42986 13.8981C9.4375 13.8861 9.44705 13.8738 9.4576 13.8608C9.46045 13.8572 9.4634 13.8537 9.46639 13.85C9.47419 13.8405 9.48229 13.8306 9.48972 13.8209C9.50978 13.7946 9.53012 13.763 9.53012 13.7282H9.50795L9.53012 13.7285C9.53771 13.1973 9.53771 12.6661 9.53012 12.1349L9.42986 13.8981ZM9.27368 12.134C9.2653 12.3249 9.26655 12.5165 9.26779 12.7076C9.26824 12.7762 9.26869 12.8447 9.26869 12.9132C9.26869 12.9814 9.26827 13.0501 9.26785 13.119L9.27368 12.134Z" fill="#677580" stroke="#677580" stroke-width="0.0443366"/>
</g>
<path d="M20.1185 12.2728C20.1737 12.0022 19.9991 11.7382 19.7285 11.683L15.3193 10.7838C15.0487 10.7286 14.7846 10.9032 14.7295 11.1738C14.6743 11.4444 14.8489 11.7084 15.1195 11.7636L19.0388 12.5629L18.2395 16.4822C18.1843 16.7528 18.3589 17.0169 18.6295 17.0721C18.9001 17.1272 19.1642 16.9526 19.2193 16.6821L20.1185 12.2728ZM10.4164 18.8636L19.9044 12.59L19.3529 11.7558L9.86485 18.0295L10.4164 18.8636Z" fill="#677580"/>
<path d="M10.2515 18.4021L1.11816 12.1729" stroke="#677580" stroke-linecap="round"/>
<path d="M1 19H20" stroke="#677580"/>
<defs>
<filter id="filter0_d_3601_6203" x="0.962891" y="3.00537" width="16.8818" height="16.8518" filterUnits="userSpaceOnUse" color-interpolation-filters="sRGB">
<feFlood flood-opacity="0" result="BackgroundImageFix"/>
<feColorMatrix in="SourceAlpha" type="matrix" values="0 0 0 0 0 0 0 0 0 0 0 0 0 0 0 0 0 0 127 0" result="hardAlpha"/>
<feOffset dy="4"/>
<feGaussianBlur stdDeviation="2"/>
<feComposite in2="hardAlpha" operator="out"/>
<feColorMatrix type="matrix" values="0 0 0 0 0 0 0 0 0 0 0 0 0 0 0 0 0 0 0.25 0"/>
<feBlend mode="normal" in2="BackgroundImageFix" result="effect1_dropShadow_3601_6203"/>
<feBlend mode="normal" in="SourceGraphic" in2="effect1_dropShadow_3601_6203" result="shape"/>
</filter>
<clipPath id="clip0_3601_6203">
<rect width="14" height="15" fill="white" transform="translate(2.5)"/>
</clipPath>
</defs>
</svg>
