<svg width="20" height="13" viewBox="0 0 20 13" fill="none" xmlns="http://www.w3.org/2000/svg">
<g id="WeatherIcon - 2-7">
<g id="Group Wind">
<path id="Path 6" d="M5.54688 6.03239C5.54688 6.03239 14.1209 6.11457 15.9772 5.57544C17.8336 5.03632 17.8312 2.23825 15.9772 1.54853C14.1233 0.858797 13.4896 3.3242 13.4896 3.3242" stroke="#667580" stroke-width="1.25087" stroke-linecap="round"/>
<path id="Path 7" d="M8.36328 9.28539C8.36328 9.28539 14.6556 8.71687 17.4296 9.28539C20.2036 9.85391 19.3203 11.4849 18.0057 11.5594C16.691 11.634 15.4778 10.7701 15.4778 10.7701" stroke="#667580" stroke-width="1.25087" stroke-linecap="round"/>
<path id="Path 52" d="M0.867188 2.52654C0.867188 2.52654 2.77595 2.68477 5.03771 2.68477C7.29947 2.68477 10.3652 2.38794 10.3652 2.38794" stroke="#667580" stroke-width="1.25087" stroke-linecap="round"/>
</g>
<g id="Group Thunder">
<path id="Path 12" d="M1.16595 6.11629C1.32252 5.78781 1.65399 5.57861 2.01787 5.57861H2.57301C3.09518 5.57861 3.4043 6.1631 3.11038 6.5947L2.85543 6.9691C2.67426 7.23514 2.86077 7.59602 3.18258 7.60211C3.52367 7.60856 3.70451 8.00796 3.48435 8.26855L2.24432 9.73624C1.87026 10.179 1.15582 9.80528 1.30612 9.24551L1.31515 9.21187C1.40312 8.88427 1.15629 8.56244 0.817096 8.56244C0.437971 8.56244 0.188446 8.16708 0.351573 7.82484L1.16595 6.11629Z" fill="url(#paint0_linear_3601_5836)"/>
</g>
</g>
<defs>
<linearGradient id="paint0_linear_3601_5836" x1="1.64579" y1="8.58561" x2="-0.238424" y2="7.89485" gradientUnits="userSpaceOnUse">
<stop stop-color="#FFD100"/>
<stop offset="1" stop-color="#FFF0AA"/>
</linearGradient>
</defs>
</svg>
