<svg width="32" height="30" viewBox="0 0 32 30" fill="none" xmlns="http://www.w3.org/2000/svg">
<mask id="mask0_3444_14942" style="mask-type:alpha" maskUnits="userSpaceOnUse" x="0" y="0" width="32" height="30">
<rect x="0.519287" width="30.8654" height="30" rx="15" fill="#D9D9D9"/>
</mask>
<g mask="url(#mask0_3444_14942)">
<path d="M-1.53833 -2H33.4424V9.33333H-1.53833V-2Z" fill="#FF9933"/>
<path d="M-1.53833 9.3252H33.4424V20.6585H-1.53833V9.3252Z" fill="white"/>
<path d="M-1.53833 20.6748H33.4424V32.0081H-1.53833V20.6748Z" fill="#128807"/>
<path d="M15.7334 18.5488C17.6654 18.5488 19.2315 16.9323 19.2315 14.9381C19.2315 12.944 17.6654 11.3274 15.7334 11.3274C13.8015 11.3274 12.2354 12.944 12.2354 14.9381C12.2354 16.9323 13.8015 18.5488 15.7334 18.5488Z" fill="#000088"/>
<path d="M15.7434 18.1049C17.4339 18.1049 18.8043 16.6904 18.8043 14.9455C18.8043 13.2006 17.4339 11.7861 15.7434 11.7861C14.053 11.7861 12.6826 13.2006 12.6826 14.9455C12.6826 16.6904 14.053 18.1049 15.7434 18.1049Z" fill="white"/>
<path d="M15.7423 15.5733C16.0804 15.5733 16.3545 15.2904 16.3545 14.9414C16.3545 14.5925 16.0804 14.3096 15.7423 14.3096C15.4042 14.3096 15.1301 14.5925 15.1301 14.9414C15.1301 15.2904 15.4042 15.5733 15.7423 15.5733Z" fill="#000088"/>
<path d="M18.7483 15.5123C18.8345 15.5241 18.9135 15.4614 18.9249 15.3725C18.9362 15.2835 18.8756 15.2019 18.7894 15.1902C18.7032 15.1784 18.6241 15.2411 18.6128 15.33C18.6014 15.419 18.6621 15.5006 18.7483 15.5123Z" fill="#000088"/>
<path d="M15.7321 18.0881L15.8371 16.1925L15.7321 15.2898L15.6272 16.1925L15.7321 18.0881Z" fill="#000088"/>
<path d="M18.5013 16.2983C18.5821 16.3331 18.6741 16.2945 18.707 16.2121C18.7399 16.1296 18.701 16.0346 18.6203 15.9998C18.5396 15.965 18.4475 16.0036 18.4146 16.086C18.3818 16.1685 18.4206 16.2635 18.5013 16.2983Z" fill="#000088"/>
<path d="M14.9356 17.9788L15.5116 16.1775L15.6332 15.2773L15.3048 16.12L14.9356 17.9788Z" fill="#000088"/>
<path d="M18.1127 16.9965C18.1821 17.0516 18.2809 17.0389 18.3334 16.9682C18.3859 16.8975 18.3721 16.7955 18.3027 16.7404C18.2333 16.6853 18.1345 16.698 18.082 16.7687C18.0295 16.8394 18.0432 16.9414 18.1127 16.9965Z" fill="#000088"/>
<path d="M14.2458 17.6805L15.2545 16.0951L15.5986 15.2589L15.07 15.985L14.2458 17.6805Z" fill="#000088"/>
<path d="M17.4905 17.5396C17.5438 17.6112 17.6427 17.6253 17.7112 17.5711C17.7798 17.5169 17.7922 17.4149 17.7389 17.3433C17.6856 17.2717 17.5867 17.2576 17.5182 17.3118C17.4496 17.366 17.4372 17.468 17.4905 17.5396Z" fill="#000088"/>
<path d="M13.5908 17.1552L14.9633 15.8936L15.506 15.1784L14.8131 15.7385L13.5908 17.1552Z" fill="#000088"/>
<path d="M16.8158 17.9231C16.8485 18.0055 16.9406 18.044 17.0214 18.0092C17.1023 17.9743 17.1412 17.8793 17.1084 17.7969C17.0756 17.7145 16.9836 17.676 16.9027 17.7108C16.8219 17.7457 16.783 17.8407 16.8158 17.9231Z" fill="#000088"/>
<path d="M13.1362 16.522L14.7794 15.6646L15.4857 15.12L14.6762 15.4798L13.1362 16.522Z" fill="#000088"/>
<path d="M15.996 18.0829C16.0068 18.1713 16.0859 18.2331 16.1726 18.2209C16.2593 18.2087 16.3208 18.127 16.3099 18.0386C16.2991 17.9501 16.22 17.8883 16.1333 17.9005C16.0466 17.9128 15.9851 17.9944 15.996 18.0829Z" fill="#000088"/>
<path d="M12.79 15.7513L14.5913 15.3606L15.41 15.023L14.5384 15.1553L12.79 15.7513Z" fill="#000088"/>
<path d="M15.1855 18.0279C15.1737 18.1175 15.2336 18.1991 15.3193 18.2102C15.4051 18.2214 15.4841 18.1579 15.4959 18.0683C15.5078 17.9788 15.4478 17.8972 15.3621 17.886C15.2764 17.8749 15.1973 17.9384 15.1855 18.0279Z" fill="#000088"/>
<path d="M12.6824 14.9214L14.5176 15.0065L15.3923 14.9017L14.5187 14.8096L12.6824 14.9214Z" fill="#000088"/>
<path d="M14.4315 17.7947C14.398 17.8778 14.4358 17.9729 14.516 18.007C14.5961 18.0411 14.6882 18.0013 14.7216 17.9181C14.7551 17.835 14.7173 17.7399 14.6371 17.7058C14.557 17.6718 14.4649 17.7115 14.4315 17.7947Z" fill="#000088"/>
<path d="M12.7947 14.121L14.5407 14.7158L15.4127 14.8429L14.5957 14.5042L12.7947 14.121Z" fill="#000088"/>
<path d="M13.7637 17.3498C13.7112 17.4205 13.725 17.5225 13.7944 17.5777C13.8638 17.6328 13.9626 17.6201 14.0151 17.5494C14.0676 17.4787 14.0538 17.3767 13.9844 17.3216C13.915 17.2665 13.8162 17.2791 13.7637 17.3498Z" fill="#000088"/>
<path d="M13.1003 13.3591L14.6403 14.4012L15.4499 14.7611L14.7436 14.2164L13.1003 13.3591Z" fill="#000088"/>
<path d="M13.2271 16.7193C13.1586 16.7735 13.1463 16.8755 13.1997 16.9471C13.253 17.0188 13.3518 17.033 13.4204 16.9789C13.4889 16.9247 13.5012 16.8228 13.4478 16.7511C13.3944 16.6794 13.2956 16.6652 13.2271 16.7193Z" fill="#000088"/>
<path d="M13.5894 12.7058L14.8161 14.1232L15.5083 14.6866L14.9625 13.9721L13.5894 12.7058Z" fill="#000088"/>
<path d="M12.8541 16.005C12.7741 16.039 12.7365 16.134 12.7701 16.2173C12.8037 16.3006 12.8958 16.3406 12.9758 16.3066C13.0558 16.2727 13.0934 16.1776 13.0598 16.0943C13.0262 16.011 12.9341 15.9711 12.8541 16.005Z" fill="#000088"/>
<path d="M14.2197 12.2199L15.0492 13.9159L15.577 14.6446L15.2291 13.8089L14.2197 12.2199Z" fill="#000088"/>
<path d="M12.7188 15.1935C12.6329 15.2049 12.5727 15.2865 12.5844 15.3758C12.5961 15.4652 12.6752 15.5284 12.761 15.5171C12.8469 15.5058 12.907 15.4241 12.8954 15.3348C12.8837 15.2454 12.8046 15.1822 12.7188 15.1935Z" fill="#000088"/>
<path d="M14.9816 11.8904L15.3586 13.7496L15.6858 14.5944L15.5587 13.6946L14.9816 11.8904Z" fill="#000088"/>
<path d="M12.7262 14.3627C12.6395 14.3504 12.5605 14.4122 12.5496 14.5006C12.5387 14.589 12.6002 14.6706 12.6868 14.6829C12.7735 14.6951 12.8526 14.6334 12.8634 14.545C12.8743 14.4565 12.8129 14.3749 12.7262 14.3627Z" fill="#000088"/>
<path d="M15.7366 11.7868L15.6519 13.6809L15.7538 14.5838L15.8445 13.6822L15.7366 11.7868Z" fill="#000088"/>
<path d="M12.9584 13.5715C12.8777 13.5367 12.7856 13.5754 12.7528 13.6578C12.7199 13.7402 12.7587 13.8353 12.8394 13.8701C12.9202 13.9049 13.0122 13.8663 13.0451 13.7838C13.078 13.7014 13.0391 13.6063 12.9584 13.5715Z" fill="#000088"/>
<path d="M16.5118 11.8911L15.9358 13.6924L15.8141 14.5926L16.1425 13.7499L16.5118 11.8911Z" fill="#000088"/>
<path d="M13.3995 12.8776C13.3301 12.8224 13.2313 12.8351 13.1788 12.9058C13.1264 12.9765 13.1401 13.0785 13.2095 13.1336C13.2789 13.1887 13.3777 13.1761 13.4302 13.1054C13.4827 13.0347 13.469 12.9327 13.3995 12.8776Z" fill="#000088"/>
<path d="M17.2537 12.1938L16.2451 13.7791L15.9009 14.6153L16.4295 13.8893L17.2537 12.1938Z" fill="#000088"/>
<path d="M14.0183 12.3338C13.9649 12.2621 13.8661 12.2479 13.7976 12.3021C13.729 12.3562 13.7167 12.4582 13.7701 12.5299C13.8234 12.6016 13.9223 12.6158 13.9908 12.5616C14.0593 12.5075 14.0716 12.4055 14.0183 12.3338Z" fill="#000088"/>
<path d="M17.9172 12.7185L16.5448 13.9798L16.0022 14.695L16.6951 14.1351L17.9172 12.7185Z" fill="#000088"/>
<path d="M14.6896 11.9702C14.6568 11.8878 14.5647 11.8493 14.4839 11.8841C14.4031 11.919 14.3642 12.014 14.397 12.0964C14.4297 12.1788 14.5218 12.2173 14.6026 12.1825C14.6834 12.1476 14.7224 12.0526 14.6896 11.9702Z" fill="#000088"/>
<path d="M18.3694 13.3711L16.7262 14.2284L16.0199 14.7731L16.8294 14.4132L18.3694 13.3711Z" fill="#000088"/>
<path d="M15.5094 11.8105C15.4986 11.722 15.4195 11.6602 15.3328 11.6724C15.2461 11.6846 15.1846 11.7663 15.1955 11.8547C15.2063 11.9432 15.2854 12.005 15.3721 11.9928C15.4588 11.9805 15.5203 11.8989 15.5094 11.8105Z" fill="#000088"/>
<path d="M18.7161 14.142L16.9148 14.5327L16.0961 14.8703L16.9677 14.738L18.7161 14.142Z" fill="#000088"/>
<path d="M16.2807 11.8245C16.2926 11.7349 16.2328 11.6533 16.1471 11.6422C16.0614 11.6311 15.9824 11.6947 15.9705 11.7843C15.9586 11.8739 16.0184 11.9555 16.1041 11.9666C16.1897 11.9777 16.2688 11.9141 16.2807 11.8245Z" fill="#000088"/>
<path d="M18.7834 14.9299L16.9484 14.8477L16.0736 14.9521L16.9471 15.0422L18.7834 14.9299Z" fill="#000088"/>
<path d="M17.0354 12.0901C17.069 12.0068 17.0313 11.9118 16.9512 11.8778C16.8712 11.8438 16.7791 11.8837 16.7456 11.9669C16.712 12.0502 16.7497 12.1452 16.8297 12.1792C16.9098 12.2132 17.0019 12.1733 17.0354 12.0901Z" fill="#000088"/>
<path d="M18.6715 15.7629L16.9258 15.1682L16.0537 15.0419L16.8706 15.3808L18.6715 15.7629Z" fill="#000088"/>
<path d="M17.7143 12.5583C17.7675 12.4868 17.7548 12.3848 17.6861 12.3305C17.6173 12.2761 17.5185 12.2899 17.4654 12.3614C17.4122 12.4328 17.4249 12.5348 17.4936 12.5892C17.5624 12.6436 17.6612 12.6297 17.7143 12.5583Z" fill="#000088"/>
<path d="M18.3779 16.5348L16.8409 15.4934L16.0309 15.1371L16.7351 15.6825L18.3779 16.5348Z" fill="#000088"/>
<path d="M18.2812 13.1561C18.3504 13.1012 18.3638 12.9992 18.3111 12.9283C18.2584 12.8573 18.1596 12.8443 18.0904 12.8992C18.0212 12.954 18.0078 13.056 18.0605 13.127C18.1132 13.1979 18.212 13.2109 18.2812 13.1561Z" fill="#000088"/>
<path d="M17.9187 17.1809L16.6954 15.7641L16.0027 15.2034L16.546 15.9184L17.9187 17.1809Z" fill="#000088"/>
<path d="M18.6239 13.9135C18.7045 13.8789 18.7429 13.7839 18.7099 13.7012C18.6768 13.6185 18.5848 13.5796 18.5042 13.6141C18.4237 13.6487 18.3852 13.7438 18.4182 13.8264C18.4513 13.9091 18.5434 13.9481 18.6239 13.9135Z" fill="#000088"/>
<path d="M17.2702 17.6988L16.4443 16.0031L15.916 15.2762L16.2613 16.1123L17.2702 17.6988Z" fill="#000088"/>
<path d="M18.8076 14.7023C18.894 14.6903 18.955 14.6087 18.9439 14.52C18.9328 14.4312 18.8537 14.369 18.7673 14.3809C18.6809 14.3929 18.6199 14.4745 18.631 14.5632C18.6421 14.652 18.7212 14.7142 18.8076 14.7023Z" fill="#000088"/>
<path d="M16.556 17.6803L16.1842 15.8213L15.8562 14.978L15.9797 15.8781L16.556 17.6803Z" fill="#000088"/>
</g>
</svg>
