<svg width="67" height="74" viewBox="0 0 67 74" fill="none" xmlns="http://www.w3.org/2000/svg">
<mask id="mask0_2562_2021" style="mask-type:alpha" maskUnits="userSpaceOnUse" x="0" y="0" width="67" height="74">
<rect width="67" height="74" rx="10" fill="#D9D9D9"/>
</mask>
<g mask="url(#mask0_2562_2021)">
<mask id="mask1_2562_2021" style="mask-type:alpha" maskUnits="userSpaceOnUse" x="0" y="0" width="67" height="74">
<rect width="67" height="74" rx="10" fill="white"/>
</mask>
<g mask="url(#mask1_2562_2021)">
<path d="M29.4319 41.2627C16.9831 69.4068 3.24651 63.9344 -5.33887 69.4068V-3.29878C23.2791 -5.64412 77.2524 -8.9276 64.2027 -3.29878C47.8905 3.73725 38.9187 19.8151 29.4319 41.2627Z" fill="#D8E0E3"/>
<g filter="url(#filter0_f_2562_2021)">
<circle cx="23.0071" cy="23.0071" r="23.0071" transform="matrix(-1 0 0 1 46.9829 5.23999)" fill="#FFD374"/>
</g>
<g opacity="0.5" filter="url(#filter1_f_2562_2021)">
<circle cx="17" cy="17" r="17" transform="matrix(-1 0 0 1 41 11)" fill="#FFD374"/>
</g>
<g filter="url(#filter2_f_2562_2021)">
<circle cx="13" cy="13" r="13" transform="matrix(-1 0 0 1 37 15)" fill="#FFE599"/>
</g>
<g filter="url(#filter3_f_2562_2021)">
<circle cx="7.32047" cy="7.32047" r="7.32047" transform="matrix(-1 0 0 1 31.2964 20.9279)" fill="#FFF8CE"/>
</g>
<path d="M47.209 46.2025L50.3735 46.6772L47.5254 46.519L45.4685 45.8861L44.6773 45.5696L44.9938 46.3608C44.8883 46.6772 44.6457 47.3418 44.5191 47.4684C44.3609 47.6266 44.5191 47.6266 44.0444 48.5759C43.6647 49.3354 44.2026 49.8418 44.5191 50L43.8862 49.8418C43.6225 49.3143 43.2216 48.1962 43.728 47.943C44.2343 47.6899 44.4664 46.9937 44.5191 46.6772L43.8862 45.2532L43.0951 43.3544H42.6204L41.3545 41.6139L41.0381 38.1329L40.5634 38.6076L39.614 40.1899L38.8229 42.2468L37.2406 44.3038L36.2913 47.1519L36.6077 44.3038L38.8229 41.4557L39.7723 38.9241L41.0381 37.6582L40.8799 35.1266L39.9305 35.443L39.2976 32.1203L38.5064 30.3797L37.2406 30.538L35.6583 30.8544L33.2849 30.3797L30.5951 30.538L27.747 30.0633V32.4367L28.5381 33.3861L29.6457 34.1772L30.7533 33.3861L32.8102 32.9114V35.443L30.7533 40.3481L32.4938 33.7025H31.3862L30.4368 34.019L30.1204 34.6519H29.171L29.0128 35.6013L29.171 37.0253L29.8039 38.4494L29.6457 39.7152L29.171 37.9747L28.2216 36.2342L28.6963 34.3354L27.747 33.3861L26.9558 32.2785L26.6394 33.3861L25.69 34.019L26.1647 33.2278L26.9558 30.538L27.114 28.9557L23.0001 25.6329V25L24.4242 25.1582L27.2723 27.6899L28.2216 29.4304H30.2786L31.228 30.0633L32.4938 29.7468L34.709 30.0633L36.9242 29.9051L38.6647 29.4304L39.9305 30.8544V32.2785L40.8799 33.3861L41.8292 35.2848L41.671 39.0823L41.8292 40.6646L42.3039 42.0886C42.5149 42.1413 42.9685 42.2785 43.0951 42.4051C43.2216 42.5316 43.8862 44.1456 44.2026 44.9367L47.209 46.2025Z" fill="#FFFBE7"/>
<path d="M43.4391 10.3197L45.3903 7.91671L43.7646 10.1671L42.3392 11.6233L41.7556 12.1596L42.311 12.1617C42.4069 12.3501 42.5969 12.7629 42.5894 12.9065C42.58 13.0859 42.6661 12.9581 42.8678 13.6512C43.0292 14.2058 43.5671 13.936 43.8159 13.7318L43.395 14.1918C42.9961 14.233 42.2363 14.1924 42.3891 13.7007C42.5418 13.2089 42.3307 12.7943 42.2061 12.6485L41.172 12.6958L39.8218 12.7163L39.5636 13.0999L38.0319 13.5556L36.1733 12.6765L36.1451 13.2149L36.3953 14.4981L36.9616 15.8081L37.0976 17.7576L37.961 19.4534L36.7533 18.2691L36.5783 15.5502L35.8681 13.9575L35.9433 12.5217L34.6308 11.8243L34.2677 12.6948L32.3137 12.123L31.0402 12.195L30.4283 13.2697L29.7211 14.6518L28.2002 16.4153L26.8139 18.641L25.0349 20.7882L26.1847 21.562L27.075 21.2321L28.0607 20.5948L28.2798 19.4416L29.1686 17.6243L30.3951 18.4497L31.6527 21.7114L29.3797 18.138L28.7773 19.0333L28.4143 19.9037L28.5488 20.3659L28.0325 21.1332L28.4064 21.5706L29.1823 21.907L30.2165 21.8597L30.7437 22.4002L29.6423 22.2165L28.2827 22.4164L27.621 21.4137L26.6447 21.8715L25.6778 22.1498L26.0423 22.7667L25.8325 23.7404L25.7074 23.0988L24.8345 21.5824L24.154 20.9387L20.3067 23.1805L20.0001 22.9741L20.8513 21.8747L23.6268 20.3981L24.9864 20.1982L26.1052 18.5357L26.9282 17.9747L27.4633 16.8484L28.8214 15.1612L29.9496 13.3192L30.6663 11.7576L32.0447 11.1988L32.7346 11.6631L33.7875 11.2568L35.2238 11.1085L36.9775 12.4745L37.8301 12.8624L38.7782 12.943C38.9185 12.7897 39.2317 12.4678 39.3618 12.4067C39.492 12.3457 40.6354 12.3347 41.1908 12.3369L43.4391 10.3197Z" fill="#FFF6C1"/>
<path d="M25.5654 52.2865L24.7052 54.1596L25.6371 52.5803L26.0061 51.2344L26.1052 50.6878L26.4551 51.1696C26.6785 51.2388 27.1553 51.3727 27.275 51.3554C27.4247 51.3338 27.3678 51.4181 28.095 51.5413C28.6767 51.6398 28.7799 52.1267 28.7588 52.3579L28.8938 51.9582C28.6795 51.609 28.1684 50.9528 27.8378 51.1221C27.5073 51.2915 27.0158 51.1394 26.8113 51.0422L26.2044 50.1413L25.3761 48.9681L25.5469 48.7154L24.9821 47.3522L23.0557 45.8052L23.5047 45.7404L24.7736 45.8615L26.2638 46.2547L28.0386 46.2267L30.0495 46.8489L28.2663 45.8897L25.8001 45.9414L23.9748 45.4445L22.7775 45.6173L21.3506 44.5306L21.8776 44.1503L20.1578 42.4976L19.4223 41.3871L19.9704 40.7757L20.7251 40.0585L21.3007 38.6067L22.3611 37.2371L23.1075 35.5325L24.4986 36.4724L24.7704 37.2696L24.8356 38.1726L23.9735 38.4491L22.9553 39.3565L24.4391 40.3589L28.054 41.2059L23.5328 39.5012L23.9313 38.9114L24.4583 38.5312L24.9431 38.6133L25.2846 38.1078L25.898 38.3995L26.6757 39.0476L27.2826 39.9485L28.0815 40.3655L27.2321 39.4235L26.5535 38.2288L25.2699 37.7297L25.055 36.8483L24.6904 35.9884L25.4534 36.2585L26.1659 36.0036L25.5315 35.9431L23.6703 35.2992L22.686 34.757L22.2184 31.2506L21.8475 31L21.4279 31.8209L21.8872 34.34L22.5658 35.5347L21.8258 36.63L21.8552 37.3861L21.2143 37.9349L20.6029 39.2397L19.7133 40.3566L18.8089 41.0955L19.1882 42.3334L20.0228 42.8973L20.3305 43.8414L21.1018 45.0987L23.3845 46.5182L24.2549 47.229L24.9188 48.0456C24.8738 48.1789 24.791 48.4747 24.8197 48.5922C24.8483 48.7097 25.5552 49.7027 25.905 50.1845L25.5654 52.2865Z" fill="#FFF6C1"/>
<path d="M20.8218 20.2881C15.4691 55.4626 -13.8816 56.5714 -24.5596 62.8002V-19.9541C11.0336 -22.6236 78.1625 -26.3608 61.932 -19.9541C41.6438 -11.9456 24.5591 -4.27124 20.8218 20.2881Z" fill="#DBDFDC"/>
<path d="M10.6608 16.9724C0.63645 38.1349 -11.1251 33.4732 -18.1528 37.5727V-16.8921C5.27287 -18.649 49.4538 -21.1087 38.7716 -16.8921C25.419 -11.6213 20.1482 -3.0566 10.6608 16.9724Z" fill="#E9E9E9"/>
<path d="M15 -5.5L22 1.5" stroke="url(#paint0_linear_2562_2021)" stroke-width="0.5" stroke-linecap="round"/>
<path d="M7 -2L14 5" stroke="url(#paint1_linear_2562_2021)" stroke-width="0.5" stroke-linecap="round"/>
<path d="M37 3L41 7" stroke="url(#paint2_linear_2562_2021)" stroke-width="0.5" stroke-linecap="round"/>
<path d="M24 1L28 5" stroke="url(#paint3_linear_2562_2021)" stroke-width="0.5" stroke-linecap="round"/>
<path d="M-5 1L7 13" stroke="url(#paint4_linear_2562_2021)" stroke-width="0.5" stroke-linecap="round"/>
<path d="M4 2L16 14" stroke="url(#paint5_linear_2562_2021)" stroke-width="0.5" stroke-linecap="round"/>
<path d="M14 -1L26 11" stroke="url(#paint6_linear_2562_2021)" stroke-width="0.5" stroke-linecap="round"/>
<path d="M18 10L30 22" stroke="url(#paint7_linear_2562_2021)" stroke-width="0.5" stroke-linecap="round"/>
<path d="M18 22L30 34" stroke="url(#paint8_linear_2562_2021)" stroke-width="0.5" stroke-linecap="round"/>
<path d="M23 20L32 28" stroke="url(#paint9_linear_2562_2021)" stroke-width="0.5" stroke-linecap="round"/>
<path d="M24 11L30 18" stroke="url(#paint10_linear_2562_2021)" stroke-width="0.5" stroke-linecap="round"/>
<path d="M12 26L18 33" stroke="url(#paint11_linear_2562_2021)" stroke-width="0.5" stroke-linecap="round"/>
<path d="M4 37L10 44" stroke="url(#paint12_linear_2562_2021)" stroke-width="0.5" stroke-linecap="round"/>
<path d="M13 34L19 41" stroke="url(#paint13_linear_2562_2021)" stroke-width="0.5" stroke-linecap="round"/>
<path d="M13 42L19 49" stroke="url(#paint14_linear_2562_2021)" stroke-width="0.5" stroke-linecap="round"/>
<path d="M21 38L27 45" stroke="url(#paint15_linear_2562_2021)" stroke-width="0.5" stroke-linecap="round"/>
<path d="M3 43L9 50" stroke="url(#paint16_linear_2562_2021)" stroke-width="0.5" stroke-linecap="round"/>
<path d="M29 6L35 13" stroke="url(#paint17_linear_2562_2021)" stroke-width="0.5" stroke-linecap="round"/>
<path d="M34 -4L40 3" stroke="url(#paint18_linear_2562_2021)" stroke-width="0.5" stroke-linecap="round"/>
<path d="M-6 10L6 22" stroke="url(#paint19_linear_2562_2021)" stroke-width="0.5" stroke-linecap="round"/>
<path d="M-10 2L2 14" stroke="url(#paint20_linear_2562_2021)" stroke-width="0.5" stroke-linecap="round"/>
<path d="M1 11L9 19" stroke="url(#paint21_linear_2562_2021)" stroke-width="0.5" stroke-linecap="round"/>
<path d="M8 12L16 20" stroke="url(#paint22_linear_2562_2021)" stroke-width="0.5" stroke-linecap="round"/>
<path d="M1 25L9 33" stroke="url(#paint23_linear_2562_2021)" stroke-width="0.5" stroke-linecap="round"/>
<path d="M-4 25L4 33" stroke="url(#paint24_linear_2562_2021)" stroke-width="0.5" stroke-linecap="round"/>
</g>
</g>
<defs>
<filter id="filter0_f_2562_2021" x="-18.6075" y="-14.3362" width="85.1666" height="85.1667" filterUnits="userSpaceOnUse" color-interpolation-filters="sRGB">
<feFlood flood-opacity="0" result="BackgroundImageFix"/>
<feBlend mode="normal" in="SourceGraphic" in2="BackgroundImageFix" result="shape"/>
<feGaussianBlur stdDeviation="9.78811" result="effect1_foregroundBlur_2562_2021"/>
</filter>
<filter id="filter1_f_2562_2021" x="3" y="7" width="42" height="42" filterUnits="userSpaceOnUse" color-interpolation-filters="sRGB">
<feFlood flood-opacity="0" result="BackgroundImageFix"/>
<feBlend mode="normal" in="SourceGraphic" in2="BackgroundImageFix" result="shape"/>
<feGaussianBlur stdDeviation="2" result="effect1_foregroundBlur_2562_2021"/>
</filter>
<filter id="filter2_f_2562_2021" x="7" y="11" width="34" height="34" filterUnits="userSpaceOnUse" color-interpolation-filters="sRGB">
<feFlood flood-opacity="0" result="BackgroundImageFix"/>
<feBlend mode="normal" in="SourceGraphic" in2="BackgroundImageFix" result="shape"/>
<feGaussianBlur stdDeviation="2" result="effect1_foregroundBlur_2562_2021"/>
</filter>
<filter id="filter3_f_2562_2021" x="12.6553" y="16.9279" width="22.6411" height="22.641" filterUnits="userSpaceOnUse" color-interpolation-filters="sRGB">
<feFlood flood-opacity="0" result="BackgroundImageFix"/>
<feBlend mode="normal" in="SourceGraphic" in2="BackgroundImageFix" result="shape"/>
<feGaussianBlur stdDeviation="2" result="effect1_foregroundBlur_2562_2021"/>
</filter>
<linearGradient id="paint0_linear_2562_2021" x1="18.5" y1="-5.5" x2="18.5" y2="1.5" gradientUnits="userSpaceOnUse">
<stop stop-color="#EEFFFF"/>
<stop offset="1" stop-color="#EEFFFF" stop-opacity="0"/>
</linearGradient>
<linearGradient id="paint1_linear_2562_2021" x1="10.5" y1="-2" x2="10.5" y2="5" gradientUnits="userSpaceOnUse">
<stop stop-color="#EEFFFF"/>
<stop offset="1" stop-color="#EEFFFF" stop-opacity="0"/>
</linearGradient>
<linearGradient id="paint2_linear_2562_2021" x1="39" y1="3" x2="39" y2="7" gradientUnits="userSpaceOnUse">
<stop stop-color="#EEFFFF"/>
<stop offset="1" stop-color="#EEFFFF" stop-opacity="0"/>
</linearGradient>
<linearGradient id="paint3_linear_2562_2021" x1="26" y1="1" x2="26" y2="5" gradientUnits="userSpaceOnUse">
<stop stop-color="#EEFFFF"/>
<stop offset="1" stop-color="#EEFFFF" stop-opacity="0"/>
</linearGradient>
<linearGradient id="paint4_linear_2562_2021" x1="1" y1="1" x2="1" y2="13" gradientUnits="userSpaceOnUse">
<stop stop-color="#EEFFFF"/>
<stop offset="1" stop-color="#EEFFFF" stop-opacity="0"/>
</linearGradient>
<linearGradient id="paint5_linear_2562_2021" x1="10" y1="2" x2="10" y2="14" gradientUnits="userSpaceOnUse">
<stop stop-color="#EEFFFF"/>
<stop offset="1" stop-color="#EEFFFF" stop-opacity="0"/>
</linearGradient>
<linearGradient id="paint6_linear_2562_2021" x1="20" y1="-1" x2="20" y2="11" gradientUnits="userSpaceOnUse">
<stop stop-color="#EEFFFF"/>
<stop offset="1" stop-color="#EEFFFF" stop-opacity="0"/>
</linearGradient>
<linearGradient id="paint7_linear_2562_2021" x1="24" y1="10" x2="24" y2="22" gradientUnits="userSpaceOnUse">
<stop stop-color="#EEFFFF"/>
<stop offset="1" stop-color="#EEFFFF" stop-opacity="0"/>
</linearGradient>
<linearGradient id="paint8_linear_2562_2021" x1="24" y1="22" x2="24" y2="34" gradientUnits="userSpaceOnUse">
<stop stop-color="#EEFFFF"/>
<stop offset="1" stop-color="#EEFFFF" stop-opacity="0"/>
</linearGradient>
<linearGradient id="paint9_linear_2562_2021" x1="27.5" y1="20" x2="27.5" y2="28" gradientUnits="userSpaceOnUse">
<stop stop-color="#EEFFFF"/>
<stop offset="1" stop-color="#EEFFFF" stop-opacity="0"/>
</linearGradient>
<linearGradient id="paint10_linear_2562_2021" x1="27" y1="11" x2="27" y2="18" gradientUnits="userSpaceOnUse">
<stop stop-color="#EEFFFF"/>
<stop offset="1" stop-color="#EEFFFF" stop-opacity="0"/>
</linearGradient>
<linearGradient id="paint11_linear_2562_2021" x1="15" y1="26" x2="15" y2="33" gradientUnits="userSpaceOnUse">
<stop stop-color="#EEFFFF"/>
<stop offset="1" stop-color="#EEFFFF" stop-opacity="0"/>
</linearGradient>
<linearGradient id="paint12_linear_2562_2021" x1="7" y1="37" x2="7" y2="44" gradientUnits="userSpaceOnUse">
<stop stop-color="#EEFFFF"/>
<stop offset="1" stop-color="#EEFFFF" stop-opacity="0"/>
</linearGradient>
<linearGradient id="paint13_linear_2562_2021" x1="16" y1="34" x2="16" y2="41" gradientUnits="userSpaceOnUse">
<stop stop-color="#EEFFFF"/>
<stop offset="1" stop-color="#EEFFFF" stop-opacity="0"/>
</linearGradient>
<linearGradient id="paint14_linear_2562_2021" x1="16" y1="42" x2="16" y2="49" gradientUnits="userSpaceOnUse">
<stop stop-color="#EEFFFF"/>
<stop offset="1" stop-color="#EEFFFF" stop-opacity="0"/>
</linearGradient>
<linearGradient id="paint15_linear_2562_2021" x1="24" y1="38" x2="24" y2="45" gradientUnits="userSpaceOnUse">
<stop stop-color="#EEFFFF"/>
<stop offset="1" stop-color="#EEFFFF" stop-opacity="0"/>
</linearGradient>
<linearGradient id="paint16_linear_2562_2021" x1="6" y1="43" x2="6" y2="50" gradientUnits="userSpaceOnUse">
<stop stop-color="#EEFFFF"/>
<stop offset="1" stop-color="#EEFFFF" stop-opacity="0"/>
</linearGradient>
<linearGradient id="paint17_linear_2562_2021" x1="32" y1="6" x2="32" y2="13" gradientUnits="userSpaceOnUse">
<stop stop-color="#EEFFFF"/>
<stop offset="1" stop-color="#EEFFFF" stop-opacity="0"/>
</linearGradient>
<linearGradient id="paint18_linear_2562_2021" x1="37" y1="-4" x2="37" y2="3" gradientUnits="userSpaceOnUse">
<stop stop-color="#EEFFFF"/>
<stop offset="1" stop-color="#EEFFFF" stop-opacity="0"/>
</linearGradient>
<linearGradient id="paint19_linear_2562_2021" x1="0" y1="10" x2="0" y2="22" gradientUnits="userSpaceOnUse">
<stop stop-color="#EEFFFF"/>
<stop offset="1" stop-color="#EEFFFF" stop-opacity="0"/>
</linearGradient>
<linearGradient id="paint20_linear_2562_2021" x1="-4" y1="2" x2="-4" y2="14" gradientUnits="userSpaceOnUse">
<stop stop-color="#EEFFFF"/>
<stop offset="1" stop-color="#EEFFFF" stop-opacity="0"/>
</linearGradient>
<linearGradient id="paint21_linear_2562_2021" x1="5" y1="11" x2="5" y2="19" gradientUnits="userSpaceOnUse">
<stop stop-color="#EEFFFF"/>
<stop offset="1" stop-color="#EEFFFF" stop-opacity="0"/>
</linearGradient>
<linearGradient id="paint22_linear_2562_2021" x1="12" y1="12" x2="12" y2="20" gradientUnits="userSpaceOnUse">
<stop stop-color="#EEFFFF"/>
<stop offset="1" stop-color="#EEFFFF" stop-opacity="0"/>
</linearGradient>
<linearGradient id="paint23_linear_2562_2021" x1="5" y1="25" x2="5" y2="33" gradientUnits="userSpaceOnUse">
<stop stop-color="#EEFFFF"/>
<stop offset="1" stop-color="#EEFFFF" stop-opacity="0"/>
</linearGradient>
<linearGradient id="paint24_linear_2562_2021" x1="0" y1="25" x2="0" y2="33" gradientUnits="userSpaceOnUse">
<stop stop-color="#EEFFFF"/>
<stop offset="1" stop-color="#EEFFFF" stop-opacity="0"/>
</linearGradient>
</defs>
</svg>
