<svg width="67" height="74" viewBox="0 0 67 74" fill="none" xmlns="http://www.w3.org/2000/svg">
<mask id="mask0_2562_1960" style="mask-type:alpha" maskUnits="userSpaceOnUse" x="0" y="0" width="67" height="74">
<rect width="67" height="74" rx="10" fill="#D9D9D9"/>
</mask>
<g mask="url(#mask0_2562_1960)">
<path d="M59 2L63 6" stroke="white" stroke-width="0.5" stroke-linecap="round"/>
<mask id="mask1_2562_1960" style="mask-type:alpha" maskUnits="userSpaceOnUse" x="0" y="0" width="67" height="74">
<rect width="67" height="74" rx="10" fill="white"/>
</mask>
<g mask="url(#mask1_2562_1960)">
<path d="M27.5631 38.6428C15.9047 65 3.04027 59.875 -5 65V-3.08937C21.8009 -5.2858 72.3474 -8.3608 60.1262 -3.08937C44.8497 3.49993 36.4475 18.557 27.5631 38.6428Z" fill="#D8E0E3"/>
<path d="M19.5 19C14.4872 51.9412 -13 52.9796 -23 58.8129V-18.6871C10.3333 -21.1871 73.2 -24.6871 58 -18.6871C39 -11.1871 23 -4 19.5 19Z" fill="#DEE6E8"/>
<path d="M9.98418 15.8948C0.596312 35.7136 -10.4185 31.3479 -17 35.1871V-15.8196C4.93836 -17.465 46.3141 -19.7685 36.3102 -15.8196C23.8054 -10.8835 18.8692 -2.86253 9.98418 15.8948Z" fill="#E9E9E9"/>
<path fill-rule="evenodd" clip-rule="evenodd" d="M9.68196 5.34197C9.68196 5.68057 9.5971 6.37734 9.4571 7.03434C9.93024 6.55485 10.4682 6.09899 10.752 5.91242C11.3713 5.50528 12.0967 5.51494 12.3722 5.93401C12.6477 6.35307 12.369 7.02284 11.7497 7.42998C11.4573 7.62219 10.7956 7.9488 10.1494 8.19597C10.7956 8.44314 11.4573 8.76974 11.7497 8.96195C12.369 9.36909 12.6477 10.0389 12.3722 10.4579C12.0967 10.877 11.3713 10.8867 10.752 10.4795C10.4682 10.293 9.93025 9.83711 9.45713 9.35762C9.59711 10.0146 9.68196 10.7113 9.68196 11.0499C9.68196 11.791 9.2754 12.3918 8.77389 12.3918C8.27238 12.3918 7.86582 11.791 7.86582 11.0499C7.86582 10.6955 7.95876 9.94889 8.11057 9.26609C7.61754 9.77815 7.02824 10.2811 6.72644 10.4795C6.10714 10.8867 5.38175 10.877 5.10625 10.4579C4.83076 10.0389 5.10947 9.36909 5.72877 8.96195C6.02115 8.76974 6.6829 8.44314 7.32909 8.19597C6.6829 7.9488 6.02115 7.62219 5.72877 7.42998C5.10947 7.02284 4.83076 6.35307 5.10625 5.93401C5.38175 5.51494 6.10714 5.50528 6.72644 5.91242C7.02825 6.11083 7.61756 6.6138 8.1106 7.12587C7.95877 6.44304 7.86582 5.69634 7.86582 5.34197C7.86582 4.60082 8.27238 4 8.77389 4C9.2754 4 9.68196 4.60082 9.68196 5.34197Z" fill="white"/>
<path fill-rule="evenodd" clip-rule="evenodd" d="M23.3691 18.2887C23.3691 18.5149 23.3124 18.9805 23.2189 19.4196C23.5351 19.0991 23.8946 18.7945 24.0842 18.6699C24.4981 18.3978 24.9828 18.4042 25.167 18.6843C25.3511 18.9643 25.1648 19.4119 24.7509 19.684C24.5555 19.8125 24.1133 20.0307 23.6815 20.1959C24.1133 20.3611 24.5555 20.5794 24.7509 20.7078C25.1648 20.9799 25.3511 21.4275 25.167 21.7076C24.9828 21.9876 24.4981 21.9941 24.0842 21.722C23.8946 21.5973 23.5351 21.2927 23.2189 20.9723C23.3124 21.4113 23.3691 21.8769 23.3691 22.1032C23.3691 22.5985 23.0974 23 22.7623 23C22.4271 23 22.1554 22.5985 22.1554 22.1032C22.1554 21.8664 22.2175 21.3674 22.319 20.9111C21.9895 21.2533 21.5957 21.5894 21.394 21.722C20.9801 21.9941 20.4954 21.9876 20.3112 21.7076C20.1271 21.4275 20.3134 20.9799 20.7273 20.7078C20.9227 20.5794 21.3649 20.3611 21.7967 20.1959C21.3649 20.0307 20.9227 19.8125 20.7273 19.684C20.3134 19.4119 20.1271 18.9643 20.3112 18.6843C20.4954 18.4042 20.9801 18.3978 21.394 18.6699C21.5957 18.8024 21.9895 19.1386 22.319 19.4808C22.2175 19.0245 22.1554 18.5255 22.1554 18.2887C22.1554 17.7934 22.4271 17.3918 22.7623 17.3918C23.0974 17.3918 23.3691 17.7934 23.3691 18.2887Z" fill="white"/>
<path fill-rule="evenodd" clip-rule="evenodd" d="M25.6346 6.56822C25.6346 6.96387 25.5325 7.77802 25.364 8.54574C25.9334 7.98544 26.5808 7.45278 26.9223 7.23477C27.6676 6.75899 28.5406 6.77028 28.8721 7.26C29.2037 7.74971 28.8683 8.5324 28.123 9.00818C27.7711 9.2328 26.9747 9.61448 26.197 9.90332C26.9747 10.1922 27.7711 10.5738 28.123 10.7985C28.8683 11.2742 29.2037 12.0569 28.8721 12.5466C28.5406 13.0364 27.6676 13.0477 26.9223 12.5719C26.5808 12.3539 25.9334 11.8212 25.364 11.2609C25.5325 12.0286 25.6346 12.8428 25.6346 13.2384C25.6346 14.1045 25.1453 14.8066 24.5417 14.8066C23.9382 14.8066 23.4489 14.1045 23.4489 13.2384C23.4489 12.8243 23.5608 11.9518 23.7435 11.1538C23.1501 11.7522 22.4409 12.34 22.0777 12.5719C21.3324 13.0477 20.4594 13.0364 20.1279 12.5466C19.7963 12.0569 20.1317 11.2742 20.877 10.7985C21.2289 10.5738 22.0253 10.1922 22.803 9.90332C22.0253 9.61448 21.2289 9.2328 20.877 9.00818C20.1317 8.5324 19.7963 7.74971 20.1279 7.26C20.4594 6.77028 21.3324 6.75899 22.0777 7.23477C22.4409 7.46663 23.1501 8.0544 23.7435 8.6528C23.5608 7.85486 23.4489 6.98232 23.4489 6.56822C23.4489 5.70211 23.9382 5 24.5417 5C25.1453 5 25.6346 5.70211 25.6346 6.56822Z" fill="white"/>
<path fill-rule="evenodd" clip-rule="evenodd" d="M34.0085 22.5682C34.0085 22.9639 33.9177 23.778 33.768 24.5457C34.2741 23.9854 34.8496 23.4528 35.1531 23.2348C35.8156 22.759 36.5916 22.7703 36.8863 23.26C37.181 23.7497 36.8829 24.5324 36.2204 25.0082C35.9076 25.2328 35.1997 25.6145 34.5084 25.9033C35.1997 26.1922 35.9076 26.5738 36.2204 26.7985C36.8829 27.2742 37.181 28.0569 36.8863 28.5466C36.5916 29.0364 35.8156 29.0477 35.1531 28.5719C34.8496 28.3539 34.2741 27.8212 33.768 27.2609C33.9177 28.0286 34.0085 28.8428 34.0085 29.2384C34.0085 30.1045 33.5736 30.8066 33.0371 30.8066C32.5006 30.8066 32.0657 30.1045 32.0657 29.2384C32.0657 28.8243 32.1651 27.9518 32.3275 27.1538C31.8001 27.7522 31.1697 28.34 30.8469 28.5719C30.1844 29.0477 29.4084 29.0364 29.1137 28.5466C28.819 28.0569 29.1171 27.2742 29.7796 26.7985C30.0924 26.5738 30.8003 26.1922 31.4916 25.9033C30.8003 25.6145 30.0924 25.2328 29.7796 25.0082C29.1171 24.5324 28.819 23.7497 29.1137 23.26C29.4084 22.7703 30.1844 22.759 30.8469 23.2348C31.1697 23.4666 31.8001 24.0544 32.3275 24.6528C32.1651 23.8549 32.0657 22.9823 32.0657 22.5682C32.0657 21.7021 32.5006 21 33.0371 21C33.5736 21 34.0085 21.7021 34.0085 22.5682Z" fill="white"/>
<path fill-rule="evenodd" clip-rule="evenodd" d="M6.89785 28.797C6.89785 29.0469 6.83407 29.5611 6.72884 30.0459C7.08451 29.6921 7.4889 29.3557 7.70223 29.218C8.16782 28.9175 8.71316 28.9247 8.92028 29.2339C9.1274 29.5432 8.91786 30.0375 8.45227 30.338C8.23247 30.4799 7.73497 30.7209 7.24917 30.9033C7.73497 31.0857 8.23247 31.3268 8.45227 31.4686C8.91786 31.7691 9.1274 32.2634 8.92028 32.5727C8.71316 32.882 8.16782 32.8891 7.70223 32.5886C7.4889 32.451 7.08451 32.1146 6.72884 31.7608C6.83407 32.2456 6.89785 32.7597 6.89785 33.0096C6.89785 33.5566 6.5922 34 6.21517 34C5.83813 34 5.53249 33.5566 5.53249 33.0096C5.53249 32.7481 5.60236 32.197 5.71651 31.693C5.34584 32.071 4.90277 32.4422 4.67586 32.5886C4.21027 32.8891 3.66493 32.882 3.45781 32.5727C3.25069 32.2634 3.46023 31.7691 3.92582 31.4686C4.14562 31.3268 4.64312 31.0857 5.12892 30.9033C4.64312 30.7209 4.14562 30.4799 3.92582 30.338C3.46023 30.0375 3.25069 29.5432 3.45781 29.2339C3.66493 28.9247 4.21027 28.9175 4.67586 29.218C4.90277 29.3645 5.34584 29.7357 5.71651 30.1136C5.60236 29.6097 5.53249 29.0586 5.53249 28.797C5.53249 28.2501 5.83813 27.8066 6.21517 27.8066C6.5922 27.8066 6.89785 28.2501 6.89785 28.797Z" fill="white"/>
<path fill-rule="evenodd" clip-rule="evenodd" d="M12.0085 41.5682C12.0085 41.9639 11.9177 42.778 11.768 43.5457C12.2741 42.9854 12.8496 42.4528 13.1531 42.2348C13.8156 41.759 14.5916 41.7703 14.8863 42.26C15.181 42.7497 14.8829 43.5324 14.2204 44.0082C13.9076 44.2328 13.1997 44.6145 12.5084 44.9033C13.1997 45.1922 13.9076 45.5738 14.2204 45.7985C14.8829 46.2742 15.181 47.0569 14.8863 47.5466C14.5916 48.0364 13.8156 48.0477 13.1531 47.5719C12.8496 47.3539 12.2741 46.8212 11.768 46.2609C11.9177 47.0286 12.0085 47.8428 12.0085 48.2384C12.0085 49.1045 11.5736 49.8066 11.0371 49.8066C10.5006 49.8066 10.0657 49.1045 10.0657 48.2384C10.0657 47.8243 10.1651 46.9518 10.3275 46.1538C9.80011 46.7522 9.1697 47.34 8.84685 47.5719C8.18435 48.0477 7.40838 48.0364 7.11367 47.5466C6.81895 47.0569 7.1171 46.2742 7.7796 45.7985C8.09237 45.5738 8.8003 45.1922 9.49156 44.9033C8.8003 44.6145 8.09237 44.2328 7.7796 44.0082C7.1171 43.5324 6.81895 42.7497 7.11367 42.26C7.40838 41.7703 8.18435 41.759 8.84685 42.2348C9.1697 42.4666 9.80011 43.0544 10.3275 43.6528C10.1651 42.8549 10.0657 41.9823 10.0657 41.5682C10.0657 40.7021 10.5006 40 11.0371 40C11.5736 40 12.0085 40.7021 12.0085 41.5682Z" fill="white"/>
<path opacity="0.6" fill-rule="evenodd" clip-rule="evenodd" d="M37.527 5.11687C37.527 5.44744 37.4561 6.12765 37.3391 6.76908C37.7344 6.30095 38.1839 5.85592 38.421 5.67377C38.9384 5.27626 39.5444 5.2857 39.7746 5.69485C40.0048 6.104 39.7719 6.75793 39.2545 7.15544C39.0102 7.34311 38.4573 7.662 37.9174 7.90332C38.4573 8.14465 39.0102 8.46353 39.2545 8.6512C39.7719 9.04871 40.0048 9.70264 39.7746 10.1118C39.5444 10.5209 38.9384 10.5304 38.421 10.1329C38.1839 9.95073 37.7344 9.50569 37.3391 9.03757C37.4561 9.67899 37.527 10.3592 37.527 10.6898C37.527 11.4134 37.1873 12 36.7683 12C36.3493 12 36.0096 11.4134 36.0096 10.6898C36.0096 10.3438 36.0873 9.61479 36.2141 8.94812C35.8022 9.44808 35.3098 9.93915 35.0577 10.1329C34.5402 10.5304 33.9342 10.5209 33.704 10.1118C33.4738 9.70264 33.7067 9.04871 34.2241 8.6512C34.4684 8.46353 35.0213 8.14465 35.5612 7.90332C35.0213 7.662 34.4684 7.34311 34.2241 7.15544C33.7067 6.75793 33.4738 6.104 33.704 5.69485C33.9342 5.2857 34.5402 5.27626 35.0577 5.67377C35.3098 5.86749 35.8022 6.35856 36.2141 6.85852C36.0873 6.19185 36.0096 5.46285 36.0096 5.11687C36.0096 4.39325 36.3493 3.80664 36.7683 3.80664C37.1873 3.80664 37.527 4.39325 37.527 5.11687Z" fill="white"/>
<path opacity="0.6" fill-rule="evenodd" clip-rule="evenodd" d="M21.5969 33.4235C21.5969 33.622 21.5543 34.0304 21.4841 34.4156C21.7215 34.1345 21.9914 33.8672 22.1337 33.7579C22.4444 33.5192 22.8084 33.5248 22.9466 33.7705C23.0848 34.0162 22.945 34.4089 22.6343 34.6476C22.4876 34.7603 22.1556 34.9517 21.8313 35.0967C22.1556 35.2416 22.4876 35.4331 22.6343 35.5458C22.945 35.7844 23.0848 36.1771 22.9466 36.4228C22.8084 36.6685 22.4444 36.6741 22.1337 36.4355C21.9914 36.3261 21.7215 36.0588 21.4841 35.7777C21.5543 36.1629 21.5969 36.5713 21.5969 36.7698C21.5969 37.2044 21.3929 37.5566 21.1413 37.5566C20.8897 37.5566 20.6858 37.2044 20.6858 36.7698C20.6858 36.5621 20.7324 36.1244 20.8086 35.7241C20.5612 36.0243 20.2656 36.3191 20.1142 36.4355C19.8035 36.6741 19.4396 36.6685 19.3014 36.4228C19.1631 36.1771 19.303 35.7844 19.6137 35.5458C19.7604 35.4331 20.0924 35.2416 20.4166 35.0967C20.0924 34.9517 19.7604 34.7603 19.6137 34.6476C19.303 34.4089 19.1631 34.0162 19.3014 33.7705C19.4396 33.5248 19.8035 33.5192 20.1142 33.7579C20.2656 33.8742 20.5612 34.169 20.8086 34.4692C20.7324 34.0689 20.6858 33.6312 20.6858 33.4235C20.6858 32.989 20.8897 32.6367 21.1413 32.6367C21.3929 32.6367 21.5969 32.989 21.5969 33.4235Z" fill="white"/>
<path opacity="0.54" fill-rule="evenodd" clip-rule="evenodd" d="M32.3489 37.7868C32.3489 37.9853 32.3063 38.3937 32.2361 38.7789C32.4734 38.4978 32.7433 38.2305 32.8857 38.1211C33.1964 37.8824 33.5603 37.8881 33.6985 38.1338C33.8367 38.3795 33.6969 38.7721 33.3862 39.0108C33.2395 39.1235 32.9075 39.315 32.5833 39.4599C32.9075 39.6048 33.2395 39.7963 33.3862 39.909C33.6969 40.1477 33.8367 40.5404 33.6985 40.7861C33.5603 41.0318 33.1964 41.0374 32.8857 40.7987C32.7433 40.6894 32.4734 40.4221 32.2361 40.141C32.3063 40.5262 32.3489 40.9346 32.3489 41.1331C32.3489 41.5676 32.1449 41.9199 31.8933 41.9199C31.6417 41.9199 31.4377 41.5676 31.4377 41.1331C31.4377 40.9254 31.4844 40.4877 31.5605 40.0874C31.3132 40.3876 31.0175 40.6824 30.8661 40.7987C30.5554 41.0374 30.1915 41.0318 30.0533 40.7861C29.9151 40.5404 30.0549 40.1477 30.3656 39.909C30.5123 39.7963 30.8443 39.6048 31.1685 39.4599C30.8443 39.315 30.5123 39.1235 30.3656 39.0108C30.0549 38.7721 29.9151 38.3795 30.0533 38.1338C30.1915 37.8881 30.5554 37.8824 30.8661 38.1211C31.0175 38.2375 31.3132 38.5323 31.5605 38.8325C31.4844 38.4322 31.4377 37.9945 31.4377 37.7868C31.4377 37.3522 31.6417 37 31.8933 37C32.1449 37 32.3489 37.3522 32.3489 37.7868Z" fill="#D8E0E3"/>
<path opacity="0.54" fill-rule="evenodd" clip-rule="evenodd" d="M41.6636 25.6735C41.6636 26.0041 41.5928 26.6843 41.4758 27.3257C41.8711 26.8576 42.3205 26.4126 42.5576 26.2304C43.075 25.8329 43.6811 25.8423 43.9113 26.2515C44.1414 26.6606 43.9086 27.3146 43.3912 27.7121C43.1469 27.8998 42.5939 28.2187 42.054 28.46C42.5939 28.7013 43.1469 29.0202 43.3912 29.2079C43.9086 29.6054 44.1414 30.2594 43.9113 30.6685C43.6811 31.0777 43.075 31.0871 42.5576 30.6896C42.3205 30.5075 41.8711 30.0624 41.4758 29.5943C41.5928 30.2358 41.6636 30.9159 41.6636 31.2465C41.6636 31.9701 41.324 32.5567 40.905 32.5567C40.486 32.5567 40.1463 31.9701 40.1463 31.2465C40.1463 30.9005 40.2239 30.1716 40.3508 29.5049C39.9388 30.0049 39.4465 30.4959 39.1944 30.6896C38.677 31.0871 38.0709 31.0777 37.8407 30.6685C37.6106 30.2594 37.8434 29.6054 38.3608 29.2079C38.6051 29.0202 39.1581 28.7013 39.698 28.46C39.1581 28.2187 38.6051 27.8998 38.3608 27.7121C37.8434 27.3146 37.6106 26.6606 37.8407 26.2515C38.0709 25.8423 38.677 25.8329 39.1944 26.2304C39.4465 26.4241 39.9388 26.9152 40.3508 27.4151C40.2239 26.7484 40.1463 26.0195 40.1463 25.6735C40.1463 24.9499 40.486 24.3633 40.905 24.3633C41.324 24.3633 41.6636 24.9499 41.6636 25.6735Z" fill="#D8E0E3"/>
<path opacity="0.54" fill-rule="evenodd" clip-rule="evenodd" d="M48.4705 10.4926C48.4705 10.6168 48.4439 10.8725 48.3999 11.1136C48.5485 10.9377 48.7175 10.7704 48.8066 10.7019C49.0011 10.5525 49.2289 10.556 49.3155 10.7098C49.402 10.8636 49.3145 11.1095 49.1199 11.2589C49.0281 11.3295 48.8202 11.4494 48.6173 11.5401C48.8202 11.6308 49.0281 11.7507 49.1199 11.8212C49.3145 11.9707 49.402 12.2165 49.3155 12.3703C49.2289 12.5241 49.0011 12.5277 48.8066 12.3782C48.7175 12.3098 48.5485 12.1425 48.3999 11.9665C48.4439 12.2076 48.4705 12.4633 48.4705 12.5876C48.4705 12.8596 48.3428 13.0802 48.1853 13.0802C48.0278 13.0802 47.9001 12.8596 47.9001 12.5876C47.9001 12.4575 47.9293 12.1835 47.977 11.9329C47.8221 12.1208 47.637 12.3054 47.5423 12.3782C47.3477 12.5277 47.1199 12.5241 47.0334 12.3703C46.9468 12.2165 47.0344 11.9707 47.2289 11.8212C47.3207 11.7507 47.5286 11.6308 47.7316 11.5401C47.5286 11.4494 47.3207 11.3295 47.2289 11.2589C47.0344 11.1095 46.9468 10.8636 47.0334 10.7098C47.1199 10.556 47.3477 10.5525 47.5423 10.7019C47.637 10.7747 47.8221 10.9593 47.977 11.1473C47.9293 10.8966 47.9001 10.6226 47.9001 10.4926C47.9001 10.2205 48.0278 10 48.1853 10C48.3428 10 48.4705 10.2205 48.4705 10.4926Z" fill="#D8E0E3"/>
<path opacity="0.54" fill-rule="evenodd" clip-rule="evenodd" d="M27.8782 49.4926C27.8782 49.6168 27.8441 49.8725 27.788 50.1136C27.9778 49.9376 28.1936 49.7703 28.3074 49.7019C28.5559 49.5524 28.8469 49.556 28.9574 49.7098C29.0679 49.8636 28.9561 50.1094 28.7077 50.2589C28.5904 50.3294 28.3248 50.4493 28.0656 50.54C28.3248 50.6308 28.5904 50.7507 28.7077 50.8212C28.9561 50.9707 29.0679 51.2165 28.9574 51.3703C28.8469 51.5241 28.5559 51.5277 28.3074 51.3782C28.1936 51.3097 27.9777 51.1424 27.7879 50.9664C27.8441 51.2076 27.8782 51.4634 27.8782 51.5876C27.8782 51.8597 27.7151 52.0802 27.5139 52.0802C27.3127 52.0802 27.1496 51.8597 27.1496 51.5876C27.1496 51.4576 27.1869 51.1835 27.2478 50.9329C27.05 51.1208 26.8136 51.3054 26.6926 51.3782C26.4441 51.5277 26.1531 51.5241 26.0426 51.3703C25.9321 51.2165 26.0439 50.9707 26.2924 50.8212C26.4097 50.7507 26.6752 50.6308 26.9344 50.54C26.6752 50.4493 26.4097 50.3294 26.2924 50.2589C26.0439 50.1094 25.9321 49.8636 26.0426 49.7098C26.1531 49.556 26.4441 49.5524 26.6926 49.7019C26.8136 49.7747 27.05 49.9592 27.2478 50.1471C27.1869 49.8966 27.1496 49.6226 27.1496 49.4926C27.1496 49.2205 27.3127 49 27.5139 49C27.7151 49 27.8782 49.2205 27.8782 49.4926Z" fill="#D8E0E3"/>
<path opacity="0.6" fill-rule="evenodd" clip-rule="evenodd" d="M12.1303 20.9286C12.1303 21.1628 12.0736 21.6448 11.98 22.0994C12.2963 21.7677 12.656 21.4523 12.8457 21.3232C13.2598 21.0415 13.7448 21.0482 13.9289 21.3381C14.1131 21.6281 13.9268 22.0915 13.5127 22.3733C13.3172 22.5063 12.8747 22.7323 12.4427 22.9033C12.8747 23.0744 13.3172 23.3004 13.5127 23.4334C13.9268 23.7151 14.1131 24.1785 13.9289 24.4685C13.7448 24.7585 13.2598 24.7652 12.8457 24.4834C12.656 24.3544 12.2963 24.039 11.98 23.7072C12.0736 24.1618 12.1303 24.6438 12.1303 24.8781C12.1303 25.3909 11.8585 25.8066 11.5232 25.8066C11.1879 25.8066 10.9161 25.3909 10.9161 24.8781C10.9161 24.6329 10.9782 24.1163 11.0797 23.6438C10.7501 23.9981 10.3561 24.3462 10.1543 24.4834C9.74022 24.7652 9.25524 24.7585 9.07104 24.4685C8.88684 24.1785 9.07319 23.7151 9.48725 23.4334C9.68275 23.3004 10.1252 23.0744 10.5573 22.9033C10.1252 22.7323 9.68275 22.5063 9.48725 22.3733C9.07319 22.0915 8.88684 21.6281 9.07104 21.3381C9.25524 21.0482 9.74022 21.0415 10.1543 21.3232C10.3561 21.4605 10.7501 21.8085 11.0797 22.1628C10.9782 21.6904 10.9161 21.1737 10.9161 20.9286C10.9161 20.4157 11.1879 20 11.5232 20C11.8585 20 12.1303 20.4157 12.1303 20.9286Z" fill="white"/>
<path opacity="0.54" fill-rule="evenodd" clip-rule="evenodd" d="M15.7722 12.9286C15.7722 13.1628 15.722 13.6449 15.6391 14.0995C15.9192 13.7677 16.2378 13.4523 16.4058 13.3232C16.7725 13.0415 17.202 13.0482 17.3652 13.3381C17.5283 13.6281 17.3633 14.0916 16.9966 14.3733C16.8234 14.5063 16.4316 14.7323 16.0489 14.9033C16.4316 15.0743 16.8234 15.3004 16.9966 15.4334C17.3633 15.7151 17.5283 16.1785 17.3652 16.4685C17.202 16.7585 16.7725 16.7651 16.4058 16.4834C16.2378 16.3543 15.9192 16.0389 15.6391 15.7072C15.722 16.1617 15.7722 16.6438 15.7722 16.8781C15.7722 17.3909 15.5315 17.8066 15.2345 17.8066C14.9376 17.8066 14.6969 17.3909 14.6969 16.8781C14.6969 16.6329 14.7519 16.1163 14.8418 15.6438C14.5499 15.9981 14.2009 16.3461 14.0222 16.4834C13.6555 16.7651 13.226 16.7585 13.0629 16.4685C12.8998 16.1785 13.0648 15.7151 13.4315 15.4334C13.6046 15.3004 13.9965 15.0743 14.3792 14.9033C13.9965 14.7323 13.6046 14.5063 13.4315 14.3733C13.0648 14.0916 12.8998 13.6281 13.0629 13.3381C13.226 13.0482 13.6555 13.0415 14.0222 13.3232C14.2009 13.4605 14.5499 13.8085 14.8418 14.1628C14.7519 13.6904 14.6969 13.1737 14.6969 12.9286C14.6969 12.4157 14.9376 12 15.2345 12C15.5315 12 15.7722 12.4157 15.7722 12.9286Z" fill="white"/>
</g>
</g>
</svg>
