<svg width="67" height="74" viewBox="0 0 67 74" fill="none" xmlns="http://www.w3.org/2000/svg">
<mask id="mask0_2562_1975" style="mask-type:alpha" maskUnits="userSpaceOnUse" x="0" y="0" width="67" height="74">
<rect width="67" height="74" rx="10" fill="#D9D9D9"/>
</mask>
<g mask="url(#mask0_2562_1975)">
<mask id="mask1_2562_1975" style="mask-type:alpha" maskUnits="userSpaceOnUse" x="0" y="0" width="67" height="74">
<rect width="67" height="74" rx="10" fill="white"/>
</mask>
<g mask="url(#mask1_2562_1975)">
<path d="M26.6477 41.2627C15.3765 69.4068 2.93926 63.9344 -4.83398 69.4068V-3.29878C21.0768 -5.64412 69.9446 -8.9276 58.1293 -3.29878C43.3601 3.73725 35.237 19.8151 26.6477 41.2627Z" fill="#D8E0E3"/>
<g filter="url(#filter0_f_2562_1975)">
<ellipse cx="20.8308" cy="23.0071" rx="20.8308" ry="23.0071" transform="matrix(-1 0 0 1 42.5386 5.23999)" fill="#FFD374"/>
</g>
<g opacity="0.5" filter="url(#filter1_f_2562_1975)">
<ellipse cx="15.3919" cy="17" rx="15.3919" ry="17" transform="matrix(-1 0 0 1 37.1216 11)" fill="#FFD374"/>
</g>
<g filter="url(#filter2_f_2562_1975)">
<ellipse cx="11.7703" cy="13" rx="11.7703" ry="13" transform="matrix(-1 0 0 1 33.5 15)" fill="#FFE599"/>
</g>
<g filter="url(#filter3_f_2562_1975)">
<ellipse cx="6.628" cy="7.32047" rx="6.628" ry="7.32047" transform="matrix(-1 0 0 1 28.3359 20.9279)" fill="#FFF8CE"/>
</g>
<path d="M42.7432 46.2025L45.6084 46.6772L43.0297 46.519L41.1673 45.8861L40.451 45.5696L40.7375 46.3608C40.642 46.6772 40.4224 47.3418 40.3078 47.4684C40.1645 47.6266 40.3078 47.6266 39.878 48.5759C39.5342 49.3354 40.0212 49.8418 40.3078 50L39.7347 49.8418C39.496 49.3143 39.133 48.1962 39.5915 47.943C40.0499 47.6899 40.26 46.9937 40.3078 46.6772L39.7347 45.2532L39.0184 43.3544H38.5886L37.4426 41.6139L37.156 38.1329L36.7263 38.6076L35.8667 40.1899L35.1504 42.2468L33.7178 44.3038L32.8582 47.1519L33.1447 44.3038L35.1504 41.4557L36.01 38.9241L37.156 37.6582L37.0128 35.1266L36.1532 35.443L35.5802 32.1203L34.8639 30.3797L33.7178 30.538L32.2852 30.8544L30.1363 30.3797L27.7009 30.538L25.1222 30.0633V32.4367L25.8385 33.3861L26.8413 34.1772L27.8441 33.3861L29.7065 32.9114V35.443L27.8441 40.3481L29.42 33.7025H28.4172L27.5576 34.019L27.2711 34.6519H26.4115L26.2683 35.6013L26.4115 37.0253L26.9846 38.4494L26.8413 39.7152L26.4115 37.9747L25.552 36.2342L25.9817 34.3354L25.1222 33.3861L24.4059 32.2785L24.1193 33.3861L23.2598 34.019L23.6896 33.2278L24.4059 30.538L24.5491 28.9557L20.8244 25.6329V25L22.1137 25.1582L24.6924 27.6899L25.552 29.4304H27.4143L28.2739 30.0633L29.42 29.7468L31.4256 30.0633L33.4313 29.9051L35.0071 29.4304L36.1532 30.8544V32.2785L37.0128 33.3861L37.8723 35.2848L37.7291 39.0823L37.8723 40.6646L38.3021 42.0886C38.4931 42.1413 38.9038 42.2785 39.0184 42.4051C39.133 42.5316 39.7347 44.1456 40.0212 44.9367L42.7432 46.2025Z" fill="#FFFBE7"/>
<path d="M39.33 10.3197L41.0965 7.91671L39.6246 10.1671L38.3341 11.6233L37.8057 12.1596L38.3085 12.1617C38.3954 12.3501 38.5674 12.7629 38.5606 12.9065C38.5521 13.0859 38.63 12.9581 38.8127 13.6512C38.9588 14.2058 39.4459 13.936 39.6711 13.7318L39.29 14.1918C38.9288 14.233 38.241 14.1924 38.3792 13.7007C38.5175 13.2089 38.3264 12.7943 38.2136 12.6485L37.2773 12.6958L36.0548 12.7163L35.821 13.0999L34.4342 13.5556L32.7515 12.6765L32.7259 13.2149L32.9525 14.4981L33.4652 15.8081L33.5883 17.7576L34.3701 19.4534L33.2766 18.2691L33.1181 15.5502L32.4751 13.9575L32.5432 12.5217L31.3548 11.8243L31.0261 12.6948L29.2569 12.123L28.1039 12.195L27.5499 13.2697L26.9096 14.6518L25.5326 16.4153L24.2774 18.641L22.6666 20.7882L23.7077 21.562L24.5138 21.2321L25.4062 20.5948L25.6046 19.4416L26.4093 17.6243L27.5198 18.4497L28.6585 21.7114L26.6005 18.138L26.0551 19.0333L25.7264 19.9037L25.8482 20.3659L25.3807 21.1332L25.7192 21.5706L26.4218 21.907L27.3581 21.8597L27.8354 22.4002L26.8382 22.2165L25.6072 22.4164L25.0081 21.4137L24.1242 21.8715L23.2487 22.1498L23.5788 22.7667L23.3889 23.7404L23.2756 23.0988L22.4853 21.5824L21.8691 20.9387L18.3857 23.1805L18.1081 22.9741L18.8788 21.8747L21.3918 20.3981L22.6228 20.1982L23.6357 18.5357L24.3808 17.9747L24.8654 16.8484L26.095 15.1612L27.1165 13.3192L27.7653 11.7576L29.0133 11.1988L29.638 11.6631L30.5914 11.2568L31.8917 11.1085L33.4796 12.4745L34.2515 12.8624L35.11 12.943C35.237 12.7897 35.5205 12.4678 35.6384 12.4067C35.7562 12.3457 36.7914 12.3347 37.2943 12.3369L39.33 10.3197Z" fill="#FFF6C1"/>
<path d="M23.147 52.2865L22.3681 54.1596L23.2118 52.5803L23.5459 51.2344L23.6357 50.6878L23.9525 51.1696C24.1547 51.2388 24.5864 51.3727 24.6948 51.3554C24.8303 51.3338 24.7788 51.4181 25.4372 51.5413C25.9639 51.6398 26.0574 52.1267 26.0383 52.3579L26.1605 51.9582C25.9665 51.609 25.5037 50.9528 25.2044 51.1221C24.9051 51.2915 24.4601 51.1394 24.275 51.0422L23.7255 50.1413L22.9755 48.9681L23.1302 48.7154L22.6188 47.3522L20.8746 45.8052L21.2812 45.7404L22.43 45.8615L23.7793 46.2547L25.3862 46.2267L27.2068 46.8489L25.5924 45.8897L23.3595 45.9414L21.7068 45.4445L20.6227 45.6173L19.3308 44.5306L19.808 44.1503L18.2508 42.4976L17.5849 41.3871L18.0812 40.7757L18.7645 40.0585L19.2856 38.6067L20.2457 37.2371L20.9215 35.5325L22.181 36.4724L22.4271 37.2696L22.4862 38.1726L21.7056 38.4491L20.7837 39.3565L22.1272 40.3589L25.4001 41.2059L21.3066 39.5012L21.6674 38.9114L22.1445 38.5312L22.5835 38.6133L22.8927 38.1078L23.448 38.3995L24.1522 39.0476L24.7017 39.9485L25.425 40.3655L24.656 39.4235L24.0416 38.2288L22.8794 37.7297L22.6848 36.8483L22.3547 35.9884L23.0456 36.2585L23.6907 36.0036L23.1162 35.9431L21.4311 35.2992L20.5399 34.757L20.1166 31.2506L19.7807 31L19.4008 31.8209L19.8166 34.34L20.431 35.5347L19.7611 36.63L19.7877 37.3861L19.2075 37.9349L18.6539 39.2397L17.8484 40.3566L17.0296 41.0955L17.373 42.3334L18.1287 42.8973L18.4072 43.8414L19.1056 45.0987L21.1723 46.5182L21.9604 47.229L22.5615 48.0456C22.5208 48.1789 22.4458 48.4747 22.4717 48.5922C22.4977 48.7097 23.1377 49.7027 23.4544 50.1845L23.147 52.2865Z" fill="#FFF6C1"/>
<path d="M18.8522 20.2881C14.0059 55.4626 -12.5684 56.5714 -22.2363 62.8002V-19.9541C9.98996 -22.6236 70.7688 -26.3608 56.0736 -19.9541C37.7046 -11.9456 22.236 -4.27124 18.8522 20.2881Z" fill="#DBDFDC"/>
<path d="M9.65246 16.9724C0.57637 38.1349 -10.0726 33.4732 -16.4355 37.5727V-16.8921C4.77422 -18.649 44.7758 -21.1087 35.1042 -16.8921C23.0146 -11.6213 18.2424 -3.0566 9.65246 16.9724Z" fill="#E9E9E9"/>
</g>
</g>
<defs>
<filter id="filter0_f_2562_1975" x="-18.6993" y="-14.3362" width="80.8141" height="85.1667" filterUnits="userSpaceOnUse" color-interpolation-filters="sRGB">
<feFlood flood-opacity="0" result="BackgroundImageFix"/>
<feBlend mode="normal" in="SourceGraphic" in2="BackgroundImageFix" result="shape"/>
<feGaussianBlur stdDeviation="9.78811" result="effect1_foregroundBlur_2562_1975"/>
</filter>
<filter id="filter1_f_2562_1975" x="2.33789" y="7" width="38.7837" height="42" filterUnits="userSpaceOnUse" color-interpolation-filters="sRGB">
<feFlood flood-opacity="0" result="BackgroundImageFix"/>
<feBlend mode="normal" in="SourceGraphic" in2="BackgroundImageFix" result="shape"/>
<feGaussianBlur stdDeviation="2" result="effect1_foregroundBlur_2562_1975"/>
</filter>
<filter id="filter2_f_2562_1975" x="5.95947" y="11" width="31.5405" height="34" filterUnits="userSpaceOnUse" color-interpolation-filters="sRGB">
<feFlood flood-opacity="0" result="BackgroundImageFix"/>
<feBlend mode="normal" in="SourceGraphic" in2="BackgroundImageFix" result="shape"/>
<feGaussianBlur stdDeviation="2" result="effect1_foregroundBlur_2562_1975"/>
</filter>
<filter id="filter3_f_2562_1975" x="11.0801" y="16.9279" width="21.2559" height="22.641" filterUnits="userSpaceOnUse" color-interpolation-filters="sRGB">
<feFlood flood-opacity="0" result="BackgroundImageFix"/>
<feBlend mode="normal" in="SourceGraphic" in2="BackgroundImageFix" result="shape"/>
<feGaussianBlur stdDeviation="2" result="effect1_foregroundBlur_2562_1975"/>
</filter>
</defs>
</svg>
